# Blender 5.1.1
# www.blender.org
mtllib building2Low.mtl
o building2
v -10.309251 0.453498 -12.025668
v -10.309251 87.300278 -12.025674
v -10.309251 87.300278 -22.309744
v -10.309251 0.453497 -22.309738
v 11.583926 87.300278 -22.309744
v 11.583926 0.453497 -22.309738
v 11.583929 87.300278 23.862503
v 11.583929 0.453501 23.862509
v 12.224075 0.453501 23.862509
v 12.224075 87.300278 23.862503
v -10.309248 87.300278 23.862505
v -10.309248 0.453501 23.862511
v 11.583928 87.300278 17.908520
v -10.309249 87.300278 17.908520
v 11.583927 87.300278 0.753373
v -10.309250 87.300278 0.753374
v -10.309249 87.300278 8.373361
v 11.583928 87.300278 8.373359
v 11.583927 0.453499 0.753379
v 11.583928 0.453500 8.373364
v -10.309249 0.453500 17.908525
v -10.309249 0.453500 8.373367
v 12.224073 0.453499 0.753379
v 12.224073 87.300278 0.753373
v 11.583926 87.300278 -12.025677
v -10.309250 0.453499 0.753381
v 11.583926 0.453498 -12.025670
v -10.717566 0.453498 -12.025668
v -10.717566 87.300278 -12.025674
v 11.583928 0.453500 17.908525
v 12.224074 0.453500 17.908525
v 12.224074 87.300278 17.908520
v 12.224072 0.453498 -12.025670
v 12.224072 87.300278 -12.025677
v -10.717566 0.453499 0.753381
v -10.717566 87.300278 0.753374
v -10.717564 0.453501 23.862511
v -10.717564 87.300278 23.862505
v -10.717565 87.300278 17.908520
v -10.717565 0.453500 17.908525
vn -0.8944 -0.0000 -0.4473
vn -0.2183 0.8729 -0.4363
vn -0.8164 0.4084 -0.4084
vn -0.4474 -0.0000 -0.8944
vn 0.3335 0.6666 -0.6666
vn 0.8943 -0.0000 -0.4474
vn -0.0000 0.5548 0.8320
vn -0.0000 -0.0000 1.0000
vn 0.4474 -0.0000 0.8943
vn 0.6666 0.6666 0.3335
vn -0.0000 0.7999 0.6001
vn 0.3651 0.9129 -0.1827
vn 0.2183 0.8729 0.4363
vn -0.3651 0.9129 0.1827
vn -0.7071 0.7071 -0.0000
vn 0.7071 0.7071 -0.0000
vn 0.8944 -0.0000 0.4473
vn 1.0000 -0.0000 -0.0000
vn -1.0000 -0.0000 -0.0000
vn 0.4474 0.0002 0.8943
vn 0.6667 0.6666 0.3335
vn -0.4473 -0.0000 0.8944
vn 0.4473 -0.0000 -0.8944
vn -0.4473 -0.0000 -0.8944
vn -0.6666 0.6666 -0.3335
vn 0.8944 -0.0000 -0.4473
vn 0.4083 0.4084 -0.8164
vn -0.8943 -0.0000 0.4474
vn -0.4085 0.4082 0.8164
vn -0.8944 -0.0000 0.4473
vn -0.4083 0.4084 0.8164
vn -0.4473 0.0001 -0.8944
vt 0.494171 0.618899
vt 0.494171 0.000000
vt 0.567459 0.000000
vt 0.567459 0.618899
vt 0.000000 0.618899
vt 0.000000 0.000000
vt 0.156018 0.000000
vt 0.156018 0.618899
vt 0.974675 0.000000
vt 0.974675 0.618899
vt 0.970113 0.618899
vt 0.970113 0.000000
vt 0.312036 0.000000
vt 0.312036 0.618899
vt 0.286609 0.774917
vt 0.286609 0.618899
vt 0.329039 0.618899
vt 0.329039 0.774917
vt 0.232306 0.774917
vt 0.232306 0.618899
vt 0.776648 0.618899
vt 0.776648 0.000000
vt 0.830951 0.000000
vt 0.830951 0.618899
vt 0.640747 0.618899
vt 0.640747 0.000000
vt 0.708697 0.000000
vt 0.708697 0.618899
vt 0.979237 0.000000
vt 0.979237 0.618899
vt 0.091068 0.618899
vt 0.091068 0.774917
vt 0.000000 0.774917
vt 0.885253 0.000000
vt 0.885253 0.618899
vt 0.164355 0.618899
vt 0.164355 0.774917
vt 0.991271 0.000000
vt 0.991271 0.618899
vt 0.988361 0.618899
vt 0.988361 0.000000
vt 0.927683 0.618899
vt 0.927683 0.000000
vt 0.403104 0.000000
vt 0.403104 0.618899
vt 0.983799 0.000000
vt 0.983799 0.618899
vt 0.486910 0.709966
vt 0.486910 0.618899
vt 0.491472 0.618899
vt 0.491472 0.709966
vt 0.615889 0.661329
vt 0.615889 0.618899
vt 0.620451 0.618899
vt 0.620451 0.661329
vt 0.994181 0.000000
vt 0.994181 0.618899
vt 0.641402 0.618899
vt 0.641402 0.661329
vt 0.638492 0.661329
vt 0.638492 0.618899
vt 0.997090 0.000000
vt 0.997090 0.618899
vt 1.000000 0.000000
vt 1.000000 0.618899
vt 0.597847 0.618899
vt 0.597847 0.709966
vt 0.594937 0.709966
vt 0.594937 0.618899
s 1
usemtl material_0
f 1/1/1 2/2/2 3/3/3
f 1/1/1 3/3/3 4/4/4
f 4/5/4 3/6/3 5/7/5
f 4/5/4 5/7/5 6/8/6
f 7/9/7 8/10/8 9/11/9
f 7/9/7 9/11/9 10/12/10
f 8/8/8 7/7/7 11/13/11
f 8/8/8 11/13/11 12/14/8
f 13/15/12 14/16/2 11/17/11
f 13/15/12 11/17/11 7/18/7
f 15/16/13 16/15/14 17/19/15
f 15/16/13 17/19/15 18/20/16
f 19/21/17 15/22/13 18/23/16
f 19/21/17 18/23/16 20/24/18
f 21/25/1 14/26/2 17/27/15
f 21/25/1 17/27/15 22/28/19
f 15/29/13 19/30/17 23/10/20
f 15/29/13 23/10/20 24/9/21
f 25/31/12 2/32/2 16/33/14
f 25/31/12 16/33/14 15/5/13
f 22/24/19 17/23/15 16/34/14
f 22/24/19 16/34/14 26/35/22
f 5/32/5 3/31/3 2/36/2
f 5/32/5 2/36/2 25/37/12
f 6/4/6 5/3/5 25/26/12
f 6/4/6 25/26/12 27/25/23
f 2/38/2 1/39/1 28/40/24
f 2/38/2 28/40/24 29/41/25
f 18/20/16 17/19/15 14/37/2
f 18/20/16 14/37/2 13/36/12
f 20/28/18 18/27/16 13/22/12
f 20/28/18 13/22/12 30/21/23
f 31/42/26 32/43/27 10/12/10
f 31/42/26 10/12/10 9/11/9
f 33/14/6 34/13/27 24/44/21
f 33/14/6 24/44/21 23/45/20
f 27/30/23 25/29/12 34/46/27
f 27/30/23 34/46/27 33/47/6
f 25/48/12 15/49/13 24/50/21
f 25/48/12 24/50/21 34/51/27
f 30/47/23 13/46/12 32/41/27
f 30/47/23 32/41/27 31/40/26
f 13/52/12 7/53/7 10/54/10
f 13/52/12 10/54/10 32/55/27
f 35/45/28 36/44/29 29/2/25
f 35/45/28 29/2/25 28/1/24
f 37/35/30 38/34/31 39/43/25
f 37/35/30 39/43/25 40/42/32
f 14/56/2 21/57/1 40/39/32
f 14/56/2 40/39/32 39/38/25
f 11/58/11 14/59/2 39/60/25
f 11/58/11 39/60/25 38/61/31
f 26/57/22 16/56/14 36/62/29
f 26/57/22 36/62/29 35/63/28
f 12/63/8 11/62/11 38/64/31
f 12/63/8 38/64/31 37/65/30
f 16/66/14 2/67/2 29/68/25
f 16/66/14 29/68/25 36/69/29
