####
#
# OBJ File Generated by Meshlab
#
####
# Object building4.obj
#
# Vertices: 436
# Faces: 852
#
####
mtllib ./building4.obj.mtl

vn 0.6396022 0.4264015 -0.6396022
v 26.8455486 25.2514992 -7.4521379
vn -0.6882472 0.2294157 -0.6882472
v -25.8377953 25.2514992 -7.4521370
vn -0.6396022 0.4264015 0.6396022
v -25.8377953 25.2514992 5.9351258
vn 0.6882472 0.2294157 0.6882472
v 26.8455486 25.2514992 5.9351258
vn -0.5773503 0.5773503 -0.5773503
v -25.8377953 23.1156540 -7.4521370
vn -0.5773503 0.5773503 0.5773503
v -25.8377953 23.1156540 5.9351258
vn 0.5773503 0.5773503 0.5773503
v 26.8455486 23.1156540 5.9351258
vn 0.5773503 0.5773503 -0.5773503
v 26.8455486 23.1156540 -7.4521379
vn 0.5773503 0.5773503 -0.5773503
v 26.8455486 14.9249926 -7.4521379
vn 0.5773503 -0.5773503 -0.5773503
v 26.8455486 14.1026402 -7.4521379
vn 0.6666667 -0.3333333 -0.6666667
v 26.8455486 14.1026402 -7.6518049
vn 0.4082483 0.8164966 -0.4082483
v 26.8455486 14.9249926 -7.6518049
vn -0.5773503 0.5773503 0.5773503
v -25.8377953 1.4184430 5.9351258
vn 0.5773503 0.5773503 0.5773503
v 26.8455486 1.4184430 5.9351258
vn 0.5773493 -0.5773513 0.5773503
v 26.8455486 3.0787220 5.9351258
vn -0.5773503 -0.5773512 0.5773494
v -25.8377953 3.0787220 5.9351258
vn -0.5773503 0.5773503 0.5773503
v -25.8377953 4.1013460 5.9351258
vn 0.5773503 0.5773503 0.5773503
v 26.8455486 4.1013460 5.9351258
vn 0.5773503 -0.5773503 0.5773503
v 26.8455486 5.8057189 5.9351258
vn -0.5773503 -0.5773503 0.5773503
v -25.8377953 5.8057189 5.9351258
vn -0.5773503 -0.5773503 0.5773503
v -25.8377953 22.3160267 5.9351258
vn 0.5773503 -0.5773503 0.5773503
v 26.8455486 22.3160267 5.9351258
vn 0.4082483 -0.8164966 0.4082483
v 26.8455486 22.3160267 6.1347928
vn -0.6666667 -0.3333333 0.6666667
v -25.8377953 22.3160267 6.1347942
vn -0.5773503 0.5773503 0.5773503
v -25.8377953 12.2932529 5.9351258
vn 0.5773503 0.5773503 0.5773503
v 26.8455486 12.2932539 5.9351258
vn 0.5773503 -0.5773503 0.5773503
v 26.8455486 14.1026421 5.9351258
vn -0.5773503 -0.5773503 0.5773503
v -25.8377953 14.1026402 5.9351258
vn -0.5773503 0.5773503 0.5773503
v -25.8377953 14.9249926 5.9351258
vn 0.5773503 0.5773503 0.5773503
v 26.8455486 14.9249945 5.9351258
vn 0.5773503 -0.5773503 0.5773503
v 26.8455486 16.9186707 5.9351258
vn -0.5773503 -0.5773503 0.5773503
v -25.8377953 16.9186707 5.9351258
vn -0.5773503 0.5773503 0.5773503
v -25.8377953 17.6924210 5.9351258
vn 0.5773503 0.5773503 0.5773503
v 26.8455486 17.6924229 5.9351258
vn 0.5773503 -0.5773503 0.5773503
v 26.8455486 19.7007885 5.9351258
vn -0.5773503 -0.5773503 0.5773503
v -25.8377953 19.7007885 5.9351258
vn -0.5773503 -0.5773503 0.5773503
v -25.8377953 8.6502113 5.9351258
vn 0.5773503 -0.5773503 0.5773503
v 26.8455486 8.6502113 5.9351258
vn 0.4082483 -0.8164966 0.4082483
v 26.8455486 8.6502113 6.1347928
vn -0.6666667 -0.3333333 0.6666667
v -25.8377953 8.6502113 6.1347942
vn 0.5773503 0.5773503 -0.5773503
v 26.8455486 1.4184430 -7.4521379
vn -0.5773503 0.5773503 -0.5773503
v -25.8377953 1.4184430 -7.4521370
vn -0.5773493 -0.5773513 -0.5773503
v -25.8377953 3.0787220 -7.4521370
vn 0.5773503 -0.5773512 -0.5773494
v 26.8455486 3.0787220 -7.4521379
vn 0.5773503 0.5773503 -0.5773503
v 26.8455486 4.1013460 -7.4521379
vn -0.5773503 0.5773503 -0.5773503
v -25.8377953 4.1013460 -7.4521370
vn -0.5773503 -0.5773503 -0.5773503
v -25.8377953 5.8057189 -7.4521370
vn 0.5773503 -0.5773503 -0.5773503
v 26.8455486 5.8057189 -7.4521379
vn 0.6666667 0.3333333 0.6666667
v 26.8455486 23.1156540 6.1347928
vn 0.5773503 0.5773503 -0.5773503
v 26.8455486 12.2932529 -7.4521379
vn -0.5773503 0.5773503 -0.5773503
v -25.8377953 12.2932539 -7.4521370
vn -0.5773503 -0.5773503 -0.5773503
v -25.8377953 14.1026421 -7.4521370
vn -0.5773503 0.5773503 -0.5773503
v -25.8377953 14.9249945 -7.4521370
vn -0.5773503 -0.5773503 -0.5773503
v -25.8377953 16.9186707 -7.4521370
vn 0.5773503 -0.5773503 -0.5773503
v 26.8455486 16.9186707 -7.4521379
vn 0.5773503 0.5773503 -0.5773503
v 26.8455486 17.6924210 -7.4521379
vn -0.5773503 0.5773503 -0.5773503
v -25.8377953 17.6924229 -7.4521370
vn -0.5773503 -0.5773503 -0.5773503
v -25.8377953 19.7007885 -7.4521370
vn 0.5773503 -0.5773503 -0.5773503
v 26.8455486 19.7007885 -7.4521379
vn 0.6666667 -0.3333333 0.6666667
v 27.0362644 22.3160267 5.9351258
vn 0.4082483 0.8164966 0.4082483
v 27.0362644 23.1156540 5.9351258
vn 0.4082483 -0.8164966 -0.4082483
v 27.0362644 5.8057189 -7.4521379
vn 0.6666667 -0.3333333 0.6666667
v 27.0362644 5.8057189 5.9351258
vn -0.6666667 0.3333333 0.6666667
v -26.0285110 14.9249926 5.9351258
vn -0.4082483 -0.8164966 0.4082482
v -26.0285110 14.1026402 5.9351258
vn -0.5773503 -0.5773503 -0.5773503
v -25.8377953 22.3160267 -7.4521370
vn -0.6666667 -0.3333333 -0.6666667
v -26.0285110 22.3160267 -7.4521370
vn -0.4082483 0.8164966 -0.4082483
v -26.0285110 23.1156540 -7.4521370
vn 0.5773503 0.5773503 -0.5773503
v 26.8455486 6.8224659 -7.4521379
vn 0.6666667 0.3333333 -0.6666667
v 27.0362644 6.8224659 -7.4521379
vn 0.4082449 -0.8164980 -0.4082490
v 27.0362644 3.0787210 -7.4521379
vn 0.6666657 -0.3333337 0.6666674
v 27.0362644 3.0787210 5.9351258
vn 0.5773503 -0.5773503 -0.5773503
v 26.8455486 8.6502113 -7.4521379
vn -0.5773503 -0.5773503 -0.5773503
v -25.8377953 8.6502113 -7.4521370
vn -0.4082483 -0.8164966 -0.4082483
v -25.8377953 8.6502113 -7.6518030
vn 0.6666667 -0.3333333 -0.6666667
v 26.8455486 8.6502113 -7.6518049
vn -0.6666667 -0.3333333 0.6666667
v -25.8377953 14.1026402 6.1347942
vn -0.4082483 0.8164966 0.4082483
v -25.8377953 14.9249926 6.1347942
vn -0.5773503 0.5773503 -0.5773503
v -25.8377953 6.8224659 -7.4521370
vn -0.5773503 0.5773503 0.5773503
v -25.8377953 6.8224659 5.9351258
vn 0.5773503 0.5773503 0.5773503
v 26.8455486 6.8224659 5.9351258
vn 0.4082483 -0.8164966 -0.4082483
v 27.0362644 8.6502113 -7.4521379
vn 0.6666667 -0.3333333 0.6666667
v 27.0362644 8.6502113 5.9351258
vn -0.6666667 0.3333333 -0.6666667
v -25.8377953 23.1156540 -7.6518030
vn -0.4082483 -0.8164966 -0.4082483
v -25.8377953 22.3160267 -7.6518030
vn -0.5773503 0.5773503 -0.5773503
v -25.8377953 9.5889034 -7.4521370
vn -0.5773503 0.5773503 0.5773503
v -25.8377953 9.5889034 5.9351258
vn -0.5773503 -0.5773503 0.5773503
v -25.8377953 11.4646969 5.9351258
vn -0.5773503 -0.5773503 -0.5773503
v -25.8377953 11.4646978 -7.4521370
vn 0.5773503 0.5773503 0.5773503
v 26.8455486 9.5889034 5.9351258
vn 0.5773503 0.5773503 -0.5773503
v 26.8455486 9.5889034 -7.4521379
vn 0.5773503 -0.5773503 -0.5773503
v 26.8455486 11.4646969 -7.4521379
vn 0.5773503 -0.5773503 0.5773503
v 26.8455486 11.4646978 5.9351258
vn 0.4082483 0.8164966 0.4082483
v 27.0362644 1.4184430 5.9351258
vn 0.6666667 0.3333333 -0.6666667
v 27.0362644 1.4184430 -7.4521379
vn -0.4082483 -0.8164966 0.4082483
v -26.0285110 8.6502113 5.9351258
vn -0.6666667 -0.3333333 -0.6666667
v -26.0285110 8.6502113 -7.4521370
vn 0.6666667 -0.3333333 -0.6666667
v 26.8455486 5.8057189 -7.6518049
vn 0.4082483 0.8164966 -0.4082483
v 26.8455486 6.8224659 -7.6518049
vn -0.4082483 0.8164966 0.4082483
v -25.8377953 12.2932529 6.1347942
vn 0.6666667 0.3333333 0.6666667
v 26.8455486 12.2932539 6.1347928
vn 0.4082483 0.8164966 0.4082483
v 27.0362644 9.5889034 5.9351258
vn 0.4082483 0.8164966 0.4082482
v 27.0362644 12.2932539 5.9351258
vn 0.6666667 0.3333333 -0.6666667
v 27.0362644 12.2932529 -7.4521379
vn 0.4082483 0.8164966 -0.4082483
v 26.8455486 12.2932529 -7.6518049
vn -0.6666667 0.3333333 -0.6666667
v -25.8377953 12.2932539 -7.6518030
vn -0.5773503 0.5773503 0.5773503
v -25.8377953 20.4556255 5.9351258
vn -0.5773503 0.5773503 -0.5773503
v -25.8377953 20.4556255 -7.4521370
vn -0.4082483 0.8164966 -0.4082483
v -26.0285110 20.4556255 -7.4521370
vn -0.6666667 0.3333333 0.6666667
v -26.0285110 20.4556255 5.9351258
vn -0.4082483 -0.8164966 -0.4082483
v -25.8377953 19.7007885 -7.6518030
vn 0.6666667 -0.3333333 -0.6666667
v 26.8455486 19.7007885 -7.6518049
vn 0.6666667 0.3333333 0.6666667
v 26.8455486 9.5889034 6.1347928
vn 0.4472136 0.0000000 -0.8944272
v 26.8455486 0.5190830 -7.4521379
vn 0.7071068 0.0000000 -0.7071068
v 26.8455486 0.5190830 -7.6518049
vn 0.4082483 0.8164966 -0.4082483
v 26.8455486 1.4184430 -7.6518049
vn -0.4082483 -0.8164966 -0.4082483
v -25.8377953 16.9186707 -7.6518030
vn 0.6666667 -0.3333333 -0.6666667
v 26.8455486 16.9186707 -7.6518049
vn 0.7071068 0.0000000 -0.7071068
v 27.0362644 0.5190830 -7.4521379
vn -0.4082483 0.8164966 -0.4082482
v -26.0285110 12.2932539 -7.4521370
vn -0.6666667 0.3333333 0.6666667
v -26.0285110 12.2932529 5.9351258
vn 0.5773503 0.5773503 0.5773503
v 26.8455486 20.4556255 5.9351258
vn 0.5773503 0.5773503 -0.5773503
v 26.8455486 20.4556255 -7.4521379
vn 0.5773503 -0.5773503 -0.5773503
v 26.8455486 22.3160267 -7.4521379
vn -0.4082483 -0.8164966 -0.4082483
v -25.8377953 14.1026421 -7.6518030
vn -0.6666667 0.3333333 -0.6666667
v -25.8377953 9.5889034 -7.6518030
vn 0.4082483 0.8164966 0.4082483
v 27.0362644 20.4556255 5.9351258
vn 0.6666667 0.3333333 -0.6666667
v 27.0362644 20.4556255 -7.4521379
vn -0.4082483 0.8164966 -0.4082483
v -26.0285110 9.5889034 -7.4521370
vn -0.7071068 0.0000000 0.7071068
v -25.8377953 0.5190830 6.1347942
vn 0.7071068 0.0000000 0.7071068
v 26.8455486 0.5190830 6.1347928
vn 0.6666667 0.3333333 0.6666667
v 26.8455486 1.4184430 6.1347928
vn -0.4082483 0.8164966 0.4082483
v -25.8377953 1.4184430 6.1347942
vn -0.6666667 -0.3333333 0.6666667
v -25.8377953 5.8057189 6.1347942
vn 0.4082483 -0.8164966 0.4082483
v 26.8455486 5.8057189 6.1347928
vn 0.6666667 0.3333333 0.6666667
v 26.8455486 6.8224659 6.1347928
vn -0.4082483 0.8164966 0.4082483
v -25.8377953 6.8224659 6.1347942
vn -0.7071068 0.0000000 -0.7071068
v -25.8377953 0.5190830 -7.6518030
vn -0.6666667 0.3333333 -0.6666667
v -25.8377953 1.4184430 -7.6518030
vn -0.4082483 -0.8164966 -0.4082483
v -25.8377953 5.8057189 -7.6518030
vn -0.6666667 0.3333333 -0.6666667
v -25.8377953 6.8224659 -7.6518030
vn 0.6666674 -0.3333337 -0.6666659
v 26.8455486 3.0787210 -7.6518049
vn -0.4082490 -0.8164979 -0.4082451
v -25.8377953 3.0787210 -7.6518030
vn -0.6666667 0.3333333 -0.6666667
v -25.8377953 4.1013460 -7.6518030
vn 0.4082483 0.8164966 -0.4082483
v 26.8455486 4.1013460 -7.6518049
vn -0.6666674 -0.3333337 0.6666659
v -25.8377953 3.0787210 6.1347942
vn 0.4082490 -0.8164979 0.4082451
v 26.8455486 3.0787210 6.1347928
vn 0.6666667 0.3333333 0.6666667
v 26.8455486 4.1013460 6.1347928
vn -0.4082483 0.8164966 0.4082483
v -25.8377953 4.1013460 6.1347942
vn 0.4082483 0.8164966 -0.4082483
v 26.8455486 9.5889034 -7.6518049
vn -0.4082483 0.8164966 0.4082483
v -25.8377953 9.5889034 6.1347942
vn 0.6666666 -0.3333333 -0.6666667
v 26.8455486 11.4646969 -7.6518049
vn -0.4082483 -0.8164966 -0.4082483
v -25.8377953 11.4646978 -7.6518030
vn -0.6666667 -0.3333333 0.6666667
v -25.8377953 11.4646969 6.1347942
vn 0.4082483 -0.8164966 0.4082483
v 26.8455486 11.4646978 6.1347928
vn -0.6666667 0.3333333 -0.6666667
v -25.8377953 14.9249945 -7.6518030
vn 0.4082483 -0.8164966 0.4082483
v 26.8455486 14.1026421 6.1347928
vn 0.6666667 0.3333333 0.6666667
v 26.8455486 14.9249945 6.1347928
vn -0.6666667 0.3333333 -0.6666667
v -25.8377953 17.6924229 -7.6518030
vn 0.4082483 0.8164966 -0.4082483
v 26.8455486 17.6924210 -7.6518049
vn -0.6666667 -0.3333333 0.6666667
v -25.8377953 16.9186707 6.1347942
vn 0.4082483 -0.8164966 0.4082483
v 26.8455486 16.9186707 6.1347928
vn 0.6666667 0.3333333 0.6666667
v 26.8455486 17.6924229 6.1347928
vn -0.4082483 0.8164966 0.4082483
v -25.8377953 17.6924210 6.1347942
vn -0.6666667 -0.3333333 0.6666667
v -25.8377953 19.7007885 6.1347942
vn 0.4082483 -0.8164966 0.4082483
v 26.8455486 19.7007885 6.1347928
vn 0.6666667 0.3333333 0.6666667
v 26.8455486 20.4556255 6.1347928
vn -0.4082483 0.8164966 0.4082483
v -25.8377953 20.4556255 6.1347942
vn -0.6666667 0.3333333 -0.6666667
v -25.8377953 20.4556255 -7.6518030
vn 0.4082483 0.8164966 -0.4082483
v 26.8455486 20.4556255 -7.6518049
vn -0.4082483 0.8164966 0.4082483
v -25.8377953 23.1156540 6.1347942
vn 0.6666667 -0.3333333 -0.6666667
v 26.8455486 22.3160267 -7.6518049
vn 0.4082483 0.8164966 -0.4082483
v 26.8455486 23.1156540 -7.6518049
vn -0.8944272 0.0000000 -0.4472136
v -25.8377953 0.5190830 -7.4521370
vn 0.8944272 0.0000000 0.4472136
v 26.8455486 0.5190830 5.9351258
vn -0.4472136 0.0000000 0.8944272
v -25.8377953 0.5190830 5.9351258
vn 0.7071068 0.0000000 0.7071068
v 27.0362644 0.5190830 5.9351258
vn 0.4082483 0.8164966 0.4082483
v 27.0362644 6.8224659 5.9351258
vn -0.7071068 0.0000000 -0.7071068
v -26.0285110 0.5190830 -7.4521370
vn -0.7071068 0.0000000 0.7071068
v -26.0285110 0.5190830 5.9351258
vn -0.6666667 0.3333333 0.6666667
v -26.0285110 1.4184430 5.9351258
vn -0.4082483 0.8164966 -0.4082483
v -26.0285110 1.4184430 -7.4521370
vn -0.6666667 -0.3333333 -0.6666667
v -26.0285110 5.8057189 -7.4521370
vn -0.4082483 -0.8164966 0.4082483
v -26.0285110 5.8057189 5.9351258
vn -0.6666667 0.3333333 0.6666667
v -26.0285110 6.8224659 5.9351258
vn -0.4082483 0.8164966 -0.4082483
v -26.0285110 6.8224659 -7.4521370
vn -0.6666657 -0.3333337 -0.6666674
v -26.0285110 3.0787210 -7.4521370
vn -0.4082449 -0.8164980 0.4082490
v -26.0285110 3.0787210 5.9351258
vn -0.6666667 0.3333333 0.6666667
v -26.0285110 4.1013460 5.9351258
vn -0.4082483 0.8164966 -0.4082483
v -26.0285110 4.1013460 -7.4521370
vn 0.6666667 0.3333333 -0.6666667
v 27.0362644 4.1013460 -7.4521379
vn 0.4082483 0.8164966 0.4082483
v 27.0362644 4.1013460 5.9351258
vn -0.6666667 0.3333333 0.6666667
v -26.0285110 9.5889034 5.9351258
vn 0.6666667 0.3333333 -0.6666667
v 27.0362644 9.5889034 -7.4521379
vn -0.6666667 -0.3333333 -0.6666667
v -26.0285110 11.4646978 -7.4521370
vn -0.4082483 -0.8164966 0.4082482
v -26.0285110 11.4646969 5.9351258
vn 0.6666667 -0.3333333 0.6666667
v 27.0362644 11.4646978 5.9351258
vn 0.4082483 -0.8164966 -0.4082482
v 27.0362644 11.4646969 -7.4521379
vn -0.6666667 -0.3333333 -0.6666667
v -26.0285110 14.1026421 -7.4521370
vn -0.4082483 0.8164967 -0.4082482
v -26.0285110 14.9249945 -7.4521370
vn 0.6666667 -0.3333333 0.6666667
v 27.0362644 14.1026421 5.9351258
vn 0.4082483 -0.8164966 -0.4082482
v 27.0362644 14.1026402 -7.4521379
vn 0.6666667 0.3333333 -0.6666667
v 27.0362644 14.9249926 -7.4521379
vn 0.4082483 0.8164967 0.4082482
v 27.0362644 14.9249945 5.9351258
vn -0.6666667 -0.3333333 -0.6666667
v -26.0285110 16.9186707 -7.4521370
vn -0.4082483 -0.8164966 0.4082483
v -26.0285110 16.9186707 5.9351258
vn -0.6666667 0.3333333 0.6666667
v -26.0285110 17.6924210 5.9351258
vn -0.4082483 0.8164967 -0.4082482
v -26.0285110 17.6924229 -7.4521370
vn 0.6666667 -0.3333333 0.6666667
v 27.0362644 16.9186707 5.9351258
vn 0.4082483 -0.8164966 -0.4082483
v 27.0362644 16.9186707 -7.4521379
vn 0.6666667 0.3333333 -0.6666667
v 27.0362644 17.6924210 -7.4521379
vn 0.4082483 0.8164966 0.4082482
v 27.0362644 17.6924229 5.9351258
vn 0.6666667 -0.3333333 0.6666667
v 27.0362644 19.7007885 5.9351258
vn 0.4082483 -0.8164966 -0.4082483
v 27.0362644 19.7007885 -7.4521379
vn -0.6666667 -0.3333333 -0.6666667
v -26.0285110 19.7007885 -7.4521370
vn -0.4082483 -0.8164966 0.4082483
v -26.0285110 19.7007885 5.9351258
vn 0.4082483 -0.8164966 -0.4082483
v 27.0362644 22.3160267 -7.4521379
vn 0.6666667 0.3333333 -0.6666667
v 27.0362644 23.1156540 -7.4521379
vn -0.4082483 -0.8164966 0.4082483
v -26.0285110 22.3160267 5.9351258
vn -0.6666667 0.3333333 0.6666667
v -26.0285110 23.1156540 5.9351258
vn 0.6666667 0.6666667 -0.3333333
v 26.8455486 49.9839211 -7.4521379
vn -0.4082483 0.4082483 -0.8164966
v -25.8377953 49.9839211 -7.4521370
vn -0.6666667 0.6666667 0.3333333
v -25.8377953 49.9839211 5.9351258
vn 0.4082483 0.4082483 0.8164966
v 26.8455486 49.9839211 5.9351258
vn -0.5773503 0.5773503 -0.5773503
v -25.8377953 47.8480721 -7.4521370
vn -0.5773503 0.5773503 0.5773503
v -25.8377953 47.8480721 5.9351258
vn 0.5773503 0.5773503 0.5773503
v 26.8455486 47.8480721 5.9351258
vn 0.5773503 0.5773503 -0.5773503
v 26.8455486 47.8480721 -7.4521379
vn 0.5773503 0.5773503 -0.5773503
v 26.8455486 39.6574135 -7.4521379
vn 0.5773503 -0.5773503 -0.5773503
v 26.8455486 38.8350601 -7.4521379
vn 0.6666667 -0.3333333 -0.6666667
v 26.8455486 38.8350601 -7.6518049
vn 0.4082483 0.8164966 -0.4082483
v 26.8455486 39.6574135 -7.6518049
vn -0.5773515 0.5773496 0.5773497
v -25.8377953 26.1508598 5.9351258
vn 0.5773510 0.5773490 0.5773509
v 26.8455486 26.1508617 5.9351258
vn 0.5773503 -0.5773503 0.5773503
v 26.8455486 27.8111382 5.9351258
vn -0.5773503 -0.5773503 0.5773503
v -25.8377953 27.8111382 5.9351258
vn -0.5773503 0.5773503 0.5773503
v -25.8377953 28.8337631 5.9351258
vn 0.5773503 0.5773503 0.5773503
v 26.8455486 28.8337631 5.9351258
vn 0.5773503 -0.5773503 0.5773503
v 26.8455486 30.5381374 5.9351258
vn -0.5773503 -0.5773503 0.5773503
v -25.8377953 30.5381374 5.9351258
vn -0.5773503 -0.5773503 0.5773503
v -25.8377953 47.0484467 5.9351258
vn 0.5773503 -0.5773503 0.5773503
v 26.8455486 47.0484467 5.9351258
vn 0.4082483 -0.8164966 0.4082483
v 26.8455486 47.0484467 6.1347928
vn -0.6666667 -0.3333333 0.6666667
v -25.8377953 47.0484467 6.1347942
vn -0.5773503 0.5773503 0.5773503
v -25.8377953 37.0256729 5.9351258
vn 0.5773503 0.5773503 0.5773503
v 26.8455486 37.0256729 5.9351258
vn 0.5773503 -0.5773503 0.5773503
v 26.8455486 38.8350601 5.9351258
vn -0.5773503 -0.5773503 0.5773503
v -25.8377953 38.8350601 5.9351258
vn -0.5773503 0.5773503 0.5773503
v -25.8377953 39.6574135 5.9351258
vn 0.5773503 0.5773503 0.5773503
v 26.8455486 39.6574135 5.9351258
vn 0.5773503 -0.5773503 0.5773503
v 26.8455486 41.6510887 5.9351258
vn -0.5773503 -0.5773503 0.5773503
v -25.8377953 41.6510887 5.9351258
vn -0.5773503 0.5773503 0.5773503
v -25.8377953 42.4248390 5.9351258
vn 0.5773503 0.5773503 0.5773503
v 26.8455486 42.4248428 5.9351258
vn 0.5773503 -0.5773503 0.5773503
v 26.8455486 44.4332085 5.9351258
vn -0.5773503 -0.5773503 0.5773503
v -25.8377953 44.4332085 5.9351258
vn -0.5773503 -0.5773503 0.5773503
v -25.8377953 33.3826294 5.9351258
vn 0.5773503 -0.5773503 0.5773503
v 26.8455486 33.3826294 5.9351258
vn 0.4082483 -0.8164966 0.4082483
v 26.8455486 33.3826294 6.1347928
vn -0.6666667 -0.3333333 0.6666667
v -25.8377953 33.3826294 6.1347942
vn 0.5773515 0.5773496 -0.5773497
v 26.8455486 26.1508598 -7.4521379
vn -0.5773510 0.5773490 -0.5773509
v -25.8377953 26.1508617 -7.4521370
vn -0.5773503 -0.5773503 -0.5773503
v -25.8377953 27.8111382 -7.4521370
vn 0.5773503 -0.5773503 -0.5773503
v 26.8455486 27.8111382 -7.4521379
vn 0.5773503 0.5773503 -0.5773503
v 26.8455486 28.8337631 -7.4521379
vn -0.5773503 0.5773503 -0.5773503
v -25.8377953 28.8337631 -7.4521370
vn -0.5773503 -0.5773503 -0.5773503
v -25.8377953 30.5381374 -7.4521370
vn 0.5773503 -0.5773503 -0.5773503
v 26.8455486 30.5381374 -7.4521379
vn 0.6666667 0.3333333 0.6666667
v 26.8455486 47.8480721 6.1347928
vn 0.5773503 0.5773503 -0.5773503
v 26.8455486 37.0256729 -7.4521379
vn -0.5773503 0.5773503 -0.5773503
v -25.8377953 37.0256729 -7.4521370
vn -0.5773503 -0.5773503 -0.5773503
v -25.8377953 38.8350601 -7.4521370
vn -0.5773503 0.5773503 -0.5773503
v -25.8377953 39.6574135 -7.4521370
vn -0.5773503 -0.5773503 -0.5773503
v -25.8377953 41.6510887 -7.4521370
vn 0.5773503 -0.5773503 -0.5773503
v 26.8455486 41.6510887 -7.4521379
vn 0.5773503 0.5773503 -0.5773503
v 26.8455486 42.4248390 -7.4521379
vn -0.5773503 0.5773503 -0.5773503
v -25.8377953 42.4248428 -7.4521370
vn -0.5773503 -0.5773503 -0.5773503
v -25.8377953 44.4332085 -7.4521370
vn 0.5773503 -0.5773503 -0.5773503
v 26.8455486 44.4332085 -7.4521379
vn 0.6666667 -0.3333333 0.6666667
v 27.0362644 47.0484467 5.9351258
vn 0.4082483 0.8164966 0.4082483
v 27.0362644 47.8480721 5.9351258
vn 0.4082483 -0.8164966 -0.4082483
v 27.0362644 30.5381374 -7.4521379
vn 0.6666667 -0.3333333 0.6666667
v 27.0362644 30.5381374 5.9351258
vn -0.6666667 0.3333333 0.6666667
v -26.0285110 39.6574135 5.9351258
vn -0.4082483 -0.8164966 0.4082483
v -26.0285110 38.8350601 5.9351258
vn -0.5773503 -0.5773503 -0.5773503
v -25.8377953 47.0484467 -7.4521370
vn -0.6666667 -0.3333333 -0.6666667
v -26.0285110 47.0484467 -7.4521370
vn -0.4082483 0.8164966 -0.4082483
v -26.0285110 47.8480721 -7.4521370
vn 0.5773503 0.5773503 -0.5773503
v 26.8455486 31.5548840 -7.4521379
vn 0.6666667 0.3333333 -0.6666667
v 27.0362644 31.5548840 -7.4521379
vn 0.4082483 -0.8164966 -0.4082483
v 27.0362644 27.8111382 -7.4521379
vn 0.6666667 -0.3333333 0.6666667
v 27.0362644 27.8111382 5.9351258
vn 0.5773503 -0.5773503 -0.5773503
v 26.8455486 33.3826294 -7.4521379
vn -0.5773503 -0.5773503 -0.5773503
v -25.8377953 33.3826294 -7.4521370
vn -0.4082483 -0.8164966 -0.4082483
v -25.8377953 33.3826294 -7.6518030
vn 0.6666667 -0.3333333 -0.6666667
v 26.8455486 33.3826294 -7.6518049
vn -0.6666667 -0.3333333 0.6666667
v -25.8377953 38.8350601 6.1347942
vn -0.4082483 0.8164966 0.4082483
v -25.8377953 39.6574135 6.1347942
vn -0.5773503 0.5773503 -0.5773503
v -25.8377953 31.5548840 -7.4521370
vn -0.5773503 0.5773503 0.5773503
v -25.8377953 31.5548840 5.9351258
vn 0.5773503 0.5773503 0.5773503
v 26.8455486 31.5548840 5.9351258
vn 0.4082483 -0.8164966 -0.4082483
v 27.0362644 33.3826294 -7.4521379
vn 0.6666667 -0.3333333 0.6666667
v 27.0362644 33.3826294 5.9351258
vn -0.6666667 0.3333333 -0.6666667
v -25.8377953 47.8480721 -7.6518030
vn -0.4082483 -0.8164966 -0.4082483
v -25.8377953 47.0484467 -7.6518030
vn -0.5773503 0.5773503 -0.5773503
v -25.8377953 34.3213234 -7.4521370
vn -0.5773503 0.5773503 0.5773503
v -25.8377953 34.3213234 5.9351258
vn -0.5773503 -0.5773503 0.5773503
v -25.8377953 36.1971169 5.9351258
vn -0.5773503 -0.5773503 -0.5773503
v -25.8377953 36.1971169 -7.4521370
vn 0.5773503 0.5773503 0.5773503
v 26.8455486 34.3213234 5.9351258
vn 0.5773503 0.5773503 -0.5773503
v 26.8455486 34.3213234 -7.4521379
vn 0.5773503 -0.5773503 -0.5773503
v 26.8455486 36.1971169 -7.4521379
vn 0.5773503 -0.5773503 0.5773503
v 26.8455486 36.1971169 5.9351258
vn 0.4082517 0.8164952 0.4082476
v 27.0362644 26.1508598 5.9351258
vn 0.6666667 0.3333333 -0.6666667
v 27.0362644 26.1508598 -7.4521379
vn -0.4082483 -0.8164966 0.4082483
v -26.0285110 33.3826294 5.9351258
vn -0.6666667 -0.3333333 -0.6666667
v -26.0285110 33.3826294 -7.4521370
vn 0.6666667 -0.3333333 -0.6666667
v 26.8455486 30.5381374 -7.6518049
vn 0.4082483 0.8164966 -0.4082483
v 26.8455486 31.5548840 -7.6518049
vn -0.4082483 0.8164966 0.4082483
v -25.8377953 37.0256729 6.1347942
vn 0.6666667 0.3333333 0.6666667
v 26.8455486 37.0256729 6.1347928
vn 0.4082483 0.8164966 0.4082483
v 27.0362644 34.3213234 5.9351258
vn 0.4082483 0.8164966 0.4082483
v 27.0362644 37.0256729 5.9351258
vn 0.6666667 0.3333333 -0.6666667
v 27.0362644 37.0256729 -7.4521379
vn 0.4082483 0.8164966 -0.4082483
v 26.8455486 37.0256729 -7.6518049
vn -0.6666667 0.3333333 -0.6666667
v -25.8377953 37.0256729 -7.6518030
vn -0.5773503 0.5773503 0.5773503
v -25.8377953 45.1880455 5.9351258
vn -0.5773503 0.5773503 -0.5773503
v -25.8377953 45.1880455 -7.4521370
vn -0.4082483 0.8164966 -0.4082483
v -26.0285110 45.1880455 -7.4521370
vn -0.6666667 0.3333333 0.6666667
v -26.0285110 45.1880455 5.9351258
vn -0.4082483 -0.8164966 -0.4082483
v -25.8377953 44.4332085 -7.6518030
vn 0.6666667 -0.3333333 -0.6666667
v 26.8455486 44.4332085 -7.6518049
vn 0.6666667 0.3333333 0.6666667
v 26.8455486 34.3213234 6.1347928
vn 0.7071068 0.0000000 -0.7071068
v 26.8455486 25.2515011 -7.6518049
vn 0.4082476 0.8164953 -0.4082515
v 26.8455486 26.1508598 -7.6518049
vn -0.4082483 -0.8164966 -0.4082483
v -25.8377953 41.6510887 -7.6518030
vn 0.6666667 -0.3333333 -0.6666667
v 26.8455486 41.6510887 -7.6518049
vn 0.7071068 0.0000000 -0.7071068
v 27.0362644 25.2515011 -7.4521379
vn -0.4082483 0.8164966 -0.4082483
v -26.0285110 37.0256729 -7.4521370
vn -0.6666667 0.3333333 0.6666667
v -26.0285110 37.0256729 5.9351258
vn 0.5773503 0.5773503 0.5773503
v 26.8455486 45.1880455 5.9351258
vn 0.5773503 0.5773503 -0.5773503
v 26.8455486 45.1880455 -7.4521379
vn 0.5773503 -0.5773503 -0.5773503
v 26.8455486 47.0484467 -7.4521379
vn -0.4082483 -0.8164966 -0.4082483
v -25.8377953 38.8350601 -7.6518030
vn -0.6666667 0.3333333 -0.6666667
v -25.8377953 34.3213234 -7.6518030
vn 0.4082483 0.8164966 0.4082483
v 27.0362644 45.1880455 5.9351258
vn 0.6666667 0.3333333 -0.6666667
v 27.0362644 45.1880455 -7.4521379
vn -0.4082483 0.8164966 -0.4082483
v -26.0285110 34.3213234 -7.4521370
vn -0.7071068 0.0000000 0.7071068
v -25.8377953 25.2515011 6.1347942
vn 0.7071068 0.0000000 0.7071068
v 26.8455486 25.2515011 6.1347928
vn 0.6666653 0.3333326 0.6666684
v 26.8455486 26.1508598 6.1347928
vn -0.4082476 0.8164953 0.4082515
v -25.8377953 26.1508598 6.1347942
vn -0.6666667 -0.3333333 0.6666667
v -25.8377953 30.5381374 6.1347942
vn 0.4082483 -0.8164966 0.4082483
v 26.8455486 30.5381374 6.1347928
vn 0.6666667 0.3333333 0.6666667
v 26.8455486 31.5548840 6.1347928
vn -0.4082483 0.8164966 0.4082483
v -25.8377953 31.5548840 6.1347942
vn -0.7071068 0.0000000 -0.7071068
v -25.8377953 25.2515011 -7.6518030
vn -0.6666653 0.3333326 -0.6666684
v -25.8377953 26.1508598 -7.6518030
vn -0.4082483 -0.8164966 -0.4082483
v -25.8377953 30.5381374 -7.6518030
vn -0.6666667 0.3333333 -0.6666667
v -25.8377953 31.5548840 -7.6518030
vn 0.6666667 -0.3333333 -0.6666667
v 26.8455486 27.8111382 -7.6518049
vn -0.4082483 -0.8164966 -0.4082483
v -25.8377953 27.8111382 -7.6518030
vn -0.6666667 0.3333333 -0.6666667
v -25.8377953 28.8337631 -7.6518030
vn 0.4082483 0.8164966 -0.4082483
v 26.8455486 28.8337631 -7.6518049
vn -0.6666667 -0.3333333 0.6666667
v -25.8377953 27.8111382 6.1347942
vn 0.4082483 -0.8164966 0.4082483
v 26.8455486 27.8111382 6.1347928
vn 0.6666667 0.3333333 0.6666667
v 26.8455486 28.8337631 6.1347928
vn -0.4082483 0.8164966 0.4082483
v -25.8377953 28.8337631 6.1347942
vn 0.4082483 0.8164966 -0.4082483
v 26.8455486 34.3213234 -7.6518049
vn -0.4082483 0.8164966 0.4082483
v -25.8377953 34.3213234 6.1347942
vn 0.6666667 -0.3333333 -0.6666667
v 26.8455486 36.1971169 -7.6518049
vn -0.4082483 -0.8164966 -0.4082483
v -25.8377953 36.1971169 -7.6518030
vn -0.6666667 -0.3333333 0.6666667
v -25.8377953 36.1971169 6.1347942
vn 0.4082483 -0.8164966 0.4082483
v 26.8455486 36.1971169 6.1347928
vn -0.6666667 0.3333333 -0.6666667
v -25.8377953 39.6574135 -7.6518030
vn 0.4082483 -0.8164966 0.4082483
v 26.8455486 38.8350601 6.1347928
vn 0.6666667 0.3333333 0.6666667
v 26.8455486 39.6574135 6.1347928
vn -0.6666667 0.3333333 -0.6666667
v -25.8377953 42.4248428 -7.6518030
vn 0.4082483 0.8164966 -0.4082483
v 26.8455486 42.4248390 -7.6518049
vn -0.6666667 -0.3333333 0.6666667
v -25.8377953 41.6510887 6.1347942
vn 0.4082483 -0.8164966 0.4082483
v 26.8455486 41.6510887 6.1347928
vn 0.6666666 0.3333333 0.6666667
v 26.8455486 42.4248428 6.1347928
vn -0.4082484 0.8164966 0.4082483
v -25.8377953 42.4248390 6.1347942
vn -0.6666667 -0.3333333 0.6666667
v -25.8377953 44.4332085 6.1347942
vn 0.4082483 -0.8164966 0.4082483
v 26.8455486 44.4332085 6.1347928
vn 0.6666667 0.3333333 0.6666667
v 26.8455486 45.1880455 6.1347928
vn -0.4082483 0.8164966 0.4082483
v -25.8377953 45.1880455 6.1347942
vn -0.6666667 0.3333333 -0.6666667
v -25.8377953 45.1880455 -7.6518030
vn 0.4082483 0.8164966 -0.4082483
v 26.8455486 45.1880455 -7.6518049
vn -0.4082483 0.8164966 0.4082483
v -25.8377953 47.8480721 6.1347942
vn 0.6666667 -0.3333333 -0.6666667
v 26.8455486 47.0484467 -7.6518049
vn 0.4082483 0.8164966 -0.4082483
v 26.8455486 47.8480721 -7.6518049
vn 0.7071068 0.0000000 0.7071068
v 27.0362644 25.2515011 5.9351258
vn 0.4082483 0.8164966 0.4082483
v 27.0362644 31.5548840 5.9351258
vn -0.7071068 0.0000000 -0.7071068
v -26.0285110 25.2515011 -7.4521370
vn -0.7071068 0.0000000 0.7071068
v -26.0285110 25.2515011 5.9351258
vn -0.6666667 0.3333333 0.6666667
v -26.0285110 26.1508598 5.9351258
vn -0.4082517 0.8164952 -0.4082476
v -26.0285110 26.1508598 -7.4521370
vn -0.6666667 -0.3333333 -0.6666667
v -26.0285110 30.5381374 -7.4521370
vn -0.4082483 -0.8164966 0.4082483
v -26.0285110 30.5381374 5.9351258
vn -0.6666667 0.3333333 0.6666667
v -26.0285110 31.5548840 5.9351258
vn -0.4082483 0.8164966 -0.4082483
v -26.0285110 31.5548840 -7.4521370
vn -0.6666667 -0.3333333 -0.6666667
v -26.0285110 27.8111382 -7.4521370
vn -0.4082483 -0.8164966 0.4082483
v -26.0285110 27.8111382 5.9351258
vn -0.6666667 0.3333333 0.6666667
v -26.0285110 28.8337631 5.9351258
vn -0.4082483 0.8164966 -0.4082483
v -26.0285110 28.8337631 -7.4521370
vn 0.6666667 0.3333333 -0.6666667
v 27.0362644 28.8337631 -7.4521379
vn 0.4082483 0.8164966 0.4082483
v 27.0362644 28.8337631 5.9351258
vn -0.6666667 0.3333333 0.6666667
v -26.0285110 34.3213234 5.9351258
vn 0.6666667 0.3333333 -0.6666667
v 27.0362644 34.3213234 -7.4521379
vn -0.6666667 -0.3333333 -0.6666667
v -26.0285110 36.1971169 -7.4521370
vn -0.4082483 -0.8164966 0.4082483
v -26.0285110 36.1971169 5.9351258
vn 0.6666667 -0.3333333 0.6666667
v 27.0362644 36.1971169 5.9351258
vn 0.4082483 -0.8164966 -0.4082483
v 27.0362644 36.1971169 -7.4521379
vn -0.6666667 -0.3333333 -0.6666667
v -26.0285110 38.8350601 -7.4521370
vn -0.4082483 0.8164966 -0.4082483
v -26.0285110 39.6574135 -7.4521370
vn 0.6666667 -0.3333333 0.6666667
v 27.0362644 38.8350601 5.9351258
vn 0.4082483 -0.8164966 -0.4082483
v 27.0362644 38.8350601 -7.4521379
vn 0.6666667 0.3333333 -0.6666667
v 27.0362644 39.6574135 -7.4521379
vn 0.4082483 0.8164966 0.4082483
v 27.0362644 39.6574135 5.9351258
vn -0.6666667 -0.3333333 -0.6666667
v -26.0285110 41.6510887 -7.4521370
vn -0.4082483 -0.8164966 0.4082483
v -26.0285110 41.6510887 5.9351258
vn -0.6666667 0.3333333 0.6666667
v -26.0285110 42.4248390 5.9351258
vn -0.4082483 0.8164967 -0.4082481
v -26.0285110 42.4248428 -7.4521370
vn 0.6666667 -0.3333333 0.6666667
v 27.0362644 41.6510887 5.9351258
vn 0.4082483 -0.8164966 -0.4082483
v 27.0362644 41.6510887 -7.4521379
vn 0.6666667 0.3333333 -0.6666667
v 27.0362644 42.4248390 -7.4521379
vn 0.4082483 0.8164967 0.4082481
v 27.0362644 42.4248428 5.9351258
vn 0.6666667 -0.3333333 0.6666667
v 27.0362644 44.4332085 5.9351258
vn 0.4082483 -0.8164966 -0.4082483
v 27.0362644 44.4332085 -7.4521379
vn -0.6666667 -0.3333333 -0.6666667
v -26.0285110 44.4332085 -7.4521370
vn -0.4082483 -0.8164966 0.4082483
v -26.0285110 44.4332085 5.9351258
vn 0.4082483 -0.8164966 -0.4082483
v 27.0362644 47.0484467 -7.4521379
vn 0.6666667 0.3333333 -0.6666667
v 27.0362644 47.8480721 -7.4521379
vn -0.4082483 -0.8164966 0.4082483
v -26.0285110 47.0484467 5.9351258
vn -0.6666667 0.3333333 0.6666667
v -26.0285110 47.8480721 5.9351258
# 436 vertices, 0 vertices normals


usemtl material_0
vt 0.0000000 0.5000000
vt -0.0000000 0.0000000
vt 0.1270540 -0.0000000
f 1/1/1 2/2/2 3/3/3
vt 0.1270540 0.5000000
f 1/1/1 3/3/3 4/4/4
vt 0.6177930 0.3811620
vt 0.6177930 0.5082160
vt 0.5975230 0.5082160
f 5/5/5 6/6/6 3/7/3
vt 0.5975230 0.3811620
f 5/5/5 3/7/3 2/8/2
vt 0.6177930 0.2541080
f 7/9/7 8/5/8 1/8/1
vt 0.5975230 0.2541080
f 7/9/7 1/8/1 4/10/4
vt 0.3149200 0.0000000
vt 0.3149200 0.5000000
vt 0.2946500 0.5000000
f 8/11/8 5/12/5 2/13/2
vt 0.2946500 0.0000000
f 8/11/8 2/13/2 1/14/1
vt 0.3351910 -0.0000000
vt 0.3351910 0.5000000
f 6/15/6 7/16/7 4/12/4
f 6/15/6 4/12/4 3/11/3
vt 0.8348170 0.0627320
vt 0.8348170 0.0705360
vt 0.8329220 0.0705360
f 9/17/9 10/18/10 11/19/11
vt 0.8329220 0.0627320
f 9/17/9 11/19/11 12/20/12
vt 0.3425690 0.5000000
vt 0.3425690 1.0000000
vt 0.3268120 1.0000000
f 13/21/13 14/22/14 15/23/15
vt 0.3268120 0.5000000
f 13/21/13 15/23/15 16/24/16
vt 0.3106360 0.5000000
vt 0.3106360 1.0000000
vt 0.2944610 1.0000000
f 17/25/17 18/26/18 19/27/19
vt 0.2944610 0.5000000
f 17/25/17 19/27/19 20/28/20
vt 0.7299260 0.6270540
vt 0.7299260 0.1270540
vt 0.7318210 0.1270540
f 21/29/21 22/30/22 23/31/23
vt 0.7318210 0.6270540
f 21/29/21 23/31/23 24/32/24
vt 0.2277650 1.0000000
vt 0.2277650 0.5000000
vt 0.2449370 0.5000000
f 25/33/25 26/34/26 27/35/27
vt 0.2449370 1.0000000
f 25/33/25 27/35/27 28/36/28
vt 0.4681980 0.5000000
vt 0.4681980 0.0000000
vt 0.4871190 -0.0000000
f 29/37/29 30/38/30 31/39/31
vt 0.4871200 0.5000000
f 29/37/29 31/39/31 32/40/32
vt 0.3923730 -0.0000000
vt 0.3923730 0.5000000
vt 0.3733130 0.5000000
f 33/41/33 34/42/34 35/43/35
vt 0.3733130 -0.0000000
f 33/41/33 35/43/35 36/44/36
vt 0.7375150 0.5000000
vt 0.7375150 -0.0000000
vt 0.7394100 -0.0000000
f 37/45/37 38/46/38 39/47/39
vt 0.7394100 0.5000000
f 37/45/37 39/47/39 40/48/40
vt 0.3583260 0.5000000
vt 0.3583260 1.0000000
f 41/49/41 42/50/42 43/22/43
f 41/49/41 43/22/43 44/21/44
f 45/24/45 46/23/46 47/26/47
f 45/24/45 47/26/47 48/25/48
vt 0.8329220 0.1321110
vt 0.8329220 0.1245220
vt 0.8348170 0.1245220
f 22/51/22 7/52/7 49/53/49
vt 0.8348170 0.1321110
f 22/51/22 49/53/49 23/54/23
vt 0.2621090 0.5000000
f 50/36/50 51/35/51 52/55/52
vt 0.2621090 1.0000000
f 50/36/50 52/55/52 10/56/10
vt 0.4492770 0.5000000
f 9/38/9 53/37/53 54/57/54
vt 0.4492770 -0.0000000
f 9/38/9 54/57/54 55/58/55
vt 0.4114340 0.0000000
vt 0.4114340 0.5000000
f 56/59/56 57/60/57 58/42/58
f 56/59/56 58/42/58 59/41/59
vt 0.8347320 0.3465600
vt 0.8347320 0.3541490
vt 0.8329220 0.3541490
f 7/61/7 22/62/22 60/63/60
vt 0.8329220 0.3465600
f 7/61/7 60/63/60 61/64/61
vt 0.6720030 0.6352700
vt 0.6720030 0.5082160
vt 0.6877600 0.5082160
f 14/65/14 41/66/41 44/67/44
vt 0.6877600 0.6352700
f 14/65/14 44/67/44 15/68/15
vt 0.6881790 0.0000000
vt 0.6881790 0.1270540
vt 0.6720030 0.1270540
f 18/69/18 45/70/45 48/71/48
vt 0.6720030 0.0000000
f 18/69/18 48/71/48 19/72/19
vt 0.8092030 0.6352700
vt 0.8092030 0.7623240
vt 0.8073930 0.7623240
f 19/73/19 48/74/48 62/75/62
vt 0.8073930 0.6352700
f 19/73/19 62/75/62 63/76/63
vt 0.6546570 0.5082160
vt 0.6546570 0.3811620
vt 0.6718290 0.3811620
f 26/77/26 50/78/50 10/79/10
vt 0.6718290 0.5082160
f 26/77/26 10/79/10 27/80/27
vt 0.6367150 0.2541080
vt 0.6367150 0.3811620
f 30/81/30 9/82/9 55/5/55
f 30/81/30 55/5/55 31/9/31
vt 0.6165840 0.7623240
vt 0.6165840 0.8893780
vt 0.5975230 0.8893780
f 34/83/34 56/84/56 59/85/59
vt 0.5975230 0.7623240
f 34/83/34 59/85/59 35/86/35
vt 0.8329220 0.2643990
vt 0.8329220 0.2565940
vt 0.8347320 0.2565940
f 28/87/28 29/88/29 64/89/64
vt 0.8347320 0.2643990
f 28/87/28 64/89/64 65/90/65
vt 0.6877600 0.7623240
vt 0.6720030 0.7623240
f 42/68/42 13/91/13 16/92/16
f 42/68/42 16/92/16 43/65/43
vt 0.6881790 0.2541080
vt 0.6720030 0.2541080
f 46/70/46 17/93/17 20/94/20
f 46/70/46 20/94/20 47/71/47
vt 0.8347320 0.3617380
vt 0.8329220 0.3617380
f 5/62/5 66/95/66 67/96/67
f 5/62/5 67/96/67 68/63/68
vt 0.6546570 0.6352700
f 51/97/51 25/77/25 28/80/28
vt 0.6718290 0.6352700
f 51/97/51 28/80/28 52/98/52
vt 0.6367150 0.1270540
vt 0.6177940 0.2541080
f 53/99/53 29/81/29 32/100/32
vt 0.6177940 0.1270540
f 53/99/53 32/100/32 54/101/54
vt 0.6368540 0.0000000
vt 0.6368540 0.1270540
vt 0.6177930 0.1270540
f 57/102/57 33/103/33 36/104/36
vt 0.6177930 0.0000000
f 57/102/57 36/104/36 58/105/58
vt 0.8310270 0.6232950
vt 0.8310270 0.6136450
vt 0.8328370 0.6136450
f 48/106/48 69/107/69 70/108/70
vt 0.8328370 0.6232950
f 48/106/48 70/108/70 62/109/62
vt 0.8092030 0.8893780
vt 0.8073930 0.8893780
f 15/74/15 44/110/44 71/111/71
f 15/74/15 71/111/71 72/75/72
vt 0.7867840 0.5000000
vt 0.7867840 1.0000000
vt 0.7848900 1.0000000
f 73/112/73 74/113/74 75/114/75
vt 0.7848900 0.5000000
f 73/112/73 75/114/75 76/115/76
vt 0.8348170 0.0471220
vt 0.8348170 0.0549270
vt 0.8329220 0.0549270
f 29/116/29 28/117/28 77/118/77
vt 0.8329220 0.0471220
f 29/116/29 77/118/77 78/119/78
vt 0.6546570 0.2541080
f 79/71/79 80/94/80 37/120/37
vt 0.6546570 0.1270540
f 79/71/79 37/120/37 74/121/74
vt 0.6542010 0.7623240
vt 0.6542010 0.8893780
vt 0.6368540 0.8893780
f 81/122/81 69/123/69 73/124/73
vt 0.6368540 0.7623240
f 81/122/81 73/124/73 38/125/38
vt 0.1760730 0.5000000
vt 0.1760730 1.0000000
vt 0.1587270 1.0000000
f 69/126/69 79/127/79 74/128/74
vt 0.1587270 0.5000000
f 69/126/69 74/128/74 73/129/73
vt 0.1934200 0.5000000
vt 0.1934200 1.0000000
f 80/130/80 81/131/81 38/127/38
f 80/130/80 38/127/38 37/126/37
vt 0.8165460 0.0000000
vt 0.8165460 0.1270540
vt 0.8147360 0.1270540
f 38/132/38 73/133/73 82/134/82
vt 0.8147360 0.0000000
f 38/132/38 82/134/82 83/135/83
vt 0.8329220 0.1472890
vt 0.8329220 0.1397000
vt 0.8348170 0.1397000
f 66/136/66 5/137/5 84/138/84
vt 0.8348170 0.1472890
f 66/136/66 84/138/84 85/139/85
vt 0.6177930 0.8893780
vt 0.6177930 0.7623240
vt 0.6355960 0.7623240
f 86/140/86 87/141/87 88/142/88
vt 0.6355960 0.8893780
f 86/140/86 88/142/88 89/143/89
vt 0.6177930 0.6352700
vt 0.6355960 0.6352700
f 90/141/90 91/144/91 92/145/92
f 90/141/90 92/145/92 93/142/93
vt 0.0178030 1.0000000
vt 0.0178030 0.5000000
vt 0.0356050 0.5000000
f 91/146/91 86/147/86 89/148/89
vt 0.0356050 1.0000000
f 91/146/91 89/148/89 92/149/92
vt 0.0534080 0.5000000
f 87/149/87 90/148/90 93/150/93
vt 0.0534080 1.0000000
f 87/149/87 93/150/93 88/151/88
vt 0.8147360 0.2541080
f 41/152/41 14/134/14 94/133/94
vt 0.8165460 0.2541080
f 41/152/41 94/133/94 95/153/95
vt 0.8219760 0.6352700
vt 0.8219760 0.5082160
vt 0.8237860 0.5082160
f 74/154/74 37/155/37 96/156/96
vt 0.8237860 0.6352700
f 74/154/74 96/156/96 97/157/97
vt 0.8329220 0.4781040
vt 0.8329220 0.4877540
vt 0.8310270 0.4877540
f 69/158/69 48/159/48 98/160/98
vt 0.8310270 0.4781040
f 69/158/69 98/160/98 99/161/99
vt 0.7507800 1.0000000
vt 0.7507800 0.5000000
vt 0.7526750 0.5000000
f 26/162/26 25/163/25 100/164/100
vt 0.7526750 1.0000000
f 26/162/26 100/164/100 101/165/101
vt 0.8328370 0.8660320
vt 0.8328370 0.8749410
vt 0.8310270 0.8749410
f 90/166/90 38/167/38 83/168/83
vt 0.8310270 0.8660320
f 90/166/90 83/168/83 102/169/102
vt 0.8147360 0.3811620
f 50/170/50 26/152/26 103/153/103
vt 0.8165460 0.3811620
f 50/170/50 103/153/103 104/171/104
vt 0.7697300 0.5000000
vt 0.7697300 1.0000000
vt 0.7678350 1.0000000
f 51/172/51 50/173/50 105/174/105
vt 0.7678350 0.5000000
f 51/172/51 105/174/105 106/175/106
vt 0.8237860 0.7623240
vt 0.8219760 0.7623240
f 107/157/107 108/176/108 109/177/109
f 107/157/107 109/177/109 110/154/110
vt 0.7886790 -0.0000000
vt 0.7886790 0.5000000
vt 0.7867850 0.5000000
f 59/178/59 58/179/58 111/180/111
vt 0.7867850 -0.0000000
f 59/178/59 111/180/111 112/181/112
vt 0.8310270 0.7442950
vt 0.8310270 0.7353860
vt 0.8329220 0.7353860
f 38/182/38 90/183/90 113/184/113
vt 0.8329220 0.7442950
f 38/182/38 113/184/113 39/185/39
vt 0.8329220 0.7791840
vt 0.8329220 0.7877190
vt 0.8310270 0.7877190
f 41/186/41 114/187/114 115/188/115
vt 0.8310270 0.7791840
f 41/186/41 115/188/115 116/189/116
vt 0.7886790 1.0000000
vt 0.7867850 1.0000000
f 55/179/55 54/190/54 117/191/117
f 55/179/55 117/191/117 118/180/118
vt 0.8310270 0.9443450
vt 0.8310270 0.9358090
vt 0.8328370 0.9358090
f 114/192/114 41/193/41 95/194/95
vt 0.8328370 0.9443450
f 114/192/114 95/194/95 119/195/119
vt 0.8237860 0.8893780
vt 0.8219760 0.8893780
f 25/176/25 51/196/51 120/197/120
f 25/176/25 120/197/120 121/177/121
vt 0.1063770 0.5000000
vt 0.1063770 1.0000000
vt 0.0887210 1.0000000
f 107/198/107 122/199/122 22/200/22
vt 0.0887210 0.5000000
f 107/198/107 22/200/22 21/201/21
vt 0.1240340 0.5000000
vt 0.1240340 1.0000000
f 123/202/123 108/203/108 66/199/66
f 123/202/123 66/199/66 124/198/124
vt 0.6545110 0.2541080
vt 0.6545110 0.3811620
vt 0.6368540 0.3811620
f 122/204/122 123/205/123 124/206/124
vt 0.6368540 0.2541080
f 122/204/122 124/206/124 22/207/22
vt 0.6545110 0.5082160
vt 0.6545110 0.6352700
vt 0.6368540 0.6352700
f 108/208/108 107/209/107 21/210/21
vt 0.6368540 0.5082160
f 108/208/108 21/210/21 66/211/66
vt 0.7905740 -0.0000000
vt 0.7905740 0.5000000
vt 0.7886800 0.5000000
f 10/212/10 52/213/52 125/214/125
vt 0.7886800 -0.0000000
f 10/212/10 125/214/125 11/215/11
vt 0.8310270 0.7621120
vt 0.8310270 0.7532040
vt 0.8329220 0.7532040
f 74/216/74 86/217/86 126/218/126
vt 0.8329220 0.7621120
f 74/216/74 126/218/126 75/219/75
vt 0.8147360 0.5082160
f 123/220/123 122/170/122 127/171/127
vt 0.8165460 0.5082160
f 123/220/123 127/171/127 128/221/128
vt 0.8328370 0.8838490
vt 0.8310270 0.8838490
f 86/167/86 74/222/74 97/223/97
f 86/167/86 97/223/97 129/168/129
vt 0.5134580 0.0000000
vt 0.5134580 0.5000000
vt 0.5049220 0.5000000
f 130/224/130 131/225/131 132/226/132
vt 0.5049220 0.0000000
f 130/224/130 132/226/132 133/227/133
vt 0.4383120 0.5000000
vt 0.4383120 1.0000000
vt 0.4286630 1.0000000
f 134/228/134 135/229/135 136/230/136
vt 0.4286630 0.5000000
f 134/228/134 136/230/136 137/231/137
vt 0.5134580 1.0000000
vt 0.5049220 1.0000000
f 115/225/115 138/232/138 139/233/139
f 115/225/115 139/233/139 116/226/116
vt 0.4479620 0.5000000
vt 0.4479620 1.0000000
f 98/234/98 140/235/140 141/229/141
f 98/234/98 141/229/141 99/228/99
vt 0.4189570 1.0000000
f 142/231/142 143/230/143 144/236/144
vt 0.4189570 0.5000000
f 142/231/142 144/236/144 145/237/145
vt 0.3898410 1.0000000
vt 0.3898410 0.5000000
vt 0.3995460 0.5000000
f 146/238/146 147/239/147 148/240/148
vt 0.3995460 1.0000000
f 146/238/146 148/240/148 149/241/149
vt 0.4939880 0.5000000
vt 0.4939880 1.0000000
vt 0.4850790 1.0000000
f 76/242/76 75/243/75 126/244/126
vt 0.4850790 0.5000000
f 76/242/76 126/244/126 150/245/150
vt 0.5028970 0.5000000
vt 0.5028970 1.0000000
f 40/246/40 39/247/39 113/243/113
f 40/246/40 113/243/113 151/242/151
vt 0.5298570 0.5000000
vt 0.5298570 -0.0000000
vt 0.5377200 -0.0000000
f 152/248/152 153/249/153 106/250/106
vt 0.5377200 0.5000000
f 152/248/152 106/250/106 105/251/105
vt 0.5298570 1.0000000
f 154/252/154 155/248/155 101/251/101
vt 0.5377200 1.0000000
f 154/252/154 101/251/101 100/253/100
vt 0.5455250 0.5000000
vt 0.5455250 -0.0000000
vt 0.5533300 -0.0000000
f 11/254/11 125/255/125 156/256/156
vt 0.5533300 0.5000000
f 11/254/11 156/256/156 12/257/12
vt 0.5455250 1.0000000
f 77/258/77 157/254/157 158/257/158
vt 0.5533300 1.0000000
f 77/258/77 158/257/158 78/259/78
vt 0.5758510 0.5000000
vt 0.5758510 -0.0000000
vt 0.5831950 -0.0000000
f 118/260/118 117/261/117 159/262/159
vt 0.5831950 0.5000000
f 118/260/118 159/262/159 160/263/160
vt 0.5758510 1.0000000
f 161/264/161 162/260/162 163/263/163
vt 0.5831950 1.0000000
f 161/264/161 163/263/163 164/265/164
vt 0.5975230 -0.0000000
vt 0.5975230 0.5000000
vt 0.5903590 0.5000000
f 165/266/165 166/267/166 167/268/167
vt 0.5903590 -0.0000000
f 165/266/165 167/268/167 168/269/168
vt 0.5975230 1.0000000
vt 0.5903590 1.0000000
f 112/267/112 111/270/111 169/271/169
f 112/267/112 169/271/169 170/268/170
vt 0.5685080 -0.0000000
vt 0.5685080 0.5000000
vt 0.5609190 0.5000000
f 24/272/24 23/273/23 49/274/49
vt 0.5609190 -0.0000000
f 24/272/24 49/274/49 171/275/171
vt 0.5685080 1.0000000
vt 0.5609190 1.0000000
f 172/273/172 85/276/85 84/277/84
f 172/273/172 84/277/84 173/274/173
vt 0.8329220 0.6997510
vt 0.8329220 0.7086600
vt 0.8310270 0.7086600
f 87/278/87 37/279/37 40/280/40
vt 0.8310270 0.6997510
f 87/278/87 40/280/40 151/281/151
vt 0.7905740 1.0000000
f 124/213/124 66/282/66 85/190/85
f 124/213/124 85/190/85 172/179/172
vt 0.8329220 0.7175680
vt 0.8329220 0.7264770
vt 0.8310270 0.7264770
f 91/283/91 73/284/73 76/285/76
vt 0.8310270 0.7175680
f 91/283/91 76/285/76 150/286/150
vt 0.8329220 0.4430920
vt 0.8329220 0.4359280
vt 0.8348170 0.4359280
f 35/287/35 122/288/122 167/289/167
vt 0.8348170 0.4430920
f 35/287/35 167/289/167 166/290/166
vt 0.8329220 0.3245300
vt 0.8329220 0.3171870
vt 0.8348170 0.3171870
f 31/291/31 34/292/34 163/293/163
vt 0.8348170 0.3245300
f 31/291/31 163/293/163 162/294/162
vt 0.8329220 0.0861460
vt 0.8329220 0.0783410
vt 0.8348170 0.0783410
f 27/295/27 30/296/30 158/297/158
vt 0.8348170 0.0861460
f 27/295/27 158/297/158 157/298/157
vt 0.8348170 0.1017550
vt 0.8348170 0.1093440
vt 0.8329220 0.1093440
f 6/299/6 21/300/21 24/301/24
vt 0.8329220 0.1017550
f 6/299/6 24/301/24 171/302/171
vt 0.8310270 0.8303970
vt 0.8310270 0.8218610
vt 0.8329220 0.8218610
f 174/303/174 42/304/42 139/305/139
vt 0.8329220 0.8303970
f 174/303/174 139/305/139 138/306/138
vt 0.7716250 0.0000000
vt 0.7716250 0.5000000
f 53/307/53 9/308/9 12/172/12
vt 0.7697300 0.0000000
f 53/307/53 12/172/12 156/309/156
vt 0.8348170 0.1169330
f 8/310/8 124/53/124 172/52/172
vt 0.8329220 0.1169330
f 8/310/8 172/52/172 173/311/173
vt 0.7526750 -0.0000000
vt 0.7545700 -0.0000000
f 30/164/30 29/312/29 78/313/78
vt 0.7545700 0.5000000
f 30/164/30 78/313/78 158/314/158
vt 0.8310270 0.5070530
vt 0.8310270 0.4974040
vt 0.8329220 0.4974040
f 19/315/19 81/316/81 136/317/136
vt 0.8329220 0.5070530
f 19/315/19 136/317/136 135/318/135
vt 0.8310270 0.8133260
vt 0.8310270 0.8047900
vt 0.8329220 0.8047900
f 175/319/175 14/320/14 132/321/132
vt 0.8329220 0.8133260
f 175/319/175 132/321/132 131/322/131
vt 0.8348170 0.2878130
vt 0.8348170 0.2951560
vt 0.8329220 0.2951560
f 33/323/33 32/324/32 161/325/161
vt 0.8329220 0.2878130
f 33/323/33 161/325/161 164/326/164
vt 0.7716250 1.0000000
f 86/308/86 91/327/91 150/173/150
f 86/308/86 150/173/150 126/172/126
vt 0.8310270 0.4393940
vt 0.8310270 0.4296890
vt 0.8329220 0.4296890
f 15/328/15 18/329/18 148/330/148
vt 0.8329220 0.4393940
f 15/328/15 148/330/148 147/331/147
vt 0.8329220 0.7706480
vt 0.8310270 0.7706480
f 13/219/13 176/332/176 130/333/130
f 13/219/13 130/333/130 133/216/133
f 90/165/90 87/164/87 151/314/151
vt 0.7545700 1.0000000
f 90/165/90 151/314/151 113/334/113
vt 0.7564650 -0.0000000
f 7/314/7 6/313/6 171/335/171
vt 0.7564650 0.5000000
f 7/314/7 171/335/171 49/336/49
vt 0.8348170 0.3318730
vt 0.8329220 0.3318730
f 56/294/56 55/337/55 118/338/118
f 56/294/56 118/338/118 160/291/160
f 14/334/14 13/314/13 133/336/133
vt 0.7564650 1.0000000
f 14/334/14 133/336/133 132/339/132
vt 0.7735200 0.0000000
vt 0.7735200 0.5000000
f 5/340/5 8/341/8 173/308/173
f 5/340/5 173/308/173 84/307/84
vt 0.7375150 1.0000000
f 16/342/16 15/45/15 147/48/147
vt 0.7394100 1.0000000
f 16/342/16 147/48/147 146/343/146
vt 0.8329220 0.4588050
vt 0.8329220 0.4684550
vt 0.8310270 0.4684550
f 80/344/80 20/345/20 134/346/134
vt 0.8310270 0.4588050
f 80/344/80 134/346/134 137/347/137
vt 0.8329220 0.0314540
vt 0.8329220 0.0235910
vt 0.8348170 0.0235910
f 89/348/89 51/349/51 106/350/106
vt 0.8348170 0.0314540
f 89/348/89 106/350/106 153/351/153
vt 0.8329220 0.3908680
vt 0.8329220 0.4005730
vt 0.8310270 0.4005730
f 17/352/17 16/353/16 146/354/146
vt 0.8310270 0.3908680
f 17/352/17 146/354/146 149/355/149
vt 0.7413050 -0.0000000
f 20/48/20 19/47/19 135/356/135
vt 0.7413050 0.5000000
f 20/48/20 135/356/135 134/357/134
vt 0.8329220 0.0157270
vt 0.8329220 0.0078640
vt 0.8348170 0.0078640
f 93/358/93 26/359/26 101/360/101
vt 0.8348170 0.0157270
f 93/358/93 101/360/101 155/361/155
vt 0.7583600 -0.0000000
f 81/336/81 80/335/80 137/362/137
vt 0.7583600 0.5000000
f 81/336/81 137/362/137 136/363/136
vt 0.7735200 1.0000000
f 57/341/57 56/364/56 160/327/160
f 57/341/57 160/327/160 159/308/159
vt 0.8329220 0.4102780
vt 0.8329220 0.4199840
vt 0.8310270 0.4199840
f 45/365/45 44/366/44 142/367/142
vt 0.8310270 0.4102780
f 45/365/45 142/367/142 145/368/145
f 28/343/28 27/48/27 157/357/157
vt 0.7413050 1.0000000
f 28/343/28 157/357/157 77/369/77
f 34/339/34 33/336/33 164/363/164
vt 0.7583600 1.0000000
f 34/339/34 164/363/164 163/370/163
vt 0.7432000 -0.0000000
f 32/357/32 31/356/31 162/371/162
vt 0.7432000 0.5000000
f 32/357/32 162/371/162 161/372/161
vt 0.8329220 0.4574200
vt 0.8329220 0.4502560
vt 0.8348170 0.4502560
f 58/373/58 108/374/108 169/375/169
vt 0.8348170 0.4574200
f 58/373/58 169/375/169 111/376/111
vt 0.8348170 0.4072720
vt 0.8348170 0.4144360
vt 0.8329220 0.4144360
f 107/377/107 36/378/36 165/379/165
vt 0.8329220 0.4072720
f 107/377/107 165/379/165 168/380/168
vt 0.7924700 -0.0000000
vt 0.7924690 0.5000000
f 92/381/92 89/382/89 153/213/153
f 92/381/92 153/213/153 152/212/152
f 36/369/36 35/357/35 166/372/166
vt 0.7432000 1.0000000
f 36/369/36 166/372/166 165/383/165
vt 0.8329220 0.3392170
vt 0.8348170 0.3392170
f 54/64/54 57/384/57 159/385/159
vt 0.8348170 0.3465600
f 54/64/54 159/385/159 117/386/117
vt 0.8348170 0.4216000
vt 0.8348170 0.4287640
vt 0.8329220 0.4287640
f 123/387/123 59/388/59 112/389/112
vt 0.8329220 0.4216000
f 123/387/123 112/389/112 170/390/170
vt 0.7450950 -0.0000000
f 88/372/88 93/371/93 155/391/155
vt 0.7450950 0.5000000
f 88/372/88 155/391/155 154/392/154
vt 0.7754150 0.0000000
vt 0.7754150 0.5000000
f 42/393/42 41/394/41 116/341/116
f 42/393/42 116/341/116 139/340/139
vt 0.8329220 0.0939500
vt 0.8348170 0.0939500
f 52/302/52 53/395/53 156/396/156
f 52/302/52 156/396/156 125/299/125
vt 0.8329220 0.9699510
vt 0.8329220 0.9778150
vt 0.8310270 0.9778150
f 25/397/25 88/398/88 154/399/154
vt 0.8310270 0.9699510
f 25/397/25 154/399/154 100/400/100
vt 0.7754150 1.0000000
f 46/394/46 45/401/45 145/364/145
f 46/394/46 145/364/145 144/341/144
vt 0.7924690 1.0000000
f 44/382/44 43/402/43 143/282/143
f 44/382/44 143/282/143 142/213/142
vt 0.8329220 0.9856780
vt 0.8329220 0.9935420
vt 0.8310270 0.9935420
f 50/403/50 92/404/92 152/405/152
vt 0.8310270 0.9856780
f 50/403/50 152/405/152 105/406/105
vt 0.7602550 -0.0000000
f 18/363/18 17/362/17 149/407/149
vt 0.7602550 0.5000000
f 18/363/18 149/407/149 148/408/148
vt 0.7943640 -0.0000000
vt 0.7943640 0.5000000
vt 0.7924700 0.5000000
f 48/409/48 47/410/47 140/411/140
f 48/409/48 140/411/140 98/381/98
vt 0.8310270 0.5263520
vt 0.8310270 0.5167030
vt 0.8329220 0.5167030
f 47/412/47 79/413/79 141/414/141
vt 0.8329220 0.5263520
f 47/412/47 141/414/141 140/415/140
f 122/370/122 107/363/107 168/408/168
vt 0.7602550 1.0000000
f 122/370/122 168/408/168 167/416/167
vt 0.7773100 0.0000000
vt 0.7773100 0.5000000
f 79/417/79 69/418/69 99/394/99
f 79/417/79 99/394/99 141/393/141
vt 0.8310270 0.4491000
vt 0.8329220 0.4491000
f 43/347/43 46/419/46 144/420/144
f 43/347/43 144/420/144 143/344/143
vt 0.7773100 1.0000000
f 108/418/108 123/421/123 170/401/170
f 108/418/108 170/401/170 169/394/169
vt 0.7124720 0.7623240
vt 0.7124720 0.8893780
vt 0.7039360 0.8893780
f 177/422/177 119/423/119 95/424/95
vt 0.7039360 0.7623240
f 177/422/177 95/424/95 94/425/94
vt 0.6978290 0.6352700
vt 0.6978290 0.7623240
vt 0.6881790 0.7623240
f 63/426/63 62/427/62 70/428/70
vt 0.6881790 0.6352700
f 63/426/63 70/428/70 178/429/178
vt 0.7221210 0.0000000
vt 0.7221210 0.1270540
vt 0.7135860 0.1270540
f 179/430/179 180/431/180 181/432/181
vt 0.7135860 -0.0000000
f 179/430/179 181/432/181 182/433/182
vt 0.6978290 0.8893780
vt 0.6881790 0.8893780
f 183/427/183 184/434/184 185/435/185
f 183/427/183 185/435/185 186/428/186
vt 0.6881790 0.3811620
vt 0.6978840 0.2541080
f 187/436/187 188/93/188 189/437/189
vt 0.6978840 0.3811620
f 187/436/187 189/437/189 190/438/190
vt 0.6978840 0.1270540
f 72/93/72 71/70/71 191/439/191
f 72/93/72 191/439/191 192/437/192
vt 0.7128450 0.6352700
vt 0.7128450 0.7623240
f 97/440/97 96/441/96 193/425/193
vt 0.7039360 0.6352700
f 97/440/97 193/425/193 129/442/129
vt 0.7128450 0.5082160
f 83/443/83 82/440/82 194/442/194
vt 0.7039360 0.5082160
f 83/443/83 194/442/194 102/444/102
vt 0.7135860 0.6352700
vt 0.7135860 0.5082160
vt 0.7214490 0.5082160
f 195/445/195 196/446/196 121/447/121
vt 0.7214490 0.6352700
f 195/445/195 121/447/121 120/448/120
vt 0.7135860 0.3811620
vt 0.7214490 0.3811620
f 197/446/197 198/449/198 104/450/104
f 197/446/197 104/450/104 103/447/103
vt 0.7299260 0.2541080
vt 0.7299260 0.3811620
vt 0.7221210 0.3811620
f 199/451/199 65/452/65 64/453/64
vt 0.7221210 0.2541080
f 199/451/199 64/453/64 200/454/200
vt 0.7299260 0.0000000
f 201/455/201 202/30/202 203/431/203
f 201/455/201 203/431/203 204/430/204
vt 0.8073930 0.1270540
vt 0.8073930 0.0000000
f 205/456/205 206/457/206 207/135/207
f 205/456/205 207/135/207 208/134/208
vt 0.8000500 0.8811620
vt 0.8000500 0.7541080
vt 0.8073930 0.7541080
f 209/458/209 210/459/210 211/460/211
vt 0.8073930 0.8811620
f 209/458/209 211/460/211 212/461/212
vt 0.8145570 0.1270540
vt 0.8145570 0.2541080
vt 0.8073930 0.2541080
f 213/462/213 214/463/214 128/464/128
f 213/462/213 128/464/128 127/456/127
vt 0.8145570 0.3811620
vt 0.8145570 0.5082160
vt 0.8073930 0.5082160
f 215/465/215 216/466/216 110/467/110
vt 0.8073930 0.3811620
f 215/465/215 110/467/110 109/468/109
vt 0.7297100 0.5082160
vt 0.7297100 0.6352700
vt 0.7221210 0.6352700
f 60/469/60 217/470/217 218/471/218
vt 0.7221210 0.5082160
f 60/469/60 218/471/218 61/472/61
vt 0.7297100 0.7623240
vt 0.7221210 0.7623240
f 67/470/67 219/473/219 220/474/220
f 67/470/67 220/474/220 68/471/68
vt 0.8147360 0.6352700
f 69/475/69 81/220/81 178/221/178
vt 0.8165460 0.6352700
f 69/475/69 178/221/178 70/476/70
vt 0.8329220 0.2722040
f 10/477/10 9/87/9 203/90/203
vt 0.8347320 0.2722040
f 10/477/10 203/90/203 202/478/202
vt 0.8310270 0.8927580
f 37/479/37 87/223/87 193/222/193
vt 0.8328370 0.8927580
f 37/479/37 193/222/193 96/480/96
vt 0.8165460 0.7623240
vt 0.8147360 0.7623240
f 27/476/27 10/481/10 202/482/202
f 27/476/27 202/482/202 201/475/201
vt 0.8310270 0.9016670
f 73/483/73 91/479/91 194/480/194
vt 0.8328370 0.9016670
f 73/483/73 194/480/194 82/484/82
vt 0.8165460 0.8893780
vt 0.8147360 0.8893780
f 31/481/31 55/485/55 210/486/210
f 31/481/31 210/486/210 209/482/209
vt 0.8347320 0.5233310
vt 0.8347320 0.5304950
vt 0.8329220 0.5304950
f 122/487/122 35/488/35 213/489/213
vt 0.8329220 0.5233310
f 122/487/122 213/489/213 127/490/127
vt 0.8183560 0.0000000
vt 0.8183560 0.1270540
f 22/491/22 124/492/124 217/133/217
f 22/491/22 217/133/217 60/132/60
vt 0.8255970 0.0000000
vt 0.8255970 0.1270540
vt 0.8237860 0.1270540
f 29/493/29 53/494/53 200/495/200
vt 0.8237860 0.0000000
f 29/493/29 200/495/200 64/496/64
vt 0.8183560 0.2541080
f 35/492/35 59/497/59 214/153/214
f 35/492/35 214/153/214 213/133/213
vt 0.8347320 0.4792700
vt 0.8347320 0.4866140
vt 0.8329220 0.4866140
f 34/498/34 31/499/31 209/500/209
vt 0.8329220 0.4792700
f 34/498/34 209/500/209 212/501/212
vt 0.8237870 0.2541080
vt 0.8237870 0.1270540
f 66/502/66 21/503/21 219/494/219
vt 0.8255970 0.2541080
f 66/502/66 219/494/219 67/504/67
f 9/171/9 30/153/30 204/497/204
vt 0.8183560 0.3811620
f 9/171/9 204/497/204 203/505/203
vt 0.8255970 0.3811620
vt 0.8237860 0.3811620
f 13/504/13 42/506/42 182/507/182
vt 0.8237860 0.2541080
f 13/504/13 182/507/182 181/508/181
vt 0.8347320 0.2800080
vt 0.8329220 0.2800080
f 30/478/30 27/509/27 201/510/201
f 30/478/30 201/510/201 204/477/204
vt 0.8329220 0.3693270
f 21/511/21 6/96/6 220/95/220
vt 0.8347320 0.3693270
f 21/511/21 220/95/220 219/512/219
vt 0.8328370 0.9272740
f 42/513/42 174/194/174 179/193/179
vt 0.8310270 0.9272740
f 42/513/42 179/193/179 182/514/182
vt 0.8255970 0.5082160
f 87/506/87 86/515/86 129/156/129
f 87/506/87 129/156/129 193/507/193
vt 0.8237870 0.6352700
vt 0.8237870 0.5082160
f 43/516/43 16/517/16 188/515/188
vt 0.8255970 0.6352700
f 43/516/43 188/515/188 187/518/187
vt 0.8329220 0.3769160
f 124/519/124 8/511/8 218/512/218
vt 0.8347320 0.3769160
f 124/519/124 218/512/218 217/520/217
f 91/221/91 90/171/90 102/505/102
vt 0.8183560 0.5082160
f 91/221/91 102/505/102 194/521/194
vt 0.8237870 0.7623240
f 47/522/47 20/516/20 184/518/184
vt 0.8255970 0.7623240
f 47/522/47 184/518/184 183/523/183
vt 0.8328370 0.6329440
vt 0.8310270 0.6329440
f 81/109/81 19/524/19 63/525/63
f 81/109/81 63/525/63 178/106/178
vt 0.8328370 0.9187380
f 14/526/14 175/513/175 177/514/177
vt 0.8310270 0.9187380
f 14/526/14 177/514/177 94/527/94
vt 0.8329220 0.5013010
vt 0.8329220 0.4939570
vt 0.8347320 0.4939570
f 32/528/32 33/529/33 207/530/207
vt 0.8347320 0.5013010
f 32/528/32 207/530/207 206/531/206
vt 0.8255970 0.8893780
f 80/523/80 79/532/79 186/196/186
f 80/523/80 186/196/186 185/176/185
vt 0.8328370 0.5942340
vt 0.8328370 0.6039400
vt 0.8310270 0.6039400
f 18/533/18 15/534/15 72/535/72
vt 0.8310270 0.5942340
f 18/533/18 72/535/72 192/536/192
vt 0.8310270 0.9528800
f 176/537/176 13/192/13 181/195/181
vt 0.8328370 0.9528800
f 176/537/176 181/195/181 180/538/180
vt 0.8274070 0.0000000
f 52/494/52 28/493/28 65/539/65
vt 0.8274070 0.1270540
f 52/494/52 65/539/65 199/540/199
vt 0.8329220 0.5086440
f 55/541/55 56/528/56 211/531/211
vt 0.8347320 0.5086440
f 55/541/55 211/531/211 210/542/210
f 54/504/54 32/494/32 206/540/206
vt 0.8274070 0.2541080
f 54/504/54 206/540/206 205/543/205
f 58/506/58 36/504/36 216/543/216
vt 0.8274070 0.3811620
f 58/506/58 216/543/216 215/544/215
f 8/476/8 7/221/7 61/521/61
vt 0.8183560 0.6352700
f 8/476/8 61/521/61 218/545/218
vt 0.8310270 0.6425940
f 20/546/20 80/525/80 185/524/185
vt 0.8328370 0.6425940
f 20/546/20 185/524/185 184/547/184
vt 0.8274070 0.5082160
f 33/544/33 57/548/57 208/515/208
f 33/544/33 208/515/208 207/506/207
vt 0.8347320 0.1624670
vt 0.8347320 0.1703310
vt 0.8329220 0.1703310
f 51/549/51 89/550/89 195/551/195
vt 0.8329220 0.1624670
f 51/549/51 195/551/195 120/552/120
vt 0.8310270 0.5845290
vt 0.8310270 0.5748240
vt 0.8328370 0.5748240
f 16/553/16 17/554/17 189/555/189
vt 0.8328370 0.5845290
f 16/553/16 189/555/189 188/556/188
vt 0.8274070 0.6352700
f 6/548/6 5/557/5 68/518/68
f 6/548/6 68/518/68 220/515/220
f 56/481/56 34/476/34 212/545/212
vt 0.8183560 0.7623240
f 56/481/56 212/545/212 211/558/211
vt 0.8347320 0.1781940
vt 0.8329220 0.1781940
f 26/550/26 93/559/93 197/560/197
f 26/550/26 197/560/197 103/551/103
f 89/523/89 88/518/88 196/557/196
vt 0.8274070 0.7623240
f 89/523/89 196/557/196 195/561/195
f 44/536/44 45/553/45 191/556/191
f 44/536/44 191/556/191 71/533/71
vt 0.8183560 0.8893780
f 93/558/93 92/562/92 198/485/198
f 93/558/93 198/485/198 197/481/197
vt 0.8347320 0.5376590
vt 0.8329220 0.5376590
f 108/488/108 58/563/58 215/564/215
f 108/488/108 215/564/215 109/489/109
vt 0.8329220 0.5448220
f 36/565/36 107/564/107 110/563/110
vt 0.8347320 0.5448220
f 36/565/36 110/563/110 216/566/216
vt 0.8274070 0.8893780
f 17/561/17 46/567/46 190/532/190
f 17/561/17 190/532/190 189/523/189
f 57/499/57 54/530/54 205/529/205
f 57/499/57 205/529/205 208/500/208
vt 0.8329220 0.5519860
f 59/568/59 123/565/123 128/566/128
vt 0.8347320 0.5519860
f 59/568/59 128/566/128 214/569/214
vt 0.8201660 0.0000000
f 45/492/45 18/491/18 192/570/192
vt 0.8201660 0.1270540
f 45/492/45 192/570/192 191/571/191
vt 0.8347320 0.2878130
f 53/509/53 52/572/52 199/326/199
f 53/509/53 199/326/199 200/510/200
vt 0.8329220 0.1860580
f 88/573/88 25/560/25 121/559/121
vt 0.8347320 0.1860580
f 88/573/88 121/559/121 196/574/196
vt 0.8329220 0.1939210
f 92/575/92 50/573/50 104/574/104
vt 0.8347320 0.1939210
f 92/575/92 104/574/104 198/576/198
vt 0.8328370 0.6522440
vt 0.8310270 0.6522440
f 79/547/79 47/577/47 183/578/183
f 79/547/79 183/578/183 186/546/186
f 46/534/46 43/108/43 187/107/187
f 46/534/46 187/107/187 190/535/190
vt 0.2541080 -0.0000000
f 221/4/221 222/3/222 223/579/223
vt 0.2541080 0.5000000
f 221/4/221 223/579/223 224/580/224
f 225/104/225 226/9/226 223/10/223
vt 0.5975230 0.1270540
f 225/104/225 223/10/223 222/581/222
f 227/105/227 228/104/228 221/581/221
f 227/105/227 221/581/221 224/266/224
vt 0.2743790 -0.0000000
vt 0.2743790 0.5000000
f 228/582/228 225/583/225 222/580/222
f 228/582/228 222/580/222 221/579/221
f 226/14/226 227/13/227 224/583/224
f 226/14/226 224/583/224 223/582/223
f 229/117/229 230/17/230 231/20/231
f 229/117/229 231/20/231 232/118/232
vt 0.3740840 0.5000000
vt 0.3740840 1.0000000
f 233/584/233 234/585/234 235/50/235
f 233/584/233 235/50/235 236/49/236
vt 0.2782850 0.5000000
vt 0.2782850 1.0000000
f 237/586/237 238/587/238 239/56/239
f 237/586/237 239/56/239 240/55/240
f 241/383/241 242/372/242 243/392/243
vt 0.7450950 1.0000000
f 241/383/241 243/392/243 244/588/244
vt 0.2105920 0.5000000
vt 0.2105920 1.0000000
f 245/589/245 246/590/246 247/131/247
f 245/589/245 247/131/247 248/130/248
vt 0.4303550 0.0000000
vt 0.4303550 0.5000000
f 249/591/249 250/592/250 251/60/251
f 249/591/249 251/60/251 252/59/252
vt 0.3542520 0.0000000
vt 0.3542520 0.5000000
f 253/593/253 254/594/254 255/16/255
f 253/593/253 255/16/255 256/15/256
vt 0.7469900 -0.0000000
f 257/392/257 258/391/258 259/595/259
vt 0.7469900 0.5000000
f 257/392/257 259/595/259 260/596/260
f 261/239/261 262/238/262 263/585/263
f 261/239/261 263/585/263 264/584/264
f 265/28/265 266/27/266 267/587/267
f 265/28/265 267/587/267 268/586/268
vt 0.8329220 0.1548780
f 242/597/242 227/136/227 269/139/269
vt 0.8348170 0.1548780
f 242/597/242 269/139/269 243/598/243
f 270/34/270 271/33/271 272/590/272
f 270/34/270 272/590/272 230/589/230
f 229/58/229 273/57/273 274/592/274
f 229/58/229 274/592/274 275/591/275
vt 0.3733120 -0.0000000
vt 0.3733120 0.5000000
f 276/599/276 277/600/277 278/594/278
f 276/599/276 278/594/278 279/593/279
vt 0.8347320 0.3845050
vt 0.8329220 0.3845050
f 227/520/227 242/601/242 280/602/280
f 227/520/227 280/602/280 281/519/281
vt 0.6877600 0.8893780
vt 0.6720030 0.8893780
f 234/91/234 261/603/261 264/604/264
f 234/91/234 264/604/264 235/92/235
vt 0.6720030 0.3811620
f 238/93/238 265/436/265 268/605/268
f 238/93/238 268/605/268 239/94/239
vt 0.8201660 0.2541080
f 239/571/239 268/606/268 282/497/282
f 239/571/239 282/497/282 283/492/283
vt 0.6718290 0.7623240
vt 0.6546570 0.7623240
f 246/98/246 270/607/270 230/608/230
f 246/98/246 230/608/230 247/97/247
vt 0.6367150 0.5082160
f 250/82/250 229/609/229 275/6/275
f 250/82/250 275/6/275 251/5/251
vt 0.6165830 0.5082160
vt 0.6165840 0.6352700
vt 0.5975230 0.6352700
f 254/610/254 276/611/276 279/612/279
f 254/610/254 279/612/279 255/7/255
vt 0.8329220 0.2331800
vt 0.8329220 0.2253750
vt 0.8347320 0.2253750
f 248/613/248 249/614/249 284/615/284
vt 0.8347320 0.2331800
f 248/613/248 284/615/284 285/616/285
vt 0.7039360 -0.0000000
vt 0.7039360 0.1270540
f 262/617/262 233/618/233 236/70/236
f 262/617/262 236/70/236 263/69/263
vt 0.6881790 0.5082160
f 266/436/266 237/619/237 240/66/240
f 266/436/266 240/66/240 267/605/267
vt 0.8347320 0.3920940
vt 0.8329220 0.3920940
f 225/601/225 286/620/286 287/621/287
f 225/601/225 287/621/287 288/602/288
vt 0.6718290 0.8893780
vt 0.6546570 0.8893780
f 271/607/271 245/622/245 248/623/248
f 271/607/271 248/623/248 272/608/272
vt 0.6367150 0.6352700
f 273/609/273 249/624/249 252/144/252
f 273/609/273 252/144/252 274/6/274
vt 0.6165830 0.6352700
f 277/625/277 253/83/253 256/86/256
f 277/625/277 256/86/256 278/612/278
vt 0.8310270 0.6618930
f 268/626/268 289/578/289 290/577/290
vt 0.8328370 0.6618930
f 268/626/268 290/577/290 282/627/282
vt 0.8201660 0.3811620
f 235/606/235 264/628/264 291/505/291
f 235/606/235 291/505/291 292/497/292
vt 0.7943640 1.0000000
vt 0.7924700 1.0000000
f 293/410/293 294/629/294 295/630/295
f 293/410/293 295/630/295 296/411/296
vt 0.8348170 0.0393180
f 249/631/249 248/116/248 297/119/297
vt 0.8329220 0.0393180
f 249/631/249 297/119/297 298/632/298
f 299/94/299 300/605/300 257/78/257
f 299/94/299 257/78/257 294/120/294
f 301/72/301 289/71/289 293/121/293
vt 0.6546570 -0.0000000
f 301/72/301 293/121/293 258/633/258
vt 0.1413800 0.5000000
vt 0.1413800 1.0000000
f 289/634/289 299/635/299 294/203/294
f 289/634/289 294/203/294 293/202/293
f 300/129/300 301/128/301 258/635/258
f 300/129/300 258/635/258 257/634/257
vt 0.8201660 0.5082160
f 258/628/258 293/636/293 302/521/302
f 258/628/258 302/521/302 303/505/303
f 286/552/286 225/597/225 304/598/304
vt 0.8348170 0.1624670
f 286/552/286 304/598/304 305/637/305
f 306/121/306 307/120/307 308/207/308
f 306/121/306 308/207/308 309/103/309
f 310/633/310 311/121/311 312/103/312
f 310/633/310 312/103/312 313/102/313
vt 0.4871190 0.5000000
f 311/227/311 306/226/306 309/638/309
vt 0.4871200 0.0000000
f 311/227/311 309/638/309 312/639/312
vt 0.0000000 1.0000000
f 307/147/307 310/146/310 313/640/313
f 307/147/307 313/640/313 308/1/308
f 261/545/261 234/521/234 314/636/314
vt 0.8201660 0.6352700
f 261/545/261 314/636/314 315/641/315
vt 0.8292170 0.0000000
f 294/540/294 257/539/257 316/642/316
vt 0.8292170 0.1270540
f 294/540/294 316/642/316 317/643/317
f 289/159/289 268/317/268 318/316/318
f 289/159/289 318/316/318 319/160/319
vt 0.7621500 -0.0000000
f 246/408/246 245/407/245 320/644/320
vt 0.7621500 0.5000000
f 246/408/246 320/644/320 321/645/321
vt 0.8328370 0.8303970
vt 0.8328370 0.8393050
vt 0.8310270 0.8393050
f 310/646/310 258/647/258 303/648/303
f 310/646/310 303/648/303 322/303/322
f 270/558/270 246/545/246 323/641/323
vt 0.8201660 0.7623240
f 270/558/270 323/641/323 324/649/324
vt 0.7792050 0.0000000
vt 0.7792050 0.5000000
f 271/650/271 270/651/270 325/418/325
f 271/650/271 325/418/325 326/417/326
vt 0.8292170 0.2541080
f 327/643/327 328/652/328 329/543/329
f 327/643/327 329/543/329 330/540/330
vt 0.7962590 -0.0000000
vt 0.7962590 0.5000000
vt 0.7943650 0.5000000
f 279/653/279 278/654/278 331/655/331
vt 0.7943650 -0.0000000
f 279/653/279 331/655/331 332/656/332
f 258/183/258 310/285/310 333/284/333
f 258/183/258 333/284/333 259/184/259
vt 0.8329220 0.7962550
vt 0.8310270 0.7962550
f 261/187/261 1/657/1 334/658/334
f 261/187/261 334/658/334 335/188/335
vt 0.7962590 1.0000000
f 275/654/275 274/659/274 336/629/336
f 275/654/275 336/629/336 337/410/337
vt 0.8310270 0.9614160
f 1/660/1 261/537/261 315/538/315
vt 0.8328370 0.9614160
f 1/660/1 315/538/315 338/661/338
vt 0.8292170 0.3811620
f 245/652/245 271/662/271 339/544/339
f 245/652/245 339/544/339 340/543/340
vt 0.0710640 0.5000000
vt 0.0710640 1.0000000
f 327/663/327 341/664/341 242/151/242
f 327/663/327 242/151/242 241/150/241
f 342/201/342 328/200/328 286/664/286
f 342/201/342 286/664/286 343/663/343
f 341/205/341 342/208/342 343/211/343
f 341/205/341 343/211/343 242/206/242
vt 0.6545110 0.7623240
f 328/209/328 327/665/327 241/125/241
f 328/209/328 241/125/241 286/210/286
vt 0.7981540 -0.0000000
vt 0.7981540 0.5000000
f 230/666/230 272/667/272 344/654/344
f 230/666/230 344/654/344 231/653/231
f 294/217/294 306/182/306 345/185/345
f 294/217/294 345/185/345 295/218/295
f 342/562/342 341/558/341 346/649/346
vt 0.8201660 0.8893780
f 342/562/342 346/649/346 347/668/347
vt 0.8328370 0.8482140
vt 0.8310270 0.8482140
f 306/647/306 294/669/294 317/670/317
f 306/647/306 317/670/317 348/648/348
vt 0.5219930 -0.0000000
vt 0.5219930 0.5000000
f 349/671/349 350/672/350 351/225/351
f 349/671/349 351/225/351 352/224/352
vt 0.4576110 0.5000000
vt 0.4576110 1.0000000
f 353/673/353 354/674/354 355/235/355
f 353/673/353 355/235/355 356/234/356
vt 0.5219930 1.0000000
f 334/672/334 357/675/357 358/232/358
f 334/672/334 358/232/358 335/225/335
vt 0.4672610 0.5000000
vt 0.4672610 1.0000000
f 318/676/318 359/677/359 360/674/360
f 318/676/318 360/674/360 319/673/319
vt 0.4092520 0.5000000
vt 0.4092520 1.0000000
f 361/678/361 362/679/362 363/241/363
f 361/678/361 363/241/363 364/240/364
f 365/237/365 366/236/366 367/679/367
f 365/237/365 367/679/367 368/678/368
vt 0.4761700 0.5000000
vt 0.4761700 1.0000000
f 296/680/296 295/681/295 345/677/345
f 296/680/296 345/677/345 369/676/369
f 260/245/260 259/244/259 333/681/333
f 260/245/260 333/681/333 370/680/370
f 371/249/371 372/248/372 326/672/326
f 371/249/371 326/672/326 325/671/325
f 373/248/373 374/252/374 321/675/321
f 373/248/373 321/675/321 320/672/320
f 231/255/231 344/254/344 375/251/375
vt 0.5377210 -0.0000000
f 231/255/231 375/251/375 232/682/232
vt 0.5377210 1.0000000
f 297/254/297 376/258/376 377/683/377
vt 0.5377210 0.5000000
f 297/254/297 377/683/377 298/684/298
f 337/273/337 336/272/336 378/261/378
f 337/273/337 378/261/378 379/260/379
f 380/276/380 381/273/381 382/260/382
f 380/276/380 382/260/382 383/264/383
f 384/269/384 385/268/385 386/263/386
f 384/269/384 386/263/386 387/262/387
f 332/268/332 331/271/331 388/265/388
f 332/268/332 388/265/388 389/263/389
f 244/275/244 243/274/243 269/257/269
f 244/275/244 269/257/269 390/256/390
f 391/274/391 305/277/305 304/259/304
f 391/274/391 304/259/304 392/257/392
vt 0.8329220 0.6908420
f 307/685/307 257/278/257 260/281/260
vt 0.8310270 0.6908420
f 307/685/307 260/281/260 370/686/370
vt 0.7981540 1.0000000
f 343/667/343 286/687/286 305/659/305
f 343/667/343 305/659/305 391/654/391
f 311/279/311 293/283/293 296/286/296
f 311/279/311 296/286/296 369/280/369
f 255/374/255 341/287/341 386/290/386
f 255/374/255 386/290/386 385/375/385
vt 0.8329220 0.3098430
vt 0.8329220 0.3025000
vt 0.8348170 0.3025000
f 251/688/251 254/689/254 382/690/382
vt 0.8348170 0.3098430
f 251/688/251 382/690/382 381/691/381
f 247/296/247 250/19/250 377/18/377
f 247/296/247 377/18/377 376/297/376
f 226/300/226 241/310/241 244/311/244
f 226/300/226 244/311/244 390/301/390
f 2/304/2 262/319/262 358/322/358
f 2/304/2 358/322/358 357/305/357
vt 0.7792050 1.0000000
f 273/651/273 229/692/229 232/421/232
f 273/651/273 232/421/232 375/418/375
f 228/54/228 343/138/343 391/137/391
f 228/54/228 391/137/391 392/51/392
f 250/416/250 249/408/249 298/645/298
vt 0.7621500 1.0000000
f 250/416/250 298/645/298 377/693/377
f 239/413/239 301/315/301 355/318/355
f 239/413/239 355/318/355 354/414/354
f 4/320/4 234/658/234 351/657/351
f 4/320/4 351/657/351 350/321/350
f 253/324/253 252/690/252 380/689/380
f 253/324/253 380/689/380 383/325/383
vt 0.7811000 0.0000000
vt 0.7811000 0.5000000
f 306/694/306 311/695/311 369/651/369
f 306/694/306 369/651/369 345/650/345
f 235/329/235 238/367/238 367/366/367
f 235/329/235 367/366/367 366/330/366
vt 0.8310270 0.7791830
f 233/332/233 3/186/3 349/696/349
f 233/332/233 349/696/349 352/333/352
vt 0.7640450 -0.0000000
f 310/645/310 307/644/307 370/697/370
vt 0.7640450 0.5000000
f 310/645/310 370/697/370 333/698/333
f 227/693/227 226/645/226 390/698/390
vt 0.7640450 1.0000000
f 227/693/227 390/698/390 269/699/269
f 276/337/276 275/385/275 337/384/337
f 276/337/276 337/384/337 379/338/379
vt 0.7659400 -0.0000000
f 234/698/234 233/697/233 352/700/352
vt 0.7659400 0.5000000
f 234/698/234 352/700/352 351/701/351
vt 0.7810990 0.5000000
vt 0.7811000 1.0000000
f 225/702/225 228/703/228 392/692/392
f 225/702/225 392/692/392 304/651/304
f 236/588/236 235/392/235 366/596/366
vt 0.7469900 1.0000000
f 236/588/236 366/596/366 365/704/365
f 300/345/300 240/158/240 353/161/353
f 300/345/300 353/161/353 356/346/356
f 309/632/309 271/348/271 326/351/326
f 309/632/309 326/351/326 372/631/372
vt 0.8329220 0.3811620
f 237/705/237 236/352/236 365/355/365
vt 0.8310270 0.3811620
f 237/705/237 365/355/365 368/706/368
vt 0.7488850 -0.0000000
f 240/596/240 239/595/239 354/707/354
vt 0.7488850 0.5000000
f 240/596/240 354/707/354 353/708/353
f 313/349/313 246/358/246 321/361/321
f 313/349/313 321/361/321 374/350/374
f 301/699/301 300/698/300 356/701/356
vt 0.7659400 1.0000000
f 301/699/301 356/701/356 355/709/355
vt 0.7829950 0.0000000
vt 0.7829950 0.5000000
f 277/710/277 276/711/276 379/695/379
f 277/710/277 379/695/379 378/694/378
f 265/353/265 264/365/264 361/368/361
f 265/353/265 361/368/361 364/354/364
f 248/704/248 247/596/247 376/708/376
vt 0.7488850 1.0000000
f 248/704/248 376/708/376 297/712/297
vt 0.7678350 -0.0000000
f 254/701/254 253/700/253 383/713/383
f 254/701/254 383/713/383 382/175/382
vt 0.7507800 -0.0000000
f 252/708/252 251/707/251 381/714/381
f 252/708/252 381/714/381 380/163/380
vt 0.8329220 0.4645830
f 278/715/278 328/373/328 388/376/388
vt 0.8348170 0.4645830
f 278/715/278 388/376/388 331/716/331
f 327/378/327 256/387/256 384/390/384
f 327/378/327 384/390/384 387/379/387
vt 0.8000490 -0.0000000
vt 0.8000490 0.5000000
f 312/717/312 309/718/309 372/667/372
f 312/717/312 372/667/372 371/666/371
f 256/712/256 255/708/255 385/163/385
f 256/712/256 385/163/385 384/162/384
f 274/292/274 277/688/277 378/691/378
f 274/292/274 378/691/378 336/293/336
f 342/388/342 279/289/279 332/288/332
f 342/388/342 332/288/332 389/389/389
f 308/163/308 313/714/313 374/312/374
f 308/163/308 374/312/374 373/164/373
vt 0.7829950 1.0000000
f 262/711/262 261/719/261 335/703/335
f 262/711/262 335/703/335 358/695/358
vt 0.8329220 0.0939510
f 272/720/272 273/295/273 375/298/375
vt 0.8348170 0.0939510
f 272/720/272 375/298/375 344/721/344
f 245/398/245 308/403/308 373/406/373
f 245/398/245 373/406/373 320/399/320
vt 0.7848900 0.0000000
f 266/722/266 265/115/265 364/711/364
f 266/722/266 364/711/364 363/710/363
vt 0.8000490 1.0000000
f 264/718/264 263/723/263 362/687/362
f 264/718/264 362/687/362 361/667/361
vt 0.8348170 0.0000000
f 270/724/270 312/360/312 371/359/371
vt 0.8329220 0.0000000
f 270/724/270 371/359/371 325/725/325
f 238/709/238 237/701/237 368/175/368
f 238/709/238 368/175/368 367/174/367
vt 0.8019440 -0.0000000
vt 0.8019440 0.5000000
f 268/726/268 267/727/267 359/718/359
f 268/726/268 359/718/359 318/717/318
vt 0.8310270 0.5360020
f 267/728/267 299/412/299 360/415/360
vt 0.8329220 0.5360020
f 267/728/267 360/415/360 359/729/359
f 341/175/341 327/713/327 387/309/387
f 341/175/341 387/309/387 386/172/386
f 299/115/299 289/114/289 319/719/319
f 299/115/299 319/719/319 360/711/360
f 263/419/263 266/328/266 363/331/363
f 263/419/263 363/331/363 362/420/362
f 328/181/328 342/180/342 389/115/389
f 328/181/328 389/115/389 388/722/388
vt 0.7135860 0.2541080
f 393/431/393 338/454/338 315/730/315
f 393/431/393 315/730/315 314/432/314
f 283/433/283 282/432/282 290/618/290
f 283/433/283 290/618/290 394/617/394
f 395/454/395 396/453/396 397/449/397
f 395/454/395 397/449/397 398/730/398
vt 0.7039360 0.2541080
f 399/432/399 400/730/400 401/731/401
f 399/432/399 401/731/401 402/618/402
vt 0.6978840 0.5082160
vt 0.6978840 0.6352700
f 403/732/403 404/733/404 405/429/405
f 403/732/403 405/429/405 406/619/406
f 292/438/292 291/732/291 407/619/407
f 292/438/292 407/619/407 408/436/408
vt 0.7128450 0.3811620
f 317/734/317 316/443/316 409/444/409
vt 0.7039360 0.3811620
f 317/734/317 409/444/409 348/735/348
vt 0.7128450 0.2541080
f 303/736/303 302/734/302 410/735/410
f 303/736/303 410/735/410 322/731/322
vt 0.7214490 0.7623240
vt 0.7214490 0.8893780
vt 0.7135860 0.8893780
f 411/737/411 412/738/412 340/739/340
vt 0.7135860 0.7623240
f 411/737/411 340/739/340 339/740/339
f 413/448/413 414/737/414 324/740/324
f 413/448/413 324/740/324 323/445/323
vt 0.7299260 0.5082160
f 415/452/415 285/741/285 284/472/284
f 415/452/415 284/472/284 416/453/416
f 417/30/417 418/451/418 419/454/419
f 417/30/417 419/454/419 420/431/420
vt 0.8000500 0.6270540
vt 0.8073930 0.6270540
f 421/459/421 422/742/422 423/743/423
f 421/459/421 423/743/423 424/460/424
vt 0.8000500 0.5000000
vt 0.8073930 0.5000000
f 425/742/425 426/744/426 427/745/427
f 425/742/425 427/745/427 428/743/428
f 429/463/429 430/465/430 347/468/347
f 429/463/429 347/468/347 346/464/346
vt 0.8145570 0.6352700
f 431/466/431 432/746/432 330/76/330
f 431/466/431 330/76/330 329/467/329
vt 0.7297100 0.8893780
vt 0.7221210 0.8893780
f 280/473/280 433/747/433 434/748/434
f 280/473/280 434/748/434 281/474/281
vt 0.7375150 0.1270540
f 287/46/287 435/749/435 436/30/436
f 287/46/287 436/30/436 288/455/288
vt 0.8219760 0.0000000
f 289/571/289 301/570/301 394/750/394
vt 0.8219760 0.1270540
f 289/571/289 394/750/394 290/751/290
vt 0.8329220 0.2409850
f 230/752/230 229/613/229 419/616/419
vt 0.8347320 0.2409850
f 230/752/230 419/616/419 418/753/418
vt 0.8310270 0.8571230
f 257/754/257 307/670/307 409/669/409
vt 0.8328370 0.8571230
f 257/754/257 409/669/409 316/755/316
vt 0.8219760 0.2541080
f 247/751/247 230/756/230 418/606/418
f 247/751/247 418/606/418 417/571/417
f 293/169/293 311/754/311 410/755/410
f 293/169/293 410/755/410 302/166/302
vt 0.8219760 0.3811620
f 251/756/251 275/757/275 426/628/426
f 251/756/251 426/628/426 425/606/425
vt 0.8347320 0.5591500
vt 0.8329220 0.5591500
f 341/569/341 255/758/255 429/759/429
f 341/569/341 429/759/429 346/568/346
f 242/757/242 343/155/343 433/636/433
f 242/757/242 433/636/433 280/628/280
vt 0.8292170 0.5082160
f 249/662/249 273/760/273 416/548/416
f 249/662/249 416/548/416 284/544/284
f 255/155/255 279/154/279 430/641/430
f 255/155/255 430/641/430 429/636/429
vt 0.8347320 0.4645830
vt 0.8347320 0.4719270
vt 0.8329220 0.4719270
f 254/761/254 251/762/251 425/763/425
f 254/761/254 425/763/425 428/715/428
f 286/557/286 241/548/241 435/760/435
vt 0.8292170 0.6352700
f 286/557/286 435/760/435 287/764/287
f 229/649/229 250/641/250 420/154/420
f 229/649/229 420/154/420 419/177/419
vt 0.8292170 0.7623240
f 233/764/233 262/765/262 398/561/398
f 233/764/233 398/561/398 397/557/397
vt 0.8347320 0.2487900
vt 0.8329220 0.2487900
f 250/753/250 247/766/247 417/767/417
f 250/753/250 417/767/417 420/752/420
vt 0.8329220 0.3996830
f 241/768/241 226/621/226 436/620/436
vt 0.8347320 0.3996830
f 241/768/241 436/620/436 435/769/435
vt 0.8328370 0.9102030
vt 0.8310270 0.9102030
f 262/484/262 2/770/2 395/771/395
f 262/484/262 395/771/395 398/483/398
vt 0.8292170 0.8893780
f 307/765/307 306/772/306 348/567/348
f 307/765/307 348/567/348 409/561/409
vt 0.8310270 0.0000000
f 263/643/263 236/642/236 404/773/404
vt 0.8310270 0.1270540
f 263/643/263 404/773/404 403/774/403
f 343/380/343 228/768/228 434/769/434
vt 0.8347320 0.4072720
f 343/380/343 434/769/434 433/775/433
f 311/668/311 310/649/310 322/177/322
f 311/668/311 322/177/322 410/197/410
f 267/652/267 240/643/240 400/774/400
vt 0.8310270 0.2541080
f 267/652/267 400/774/400 399/776/399
vt 0.8328370 0.6715430
vt 0.8310270 0.6715430
f 301/627/301 239/777/239 283/778/283
f 301/627/301 283/778/283 394/626/394
f 234/770/234 4/526/4 393/527/393
f 234/770/234 393/527/393 314/771/314
vt 0.8329220 0.5159870
f 252/779/252 253/541/253 423/542/423
vt 0.8347320 0.5159870
f 252/779/252 423/542/423 422/780/422
f 300/776/300 299/706/299 402/662/402
f 300/776/300 402/662/402 401/652/401
vt 0.8328370 0.5360020
vt 0.8328370 0.5457070
vt 0.8310270 0.5457070
f 238/781/238 235/782/235 292/783/292
f 238/781/238 292/783/292 408/728/408
f 3/400/3 233/660/233 397/661/397
vt 0.8328370 0.9699510
f 3/400/3 397/661/397 396/784/396
f 272/760/272 248/662/248 285/706/285
vt 0.8310270 0.5082160
f 272/760/272 285/706/285 415/785/415
f 275/490/275 276/779/276 427/780/427
f 275/490/275 427/780/427 426/487/426
f 274/764/274 252/760/252 422/785/422
vt 0.8310270 0.6352700
f 274/764/274 422/785/422 421/786/421
f 278/765/278 256/764/256 432/786/432
vt 0.8310270 0.7623240
f 278/765/278 432/786/432 431/787/431
f 228/751/228 227/750/227 281/496/281
f 228/751/228 281/496/281 434/495/434
vt 0.8310270 0.6811920
f 240/788/240 300/778/300 401/777/401
vt 0.8328370 0.6811920
f 240/788/240 401/777/401 400/789/400
vt 0.8310270 0.8893780
f 253/787/253 277/790/277 424/772/424
f 253/787/253 424/772/424 423/765/423
vt 0.8347320 0.2017850
vt 0.8329220 0.2017850
f 271/576/271 309/791/309 411/792/411
f 271/576/271 411/792/411 339/575/339
vt 0.8310270 0.5554130
f 236/793/236 237/783/237 405/782/405
vt 0.8328370 0.5554130
f 236/793/236 405/782/405 404/794/404
vt 0.8328370 0.0000000
vt 0.8328370 0.1270540
f 226/795/226 225/796/225 288/774/288
f 226/795/226 288/774/288 436/773/436
f 276/756/276 254/751/254 428/495/428
f 276/756/276 428/495/428 427/508/427
vt 0.8347320 0.2096480
vt 0.8329220 0.2096480
f 246/791/246 313/797/313 413/798/413
f 246/791/246 413/798/413 323/792/323
f 309/776/309 308/774/308 412/796/412
vt 0.8328370 0.2541080
f 309/776/309 412/796/412 411/799/411
vt 0.8310270 0.5651180
f 264/800/264 265/793/265 407/794/407
vt 0.8328370 0.5651180
f 264/800/264 407/794/407 291/801/291
f 313/508/313 312/507/312 414/757/414
f 313/508/313 414/757/414 413/756/413
vt 0.8347320 0.5663140
vt 0.8329220 0.5663140
f 328/758/328 278/802/278 431/803/431
f 328/758/328 431/803/431 329/759/329
vt 0.8329220 0.5734780
f 256/804/256 327/803/327 330/802/330
vt 0.8347320 0.5734780
f 256/804/256 330/802/330 432/805/432
vt 0.8328370 0.3811620
f 237/799/237 266/806/266 406/706/406
f 237/799/237 406/706/406 405/776/405
f 277/762/277 274/498/274 421/501/421
f 277/762/277 421/501/421 424/763/424
vt 0.8329220 0.5806420
f 279/807/279 342/804/342 347/805/347
vt 0.8347320 0.5806420
f 279/807/279 347/805/347 430/808/430
f 265/155/265 238/757/238 408/507/408
f 265/155/265 408/507/408 407/156/407
vt 0.8347320 0.2487890
f 273/809/273 272/89/272 415/88/415
vt 0.8329220 0.2487890
f 273/809/273 415/88/415 416/810/416
vt 0.8329220 0.2175120
f 308/811/308 245/798/245 340/797/340
vt 0.8347320 0.2175120
f 308/811/308 340/797/340 412/812/412
f 312/614/312 270/811/270 324/812/324
f 312/614/312 324/812/324 414/615/414
vt 0.8328370 0.6908420
f 299/789/299 267/813/267 399/686/399
f 299/789/299 399/686/399 402/788/402
f 266/801/266 263/555/263 403/554/403
f 266/801/266 403/554/403 406/800/406
# 852 faces, 813 coords texture

# End of File
