####
#
# OBJ File Generated by Meshlab
#
####
# Object building3.obj
#
# Vertices: 152
# Faces: 263
#
####
mtllib ./building3.obj.mtl

vn 0.7083365 0.0000000 -0.7058750
v 11.7985220 12.9527225 -12.5990934
vn 0.8947392 0.0000000 -0.4465893
v 11.7985220 0.3062650 -12.5990934
vn 0.0023205 0.0000000 -0.9999973
v -0.8366700 0.3062650 -12.6430712
vn 0.0017405 0.0000000 -0.9999985
v -0.8366700 12.9527225 -12.6430712
vn 0.7083365 0.0000000 -0.7058750
v 11.7985220 25.5991802 -12.5990934
vn 0.0017605 -0.0000100 -0.9999985
v -0.8366700 25.5991802 -12.6430712
vn 0.7083365 0.0000000 -0.7058750
v 11.7985220 38.2456360 -12.5990934
vn 0.0017505 0.0000100 -0.9999985
v -0.8366700 38.2456360 -12.6430712
vn 0.4497011 0.0000000 -0.8931791
v 11.7985220 50.8920937 -12.5990934
vn 0.0011605 0.0000000 -0.9999993
v -0.8366700 50.8920937 -12.6430712
vn -0.4472155 0.0000000 -0.8944262
v -13.4831257 0.3062650 -12.6430779
vn -0.7071041 -0.0000109 -0.7071095
v -13.4831257 12.9527225 -12.6430779
vn -0.7070940 0.0000000 -0.7071197
v -13.4829559 25.5991802 -12.6438351
vn -0.7071096 0.0000109 -0.7071040
v -13.4831257 38.2456360 -12.6430779
vn -0.8944318 0.0000000 -0.4472044
v -13.4831257 50.8920937 -12.6430779
vn -1.0000000 0.0000000 0.0000040
v -13.4829617 0.3062650 0.0026210
vn -1.0000000 0.0000022 -0.0000027
v -13.4829617 12.9527225 0.0026210
vn -1.0000000 -0.0000014 -0.0000005
v -13.4829617 25.5991802 0.0026210
vn -1.0000000 -0.0000009 0.0000017
v -13.4829617 38.2456360 0.0026210
vn -1.0000000 0.0000000 -0.0000049
v -13.4829617 50.8920937 0.0026210
vn -0.2527276 0.0000000 0.9675375
v -5.8295050 50.8920937 12.6887589
vn -0.3831709 -0.0003827 0.9236774
v -5.8295050 38.2456360 12.6887589
vn -0.0000671 0.0000665 1.0000000
v -0.8366820 38.2456360 12.6887617
vn -0.0002003 -0.0000666 1.0000000
v -0.8366820 50.8920937 12.6887617
vn -0.3829278 0.0007835 0.9237779
v -5.8295050 12.9527225 12.6887589
vn -0.5054547 0.0000000 0.8628532
v -5.8295050 0.3062650 12.6887589
vn -0.0001338 0.0000000 1.0000000
v -0.8366820 0.3062650 12.6887617
vn -0.0007232 0.0002064 0.9999998
v -0.8366820 12.9527225 12.6887617
vn -0.3841344 -0.0004004 0.9232771
v -5.8293738 25.5991802 12.6730947
vn -0.0012461 -0.0002064 0.9999992
v -0.8366820 25.5991802 12.6887617
vn 0.7069651 0.0000000 0.7072484
v 11.7985096 12.9527225 12.6938171
vn 0.4469272 0.0000000 0.8945704
v 11.7985096 0.3062650 12.6938171
vn 1.0000000 0.0000000 0.0000005
v 11.7985153 0.3062650 0.0473620
vn 1.0000000 0.0000000 0.0000005
v 11.7985153 12.9527225 0.0473620
vn 0.7070122 -0.0001159 0.7072014
v 11.7985096 25.5991802 12.6938171
vn 1.0000000 -0.0001484 -0.0001480
v 11.7985153 25.5991802 0.0473620
vn 0.7072693 -0.0000000 0.7069443
v 11.8097734 38.2456360 12.6887684
vn 1.0000000 0.0001485 -0.0002965
v 11.7985153 38.2456360 0.0473620
vn 0.8944709 0.0001099 0.4471261
v 11.7985096 50.8920937 12.6938171
vn 1.0000000 0.0000000 0.0000005
v 11.7985153 50.8920937 0.0473620
vn -0.9675413 0.0000000 0.2527130
v -13.4830313 0.3062650 5.0351038
vn -0.9238830 0.0004018 0.3826750
v -13.4830313 12.9527225 5.0351038
vn -0.9240814 0.0001597 0.3821957
v -13.4829655 25.5991802 4.9954262
vn -0.9239833 -0.0005604 0.3824323
v -13.4830313 38.2456360 5.0351038
vn -0.8628613 0.0000000 0.5054408
v -13.4830313 50.8920937 5.0351038
vn -0.3447445 0.7313071 0.5885076
v -5.8295050 51.3579826 12.6887589
vn -0.6599101 0.7313070 0.1723625
v -13.4830313 51.3579826 5.0351038
vn -0.0000946 0.7071068 0.7071068
v -0.8366820 51.3579826 12.6887617
vn -0.7071068 0.7071068 0.0000029
v -13.4829617 51.3579826 0.0026210
vn -0.2672615 0.8017853 -0.5345201
v -13.4831257 51.3579826 -12.6430779
vn 0.7071068 0.7071068 0.0000003
v 11.7985153 51.3579826 0.0473620
vn 0.2670626 0.8018295 0.5345531
v 11.7985096 51.3579826 12.6938171
vn 0.0016409 0.7071072 -0.7071044
v -0.8366700 51.3579826 -12.6430712
vn 0.5351867 0.8013855 -0.2671266
v 11.7985220 51.3579826 -12.5990934
vn -0.7071068 0.7071068 -0.0000003
v 11.5394840 51.3579826 0.0579310
vn -0.5344461 0.8018295 -0.2672767
v 11.5394783 51.3579826 12.4560986
vn 0.5885133 0.7313070 -0.3447351
v -13.2457094 51.3579826 4.9477491
vn 0.7071068 0.7071068 0.0000034
v -13.2456417 51.3579826 0.0140680
vn 0.0001888 0.7071068 -0.7071068
v -0.8476470 51.3579826 12.4511423
vn -0.2689880 0.8013855 0.5342536
v 11.5394897 51.3579826 -12.3402357
vn 0.1723725 0.7313071 -0.6599073
v -5.7424459 51.3579826 12.4511395
vn 0.5345234 0.8017853 0.2672549
v -13.2458019 51.3579826 -12.3833570
vn -0.0008206 0.7071072 0.7071059
v -0.8476350 51.3579826 -12.3833504
vn 0.4082497 0.4082501 0.8164950
v -13.2458019 50.7081566 -12.3833570
vn -0.0016409 0.7071072 0.7071044
v -0.8476350 50.7081566 -12.3833504
vn 0.0000803 0.8000000 -0.6000000
v -0.8476470 50.7081566 12.4511423
vn 0.4759680 0.3365572 -0.8125170
v -5.7424459 50.7081566 12.4511395
vn -0.8169703 0.4077756 0.4077727
v 11.5394897 50.7081566 -12.3402357
vn -0.6000000 0.8000000 -0.0000003
v 11.5394840 50.7081566 0.0579310
vn -0.4079760 0.4083027 -0.8166055
v 11.5394783 50.7081566 12.4560986
vn 0.7871240 0.5815229 -0.2055897
v -13.2457094 50.7081566 4.9477491
vn 0.6000000 0.8000000 -0.0000024
v -13.2456417 50.7081566 0.0140680
vn 0.8944273 0.0000000 -0.4472135
v 8.0242109 50.7428589 8.0329924
vn 0.3333337 0.6666666 -0.6666666
v 8.0242109 51.3774796 8.0329924
vn 0.8164965 0.4082484 0.4082484
v 8.0242109 51.3774796 8.6676121
vn 0.4472132 0.0000000 0.8944274
v 8.0242109 50.7428589 8.6676121
vn 0.2294153 0.6882471 0.6882475
v 6.4390569 51.3774796 8.6676111
vn -0.3162284 0.0000000 0.9486831
v 6.4390569 50.7428589 8.6676111
vn -0.2294153 0.6882471 -0.6882475
v 6.4390578 51.3774796 8.0329914
vn 0.3162284 0.0000000 -0.9486831
v 6.4390578 50.7428589 8.0329914
vn -0.3333337 0.6666666 0.6666666
v 4.8539038 51.3774796 8.6676102
vn -0.8944272 0.0000000 0.4472135
v 4.8539038 50.7428589 8.6676102
vn -0.8164965 0.4082484 -0.4082484
v 4.8539038 51.3774796 8.0329905
vn -0.4472132 0.0000000 -0.8944274
v 4.8539038 50.7428589 8.0329905
vn -0.7071072 0.0000000 0.7071065
v 7.9404068 50.5616646 9.8332596
vn 0.7071064 0.0000000 0.7071072
v 10.7579918 50.5616646 9.8332605
vn 0.6666663 0.3333335 0.6666670
v 10.7579918 51.6683502 9.8332605
vn -0.4082485 0.8164967 0.4082481
v 7.9404068 51.6683502 9.8332596
vn 0.4082483 0.8164967 -0.4082480
v 10.7579927 51.6683502 7.6313481
vn -0.6666663 0.3333333 -0.6666670
v 7.9404082 51.6683502 7.6313472
vn 0.7071072 0.0000003 -0.7071065
v 10.7579937 50.5616646 7.6313481
vn -0.7071065 0.0000000 -0.7071071
v 7.9404082 50.5616646 7.6313472
vn -0.7071070 -0.0000003 0.7071066
v 7.7529459 50.5616646 6.2713652
vn 0.7071065 0.0000006 0.7071071
v 10.5705309 50.5616646 6.2713661
vn 0.6666663 0.3333335 0.6666670
v 10.5705299 51.6683502 6.2713661
vn -0.4082486 0.8164966 0.4082483
v 7.7529449 51.6683502 6.2713652
vn 0.4082485 0.8164967 -0.4082480
v 10.5705318 51.6683502 4.0694528
vn -0.6666665 0.3333331 -0.6666669
v 7.7529459 51.6683502 4.0694518
vn 0.7071072 0.0000003 -0.7071065
v 10.5705318 50.5616646 4.0694528
vn -0.7071066 0.0000000 -0.7071069
v 7.7529459 50.5616646 4.0694518
vn -0.4472135 0.0000000 -0.8944273
v 1.1877030 50.6709976 -11.1764898
vn -0.6666666 0.6666666 -0.3333336
v 1.1877030 52.6709938 -11.1764898
vn 0.4082485 0.4082484 -0.8164965
v 8.7055445 52.6709938 -11.1764889
vn 0.8944274 0.0000000 -0.4472132
v 8.7055445 50.6709976 -11.1764889
vn 0.6666666 0.6666667 0.3333337
v 8.7055426 52.6709938 -7.7920551
vn 0.4472134 0.0000000 0.8944274
v 8.7055426 50.6709976 -7.7920551
vn -0.4082485 0.4082483 0.8164965
v 1.1877019 52.6709938 -7.7920570
vn -0.8944274 0.0000000 0.4472134
v 1.1877019 50.6709976 -7.7920570
vn 0.8944272 0.0000000 -0.4472136
v 8.0241928 50.7428589 4.4275541
vn 0.3333333 0.6666667 -0.6666667
v 8.0241928 51.3774757 4.4275541
vn 0.8164966 0.4082483 0.4082483
v 8.0241928 51.3774757 5.0621729
vn 0.4472136 0.0000000 0.8944272
v 8.0241928 50.7428589 5.0621729
vn 0.2294156 0.6882472 0.6882472
v 6.4390392 51.3774757 5.0621729
vn -0.3162281 0.0000000 0.9486832
v 6.4390392 50.7428589 5.0621729
vn -0.2294155 0.6882473 -0.6882473
v 6.4390392 51.3774757 4.4275541
vn 0.3162279 0.0000000 -0.9486833
v 6.4390392 50.7428589 4.4275541
vn -0.3333337 0.6666666 0.6666666
v 4.8538852 51.3774757 5.0621719
vn -0.8944272 0.0000000 0.4472135
v 4.8538852 50.7428589 5.0621719
vn -0.8164965 0.4082484 -0.4082484
v 4.8538852 51.3774757 4.4275532
vn -0.4472132 0.0000000 -0.8944274
v 4.8538852 50.7428589 4.4275532
vn 0.4472127 0.0000000 0.8944277
v 5.0648198 50.6163483 8.9041834
vn 0.6666664 0.6666667 0.3333338
v 5.0648198 51.4901924 8.9041834
vn -0.4082492 0.4082483 0.8164961
v 4.1909742 51.4901924 8.9041824
vn -0.8944277 0.0000000 0.4472126
v 4.1909742 50.6163483 8.9041824
vn -0.6882473 0.6882473 0.2294151
v 4.1909761 51.4901924 7.3190289
vn -0.9486831 0.0000000 -0.3162284
v 4.1909761 50.6163483 7.3190289
vn 0.6882473 0.6882473 -0.2294152
v 5.0648208 51.4901924 7.3190289
vn 0.9486831 0.0000000 0.3162284
v 5.0648208 50.6163483 7.3190289
vn -0.6882473 0.6882473 0.2294154
v 4.1909771 51.4901924 5.7338748
vn -0.9486831 0.0000000 -0.3162282
v 4.1909771 50.6163483 5.7338748
vn 0.6882473 0.6882473 -0.2294153
v 5.0648222 51.4901924 5.7338748
vn 0.9486831 0.0000000 0.3162284
v 5.0648222 50.6163483 5.7338748
vn -0.6882472 0.6882474 0.2294154
v 4.1909781 51.4901924 4.1487212
vn -0.9486831 0.0000000 -0.3162284
v 4.1909781 50.6163483 4.1487212
vn 0.4082491 0.4082482 -0.8164963
v 5.0648232 51.4901924 4.1487222
vn 0.8944275 0.0000000 -0.4472130
v 5.0648232 50.6163483 4.1487222
vn 0.4472135 0.0000000 0.8944273
v 5.0648232 50.6163483 4.1487212
vn 0.6666666 0.6666666 0.3333337
v 5.0648232 51.4901924 4.1487212
vn -0.6882474 0.6882471 0.2294153
v 4.1909790 51.4901924 2.5635669
vn -0.9486831 0.0000000 -0.3162284
v 4.1909790 50.6163483 2.5635669
vn 0.6882475 0.6882472 -0.2294150
v 5.0648241 51.4901924 2.5635681
vn 0.9486830 0.0000000 0.3162286
v 5.0648241 50.6163483 2.5635681
vn -0.6666664 0.6666668 -0.3333338
v 4.1909800 51.4901924 0.9784130
vn -0.4472127 0.0000000 -0.8944277
v 4.1909800 50.6163483 0.9784130
vn 0.6882476 0.6882470 -0.2294154
v 5.0648260 51.4901924 0.9784140
vn 0.9486831 0.0000000 0.3162283
v 5.0648260 50.6163483 0.9784140
vn -0.4082484 0.4082484 0.8164965
v 4.1909800 51.4901924 0.9784140
vn -0.8944274 0.0000000 0.4472132
v 4.1909800 50.6163483 0.9784140
vn -0.6666664 0.6666668 -0.3333338
v 4.1909809 51.4901924 -0.6067410
vn -0.4472127 0.0000000 -0.8944277
v 4.1909809 50.6163483 -0.6067410
vn 0.4082491 0.4082481 -0.8164963
v 5.0648260 51.4901924 -0.6067400
vn 0.8944274 0.0000000 -0.4472134
v 5.0648260 50.6163483 -0.6067400
# 152 vertices, 0 vertices normals


usemtl material_0
vt 0.4993550 0.5840700
vt 0.4993550 0.7315680
vt 0.3519880 0.7315680
f 1/1/1 2/2/2 3/3/3
vt 0.3519880 0.5840700
f 1/1/1 3/3/3 4/4/4
vt 0.6468530 0.5840700
vt 0.6468530 0.7315680
vt 0.4994860 0.7315680
f 5/5/5 1/6/1 4/7/4
vt 0.4994860 0.5840700
f 5/5/5 4/7/4 6/8/6
vt 0.7916530 0.0000000
vt 0.7916530 0.1474980
vt 0.6442860 0.1474980
f 7/9/7 5/10/5 6/11/6
vt 0.6442860 0.0000000
f 7/9/7 6/11/6 8/12/8
vt 0.7942200 0.5840700
vt 0.7942200 0.7315680
f 9/13/9 7/14/7 8/6/8
f 9/13/9 8/6/8 10/5/10
vt 0.6469840 0.2890740
vt 0.6469840 0.4365720
vt 0.4994860 0.4365720
f 4/15/4 3/16/3 11/17/11
vt 0.4994860 0.2890740
f 4/15/4 11/17/11 12/18/12
vt 0.6469840 0.5840700
f 6/16/6 4/19/4 12/8/12
vt 0.4994880 0.4365720
f 6/16/6 12/8/12 13/20/13
vt 0.1474980 0.4997590
vt 0.1474980 0.6472570
vt 0.0000020 0.6472570
f 8/21/8 6/22/6 13/23/13
vt 0.0000000 0.4997590
f 8/21/8 13/23/13 14/24/14
vt 0.2044900 0.7315680
f 10/4/10 8/3/8 14/25/14
vt 0.2044900 0.5840700
f 10/4/10 14/25/14 15/26/15
vt 0.8959780 0.0000000
vt 0.8959780 0.1474980
f 12/27/12 11/28/11 16/10/16
f 12/27/12 16/10/16 17/9/17
vt 0.8141780 0.7315680
vt 0.8141730 0.8790660
vt 0.7098480 0.8790660
f 13/29/13 12/30/12 17/31/17
vt 0.7098480 0.7315680
f 13/29/13 17/31/17 18/32/18
vt 0.8957830 0.4336760
vt 0.8957880 0.5811740
vt 0.7914570 0.5811740
f 14/33/14 13/34/13 18/35/18
vt 0.7914580 0.4336760
f 14/33/14 18/35/18 19/36/19
vt 0.8959030 0.2861780
vt 0.8959030 0.4336760
vt 0.7915780 0.4336760
f 15/37/15 14/38/14 19/39/19
vt 0.7915780 0.2861780
f 15/37/15 19/39/19 20/40/20
vt 0.9396470 0.5840700
vt 0.9396470 0.7315680
vt 0.8984830 0.7315680
f 21/41/21 22/42/22 23/43/23
vt 0.8984830 0.5840700
f 21/41/21 23/43/23 24/44/24
vt 0.9596050 0.7315680
vt 0.9596050 0.8790660
vt 0.9184420 0.8790660
f 25/45/25 26/46/26 27/47/27
vt 0.9184420 0.7315680
f 25/45/25 27/47/27 28/48/28
vt 0.9371940 0.2861780
vt 0.9370660 0.4336760
f 29/49/29 25/50/25 28/38/28
f 29/49/29 28/38/28 30/37/30
vt 0.0000000 0.2047630
vt 0.1474980 0.2047630
vt 0.1474980 0.3522610
f 31/51/31 32/52/32 33/53/33
vt 0.0000000 0.3522610
f 31/51/31 33/53/33 34/54/34
vt 0.3519880 0.4365720
f 35/18/35 31/17/31 34/55/34
vt 0.3519880 0.2890740
f 35/18/35 34/55/34 36/56/36
vt 0.2044900 0.2891330
f 37/57/37 35/56/35 36/55/36
vt 0.2044900 0.4365720
f 37/57/37 36/55/36 38/58/38
vt 0.3492900 -0.0000000
vt 0.4967880 0.0000590
vt 0.4967880 0.1474980
f 39/59/39 37/60/37 38/61/38
vt 0.3492900 0.1474980
f 39/59/39 38/61/38 40/62/40
f 34/17/34 33/8/33 2/4/2
f 34/17/34 2/4/2 1/55/1
f 36/53/36 34/21/34 1/24/1
f 36/53/36 1/24/1 5/54/5
f 38/58/38 36/55/36 5/4/5
f 38/58/38 5/4/5 7/26/7
vt 0.4967880 -0.0000000
f 40/63/40 38/12/38 7/11/7
f 40/63/40 7/11/7 9/61/9
vt 0.1890140 0.5570790
vt 0.1890140 0.7045770
vt 0.1474980 0.7045770
f 17/64/17 16/65/16 41/66/41
vt 0.1474980 0.5570790
f 17/64/17 41/66/41 42/67/42
vt 0.9371410 0.0000000
vt 0.9372700 0.1474980
f 22/68/22 29/69/29 30/28/30
f 22/68/22 30/28/30 23/27/23
vt 0.1435420 0.6472570
vt 0.1435420 0.7947550
vt 0.1020260 0.7947550
f 18/70/18 17/71/17 42/72/42
vt 0.1023530 0.6472570
f 18/70/18 42/72/42 43/73/43
vt 0.1890140 0.4095810
f 20/74/20 19/64/19 44/67/44
vt 0.1474980 0.4095810
f 20/74/20 44/67/44 45/75/45
vt 1.0000000 0.4336760
vt 1.0000000 0.5811740
f 28/76/28 27/77/27 32/34/32
vt 0.8957880 0.4336760
f 28/76/28 32/34/32 31/78/31
vt 0.1042120 0.8520200
vt 0.1042120 0.9995180
vt 0.0000000 0.9995180
f 30/79/30 28/80/28 31/81/31
vt 0.0000000 0.8520200
f 30/79/30 31/81/31 35/82/35
vt 0.8142290 0.8790660
f 23/48/23 30/47/30 35/83/35
f 23/48/23 35/83/35 37/29/37
f 24/44/24 23/43/23 37/14/37
vt 0.7942710 0.5840700
f 24/44/24 37/14/37 39/84/39
vt 0.5836080 0.8790660
f 42/32/42 41/31/41 26/85/26
vt 0.5836080 0.7315680
f 42/32/42 26/85/26 25/86/25
vt 0.4573680 0.8790660
f 45/86/45 44/85/44 22/87/22
vt 0.4573680 0.7315680
f 45/86/45 22/87/22 21/88/21
vt 0.2044900 0.8790660
vt 0.3307300 0.7316770
f 29/89/29 22/25/22 44/90/44
vt 0.3309290 0.8791760
f 29/89/29 44/90/44 43/91/43
vt 0.3309290 0.7316780
f 25/91/25 29/92/29 43/88/43
vt 0.4571690 0.8790660
f 25/91/25 43/88/43 42/93/42
vt 0.1890140 0.8520750
vt 0.1478250 0.8520750
f 19/65/19 18/94/18 43/95/43
f 19/65/19 43/95/43 44/66/44
vt 0.2044900 0.1442170
vt 0.3492900 0.2890740
f 66/96/66 69/59/69 72/97/72
vt 0.7915780 0.2890740
vt 0.6469840 0.4336740
f 65/98/65 64/39/64 72/99/72
vt 0.1881230 0.4095810
vt 0.1474980 0.3688290
vt 0.1881230 0.2047630
f 72/100/72 71/101/71 66/102/66
vt 0.1435420 0.9637760
vt 0.1139830 0.8435960
f 71/103/71 67/104/67 66/71/66
vt 0.6469840 0.4337340
vt 0.7914580 0.5782780
f 66/105/66 70/36/70 69/106/69
vt 0.1020260 0.7497290
vt 0.0000000 0.6472570
f 68/107/68 65/82/65 69/108/69
vt 0.2044900 0.2047630
vt 0.0000000 0.2043220
vt 0.2044900 0.0000000
f 65/109/65 72/110/72 69/111/69
vt 0.4711660 0.1474980
vt 0.4711660 0.2737380
vt 0.4657320 0.2737380
f 45/112/45 21/113/21 46/114/46
vt 0.4657320 0.1474980
f 45/112/45 46/114/46 47/115/47
vt 0.5079540 0.1707280
vt 0.5079540 0.2118910
vt 0.5025200 0.2118910
f 21/116/21 24/117/24 48/118/48
vt 0.5025200 0.1707280
f 21/116/21 48/118/48 46/119/46
vt 0.4841790 0.1474980
vt 0.4841790 0.2518230
vt 0.4787450 0.2518230
f 15/120/15 20/121/20 49/122/49
vt 0.4787450 0.1474980
f 15/120/15 49/122/49 50/123/50
vt 0.2044900 0.3522610
vt 0.1990560 0.3522610
f 39/109/39 40/124/40 51/125/51
vt 0.1990570 0.2047630
f 39/109/39 51/125/51 52/126/52
vt 0.4766000 0.2350720
vt 0.4766000 0.2765890
vt 0.4711660 0.2765890
f 20/127/20 45/128/45 47/129/47
vt 0.4711660 0.2350720
f 20/127/20 47/129/47 49/130/49
vt 0.4841790 0.2517100
vt 0.4896130 0.1474980
f 24/131/24 39/120/39 52/132/52
vt 0.4896130 0.2517100
f 24/131/24 52/132/52 48/133/48
vt 0.1974690 0.5540550
vt 0.1974690 0.7015520
vt 0.1920350 0.7015520
f 10/134/10 15/135/15 50/136/50
vt 0.1920350 0.5540550
f 10/134/10 50/136/50 53/137/53
vt 0.1974690 0.8489190
vt 0.1920350 0.8489190
f 9/135/9 10/138/10 53/139/53
f 9/135/9 53/139/53 54/136/54
vt 0.2044900 0.4997590
vt 0.1990560 0.4997590
f 40/124/40 9/140/9 54/141/54
f 40/124/40 54/141/54 51/125/51
vt 0.1920350 0.5540540
vt 0.1890140 0.7014290
f 52/142/52 51/136/51 55/143/55
vt 0.1890140 0.5568270
f 52/142/52 55/143/55 56/144/56
vt 0.9371950 0.2861870
vt 0.9371940 0.2274920
vt 0.9399620 0.2285110
f 49/145/49 47/146/47 57/147/57
vt 0.9399630 0.2860530
f 49/145/49 57/147/57 58/148/58
vt 0.1435590 0.7946240
vt 0.1463140 0.6502790
f 48/149/48 52/70/52 56/150/56
vt 0.1463300 0.7947520
f 48/149/48 56/150/56 59/151/59
vt 0.1920350 0.8490500
vt 0.1890140 0.8460310
f 51/136/51 54/152/54 60/153/60
f 51/136/51 60/153/60 55/143/55
vt 0.1957020 0.3310030
vt 0.1957020 0.2047630
vt 0.1983800 0.2060050
f 47/154/47 46/155/46 61/156/61
vt 0.1983800 0.3297670
f 47/154/47 61/156/61 57/157/57
vt 0.9371940 0.4336760
f 50/158/50 49/145/49 58/148/58
vt 0.9399620 0.4306470
f 50/158/50 58/148/58 62/159/62
vt 0.2023370 0.6471260
vt 0.2020810 0.7946240
vt 0.1990570 0.7918510
f 53/160/53 50/161/50 62/162/62
vt 0.1993080 0.6472490
f 53/160/53 62/162/62 63/163/63
vt 0.1435420 0.8528560
f 46/164/46 48/149/48 59/151/59
vt 0.1463140 0.8518410
f 46/164/46 59/151/59 61/165/61
vt 0.2020810 0.4997590
f 54/166/54 53/160/53 63/163/63
vt 0.1990570 0.5027750
f 54/166/54 63/163/63 60/167/60
vt 0.4657320 0.2497140
vt 0.4581530 0.2497140
f 63/115/63 62/168/62 64/169/64
vt 0.4581530 0.1474980
f 63/115/63 64/169/64 65/170/65
vt 0.4239790 0.2680420
vt 0.4239790 0.2109530
vt 0.4315580 0.2109530
f 61/171/61 59/172/59 66/173/66
vt 0.4315580 0.2680420
f 61/171/61 66/173/66 67/174/67
vt 0.4354160 0.2499790
vt 0.4354160 0.1474980
vt 0.4429950 0.1474980
f 60/175/60 63/176/63 65/177/65
vt 0.4429950 0.2499790
f 60/175/60 65/177/65 68/178/68
vt 0.4429950 0.2497800
vt 0.4505740 0.1474980
f 56/179/56 55/177/55 69/180/69
vt 0.4505740 0.2497800
f 56/179/56 69/180/69 70/181/70
vt 0.1881230 0.4068990
vt 0.1881230 0.3493570
vt 0.1957020 0.3493570
f 58/182/58 57/183/57 71/184/71
vt 0.1957020 0.4068990
f 58/182/58 71/184/71 72/185/72
vt 0.1890140 0.5540540
vt 0.1965930 0.4095810
f 59/186/59 56/74/56 70/187/70
vt 0.1965930 0.5540540
f 59/186/59 70/187/70 66/188/66
f 55/181/55 60/180/60 68/170/68
vt 0.4581530 0.2497800
f 55/181/55 68/170/68 69/189/69
f 57/130/57 61/112/61 67/123/67
vt 0.4787450 0.2350720
f 57/130/57 67/123/67 71/190/71
f 62/183/62 58/102/58 72/155/72
f 62/183/62 72/155/72 64/184/64
vt 0.5329490 0.2087050
vt 0.5329490 0.2013030
vt 0.5403510 0.2013030
f 73/191/73 74/192/74 75/193/75
vt 0.5403510 0.2087050
f 73/191/73 75/193/75 76/194/76
vt 0.5329490 0.1939880
vt 0.5255470 0.1939880
vt 0.5255470 0.1809190
f 76/195/76 75/196/75 77/197/77
vt 0.5329490 0.1809190
f 76/195/76 77/197/77 78/198/78
vt 0.4290070 0.2754440
vt 0.4290070 0.2680420
vt 0.4342420 0.2680420
f 78/199/78 77/200/77 79/201/79
vt 0.4342420 0.2754440
f 78/199/78 79/201/79 80/202/80
vt 0.5201140 0.2303790
vt 0.5127120 0.2303790
vt 0.5127120 0.2118910
f 80/203/80 79/204/79 74/205/74
vt 0.5201140 0.2118910
f 80/203/80 74/205/74 73/206/73
vt 0.5181460 0.2077030
vt 0.5181460 0.1892150
vt 0.5255470 0.1892150
f 77/207/77 75/208/75 74/209/74
vt 0.5255470 0.2077030
f 77/207/77 74/209/74 79/210/79
vt 0.5330210 0.1549000
vt 0.5330210 0.1474980
vt 0.5404230 0.1474980
f 80/211/80 79/212/79 77/213/77
vt 0.5404230 0.1549000
f 80/211/80 77/213/77 78/214/78
vt 0.5329490 0.2070570
vt 0.5255470 0.2070570
f 78/215/78 77/216/77 81/196/81
f 78/215/78 81/196/81 82/195/82
vt 0.4290070 0.2828450
f 82/217/82 81/199/81 83/202/83
vt 0.4342420 0.2828450
f 82/217/82 83/202/83 84/218/84
vt 0.5221540 0.2703110
vt 0.5147520 0.2703110
vt 0.5147520 0.2518230
f 84/219/84 83/220/83 79/221/79
vt 0.5221540 0.2518230
f 84/219/84 79/221/79 80/222/80
vt 0.5275150 0.2118910
f 81/203/81 77/206/77 79/223/79
vt 0.5275150 0.2303790
f 81/203/81 79/223/79 83/224/83
vt 0.5154280 0.1474980
vt 0.5154280 0.1707270
vt 0.5025200 0.1707270
f 85/225/85 86/226/86 87/227/87
vt 0.5025200 0.1474980
f 85/225/85 87/227/87 88/228/88
vt 0.3726160 0.2680420
vt 0.3726160 0.2351800
vt 0.3982980 0.2351800
f 88/229/88 87/230/87 89/231/89
vt 0.3982980 0.2680420
f 88/229/88 89/231/89 90/232/90
vt 0.4896130 0.1803600
f 90/233/90 89/132/89 91/228/91
vt 0.5025200 0.1803600
f 90/233/90 91/228/91 92/234/92
vt 0.3855240 0.2862070
vt 0.3726160 0.2862070
f 85/235/85 88/236/88 90/229/90
vt 0.3855240 0.2680420
f 85/235/85 90/229/90 92/237/92
vt 0.5025200 0.2060410
f 87/233/87 86/234/86 91/238/91
vt 0.4896130 0.2060410
f 87/233/87 91/238/91 89/239/89
vt 0.5045600 0.2518230
vt 0.5045600 0.2750530
vt 0.4916530 0.2750530
f 93/240/93 94/241/94 95/242/95
vt 0.4916530 0.2518230
f 93/240/93 95/242/95 96/243/96
vt 0.4239790 0.2351800
f 96/232/96 95/231/95 97/244/97
f 96/232/96 97/244/97 98/171/98
vt 0.4787450 0.2846850
f 98/245/98 97/122/97 99/243/99
vt 0.4916530 0.2846850
f 98/245/98 99/243/99 100/246/100
vt 0.3984310 0.2862070
f 93/247/93 96/235/96 98/237/98
vt 0.3984310 0.2680420
f 93/247/93 98/237/98 100/248/100
vt 0.5025200 0.2317230
f 95/239/95 94/238/94 99/249/99
vt 0.4896130 0.2317230
f 95/239/95 99/249/99 97/250/97
vt 0.4120900 0.2351800
vt 0.3887630 0.2351800
vt 0.3887630 0.1474980
f 101/251/101 102/252/102 103/253/103
vt 0.4120900 0.1474980
f 101/251/101 103/253/103 104/254/104
vt 0.3726160 0.2746530
vt 0.3492900 0.2746530
vt 0.3492900 0.2351800
f 104/255/104 103/256/103 105/257/105
f 104/255/104 105/257/105 106/230/106
vt 0.4354160 0.2094790
f 106/254/106 105/176/105 107/258/107
vt 0.4120900 0.2094790
f 106/254/106 107/258/107 108/259/108
vt 0.4587420 0.2779000
vt 0.4354160 0.2779000
f 108/260/108 107/261/107 102/175/102
vt 0.4587420 0.2499790
f 108/260/108 102/175/102 101/262/101
f 105/62/105 103/253/103 102/252/102
f 105/62/105 102/252/102 107/257/107
vt 0.5404230 0.1623010
vt 0.5330210 0.1623010
f 109/263/109 110/264/110 111/211/111
f 109/263/109 111/211/111 112/214/112
vt 0.5349170 0.2249590
vt 0.5275150 0.2249590
f 112/265/112 111/266/111 113/223/113
vt 0.5349170 0.2118910
f 112/265/112 113/223/113 114/267/114
vt 0.4587420 0.2573810
vt 0.4639780 0.2499790
f 114/268/114 113/262/113 115/269/115
vt 0.4639780 0.2573810
f 114/268/114 115/269/115 116/270/116
vt 0.5228290 0.1659860
vt 0.5154280 0.1659860
f 116/271/116 115/272/115 110/225/110
vt 0.5228290 0.1474980
f 116/271/116 110/225/110 109/273/109
vt 0.5147520 0.2887990
f 113/274/113 111/220/111 110/219/110
vt 0.5221540 0.2887990
f 113/274/113 110/219/110 115/275/115
vt 0.5404230 0.1697030
vt 0.5330210 0.1697030
f 116/276/116 115/277/115 113/264/113
f 116/276/116 113/264/113 114/263/114
vt 0.5349910 0.2447910
vt 0.5275900 0.2447910
vt 0.5275900 0.2317230
f 114/278/114 113/279/113 117/280/117
vt 0.5349910 0.2317230
f 114/278/114 117/280/117 118/281/118
vt 0.4587420 0.2647820
f 118/282/118 117/268/117 119/270/119
vt 0.4639780 0.2647820
f 118/282/118 119/270/119 120/283/120
vt 0.5275900 0.2502110
vt 0.5201880 0.2502110
vt 0.5201880 0.2317230
f 120/284/120 119/285/119 115/286/115
f 120/284/120 115/286/115 116/280/116
vt 0.5181460 0.1707270
vt 0.5255470 0.1707270
f 117/208/117 113/287/113 115/288/115
f 117/208/117 115/288/115 119/209/119
vt 0.5323460 0.2722070
vt 0.5323460 0.2620150
vt 0.5395500 0.2620150
f 121/289/121 122/290/122 123/291/123
vt 0.5395500 0.2722070
f 121/289/121 123/291/123 124/292/124
vt 0.3594820 0.2877300
vt 0.3492900 0.2877300
f 124/293/124 123/294/123 125/256/125
vt 0.3594820 0.2746530
f 124/293/124 125/256/125 126/295/126
vt 0.4354160 0.2880920
vt 0.4456080 0.2779000
f 126/296/126 125/261/125 127/297/127
vt 0.4456080 0.2880920
f 126/296/126 127/297/127 128/298/128
vt 0.4086230 0.2865300
vt 0.3984310 0.2865300
f 128/299/128 127/300/127 122/248/122
vt 0.4086230 0.2680420
f 128/299/128 122/248/122 121/301/121
vt 0.5025200 0.2303790
f 125/302/125 123/118/123 122/205/122
f 125/302/125 122/205/122 127/204/127
vt 0.5323460 0.2823990
f 128/303/128 127/289/127 125/292/125
vt 0.5395500 0.2823990
f 128/303/128 125/292/125 126/304/126
vt 0.3696740 0.2877300
f 126/305/126 125/293/125 129/295/129
vt 0.3696740 0.2746530
f 126/305/126 129/295/129 130/306/130
vt 0.4558000 0.2779000
f 130/298/130 129/297/129 131/307/131
vt 0.4558000 0.2880920
f 130/298/130 131/307/131 132/308/132
vt 0.4290070 0.2865300
vt 0.4188150 0.2865300
vt 0.4188150 0.2680420
f 132/309/132 131/310/131 127/311/127
f 132/309/132 127/311/127 128/200/128
vt 0.5079540 0.1892150
f 129/287/129 125/208/125 127/312/127
vt 0.5079540 0.1707270
f 129/287/129 127/312/127 131/313/131
vt 0.5329490 0.1911110
vt 0.5401540 0.1809190
f 132/314/132 131/198/131 129/315/129
vt 0.5401540 0.1911110
f 132/314/132 129/315/129 130/316/130
vt 0.5323460 0.2779780
vt 0.5221540 0.2779780
vt 0.5221540 0.2649010
f 130/317/130 129/318/129 133/319/133
vt 0.5323460 0.2649010
f 130/317/130 133/319/133 134/320/134
vt 0.5221540 0.2881690
f 134/321/134 133/318/133 135/317/135
vt 0.5323460 0.2881690
f 134/321/134 135/317/135 136/322/136
vt 0.5099960 0.2502110
vt 0.4998050 0.2502110
vt 0.4998050 0.2317230
f 136/323/136 135/324/135 131/325/131
vt 0.5099960 0.2317230
f 136/323/136 131/325/131 132/326/132
vt 0.5079540 0.2077030
f 133/208/133 129/207/129 131/327/131
f 133/208/133 131/327/131 135/312/135
f 137/192/137 138/314/138 133/316/133
vt 0.5401540 0.2013030
f 137/192/137 133/316/133 134/328/134
vt 0.5018440 0.2881300
vt 0.4916530 0.2881300
f 134/329/134 133/330/133 139/242/139
vt 0.5018440 0.2750530
f 134/329/134 139/242/139 140/331/140
vt 0.5228290 0.1576900
f 140/332/140 139/273/139 141/212/141
vt 0.5330210 0.1576900
f 140/332/140 141/212/141 142/333/142
vt 0.4998040 0.2502110
vt 0.4896130 0.2502110
f 142/334/142 141/335/141 138/250/138
vt 0.4998040 0.2317230
f 142/334/142 138/250/138 137/336/137
f 139/286/139 133/285/133 138/323/138
f 139/286/139 138/323/138 141/326/141
vt 0.4711660 0.2867810
vt 0.4783700 0.2765890
f 142/337/142 141/129/141 139/338/139
vt 0.4783700 0.2867810
f 142/337/142 139/338/139 140/339/140
vt 0.5323460 0.2649000
vt 0.5221540 0.2649000
f 140/340/140 139/341/139 143/222/143
vt 0.5323460 0.2518230
f 140/340/140 143/222/143 144/342/144
vt 0.5228290 0.1678820
f 144/343/144 143/332/143 145/333/145
vt 0.5330210 0.1678820
f 144/343/144 145/333/145 146/344/146
vt 0.4222820 0.2279670
vt 0.4120900 0.2279670
f 146/345/146 145/346/145 141/259/141
vt 0.4222820 0.2094790
f 146/345/146 141/259/141 142/347/142
vt 0.5045600 0.2703110
f 143/348/143 139/240/139 141/221/141
f 143/348/143 141/221/141 145/220/145
vt 0.5395500 0.2518230
f 146/290/146 145/342/145 147/349/147
f 146/290/146 147/349/147 148/291/148
vt 0.4711660 0.2868150
vt 0.4609740 0.2868150
vt 0.4609740 0.2737380
f 148/350/148 147/351/147 149/352/149
f 148/350/148 149/352/149 150/113/150
vt 0.5357390 0.1707270
f 150/197/150 149/288/149 151/353/151
vt 0.5357390 0.1809190
f 150/197/150 151/353/151 152/354/152
f 152/310/152 151/299/151 145/301/145
f 152/310/152 145/301/145 146/311/146
vt 0.5045600 0.2887990
f 149/355/149 147/348/147 145/220/145
f 149/355/149 145/220/145 151/274/151
# 263 faces, 355 coords texture

# End of File
