# Blender 5.1.0
# www.blender.org
mtllib car3Low.mtl
o car3Low
v 2.156127 1.050579 -0.764735
v 1.199278 1.201958 -0.788466
v 1.198224 0.397808 -0.810576
v 0.244917 0.953500 -0.838930
v 1.244611 0.880990 -0.847965
v -0.645399 1.179970 -0.821204
v -0.578007 0.402477 -0.806356
v -2.288838 0.771296 -0.800467
v 2.302629 1.055416 -0.772867
v 0.671500 1.610397 -0.661060
v 0.232951 1.676421 -0.574101
v -0.580763 1.681673 -0.566821
v -0.582168 1.666088 -0.636260
v -2.330201 1.173059 -0.773373
v 1.173648 1.260488 -0.769455
v 0.718872 1.589926 -0.666877
v 2.425923 1.024056 -0.535144
v 2.462315 1.054159 0.489439
v 2.296943 1.128106 -0.543164
v 0.762947 1.646980 0.539420
v 2.372425 1.060491 -0.582583
v 1.376822 1.173743 -0.713440
v 0.735426 1.638803 -0.584231
v -0.580402 1.684952 -0.559920
v 0.739993 1.531976 -0.706929
v 0.714926 1.564519 -0.634348
v 0.727040 1.607814 -0.595597
v 2.015636 0.890267 -0.901004
v -0.979650 0.404224 -0.843674
v -1.136041 0.887802 -0.894585
v -1.797248 0.880003 -0.879176
v 2.262532 0.786745 -0.920356
v 0.090097 0.402029 -0.805065
v 0.162530 1.152345 -0.820613
v 1.089038 1.218916 -0.793727
v 1.136446 1.128605 -0.817380
v 1.194904 1.184835 -0.799891
v 1.261642 0.790133 -0.907807
v 1.295486 0.366245 -0.847744
v 0.072335 1.660459 -0.646081
v -0.007130 1.161954 -0.814046
v 0.087447 1.089558 -0.844321
v 0.123283 1.572276 -0.679784
v 0.001995 1.603855 -0.669655
v -0.465619 1.615819 -0.658789
v 0.235209 1.062538 -0.829345
v 0.349743 0.953515 -0.837295
v 0.364837 1.040644 -0.833598
v 2.535160 0.419359 -0.430078
v 1.119497 0.370613 -0.844074
v 1.130614 0.281694 -0.789674
v 1.236706 1.217525 -0.773897
v 1.328014 1.117239 -0.774492
v 1.479291 1.138902 -0.189267
v 2.484536 0.427197 -0.732485
v 2.431456 0.768845 -0.765386
v 2.506521 0.382571 -0.734939
v 2.250074 0.394332 -0.860637
v 2.179847 0.296224 -0.837898
v 2.480162 0.680887 -0.782883
v 2.523303 0.719904 -0.577282
v 2.139503 0.680627 -0.911370
v 2.204759 0.724592 -0.947496
v 2.544412 0.443123 -0.562659
v 2.467393 0.303553 -0.701954
v 2.518071 0.303357 0.585773
v 2.588514 0.528081 -0.399116
v 2.595876 0.530462 0.353011
v 2.464793 0.678927 -0.790104
v 2.513774 0.407498 -0.498997
v 2.542043 0.584939 -0.617010
v 2.595642 0.516428 -0.400228
v 2.541764 0.506547 -0.393685
v 2.597408 0.688856 -0.508473
v -0.495904 1.587300 -0.668333
v -0.636539 1.081582 -0.839722
v -1.902865 0.582850 -0.827024
v -2.290846 0.583799 -0.781398
v -1.936749 0.368520 -0.756774
v -2.249004 0.395234 -0.698792
v -1.913627 0.583469 -0.832464
v -0.491679 1.167988 -0.808536
v 0.082026 0.888630 -0.843510
v 0.082987 0.402089 -0.804618
v -0.566622 0.403055 -0.803559
v -0.561432 0.326461 -0.816016
v -0.604855 1.581834 -0.610370
v -0.596484 1.671948 0.575276
v -0.595979 1.668442 -0.614364
v -2.387688 0.583439 -0.765622
v -2.457211 0.741076 -0.690472
v -2.496662 0.771315 -0.259628
v -2.437532 0.583799 -0.644964
v -2.480554 1.095001 0.621619
v -2.454268 0.787037 -0.665417
v -2.462775 1.095141 -0.666286
v -2.429792 0.771296 -0.676002
v -0.698418 0.652596 -0.746594
v -1.744544 0.896935 -0.743397
v -0.667141 1.180437 -0.784693
v -1.908046 0.652596 -0.722896
v -2.368743 0.652420 -0.703055
v -2.388700 1.180112 -0.741835
v -2.403249 0.652277 -0.693428
v -2.421935 1.180242 -0.723049
v -1.183179 0.867157 -0.753858
v -0.666958 1.194027 -0.781053
v -1.785739 0.861517 -0.740123
v -1.908046 0.652596 -0.422990
v -1.785739 0.861517 -0.422990
v -1.247382 0.905659 -0.754951
v -1.217060 0.894270 -0.422990
v -1.025323 0.652596 -0.742557
v -1.025323 0.652596 -0.422990
v -2.372881 0.652544 -0.699627
v -2.480182 0.509042 -0.022051
v -2.346825 0.416991 -0.635842
v -2.529514 0.564106 -0.680270
v -2.271508 0.396338 -0.728208
v -2.565806 0.481575 -0.379590
v -2.548980 0.396338 -0.393771
v -2.548813 0.396338 -0.394724
v -2.480477 0.394562 -0.719336
v -2.284133 0.509199 -0.696023
v -2.544341 0.481575 -0.622444
v -2.474550 0.481575 -0.022050
v -2.415732 0.481575 -0.625353
v 2.204570 0.318678 -0.851200
v 2.192226 0.300816 -0.561751
v 2.060768 0.760080 -0.561541
v 2.042042 0.807218 -0.916278
v 1.740750 0.854918 -0.923436
v 1.740750 0.854918 -0.561541
v 1.429441 0.819427 -0.921280
v 1.445321 0.797307 -0.561541
v 1.265437 0.288913 -0.846028
v -1.141378 0.834812 -0.925500
v -1.166610 0.846503 -0.562117
v -1.780341 0.836836 -0.916281
v -1.802017 0.794332 -0.561568
v -1.891584 0.364826 -0.809120
v -1.888279 0.360781 -0.561541
v -1.026133 0.281735 -0.828927
v -0.971408 0.281697 -0.830354
v -1.020719 0.282329 -0.831177
v -1.026133 0.281735 -0.561541
v -0.845482 0.282113 -0.789676
v -1.026133 0.281737 -0.561541
v 1.109105 0.279924 -0.787501
v 1.290959 0.276550 -0.561541
v 1.228156 0.278510 -0.837138
v 1.274230 0.282751 -0.562003
v 1.290959 0.276550 -0.835559
v -1.913283 0.382460 -0.561541
v -1.761157 0.816717 -0.561541
v -1.179747 0.813263 -0.561541
v -1.005876 0.295509 -0.561541
v 1.275378 0.284799 -0.561541
v 2.188139 0.303253 -0.561541
v -1.470282 0.875291 -0.561541
v 2.246054 0.299021 -0.838089
v 2.176534 0.297536 -0.561541
v 2.484246 0.304056 -0.634406
v -1.888279 0.360781 0.514966
v -1.888279 0.360781 -0.561541
v 2.547480 0.305626 -0.022051
v -1.912131 0.362864 -0.781823
v -2.311697 0.396417 -0.022050
v -2.249004 0.395234 -0.698792
v 2.262532 0.786745 0.876257
v 2.015637 0.890266 0.856903
v 1.244611 0.880988 0.803864
v 0.364837 1.040644 0.789497
v -0.578007 0.402477 0.762254
v -2.288838 0.771296 0.756366
v 2.302630 1.055416 0.728765
v 2.156127 1.050579 0.720633
v 1.199278 1.201958 0.744365
v 1.376822 1.173744 0.669339
v 1.194904 1.184835 0.755789
v 0.671497 1.610398 0.616958
v 0.727040 1.607814 0.551496
v 0.072335 1.660459 0.601980
v 0.232951 1.676421 0.530000
v -0.582167 1.666088 0.592159
v -2.330201 1.173059 0.729272
v 1.416065 1.192901 0.554641
v 1.482226 1.199721 -0.553969
v 2.372425 1.060491 0.538481
v -0.579828 1.690598 0.515831
v 1.173647 1.260487 0.725354
v 0.718875 1.589925 0.622776
v 1.261642 0.790133 0.863706
v 1.198224 0.397808 0.766474
v -1.136042 0.887802 0.850485
v -0.979650 0.404224 0.799573
v -1.797248 0.880003 0.835075
v 0.714926 1.564519 0.590247
v 0.087447 1.089558 0.800220
v 0.090097 0.402029 0.760965
v 0.082026 0.888631 0.799409
v -0.007130 1.161954 0.769945
v 1.136446 1.128605 0.773279
v 0.739992 1.531975 0.662826
v 1.089038 1.218916 0.749625
v 1.295487 0.366244 0.803649
v 1.130614 0.281694 0.745573
v 0.001995 1.603855 0.625554
v 0.162530 1.152345 0.776512
v 0.123283 1.572277 0.635686
v -0.465619 1.615819 0.614688
v 0.235209 1.062538 0.785244
v 0.244917 0.953500 0.794829
v 0.349743 0.953515 0.793194
v 2.549535 0.514496 -0.376789
v 2.524091 0.471399 0.376149
v 1.119496 0.370613 0.799972
v 1.398940 1.235035 -0.165537
v 1.360579 1.178010 0.528372
v 2.473004 0.389780 0.735557
v 2.442328 0.412535 0.605164
v 2.204758 0.724592 0.903394
v 2.179846 0.296224 0.793797
v 2.139503 0.680627 0.867268
v 2.523301 0.719902 0.533182
v 2.480162 0.680887 0.738781
v 2.431456 0.768845 0.721284
v 2.600075 0.385711 -0.022051
v 2.394449 0.518419 0.456810
v 2.571359 0.664251 0.516016
v 2.522054 0.666778 0.653715
v 2.534258 0.509148 0.355198
v 2.582716 0.523194 0.368014
v 2.559664 0.706215 0.463293
v -0.580763 1.681673 0.522720
v -0.495904 1.587300 0.624232
v -0.645399 1.179970 0.777103
v -2.387688 0.583439 0.721521
v -1.902865 0.582850 0.782923
v -2.290846 0.583799 0.737297
v -2.249004 0.395234 0.654691
v -1.913627 0.583469 0.788363
v -1.936749 0.368520 0.712673
v -0.491679 1.167989 0.764435
v -0.636539 1.081582 0.795621
v -0.566622 0.403055 0.759458
v 0.082987 0.402089 0.760517
v -0.561432 0.326461 0.771915
v -0.604955 1.580669 0.567259
v -0.649119 1.219656 0.705555
v -2.457211 0.741076 0.646371
v -2.490791 0.583318 0.597897
v -2.450402 0.771409 0.634748
v -2.499696 0.786908 0.614069
v -0.698418 0.652596 0.702493
v -1.744543 0.896935 0.699296
v -2.388699 1.180112 0.697734
v -2.368743 0.652420 0.658955
v -2.386654 0.652596 0.589324
v -2.438082 1.180505 0.448789
v -2.383348 1.180412 0.677828
v -2.367642 0.652596 0.655220
v -1.183179 0.867157 0.709757
v -0.667141 1.180438 0.740591
v -0.698472 0.652596 0.702493
v -0.667100 1.180413 0.738618
v -1.785739 0.861517 0.696022
v -1.785739 0.861517 0.378889
v -1.908046 0.652596 0.378889
v -1.908046 0.652596 0.678795
v -1.247381 0.905659 0.710850
v -1.217059 0.894270 0.378889
v -1.025323 0.652596 0.698456
v -1.025323 0.652596 0.378889
v -0.698468 0.652596 0.702484
v -2.394519 0.653220 0.648242
v -1.908046 0.652596 0.378889
v -2.346825 0.416991 0.591742
v -2.311446 0.396215 -0.022050
v -2.284133 0.509199 0.651922
v -2.499982 0.396338 0.661836
v -2.565680 0.481569 0.336350
v -2.548782 0.396343 0.350738
v -2.480477 0.394562 0.675235
v -2.529514 0.564106 0.636169
v -2.565639 0.481575 0.336706
v -2.474193 0.481575 0.581625
v 2.192226 0.300816 0.517649
v 2.060768 0.760080 0.517440
v 2.204570 0.318678 0.807098
v 2.042042 0.807218 0.872177
v 1.740750 0.854918 0.879335
v 1.740750 0.854918 0.517440
v 1.445321 0.797307 0.517440
v 1.429441 0.819427 0.877179
v 1.274230 0.282751 0.517902
v -1.166609 0.846503 0.518016
v -1.141377 0.834812 0.881399
v -1.802016 0.794332 0.517467
v -1.780341 0.836836 0.872180
v -1.891584 0.364826 0.765017
v -1.888279 0.360781 0.517440
v -1.005356 0.284965 0.759773
v -1.026133 0.281735 0.517440
v -1.020719 0.282329 0.787075
v -1.022631 0.284780 0.514741
v 1.290959 0.276550 0.517440
v 1.275084 0.277356 0.789968
v 1.265437 0.288912 0.801926
v -1.179747 0.813263 0.517440
v -1.761157 0.816717 0.517440
v -1.913283 0.382460 0.517440
v -1.005876 0.295509 0.517440
v 2.188139 0.303253 0.517440
v 1.275378 0.284799 0.517440
v -1.470282 0.875291 0.517440
v 2.468232 0.303719 0.668335
v 2.184327 0.297702 0.787721
v 2.176534 0.297536 0.517440
v -1.890635 0.360696 0.764363
v -2.082430 0.378448 0.671766
v -2.249004 0.395234 0.654691
v -0.481729 1.166692 -0.022131
v 0.077848 1.153811 -0.022051
v 0.187109 1.151973 -0.814105
v 0.962929 1.135130 -0.813424
v 1.252415 1.222377 -0.740563
v 0.077848 1.153811 -0.730477
v -0.028850 1.155152 -0.806656
v 1.390827 1.248328 -0.022050
v 0.771177 1.618948 -0.022051
v 0.424481 1.591390 -0.668488
v 0.097912 1.607594 -0.629865
v 0.735761 1.603194 -0.508137
v -0.463208 1.158559 -0.805145
v -0.510196 1.608839 -0.630997
v -0.627225 1.266912 -0.727809
v -0.476107 1.177742 -0.793479
v -0.481729 1.166692 -0.021971
v 0.185641 1.151518 0.768936
v 0.960996 1.135645 0.770597
v 0.077848 1.153811 0.686376
v -0.028850 1.155152 0.762554
v 1.252415 1.222377 0.696462
v 0.735761 1.603194 0.464036
v 0.424481 1.591390 0.624387
v 0.093169 1.639999 0.583476
v -0.472746 1.176618 0.752501
v -0.627225 1.266912 0.683708
v -0.505004 1.610220 0.587453
v 1.098313 1.098324 -0.251066
v 0.968172 1.325897 -0.432015
v 0.928218 1.143901 -0.182642
v 1.127556 1.232688 -0.463921
v 1.013267 1.121114 -0.678188
v 0.311992 1.080529 -0.115150
v 0.311993 1.080529 -0.763111
v 0.192298 1.059423 -0.115150
v 0.192298 1.059423 -0.763111
v 0.262683 1.360178 -0.657539
v 0.262683 1.360178 -0.220723
v 0.142988 1.339073 -0.220723
v 0.142989 1.339073 -0.657539
v -0.386778 1.048151 -0.759603
v -0.386778 1.048151 0.715502
v -0.438100 1.339211 -0.600444
v -0.438100 1.339211 0.556343
v -0.558765 1.317933 0.556343
v -0.558765 1.317933 -0.600444
v 0.311993 1.080529 0.071049
v 0.262422 1.361656 0.592955
v 0.311993 1.080529 0.719010
v 0.142728 1.340551 0.197105
v 0.192298 1.059423 0.071049
v 0.192298 1.059423 0.719010
v 0.262422 1.361656 0.197104
v 0.142728 1.340551 0.592954
v -0.507443 1.026875 0.715502
v -0.507443 1.026875 -0.759603
v 1.669165 0.184954 -0.624173
v 1.619785 0.230672 -0.525723
v 1.827502 0.214279 -0.619098
v 1.877037 0.230672 -0.525724
v -1.333503 0.254128 -0.521348
v -1.359735 0.183652 -0.618725
v -1.560758 0.254128 -0.521348
v 1.619785 0.339999 0.580071
v 1.877038 0.230672 0.481621
v 1.877037 0.339999 -0.624173
v -1.538388 0.240325 -0.606153
v -1.333503 0.396749 -0.618943
v 1.650242 0.220694 0.570293
v 1.842080 0.172016 0.579819
v 1.877038 0.230672 0.481622
v 1.619785 0.230672 0.481622
v -1.560758 0.254128 0.477247
v -1.517136 0.194487 0.574841
v -1.374814 0.229034 0.567291
v -1.333503 0.254128 -0.521348
v -1.333503 0.254128 0.477247
v 1.877038 0.339999 0.580071
v -1.563328 0.395364 0.574841
v -1.333503 0.396749 0.574841
v 1.617337 0.338493 -0.624173
v -2.479166 0.396338 -0.715875
v -2.292218 0.396338 0.672323
v -1.560758 0.396749 -0.618942
v 1.530081 0.432181 -0.824082
v 1.882283 0.517982 -0.776090
v 1.792196 0.181774 -0.776091
v 1.635871 0.350498 -0.888723
v 1.770357 0.478915 -0.888717
v 1.814326 0.298239 -0.888728
v 1.677362 0.459399 -0.882062
v 1.843921 0.388533 -0.882062
v 1.699270 0.279722 -0.882065
v 1.799105 0.565783 -0.817182
v 1.592657 0.586448 -0.913521
v 1.917910 0.593212 -0.885229
v 1.764615 0.176103 -0.827714
v 1.765320 0.149634 -0.922099
v 1.549500 0.371644 -0.834006
v 1.728098 0.150740 -0.903762
v 1.998039 0.386367 -0.591724
v 1.601848 0.526657 -0.816575
v 1.656777 0.602659 -0.592667
v 1.689121 0.162270 -0.812839
v 1.662142 0.160130 -0.585207
v 1.741999 0.145955 -0.593206
v 1.741150 0.177870 -0.816538
v 1.967506 0.437400 -0.813550
v 1.453955 0.519149 -0.840320
v 1.985489 0.339673 -0.911729
v 1.869171 0.773246 -0.871258
v 2.119707 0.254481 -0.860761
v 1.852768 0.596876 -0.904070
v 1.823551 0.132351 -0.841586
v 1.737891 0.760297 -0.867030
v 1.736479 0.765549 -0.635790
v 1.742478 0.760297 -0.867030
v 1.743891 0.765549 -0.635790
v 1.961124 0.679981 -0.867030
v 2.165179 0.261575 -0.867030
v 2.184962 0.281492 -0.635790
v 1.740184 0.000000 -0.751410
v 1.525496 0.053621 -0.867030
v 1.740184 0.000000 -0.867030
v 1.740184 0.000000 -0.635790
v 1.345565 0.504103 -0.867030
v 2.081149 0.157383 -0.615898
v 1.637940 0.639735 -0.671446
v 1.905196 0.767103 -0.616581
v 2.119307 0.438007 -0.643161
v 1.908101 0.543810 -0.601898
v 1.982139 0.375894 -0.600915
v 1.848128 0.129422 -0.675414
v 1.296059 0.305542 -0.635790
v 1.536797 0.461677 -0.895952
v 1.916177 0.509128 -0.895968
v 1.767581 0.156850 -0.895950
v 0.982840 1.157149 -0.817734
v 0.164050 1.166118 -0.821635
v 0.162729 1.599261 -0.662219
v 0.652675 1.562555 -0.685757
v 1.262024 1.239891 -0.786795
v 1.394718 1.237030 -0.022050
v 0.759878 1.623959 -0.666732
v -0.627883 1.233339 -0.713798
v -0.598203 1.574482 -0.622647
v -0.486408 1.172169 -0.808569
v -0.490215 1.582642 -0.661856
v -0.001396 1.584034 -0.664779
v -0.463266 1.608059 -0.653463
v -0.023344 1.605451 -0.655356
v -0.010096 1.167410 -0.816853
v 0.652674 1.562556 0.641656
v 0.982840 1.157149 0.773633
v 0.162729 1.599261 0.618118
v 0.164050 1.166118 0.777533
v 0.725845 1.588131 0.603901
v 1.262024 1.239891 0.742694
v -0.010096 1.167409 0.772752
v -0.001396 1.584034 0.620678
v -0.490215 1.582642 0.617755
v -0.023344 1.605451 0.611255
v -0.463266 1.608059 0.609362
v -0.486408 1.172169 0.764467
v -0.602550 1.563067 0.585079
v -0.627741 1.235473 0.670453
v 2.368039 1.018596 -0.583416
v 2.264846 1.020173 -0.769369
v 2.336982 0.698118 -0.619755
v 2.368039 1.018595 0.539315
v 2.336982 0.698118 0.575654
v 2.264846 1.020173 0.725267
v -1.648162 0.323872 -0.776090
v -1.397755 0.585988 -0.824082
v -1.311953 0.233785 -0.776091
v -1.558365 0.350498 -0.888724
v -1.423880 0.478915 -0.888717
v -1.379912 0.298239 -0.888728
v -1.516873 0.459399 -0.882061
v -1.350316 0.388533 -0.882062
v -1.494965 0.279721 -0.882064
v -1.622892 0.494194 -0.818898
v -1.706863 0.522490 -0.881271
v -1.255372 0.315604 -0.823911
v -1.255080 0.403288 -0.935257
v -1.454052 0.168082 -0.862608
v -1.475203 0.179802 -0.829173
v -1.482398 0.146156 -0.920701
v -1.312984 0.551502 -0.815572
v -1.274326 0.571108 -0.590796
v -1.616098 0.530961 -0.593026
v -1.610899 0.499174 -0.816668
v -1.505116 0.162270 -0.812839
v -1.532095 0.160130 -0.585207
v -1.430008 0.149622 -0.814473
v -1.437297 0.119885 -0.592587
v -1.328268 0.763581 -0.879558
v -1.568775 0.627836 -0.814957
v -1.195517 0.463972 -0.820393
v -1.456346 0.760296 -0.867030
v -1.457758 0.765548 -0.635790
v -1.070870 0.571127 -0.867030
v -1.454052 0.751768 -0.751410
v -1.080383 0.566279 -0.635790
v -1.224680 0.060182 -0.635790
v -1.454052 -0.000000 -0.635790
v -1.668741 0.053621 -0.867030
v -1.454052 -0.000000 -0.867030
v -1.848671 0.504104 -0.867030
v -1.154315 0.088650 -0.626223
v -1.192762 0.447775 -0.672324
v -1.353825 0.131755 -0.660787
v -1.898177 0.305542 -0.635790
v -1.424960 -0.048219 -0.867030
v -1.657439 0.461676 -0.895952
v -1.278059 0.509127 -0.895967
v -1.426656 0.156849 -0.895952
v 1.530081 0.319587 0.779980
v 1.792196 0.569994 0.731989
v 1.882283 0.233787 0.731988
v 1.677362 0.459399 0.837968
v 1.843921 0.388533 0.837968
v 1.699270 0.279722 0.837968
v 1.635871 0.350498 0.844623
v 1.770357 0.478916 0.844623
v 1.814326 0.298239 0.844623
v 1.556292 0.277890 0.776745
v 1.849665 0.581621 0.877186
v 1.795075 0.558547 0.789905
v 1.902132 0.209554 0.865437
v 1.902580 0.261166 0.773081
v 1.741686 0.175315 0.772455
v 1.740185 0.154022 0.864342
v 1.740185 0.182139 0.772671
v 1.511931 0.305920 0.872269
v 1.918342 0.275240 0.772474
v 1.874623 0.576657 0.548566
v 1.916946 0.460104 0.772620
v 1.780849 0.576423 0.772474
v 1.470534 0.364588 0.545322
v 1.509936 0.350953 0.770656
v 1.740185 0.168081 0.660820
v 1.741999 0.145955 0.549104
v 1.741150 0.177870 0.772437
v 1.952736 0.277040 0.548764
v 1.541229 0.743938 0.834959
v 1.756437 0.116235 0.781601
v 1.372653 0.183052 0.817734
v 1.519206 0.263275 0.859968
v 1.564799 0.551248 0.859968
v 1.863235 0.620041 0.789188
v 1.736479 0.765549 0.591689
v 1.737892 0.760297 0.822929
v 1.743891 0.765549 0.591689
v 1.742478 0.760297 0.822929
v 1.961124 0.679981 0.822929
v 2.184962 0.281493 0.591689
v 2.165180 0.261575 0.822929
v 1.740185 0.000000 0.707309
v 1.740185 0.000000 0.591689
v 1.740185 0.000000 0.822929
v 1.296059 0.305542 0.591689
v 1.525496 0.053621 0.822929
v 1.905196 0.767103 0.572480
v 2.081149 0.157383 0.571797
v 2.119307 0.438007 0.599060
v 1.637940 0.639735 0.627344
v 1.908101 0.543810 0.557797
v 1.982139 0.375894 0.556814
v 1.848128 0.129422 0.631313
v 1.345565 0.504103 0.822929
v 1.536797 0.461677 0.851851
v 1.916176 0.509128 0.851850
v 1.767581 0.156850 0.851849
v -1.510349 0.585988 0.779980
v -1.284172 0.277804 0.698052
v -1.625263 0.277035 0.750665
v -1.516873 0.459399 0.837967
v -1.350315 0.388533 0.837968
v -1.494965 0.279721 0.837967
v -1.558365 0.350498 0.844623
v -1.423880 0.478915 0.844623
v -1.379911 0.298239 0.844623
v -1.501901 0.294954 0.811109
v -1.425241 0.582256 0.776745
v -1.217677 0.372420 0.866687
v -1.444178 0.158178 0.850420
v -1.266683 0.284711 0.776745
v -1.468846 0.131824 0.868726
v -1.580289 0.556738 0.883605
v -1.249151 0.489743 0.548764
v -1.267910 0.460859 0.772474
v -1.706117 0.446015 0.540963
v -1.667120 0.457341 0.765617
v -1.454052 0.168081 0.660821
v -1.419494 0.115609 0.547051
v -1.430008 0.149622 0.770372
v -1.474969 0.660216 0.788256
v -1.817756 0.560025 0.828780
v -1.727515 0.353298 0.786226
v -1.457758 0.765548 0.591689
v -1.456345 0.760296 0.822929
v -1.080383 0.566279 0.591689
v -1.454052 0.751768 0.707309
v -1.070870 0.571127 0.822929
v -1.424960 -0.048219 0.822929
v -1.454052 -0.000000 0.591689
v -1.454052 -0.000000 0.822929
v -1.898177 0.305542 0.591689
v -1.668741 0.053621 0.822929
v -1.771905 0.651929 0.573565
v -1.137498 0.631021 0.569847
v -1.395978 0.755649 0.599059
v -1.071632 0.377545 0.594607
v -1.145296 0.100607 0.571712
v -1.379294 0.606000 0.556814
v -1.223943 0.450663 0.556814
v -1.258301 0.233676 0.556815
v -1.442451 0.111620 0.637771
v -1.704640 0.494795 0.611190
v -1.848671 0.504104 0.822929
v -1.224680 0.060182 0.591689
v -1.657439 0.461676 0.851851
v -1.278060 0.509127 0.851849
v -1.426656 0.156849 0.851852
vn 0.1664 0.5499 -0.8185
vn 0.0850 0.4771 -0.8747
vn 0.1395 0.5675 -0.8115
vn 0.0431 0.4372 -0.8983
vn -0.0086 0.1203 -0.9927
vn 0.0419 0.1743 -0.9838
vn 0.0304 0.0724 -0.9969
vn 0.0387 0.1843 -0.9821
vn 0.5268 0.8482 0.0546
vn -0.0053 -0.0766 -0.9970
vn -0.0094 -0.0668 -0.9977
vn -0.0896 0.1272 -0.9878
vn -0.2521 -0.0133 -0.9676
vn -0.0994 0.1730 -0.9799
vn 0.0534 0.9737 -0.2217
vn 0.5002 0.7711 -0.3939
vn 0.3501 0.8511 -0.3911
vn 0.1242 0.6433 -0.7555
vn 0.6289 0.7761 -0.0451
vn 0.2944 0.9557 0.0054
vn 0.3967 0.9179 0.0022
vn 0.1220 0.9900 -0.0711
vn 0.7248 0.3357 -0.6017
vn -0.0278 0.2743 -0.9612
vn 0.0952 0.2076 -0.9736
vn 0.1286 0.2557 -0.9582
vn 0.1076 0.0541 -0.9927
vn 0.2767 0.6126 -0.7404
vn 0.1485 0.4602 -0.8753
vn 0.1868 0.4939 -0.8492
vn 0.0758 0.2789 -0.9573
vn 0.0643 0.3393 -0.9385
vn 0.0159 0.3641 -0.9312
vn 0.0310 0.3204 -0.9468
vn -0.0215 0.3669 -0.9300
vn -0.0169 0.6334 -0.7736
vn 0.0329 0.1931 -0.9806
vn 0.0785 0.1281 -0.9886
vn -0.0156 -0.0397 0.9991
vn 0.0736 0.0688 -0.9949
vn -0.0156 -0.5232 -0.8521
vn -0.0308 -0.5244 -0.8509
vn 0.7484 0.6539 -0.1108
vn 0.7221 0.6588 -0.2111
vn 0.7228 0.6579 -0.2115
vn 0.7586 0.6488 -0.0596
vn 0.0337 0.9994 -0.0066
vn 0.0336 0.9994 -0.0065
vn 0.0326 0.9995 -0.0053
vn 0.7075 -0.0672 -0.7035
vn 0.7354 -0.0959 -0.6708
vn 0.3022 -0.2169 -0.9282
vn 0.1539 -0.1145 -0.9814
vn 0.6946 0.4895 -0.5272
vn 0.5123 0.4314 -0.7426
vn 0.5950 -0.6505 -0.4721
vn 0.7098 -0.5402 -0.4521
vn 0.2432 -0.3996 -0.8838
vn 0.9056 -0.4190 0.0654
vn 0.8038 -0.5655 0.1847
vn 0.8185 -0.5696 0.0752
vn 0.9412 -0.2988 -0.1574
vn 0.9603 -0.2765 -0.0369
vn 0.9807 -0.0435 -0.1904
vn 0.9143 -0.0615 -0.4004
vn 0.8192 0.5070 -0.2681
vn 0.9782 -0.1032 0.1802
vn 0.0043 0.9757 -0.2191
vn 0.0349 0.9994 -0.0081
vn -0.0211 0.3323 -0.9429
vn 0.0043 0.3331 -0.9429
vn -0.0066 0.2145 -0.9767
vn 0.1217 -0.0403 -0.9917
vn 0.0919 -0.0748 -0.9930
vn -0.1272 -0.1218 -0.9844
vn -0.3549 0.0133 -0.9348
vn -0.1643 -0.3746 -0.9125
vn -0.1275 -0.3172 -0.9397
vn -0.2003 -0.4301 -0.8803
vn -0.0017 -0.0797 -0.9968
vn -0.0109 -0.0675 -0.9977
vn -0.0005 -0.5219 -0.8530
vn -0.9953 0.0972 -0.0004
vn -0.9950 0.0974 -0.0210
vn -0.9948 0.1019 -0.0007
vn -0.5591 0.1427 -0.8167
vn -0.9987 -0.0023 -0.0509
vn -0.9894 -0.1043 -0.1011
vn -0.9999 -0.0108 0.0045
vn -0.9980 0.0623 -0.0138
vn -0.9995 0.0174 -0.0246
vn -0.9872 0.0145 -0.1586
vn -0.9990 -0.0277 -0.0355
vn 0.0257 0.0588 0.9979
vn 0.0211 0.0614 0.9979
vn 0.0327 0.0631 0.9975
vn -0.2924 0.6083 0.7379
vn 0.0169 0.0649 0.9977
vn -0.6692 0.7431 -0.0000
vn -0.2924 0.6082 0.7380
vn -0.3256 0.9455 -0.0002
vn -0.3721 0.9281 0.0146
vn 0.2252 0.9743 -0.0024
vn 0.5445 0.8388 -0.0024
vn 0.5223 0.7900 0.3213
vn 0.2114 0.9774 -0.0000
vn -0.0000 1.0000 0.0004
vn -0.3109 0.7026 0.6400
vn 0.0001 1.0000 -0.0003
vn 0.0006 1.0000 0.0001
vn -0.5558 -0.8313 0.0039
vn -0.5558 -0.8313 -0.0000
vn -0.0000 -1.0000 -0.0000
vn -0.9808 -0.1827 0.0680
vn -0.9721 -0.1965 0.1281
vn -0.9759 -0.1960 -0.0960
vn -0.9791 -0.1763 -0.1017
vn -0.8165 -0.0722 -0.5728
vn -0.6425 -0.0093 -0.7662
vn -0.0132 0.2209 -0.9752
vn -0.0000 1.0000 -0.0000
vn -0.6463 -0.7601 -0.0669
vn -0.9552 -0.2949 -0.0248
vn -0.5754 -0.6204 -0.5329
vn -0.1094 -0.9931 -0.0414
vn 0.0064 -0.9395 -0.3425
vn 0.4825 -0.8745 -0.0497
vn 0.5079 -0.3881 -0.7690
vn 0.9498 -0.3090 -0.0484
vn 0.9483 -0.3153 -0.0362
vn -0.6237 -0.7814 -0.0182
vn -0.9719 -0.2321 -0.0402
vn -0.6042 -0.7951 -0.0525
vn 0.4298 -0.9027 -0.0199
vn 0.8220 -0.5682 -0.0392
vn 0.9806 -0.1951 -0.0163
vn 0.9779 -0.2087 0.0083
vn -0.0007 -1.0000 -0.0000
vn 0.0013 -1.0000 0.0004
vn -0.0298 -0.9996 0.0009
vn -0.9702 -0.2413 -0.0200
vn 0.0009 -1.0000 -0.0010
vn -0.0066 -1.0000 -0.0008
vn -0.0221 -0.9998 -0.0021
vn -0.0032 -1.0000 -0.0008
vn -0.0312 -0.9995 -0.0000
vn -0.9598 -0.2747 -0.0579
vn -0.0000 -0.0000 -1.0000
vn 0.0212 -0.9998 0.0002
vn 0.0218 -0.9998 0.0001
vn 0.0212 -0.9998 -0.0000
vn -0.0005 -1.0000 0.0002
vn -0.0029 -1.0000 0.0004
vn -0.0301 -0.9995 0.0022
vn -0.0891 -0.9960 0.0018
vn -0.0913 -0.9958 -0.0000
vn 0.0225 -0.9997 -0.0000
vn 0.0216 -0.9998 -0.0000
vn -0.0895 -0.9960 0.0027
vn -0.0943 -0.9955 0.0014
vn -0.0908 -0.9959 -0.0038
vn -0.0974 -0.9952 -0.0073
vn -0.9983 0.0586 0.0002
vn -0.3110 0.7027 0.6400
vn 0.1394 0.5676 0.8114
vn 0.0850 0.4771 0.8747
vn 0.1664 0.5499 0.8185
vn 0.0431 0.4372 0.8983
vn 0.0304 0.0724 0.9969
vn 0.0419 0.1743 0.9838
vn -0.0086 0.1203 0.9927
vn 0.0387 0.1843 0.9821
vn 0.5268 0.8482 -0.0546
vn -0.0093 -0.0669 0.9977
vn -0.0052 -0.0766 0.9970
vn -0.0994 0.1730 0.9799
vn -0.2521 -0.0133 0.9676
vn -0.0896 0.1272 0.9878
vn 0.3501 0.8511 0.3912
vn 0.5002 0.7711 0.3939
vn 0.0534 0.9737 0.2217
vn 0.1243 0.6433 0.7555
vn 0.1109 0.9934 0.0304
vn 0.0874 0.9961 0.0113
vn 0.1220 0.9900 0.0711
vn 0.7247 0.3357 0.6017
vn -0.0278 0.2743 0.9612
vn 0.0952 0.2076 0.9736
vn 0.1076 0.0541 0.9927
vn 0.1286 0.2557 0.9582
vn 0.1868 0.4939 0.8492
vn 0.1485 0.4602 0.8753
vn 0.2767 0.6125 0.7404
vn 0.0643 0.3393 0.9385
vn 0.0758 0.2789 0.9573
vn 0.0159 0.3641 0.9312
vn 0.0310 0.3204 0.9468
vn -0.0169 0.6334 0.7736
vn -0.0215 0.3669 0.9300
vn 0.0329 0.1931 0.9806
vn 0.0785 0.1281 0.9886
vn -0.0156 -0.0397 -0.9991
vn 0.0736 0.0688 0.9949
vn 0.9864 -0.1625 0.0240
vn -0.0157 -0.5232 0.8521
vn -0.0308 -0.5244 0.8509
vn -0.0156 -0.5232 0.8521
vn 0.7752 0.6247 0.0942
vn 0.9209 -0.0488 0.3868
vn 0.3711 0.0050 0.9286
vn 0.7797 -0.2021 0.5926
vn 0.5123 0.4314 0.7426
vn 0.6946 0.4895 0.5272
vn 0.8720 -0.3058 0.3821
vn 0.9793 0.2026 -0.0013
vn 0.3185 -0.4946 0.8087
vn 0.3626 -0.6929 0.6232
vn 0.9340 -0.2428 -0.2621
vn 0.8192 0.5070 0.2681
vn 0.2296 -0.9732 0.0089
vn 0.2769 -0.9609 0.0061
vn 0.1817 -0.9833 0.0117
vn 0.0043 0.9757 0.2191
vn -0.0066 0.2145 0.9767
vn 0.0043 0.3331 0.9429
vn -0.0211 0.3323 0.9429
vn 0.1217 -0.0403 0.9917
vn 0.0919 -0.0748 0.9930
vn -0.3549 0.0134 0.9348
vn -0.1272 -0.1218 0.9844
vn -0.1643 -0.3746 0.9125
vn -0.2003 -0.4301 0.8803
vn -0.1275 -0.3172 0.9397
vn -0.0109 -0.0675 0.9977
vn -0.0017 -0.0797 0.9968
vn -0.0005 -0.5219 0.8530
vn -0.9950 0.0951 -0.0311
vn -0.9933 0.0977 -0.0623
vn -0.5591 0.1427 0.8167
vn -0.9784 0.2002 0.0506
vn 0.0327 0.0631 -0.9975
vn 0.0211 0.0614 -0.9979
vn 0.0257 0.0588 -0.9979
vn 0.9829 0.0560 -0.1753
vn 0.9979 0.0649 0.0004
vn 0.9955 0.0545 -0.0777
vn 0.9663 0.0367 -0.2547
vn 0.9600 0.0404 -0.2770
vn 0.9993 0.0361 0.0138
vn 0.0169 0.0649 -0.9977
vn -0.9982 0.0593 0.0004
vn -0.3721 0.9281 -0.0146
vn -0.8630 0.5052 -0.0000
vn -0.2919 0.6084 -0.7380
vn 0.2252 0.9743 0.0024
vn 0.5445 0.8388 0.0024
vn 0.5223 0.7900 -0.3212
vn 0.7834 0.6215 -0.0000
vn -0.2919 0.6083 -0.7381
vn 0.0009 -1.0000 0.0015
vn -0.5558 -0.8313 -0.0039
vn -0.0132 0.2209 0.9752
vn -0.6425 -0.0093 0.7663
vn -0.8164 -0.0723 0.5729
vn -0.6463 -0.7601 0.0669
vn -0.5754 -0.6204 0.5329
vn -0.9552 -0.2949 0.0248
vn -0.1094 -0.9931 0.0414
vn 0.0064 -0.9395 0.3425
vn 0.4825 -0.8745 0.0497
vn 0.5079 -0.3881 0.7690
vn 0.9498 -0.3090 0.0484
vn 0.9483 -0.3153 0.0362
vn -0.6237 -0.7814 0.0182
vn -0.6042 -0.7951 0.0525
vn -0.9719 -0.2321 0.0402
vn 0.4298 -0.9027 0.0199
vn 0.8220 -0.5682 0.0392
vn 0.9779 -0.2087 -0.0083
vn 0.9806 -0.1951 0.0163
vn -0.9702 -0.2413 0.0200
vn -0.0034 -1.0000 0.0028
vn -0.9598 -0.2747 0.0579
vn -0.0000 -0.0000 1.0000
vn 0.0213 -0.9998 -0.0002
vn -0.0980 -0.9952 0.0066
vn -0.1010 -0.9949 0.0076
vn 0.1266 0.9913 0.0346
vn 0.0230 0.9996 0.0145
vn 0.0248 0.9997 0.0001
vn 0.0198 0.9998 -0.0000
vn -0.0563 0.9984 -0.0001
vn -0.2004 0.9797 0.0026
vn -0.2936 0.9557 0.0220
vn -0.2656 0.9641 0.0057
vn 0.0147 0.9999 -0.0000
vn 0.0240 0.9462 -0.3227
vn -0.0272 -0.9996 -0.0041
vn -0.0099 -0.9988 0.0479
vn 0.0220 -0.9993 0.0308
vn -0.0226 -0.9996 -0.0145
vn -0.0170 -0.9991 0.0394
vn 0.0999 -0.9215 0.3753
vn 0.0011 0.5201 -0.8541
vn 0.1608 -0.8129 -0.5597
vn 0.2050 -0.3310 0.9211
vn 0.1265 0.9914 0.0346
vn 0.1480 0.8642 -0.4809
vn 0.0230 0.9996 -0.0131
vn 0.0207 0.9998 0.0001
vn -0.2615 0.9652 -0.0056
vn 0.0170 0.9999 -0.0000
vn 0.0304 0.9995 0.0024
vn 0.0220 -0.9993 -0.0308
vn -0.0546 -0.9959 -0.0717
vn 0.2139 -0.3336 -0.9181
vn 0.1609 -0.8130 -0.5596
vn 0.4648 0.6985 0.5441
vn 0.4992 0.8658 -0.0355
vn 0.4939 0.8453 0.2039
vn 0.4200 0.6997 0.5779
vn 0.3278 0.7550 -0.5680
vn 0.9848 0.1736 -0.0000
vn -0.9848 -0.1736 -0.0000
vn 0.9848 0.1737 -0.0000
vn -0.9848 -0.1737 -0.0000
vn -0.9733 -0.1664 -0.1580
vn -0.9006 -0.3040 -0.3106
vn -0.7422 -0.6661 -0.0735
vn -0.7423 -0.6660 -0.0734
vn -0.9906 -0.1359 0.0134
vn -0.9681 -0.2492 0.0246
vn 0.9793 -0.1924 0.0627
vn 0.9822 -0.1872 -0.0185
vn 0.9886 -0.1006 0.1118
vn -0.9825 -0.1176 0.1443
vn -0.9019 -0.4240 0.0819
vn -0.9338 -0.2147 0.2862
vn 0.9914 -0.1214 -0.0487
vn 0.9925 -0.1211 0.0158
vn 0.9702 -0.2404 0.0313
vn 0.0429 0.0748 0.9963
vn 0.0144 0.0663 -0.9977
vn 0.5222 0.7900 -0.3213
vn 0.0429 0.0748 -0.9963
vn 0.9293 -0.3676 -0.0363
vn 0.9770 -0.1204 -0.1760
vn 0.9942 -0.0606 -0.0885
vn -0.9019 -0.4241 0.0819
vn 0.9548 -0.1990 0.2210
vn -0.9967 -0.0800 -0.0104
vn -0.9895 -0.1430 -0.0186
vn 0.1441 -0.0386 -0.9888
vn 0.9766 -0.2113 -0.0406
vn 0.3579 -0.3866 -0.8500
vn 0.9766 -0.2113 -0.0407
vn -0.9383 0.3311 -0.0999
vn 0.5519 0.1897 0.8121
vn -0.9877 -0.1110 0.1104
vn 0.1232 -0.9924 0.0009
vn -0.9509 -0.1690 0.2594
vn 0.9245 -0.3589 0.1285
vn 0.9904 0.1229 -0.0635
vn 0.9656 0.2325 0.1166
vn -0.7099 0.6820 0.1755
vn -0.7507 0.6536 0.0963
vn 0.1772 0.1926 -0.9651
vn 0.2979 -0.0987 -0.9495
vn 0.2819 -0.0105 -0.9594
vn 0.0274 0.1804 -0.9832
vn -0.1920 0.1967 -0.9615
vn 0.1010 -0.3887 -0.9158
vn 0.6899 0.7174 0.0972
vn 0.3447 0.9384 -0.0234
vn 0.5375 0.8187 0.2020
vn 0.9840 0.0952 0.1504
vn 0.9588 -0.2780 -0.0581
vn 0.5294 -0.8479 0.0277
vn -0.6098 -0.7908 -0.0538
vn -0.2423 -0.9702 -0.0000
vn -0.4012 -0.9013 0.1635
vn -0.9657 -0.2278 0.1242
vn 0.1328 0.0784 0.9880
vn 0.1331 0.0034 0.9911
vn 0.2202 0.0646 0.9733
vn -0.2285 0.0609 0.9716
vn -0.0458 0.0650 0.9968
vn 0.1045 0.0041 0.9945
vn -0.2250 -0.1678 0.9598
vn -0.8716 0.4891 -0.0341
vn -0.6225 0.7577 0.1957
vn -0.5466 0.8371 -0.0223
vn 0.0987 0.0233 -0.9948
vn -0.0293 -0.0971 -0.9948
vn -0.0695 0.0738 -0.9948
vn -0.0056 0.3304 -0.9438
vn 0.0080 0.3154 -0.9489
vn -0.0192 0.3453 -0.9383
vn 0.5318 0.8468 0.0052
vn 0.5288 0.8487 -0.0114
vn 0.5894 0.8017 -0.0993
vn -0.0099 0.3396 -0.9405
vn -0.0130 0.3364 -0.9416
vn -0.0088 0.3330 -0.9429
vn -0.0049 0.3550 -0.9349
vn -0.0041 0.3609 -0.9326
vn -0.0016 0.4014 -0.9159
vn -0.9966 0.0820 -0.0014
vn -0.9962 0.0874 -0.0028
vn -0.0056 0.3304 0.9438
vn 0.0080 0.3154 0.9489
vn -0.0192 0.3453 0.9383
vn 0.5373 0.8425 0.0381
vn 0.4997 0.8643 0.0575
vn -0.9971 0.0767 -0.0000
vn -0.0096 0.3400 0.9404
vn -0.0049 0.3550 0.9349
vn -0.0088 0.3330 0.9429
vn -0.0130 0.3364 0.9416
vn -0.0016 0.4014 0.9159
vn -0.0041 0.3610 0.9326
vn 0.8739 -0.0297 -0.4852
vn 0.8739 -0.0297 0.4852
vn -0.0386 -0.1441 -0.9888
vn -0.9856 -0.1314 -0.1061
vn 0.2679 -0.2374 -0.9337
vn -0.5758 0.6431 0.5049
vn 0.7765 0.4442 -0.4470
vn 0.2678 -0.2374 -0.9338
vn 0.7764 0.4442 -0.4470
vn 0.8793 0.4204 -0.2237
vn -0.7546 -0.6349 0.1658
vn 0.8153 -0.5703 0.1000
vn 0.8311 -0.5442 0.1147
vn -0.7280 -0.6607 0.1828
vn 0.9640 0.2605 0.0533
vn 0.9474 0.2988 0.1151
vn -0.9405 0.3396 0.0146
vn -0.9479 0.3092 0.0772
vn -0.1210 -0.2436 -0.9623
vn 0.9807 0.0838 -0.1766
vn 0.4352 0.8996 0.0368
vn 0.9116 0.4084 0.0461
vn 0.5874 -0.7980 -0.1347
vn 0.7645 -0.6400 -0.0771
vn -0.1902 -0.9622 0.1948
vn -0.1903 -0.9622 0.1948
vn -0.9657 -0.2278 0.1243
vn -0.1464 0.1105 0.9830
vn -0.5466 0.8371 -0.0224
vn 0.1441 0.0386 0.9888
vn 0.9517 -0.2643 0.1562
vn 0.7798 0.5174 0.3525
vn 0.2666 -0.8570 0.4410
vn -0.6742 -0.7178 0.1738
vn -0.9115 0.1446 0.3852
vn -0.7177 0.6553 0.2357
vn -0.3751 0.8670 0.3280
vn 0.2503 0.9515 0.1786
vn 0.2502 0.9520 0.1765
vn 0.4503 0.8536 0.2618
vn -0.9708 0.2299 -0.0683
vn -0.7524 0.6451 -0.1330
vn -0.9254 -0.3559 -0.1304
vn -0.5228 -0.8524 -0.0101
vn 0.1906 -0.9771 -0.0951
vn 0.8969 -0.4420 -0.0129
vn 0.9849 0.0289 -0.1705
vn 0.6039 0.7949 -0.0575
vn -0.5027 0.8587 -0.1002
vn -0.4777 0.8694 -0.1261
vn -0.1841 0.0968 0.9781
vn -0.2542 -0.1186 0.9598
vn -0.1176 0.1137 0.9865
vn 0.1954 0.1497 0.9692
vn -0.1612 -0.2128 0.9637
vn 0.0017 -0.4682 0.8836
vn 0.6899 0.7174 -0.0972
vn 0.9840 0.0952 -0.1503
vn 0.5375 0.8187 -0.2020
vn 0.3447 0.9384 0.0234
vn 0.9588 -0.2780 0.0581
vn 0.5294 -0.8479 -0.0277
vn -0.6098 -0.7908 0.0538
vn -0.9657 -0.2278 -0.1243
vn -0.4012 -0.9013 -0.1635
vn 0.1328 0.0783 -0.9880
vn 0.2202 0.0646 -0.9733
vn 0.1331 0.0034 -0.9911
vn -0.0458 0.0650 -0.9968
vn -0.2285 0.0609 -0.9716
vn 0.1045 0.0041 -0.9945
vn -0.2250 -0.1678 -0.9598
vn -0.6225 0.7577 -0.1957
vn -0.8716 0.4891 0.0341
vn -0.5466 0.8371 0.0224
vn 0.0986 0.0232 0.9949
vn -0.0292 -0.0970 0.9949
vn -0.0694 0.0738 0.9949
vn 0.1511 -0.1489 0.9772
vn 0.9087 -0.3517 0.2250
vn 0.8413 0.1050 0.5303
vn -0.3072 -0.7453 0.5918
vn -0.9665 -0.1715 -0.1911
vn -0.9316 0.2580 0.2560
vn -0.6351 0.6968 -0.3334
vn 0.9580 0.2461 0.1472
vn -0.4544 -0.8884 -0.0656
vn -0.9873 -0.0654 -0.1450
vn 0.5313 -0.8324 -0.1572
vn 0.9089 -0.3935 -0.1379
vn 0.7649 0.6229 -0.1642
vn -0.8967 0.4376 -0.0672
vn -0.8811 0.4596 -0.1115
vn 0.1549 -0.1339 0.9788
vn 0.9807 0.0838 0.1766
vn 0.9116 0.4084 -0.0461
vn 0.4352 0.8996 -0.0368
vn 0.5874 -0.7980 0.1347
vn -0.1902 -0.9622 -0.1948
vn 0.7645 -0.6400 0.0771
vn -0.1903 -0.9622 -0.1948
vn -0.0215 0.1293 -0.9914
vn 0.0019 0.2320 -0.9727
vn 0.1111 0.1364 -0.9844
vn 0.3244 -0.0081 -0.9459
vn 0.0971 -0.0825 -0.9919
vn -0.0052 0.0655 -0.9978
vn -0.0716 -0.2612 -0.9626
vn 0.1069 0.0085 -0.9942
vn -0.0550 -0.1571 -0.9860
vn -0.2179 -0.2894 -0.9321
vt 0.128132 0.846798
vt 0.142212 0.838259
vt 0.142549 0.844775
vt 0.159074 0.803718
vt 0.159348 0.827710
vt 0.151716 0.828334
vt 0.616613 0.296925
vt 0.625629 0.288748
vt 0.643413 0.290116
vt 0.584104 0.286265
vt 0.607409 0.287470
vt 0.579093 0.341174
vt 0.582337 0.316059
vt 0.614370 0.317515
vt 0.604912 0.371671
vt 0.573768 0.370120
vt 0.555467 0.604194
vt 0.555358 0.585899
vt 0.577669 0.585612
vt 0.443977 0.851357
vt 0.443218 0.876235
vt 0.437815 0.875345
vt 0.438691 0.851128
vt 0.435326 0.852472
vt 0.435850 0.820832
vt 0.516783 0.466703
vt 0.524996 0.466791
vt 0.523654 0.492256
vt 0.873650 0.183811
vt 0.873725 0.226846
vt 0.862991 0.225003
vt 0.436108 0.879410
vt 0.772729 0.813464
vt 0.769878 0.810995
vt 0.788134 0.799365
vt 0.552701 0.369051
vt 0.557940 0.340260
vt 0.747039 0.281175
vt 0.753137 0.281564
vt 0.753401 0.289003
vt 0.037212 0.888860
vt 0.036342 0.909106
vt 0.033073 0.906981
vt 0.035499 0.926704
vt 0.030803 0.923847
vt 0.026990 0.934262
vt 0.034987 0.930740
vt 0.752444 0.275150
vt 0.746580 0.274825
vt 0.744606 0.257580
vt 0.555552 0.234410
vt 0.560636 0.234855
vt 0.564463 0.254444
vt 0.737482 0.227691
vt 0.705292 0.225667
vt 0.701962 0.220226
vt 0.738318 0.222869
vt 0.637882 0.286783
vt 0.642751 0.286397
vt 0.606377 0.667712
vt 0.607072 0.689085
vt 0.599656 0.690426
vt 0.575789 0.285826
vt 0.580015 0.292016
vt 0.575141 0.305528
vt 0.568467 0.315455
vt 0.569452 0.304031
vt 0.583508 0.304341
vt 0.579300 0.305708
vt 0.581969 0.293181
vt 0.737728 0.734519
vt 0.735073 0.722227
vt 0.752338 0.727873
vt 0.822136 0.209194
vt 0.814895 0.216504
vt 0.811249 0.203408
vt 0.945293 0.568251
vt 0.945228 0.553918
vt 0.957395 0.549860
vt 0.957351 0.563970
vt 0.428033 0.502582
vt 0.411440 0.433697
vt 0.448046 0.433649
vt 0.126680 0.557225
vt 0.104276 0.557654
vt 0.104922 0.547301
vt 0.127283 0.545330
vt 0.297460 0.804653
vt 0.287694 0.808131
vt 0.288129 0.796229
vt 0.091894 0.560076
vt 0.082000 0.564367
vt 0.082494 0.546510
vt 0.091162 0.601467
vt 0.091072 0.626365
vt 0.081745 0.643700
vt 0.081745 0.599142
vt 0.093794 0.542197
vt 0.092394 0.550961
vt 0.339641 0.949240
vt 0.339641 0.968435
vt 0.334677 0.961256
vt 0.093053 0.600251
vt 0.103264 0.601943
vt 0.103239 0.607675
vt 0.106094 0.609255
vt 0.116004 0.598181
vt 0.115916 0.611983
vt 0.125857 0.595272
vt 0.116211 0.583523
vt 0.112561 0.578325
vt 0.108893 0.574196
vt 0.116328 0.575265
vt 0.126013 0.584243
vt 0.296972 0.822556
vt 0.297103 0.836298
vt 0.287412 0.835156
vt 0.123717 0.649469
vt 0.115837 0.649220
vt 0.115854 0.628021
vt 0.443678 0.737420
vt 0.438586 0.737535
vt 0.438597 0.727482
vt 0.435708 0.797266
vt 0.434978 0.737808
vt 0.394289 0.502616
vt 0.703624 0.229044
vt 0.708745 0.255055
vt 0.700248 0.254490
vt 0.696418 0.224969
vt 0.746554 0.774901
vt 0.736565 0.772087
vt 0.738642 0.746815
vt 0.750982 0.749700
vt 0.533706 0.598243
vt 0.533235 0.583376
vt 0.310005 0.906619
vt 0.311878 0.921375
vt 0.287412 0.917019
vt 0.287815 0.903349
vt 0.747920 0.344057
vt 0.742404 0.372792
vt 0.695506 0.370198
vt 0.698653 0.341450
vt 0.919990 0.168605
vt 0.919874 0.245812
vt 0.913263 0.229629
vt 0.745446 0.284131
vt 0.701671 0.286275
vt 0.713698 0.282038
vt 0.493295 0.659082
vt 0.505250 0.659431
vt 0.505202 0.688463
vt 0.533160 0.575615
vt 0.555278 0.577993
vt 0.846101 0.168652
vt 0.823995 0.178441
vt 0.823667 0.136278
vt 0.824020 0.480272
vt 0.824063 0.500054
vt 0.787519 0.501836
vt 0.846269 0.181161
vt 0.787801 0.535726
vt 0.674173 0.524422
vt 0.641650 0.524170
vt 0.641644 0.487103
vt 0.704422 0.474776
vt 0.679573 0.488291
vt 0.678914 0.555778
vt 0.641655 0.556251
vt 0.406266 0.941591
vt 0.380680 0.932031
vt 0.380680 0.903717
vt 0.406266 0.911650
vt 0.233211 0.814177
vt 0.234417 0.776503
vt 0.272063 0.776502
vt 0.272071 0.814176
vt 0.852693 0.219185
vt 0.823638 0.212936
vt 0.823638 0.181161
vt 0.852693 0.188497
vt 0.419093 0.385149
vt 0.466690 0.423783
vt 0.380680 0.423792
vt 0.381157 0.385149
vt 0.419086 0.280804
vt 0.383484 0.280804
vt 0.394102 0.224228
vt 0.466677 0.219974
vt 0.790005 0.380645
vt 0.795509 0.325631
vt 0.811194 0.325620
vt 0.635946 0.717540
vt 0.609510 0.715201
vt 0.640912 0.688735
vt 0.167194 0.590276
vt 0.177198 0.588815
vt 0.176870 0.622551
vt 0.166853 0.625350
vt 0.613838 0.644609
vt 0.693727 0.955133
vt 0.700185 0.955144
vt 0.700185 0.971125
vt 0.379615 0.592432
vt 0.379585 0.634875
vt 0.368007 0.634876
vt 0.366727 0.603601
vt 0.361874 0.563258
vt 0.375729 0.563258
vt 0.166885 0.651266
vt 0.176844 0.648116
vt 0.819455 0.054089
vt 0.817431 0.044394
vt 0.853561 0.056592
vt 0.124706 0.813947
vt 0.124088 0.843756
vt 0.081745 0.851912
vt 0.081745 0.813934
vt 0.124669 0.786370
vt 0.081763 0.778857
vt 0.741494 0.841531
vt 0.741494 0.858780
vt 0.704530 0.869369
vt 0.709035 0.833631
vt 0.036736 0.827201
vt 0.031644 0.851479
vt 0.004694 0.834253
vt 0.487229 0.745055
vt 0.487866 0.770647
vt 0.444610 0.770655
vt 0.444610 0.736119
vt 0.672943 0.836371
vt 0.669307 0.869372
vt 0.646688 0.869372
vt 0.192542 0.102335
vt 0.192711 0.108831
vt 0.160800 0.102335
vt 0.002486 0.860843
vt 0.187899 0.123728
vt 0.187978 0.356751
vt 0.193517 0.369940
vt 0.160801 0.377395
vt 0.193330 0.377395
vt 0.848099 0.022970
vt 0.641688 0.845102
vt 0.641644 0.833346
vt 0.444302 0.186988
vt 0.439891 0.208695
vt 0.398373 0.214582
vt 0.385507 0.179877
vt 0.688309 0.195720
vt 0.628492 0.190699
vt 0.640732 0.155736
vt 0.684679 0.161851
vt 0.662702 0.149763
vt 0.419774 0.218761
vt 0.148834 0.522592
vt 0.160799 0.482523
vt 0.183339 0.510980
vt 0.160800 0.255923
vt 0.096759 0.377395
vt 0.096758 0.255923
vt 0.096758 0.130065
vt 0.096748 -0.000000
vt 0.160791 0.000000
vt 0.096756 0.482523
vt 0.096755 0.526559
vt 0.160800 0.157794
vt 0.187720 0.157790
vt 0.187491 0.218279
vt 0.645532 0.375949
vt 0.693853 0.337224
vt 0.668577 0.394267
vt 0.688349 0.392238
vt 0.444476 0.705225
vt 0.380681 0.723888
vt 0.380680 0.655478
vt 0.444647 0.930300
vt 0.450458 0.926898
vt 0.449635 0.943969
vt 0.215735 0.678537
vt 0.208147 0.678014
vt 0.204778 0.640557
vt 0.326328 0.514144
vt 0.298227 0.514598
vt 0.284364 0.505985
vt 0.269495 0.514939
vt 0.232923 0.514940
vt 0.283514 0.485289
vt 0.233201 0.485095
vt 0.232751 0.459786
vt 0.231613 0.430480
vt 0.280541 0.430534
vt 0.557920 0.016079
vt 0.580267 0.017143
vt 0.580656 0.044350
vt 0.913321 0.761421
vt 0.907918 0.762310
vt 0.907161 0.737432
vt 0.915285 0.706908
vt 0.915810 0.738547
vt 0.912447 0.737204
vt 0.596061 0.517730
vt 0.598364 0.557997
vt 0.553382 0.555174
vt 0.634937 0.517750
vt 0.870625 0.660675
vt 0.859893 0.662521
vt 0.859954 0.619486
vt 0.915026 0.765486
vt 0.216992 0.608499
vt 0.215029 0.642114
vt 0.211559 0.641496
vt 0.199707 0.459605
vt 0.198653 0.430459
vt 0.704688 0.084482
vt 0.704242 0.091869
vt 0.694763 0.091918
vt 0.295842 0.543628
vt 0.301821 0.543427
vt 0.278810 0.561191
vt 0.311675 0.528029
vt 0.320019 0.527907
vt 0.323762 0.524188
vt 0.317729 0.517175
vt 0.693368 0.115177
vt 0.694497 0.098195
vt 0.703611 0.098196
vt 0.204940 0.545531
vt 0.202485 0.564735
vt 0.194623 0.564914
vt 0.687802 0.144332
vt 0.690299 0.149136
vt 0.633526 0.149763
vt 0.637563 0.144572
vt 0.325435 0.517808
vt 0.538973 0.177687
vt 0.531529 0.176025
vt 0.531608 0.143229
vt 0.226772 0.508997
vt 0.219946 0.514948
vt 0.211378 0.496457
vt 0.211538 0.484981
vt 0.220443 0.495254
vt 0.226937 0.495289
vt 0.233278 0.496874
vt 0.229865 0.507937
vt 0.547926 0.183631
vt 0.547731 0.155278
vt 0.558631 0.166242
vt 0.807366 0.898477
vt 0.796888 0.899777
vt 0.797028 0.885360
vt 0.828406 0.816875
vt 0.815364 0.819697
vt 0.817418 0.805764
vt 0.785511 0.535098
vt 0.785133 0.574089
vt 0.772026 0.569837
vt 0.326480 0.597044
vt 0.323640 0.585276
vt 0.345837 0.585149
vt 0.821706 0.557617
vt 0.825645 0.569064
vt 0.814207 0.567753
vt 0.330284 0.634857
vt 0.339961 0.636837
vt 0.332318 0.641315
vt 0.967010 0.242182
vt 0.969174 0.260135
vt 0.959704 0.255974
vt 0.091153 0.666681
vt 0.091337 0.688206
vt 0.140645 0.885587
vt 0.147647 0.876753
vt 0.148878 0.895968
vt 0.343032 0.626847
vt 0.339109 0.622251
vt 0.355402 0.610094
vt 0.350690 0.609920
vt 0.349886 0.602745
vt 0.831300 0.595486
vt 0.821025 0.598668
vt 0.819217 0.585088
vt 0.332720 0.665954
vt 0.340319 0.650585
vt 0.929255 0.804482
vt 0.935701 0.805159
vt 0.934842 0.829575
vt 0.927945 0.829573
vt 0.912534 0.613558
vt 0.912547 0.623610
vt 0.907455 0.623495
vt 0.916151 0.623883
vt 0.915426 0.683342
vt 0.624068 0.115808
vt 0.637298 0.115716
vt 0.634460 0.141137
vt 0.623781 0.144775
vt 0.594581 0.193049
vt 0.569153 0.191477
vt 0.570095 0.172578
vt 0.594885 0.177663
vt 0.602413 0.015969
vt 0.602377 0.038996
vt 0.705476 0.869369
vt 0.727377 0.871434
vt 0.728848 0.890887
vt 0.704769 0.892385
vt 0.629871 -0.000000
vt 0.703200 -0.000000
vt 0.704368 0.029137
vt 0.627380 0.029018
vt 0.826088 0.670882
vt 0.815923 0.688559
vt 0.815063 0.615141
vt 0.623985 0.084344
vt 0.692269 0.088890
vt 0.642664 0.089225
vt 0.493293 0.613016
vt 0.505202 0.630465
vt 0.497356 0.600523
vt 0.490306 0.601598
vt 0.467356 0.593763
vt 0.580186 0.007031
vt 0.602331 0.006083
vt 0.845818 0.094472
vt 0.845788 0.114300
vt 0.823638 0.115828
vt 0.704522 0.658262
vt 0.704506 0.682009
vt 0.671974 0.681960
vt 0.515481 0.772193
vt 0.515416 0.710845
vt 0.578215 0.729062
vt 0.578105 0.782371
vt 0.515416 0.779856
vt 0.578173 0.775480
vt 0.578133 0.709422
vt 0.704493 0.702558
vt 0.667223 0.702011
vt 0.444475 0.605857
vt 0.380680 0.587078
vt 0.443447 0.583761
vt 0.945575 0.365996
vt 0.945575 0.395936
vt 0.919990 0.388003
vt 0.919990 0.359688
vt 0.232380 0.814178
vt 0.193520 0.814176
vt 0.193517 0.776502
vt 0.231164 0.776505
vt 0.876210 0.391486
vt 0.876210 0.422175
vt 0.847155 0.414840
vt 0.847155 0.383066
vt 0.514283 0.385149
vt 0.552219 0.385149
vt 0.552700 0.423792
vt 0.539253 0.224228
vt 0.549878 0.280804
vt 0.514276 0.280804
vt 0.811194 0.274976
vt 0.795509 0.274988
vt 0.790005 0.219974
vt 0.640912 0.600482
vt 0.640882 0.644608
vt 0.631213 0.956228
vt 0.631454 0.941041
vt 0.641326 0.939056
vt 0.366727 0.666151
vt 0.379615 0.677318
vt 0.375730 0.706493
vt 0.168007 0.535265
vt 0.177946 0.534205
vt 0.177523 0.555043
vt 0.167532 0.555165
vt 0.499020 0.156129
vt 0.530263 0.163910
vt 0.500398 0.166250
vt 0.641644 0.778036
vt 0.684604 0.778039
vt 0.684613 0.816016
vt 0.642259 0.807846
vt 0.641695 0.750459
vt 0.684613 0.742961
vt 0.880166 0.144562
vt 0.880166 0.176449
vt 0.846269 0.177083
vt 0.864094 0.142715
vt 0.859927 0.802371
vt 0.888412 0.823643
vt 0.859455 0.828067
vt 0.598284 0.741139
vt 0.640912 0.732195
vt 0.640904 0.766732
vt 0.597648 0.766731
vt 0.381871 0.856972
vt 0.403338 0.849847
vt 0.410282 0.882314
vt 0.883180 0.849806
vt 0.032716 0.377395
vt 0.005539 0.356751
vt 0.005950 0.296630
vt 0.530263 0.197973
vt 0.380712 0.882928
vt 0.380680 0.895324
vt 0.736334 0.615039
vt 0.743452 0.706623
vt 0.708713 0.688577
vt 0.714606 0.623249
vt 0.710480 0.527633
vt 0.745593 0.512563
vt 0.750637 0.606438
vt 0.716621 0.596882
vt 0.704481 0.561213
vt 0.704530 0.655338
vt 0.001700 0.482523
vt 0.032714 0.482523
vt 0.010172 0.510980
vt 0.044677 0.522592
vt 0.668577 0.229542
vt 0.693853 0.286580
vt 0.645532 0.247864
vt 0.688349 0.231567
vt 0.207233 0.000044
vt 0.287530 0.000000
vt 0.287560 0.066287
vt 0.193667 0.079080
vt 0.287579 0.122758
vt 0.193517 0.140221
vt 0.287594 0.171099
vt 0.200778 0.182546
vt 0.287611 0.201242
vt 0.203464 0.066310
vt 0.194416 0.053685
vt 0.422457 0.076733
vt 0.422543 0.153476
vt 0.401362 0.143692
vt 0.457047 0.076695
vt 0.446449 0.152891
vt 0.475700 0.151860
vt 0.527922 0.151580
vt 0.194579 0.002303
vt 0.485402 0.076665
vt 0.531525 0.076621
vt 0.531525 0.142969
vt 0.925405 0.603288
vt 0.921644 0.580747
vt 0.933747 0.582100
vt 0.367845 0.000000
vt 0.287549 0.000000
vt 0.381462 0.079029
vt 0.374425 0.182499
vt 0.371657 0.066264
vt 0.380696 0.053634
vt 0.381554 0.171074
vt 0.401222 0.009826
vt 0.422382 0.000000
vt 0.446289 0.000533
vt 0.892280 0.922762
vt 0.901024 0.920059
vt 0.896968 0.943715
vt 0.691505 0.423580
vt 0.682248 0.423654
vt 0.682248 0.403939
vt 0.694729 0.403839
vt 0.752338 0.782041
vt 0.764776 0.782978
vt 0.764776 0.801788
vt 0.602723 0.863428
vt 0.602723 0.818209
vt 0.633958 0.808711
vt 0.633958 0.870936
vt 0.753401 0.361633
vt 0.783849 0.365645
vt 0.783849 0.410100
vt 0.753401 0.422807
vt 0.790005 0.361633
vt 0.758517 0.350102
vt 0.758517 0.233510
vt 0.480919 0.874852
vt 0.449684 0.865659
vt 0.449684 0.823809
vt 0.480919 0.812627
vt 0.072871 0.824704
vt 0.072871 0.865848
vt 0.042424 0.880211
vt 0.042424 0.819036
vt 0.787957 0.057681
vt 0.818651 0.065620
vt 0.818651 0.180242
vt 0.787957 0.196947
vt 0.323240 0.977215
vt 0.318006 0.979842
vt 0.318006 0.966765
vt 0.349913 0.826075
vt 0.349913 0.766284
vt 0.380451 0.766284
vt 0.914313 0.556123
vt 0.901356 0.604121
vt 0.901356 0.556569
vt 0.888412 0.841465
vt 0.901374 0.783870
vt 0.901374 0.841839
vt 0.349913 0.706494
vt 0.380451 0.706494
vt 0.831193 0.424375
vt 0.831193 0.433589
vt 0.824419 0.427752
vt 0.191732 0.747477
vt 0.164755 0.747477
vt 0.164755 0.688206
vt 0.060908 0.761083
vt 0.077818 0.819036
vt 0.060908 0.809152
vt 0.901356 0.613416
vt 0.704439 0.573644
vt 0.704461 0.610379
vt 0.704453 0.431444
vt 0.800206 0.955556
vt 0.786306 0.936968
vt 0.800206 0.912948
vt 0.641644 0.736384
vt 0.666581 0.658783
vt 0.641726 0.649906
vt 0.641686 0.621250
vt 0.888412 0.792974
vt 0.060908 0.713014
vt 0.060908 0.703619
vt 0.077818 0.704107
vt 0.191732 0.688206
vt 0.901374 0.899807
vt 0.888412 0.899433
vt 0.888412 0.889955
vt 0.848097 0.480145
vt 0.831193 0.480728
vt 0.077818 0.761571
vt 0.959674 0.040412
vt 0.956251 0.051043
vt 0.940558 0.036893
vt 0.515117 0.950528
vt 0.504237 0.958664
vt 0.504238 0.951556
vt 0.940558 0.138986
vt 0.941341 0.130809
vt 0.951917 0.132024
vt 0.564785 0.946570
vt 0.562595 0.939112
vt 0.573275 0.937930
vt 0.873812 0.290057
vt 0.873808 0.282719
vt 0.900367 0.281684
vt 0.873807 0.274581
vt 0.900367 0.267470
vt 0.900366 0.274578
vt 0.510773 0.912756
vt 0.513180 0.919364
vt 0.489968 0.918526
vt 0.490816 0.925328
vt 0.299646 0.967343
vt 0.292679 0.967426
vt 0.294574 0.940849
vt 0.300658 0.940776
vt 0.868206 0.316673
vt 0.876123 0.328053
vt 0.871745 0.328721
vt 0.901356 0.433664
vt 0.896314 0.434748
vt 0.893626 0.425261
vt 0.751612 0.858620
vt 0.750942 0.872742
vt 0.745871 0.864694
vt 0.751612 0.825895
vt 0.742615 0.831047
vt 0.745871 0.820336
vt 0.597651 0.897843
vt 0.597651 0.884875
vt 0.625102 0.884867
vt 0.625102 0.897835
vt 0.597648 0.908579
vt 0.345457 0.882179
vt 0.345461 0.895969
vt 0.318011 0.895983
vt 0.377368 0.923867
vt 0.377363 0.937653
vt 0.349913 0.937639
vt 0.349918 0.923853
vt 0.758010 0.736158
vt 0.756765 0.749390
vt 0.752338 0.749258
vt 0.242573 0.771755
vt 0.248629 0.759248
vt 0.253246 0.768070
vt 0.262326 0.761096
vt 0.255328 0.754102
vt 0.260194 0.747034
vt 0.268922 0.751515
vt 0.262752 0.738735
vt 0.272390 0.740266
vt 0.272390 0.728449
vt 0.262752 0.730017
vt 0.260194 0.721734
vt 0.828716 0.915097
vt 0.856166 0.915102
vt 0.856169 0.926906
vt 0.828719 0.926902
vt 0.003846 0.877331
vt 0.000000 0.865133
vt 0.021819 0.865885
vt 0.040577 0.962499
vt 0.035546 0.958487
vt 0.033561 0.953180
vt 0.971733 0.718920
vt 0.972343 0.712609
vt 0.975401 0.710224
vt 0.316743 0.940694
vt 0.317971 0.949135
vt 0.316743 0.954255
vt 0.431016 0.761755
vt 0.424569 0.767936
vt 0.425743 0.744903
vt 0.434873 0.731805
vt 0.434241 0.746747
vt 0.052844 0.592977
vt 0.023576 0.591340
vt 0.029635 0.550803
vt 0.805125 0.829984
vt 0.771094 0.842425
vt 0.769878 0.816219
vt 0.804749 0.823177
vt 0.771800 0.813464
vt 0.802998 0.820148
vt 0.348321 0.545425
vt 0.346779 0.560814
vt 0.334952 0.563049
vt 0.009172 0.724826
vt 0.010317 0.760183
vt 0.003909 0.753213
vt 0.000100 0.708030
vt 0.000713 0.730932
vt 0.077701 0.636353
vt 0.080354 0.671668
vt 0.072791 0.672954
vt 0.029635 0.679970
vt 0.023576 0.639434
vt 0.052844 0.637818
vt 0.330805 0.496729
vt 0.330646 0.446980
vt 0.348321 0.448158
vt 0.453386 0.209435
vt 0.446871 0.208735
vt 0.447376 0.153476
vt 0.472518 0.156407
vt 0.444302 0.205928
vt 0.444302 0.156227
vt 0.917277 0.747707
vt 0.916866 0.738257
vt 0.925199 0.740984
vt 0.891581 0.393459
vt 0.899897 0.390600
vt 0.899489 0.400447
vt 0.545083 0.910000
vt 0.552165 0.911473
vt 0.542405 0.932750
vt 0.776466 0.955519
vt 0.783218 0.948148
vt 0.786306 0.953049
vt 0.915686 0.008289
vt 0.926572 0.000000
vt 0.926571 0.006974
vt 0.165509 0.947460
vt 0.164755 0.939286
vt 0.175531 0.939139
vt 0.176190 0.946277
vt 0.790007 0.393823
vt 0.790010 0.386478
vt 0.816569 0.388437
vt 0.816565 0.394852
vt 0.664551 0.911986
vt 0.666958 0.918595
vt 0.643746 0.917757
vt 0.644593 0.924559
vt 0.763628 0.915284
vt 0.761358 0.922753
vt 0.742177 0.922941
vt 0.741494 0.930082
vt 0.693544 0.876930
vt 0.698258 0.880605
vt 0.695522 0.890096
vt 0.859830 0.759793
vt 0.887277 0.745854
vt 0.887281 0.759785
vt 0.192205 0.882215
vt 0.164759 0.896020
vt 0.164755 0.882229
vt 0.220972 0.925048
vt 0.220967 0.938834
vt 0.193517 0.938820
vt 0.193522 0.925034
vt 0.160619 0.724242
vt 0.150981 0.725810
vt 0.148422 0.717527
vt 0.801256 0.911487
vt 0.828707 0.911492
vt 0.828710 0.923297
vt 0.801259 0.923292
vt 0.895642 0.596825
vt 0.873545 0.599531
vt 0.876104 0.587016
vt 0.898201 0.584310
vt 0.519262 0.879584
vt 0.515416 0.867386
vt 0.537234 0.868138
vt 0.960967 0.903890
vt 0.955935 0.899878
vt 0.953951 0.894572
vt 0.358955 0.978451
vt 0.359565 0.972141
vt 0.362624 0.969755
vt 0.316743 0.954254
vt 0.317971 0.962695
vt 0.316743 0.967815
vt 0.727187 0.206145
vt 0.744925 0.196947
vt 0.735365 0.214266
vt 0.900318 0.752283
vt 0.889771 0.753564
vt 0.887281 0.747950
vt 0.957894 0.731086
vt 0.968773 0.738878
vt 0.957888 0.736919
vt 0.674831 0.968009
vt 0.668207 0.967591
vt 0.668890 0.960451
vt 0.675613 0.959832
vt 0.938824 0.962328
vt 0.927945 0.960122
vt 0.927945 0.954038
vt 0.938824 0.955361
vt 0.927946 0.947064
vt 0.938826 0.947375
vt 0.175635 0.976804
vt 0.164755 0.976500
vt 0.164755 0.969319
vt 0.175634 0.968582
vt 0.042424 0.902414
vt 0.065509 0.900816
vt 0.066861 0.907779
vt 0.043972 0.910387
vt 0.668207 0.911986
vt 0.641654 0.909284
vt 0.641648 0.904201
vt 0.668196 0.890690
vt 0.641645 0.883579
vt 0.668197 0.882550
vt 0.641648 0.877164
vt 0.225729 0.938834
vt 0.225001 0.965392
vt 0.217820 0.965394
vt 0.851648 0.967087
vt 0.850636 0.940516
vt 0.856720 0.940583
vt 0.858615 0.967164
vt 0.712964 0.149113
vt 0.721910 0.150624
vt 0.721910 0.159342
vt 0.732108 0.188616
vt 0.736033 0.179767
vt 0.743907 0.182437
vt 0.742781 0.117624
vt 0.743907 0.127393
vt 0.736033 0.130112
vt 0.716432 0.137864
vt 0.472063 0.901751
vt 0.444613 0.901759
vt 0.444613 0.888791
vt 0.472063 0.888783
vt 0.472060 0.912487
vt 0.741494 0.879166
vt 0.768949 0.892943
vt 0.741499 0.892957
vt 0.248432 0.925034
vt 0.275882 0.925048
vt 0.275877 0.938834
vt 0.248427 0.938820
vt 0.853300 0.814186
vt 0.858957 0.827365
vt 0.854519 0.827391
vt 0.887667 0.238669
vt 0.889645 0.251835
vt 0.883255 0.246854
vt 0.881524 0.225113
vt 0.883926 0.232731
vt 0.878184 0.238806
vt 0.880696 0.216560
vt 0.874929 0.228479
vt 0.873807 0.216885
vt 0.883926 0.200006
vt 0.881524 0.207909
vt 0.874929 0.205159
vt 0.858966 0.923689
vt 0.858963 0.911884
vt 0.886413 0.911889
vt 0.886416 0.923693
vt 0.513531 0.872553
vt 0.487866 0.859602
vt 0.509685 0.860354
vt 0.392040 0.825389
vt 0.389268 0.830766
vt 0.382029 0.834960
vt 0.412237 0.834489
vt 0.417902 0.834300
vt 0.424710 0.838685
vt 0.409417 0.811643
vt 0.406189 0.806494
vt 0.405980 0.797993
vt 0.573868 0.373292
vt 0.576320 0.395250
vt 0.563284 0.376136
vt 0.922745 0.119157
vt 0.933629 0.121855
vt 0.933624 0.126949
vt 0.922739 0.155951
vt 0.933629 0.159069
vt 0.922745 0.161771
vt 0.576556 0.211531
vt 0.582600 0.210344
vt 0.582600 0.217427
vt 0.922121 0.967486
vt 0.911239 0.960012
vt 0.922119 0.962218
vt 0.423319 0.951123
vt 0.414082 0.942443
vt 0.424818 0.943181
vt 0.568963 0.904179
vt 0.542410 0.902215
vt 0.542407 0.895806
vt 0.568959 0.896841
vt 0.358136 0.937653
vt 0.357407 0.964211
vt 0.350227 0.964212
vt 0.769878 0.889810
vt 0.792963 0.889253
vt 0.792963 0.896426
vt 0.769878 0.898024
vt 0.712498 0.471865
vt 0.724001 0.478560
vt 0.715966 0.483093
vt 0.856163 0.882461
vt 0.828713 0.882469
vt 0.828710 0.868538
vt 0.676028 0.891538
vt 0.703479 0.891524
vt 0.703484 0.905315
vt 0.220977 0.925034
vt 0.248427 0.925048
vt 0.248422 0.938834
vt 0.220972 0.938820
vt 0.977127 0.667889
vt 0.981105 0.681631
vt 0.977125 0.681174
vt 0.870859 0.088370
vt 0.876516 0.101550
vt 0.872079 0.101576
vt 0.896556 0.518698
vt 0.891515 0.519782
vt 0.888827 0.510295
vt 0.183328 0.871296
vt 0.187676 0.882215
vt 0.180593 0.880787
vt 0.174874 0.861684
vt 0.178614 0.867621
vt 0.174203 0.875806
vt 0.171644 0.845512
vt 0.165876 0.857431
vt 0.164755 0.845837
vt 0.172472 0.836861
vt 0.183328 0.818346
vt 0.178614 0.822579
vt 0.174203 0.814751
vt 0.124715 0.928746
vt 0.124712 0.916941
vt 0.152162 0.916946
vt 0.152165 0.928750
vt 0.024657 0.918286
vt 0.022097 0.930802
vt -0.000000 0.933508
vt 0.002559 0.920993
vt 0.884621 0.862757
vt 0.858957 0.849806
vt 0.880775 0.850558
vt 0.781676 0.027476
vt 0.778904 0.032853
vt 0.771665 0.037048
vt 0.801874 0.036576
vt 0.807538 0.036388
vt 0.814346 0.040772
vt 0.799054 0.013730
vt 0.795826 0.008582
vt 0.795616 0.000081
s 1
usemtl material_0.002
f 32/1/1 28/2/2 1/3/3
f 2/4/4 1/5/3 28/6/2
f 48/7/5 36/8/6 5/9/7
f 34/10/8 36/11/6 48/7/5
f 5/12/7 4/13/9 48/14/5
f 3/15/10 33/16/11 5/12/7
f 31/17/12 8/18/13 14/19/14
f 11/20/15 27/21/16 10/22/17
f 11/23/15 10/24/17 40/25/18
f 17/26/19 19/27/20 18/28/21
f 22/29/22 21/30/22 9/31/22
f 26/32/23 10/22/17 27/21/16
f 2/33/4 28/34/2 38/35/24
f 33/36/11 42/37/25 5/12/7
f 41/38/26 40/39/18 83/40/27
f 16/41/28 15/42/29 25/43/30
f 15/42/29 37/44/31 35/45/32
f 35/45/32 25/43/30 15/42/29
f 36/46/6 35/45/32 37/47/31
f 40/48/18 41/49/26 44/50/33
f 42/51/25 43/52/34 34/53/8
f 44/54/33 45/55/35 13/56/36
f 13/56/36 40/57/18 44/54/33
f 5/9/7 36/58/6 37/59/31
f 14/60/14 6/61/37 31/62/12
f 42/63/25 34/10/8 46/64/38
f 4/65/9 42/66/25 46/67/38
f 4/13/9 5/12/7 42/37/25
f 48/68/5 4/13/9 47/69/39
f 34/10/8 48/70/5 46/64/38
f 30/71/40 31/72/12 6/73/37
f 50/74/41 39/75/42 51/76/41
f 54/77/43 53/78/44 52/79/45
f 52/79/45 218/80/46 54/77/43
f 20/81/47 24/82/48 190/83/49
f 69/84/50 55/85/51 58/86/52
f 58/86/52 62/87/53 69/84/50
f 56/88/54 60/89/54 63/90/55
f 57/91/56 65/92/57 59/93/58
f 57/94/56 228/95/59 66/96/60
f 66/96/60 65/97/57 57/94/56
f 58/98/52 57/99/56 59/93/58
f 59/100/58 62/101/53 58/102/52
f 70/103/61 64/104/62 67/105/63
f 67/106/63 64/107/62 74/108/64
f 74/109/64 64/107/62 71/110/65
f 71/111/65 55/112/51 69/113/50
f 74/114/64 71/110/65 69/113/50
f 56/115/54 61/116/66 60/117/54
f 74/118/64 68/119/67 67/120/63
f 12/121/68 11/122/15 13/123/36
f 40/124/18 13/125/36 11/122/15
f 24/82/48 20/81/47 23/126/69
f 75/127/70 82/128/71 76/129/72
f 76/129/72 13/130/36 75/127/70
f 7/131/73 29/132/74 30/133/40
f 30/133/40 6/134/37 7/131/73
f 8/18/13 31/17/12 77/135/75
f 77/135/75 90/136/76 8/18/13
f 78/137/77 81/138/78 79/139/77
f 79/139/77 80/140/79 78/137/77
f 75/127/70 13/130/36 45/55/35
f 83/141/27 84/142/80 85/143/81
f 85/143/81 76/144/72 83/141/27
f 86/145/82 50/146/41 51/147/41
f 41/148/26 83/40/27 76/149/72
f 76/149/72 82/150/71 41/148/26
f 87/151/83 88/152/84 89/153/85
f 90/154/76 91/155/86 8/18/13
f 92/156/87 93/157/88 252/158/89
f 94/159/90 96/160/91 254/161/91
f 92/156/87 97/162/92 93/157/88
f 95/163/93 254/161/91 96/160/91
f 99/164/94 100/165/95 103/166/96
f 103/166/96 101/167/97 99/168/94
f 99/164/94 106/169/98 100/170/95
f 108/171/99 101/172/100 109/173/101
f 109/173/101 110/174/102 108/171/99
f 111/175/103 108/176/99 110/177/102
f 110/177/102 112/178/104 111/175/103
f 113/179/105 111/180/103 112/181/104
f 112/181/104 114/182/106 113/179/105
f 114/183/106 275/184/107 98/185/108
f 98/185/108 113/186/105 114/183/106
f 109/187/101 101/188/100 115/189/109
f 115/189/109 276/190/110 109/187/101
f 109/187/101 276/190/110 275/184/107
f 275/184/107 114/183/106 109/187/101
f 117/191/111 279/192/112 116/193/112
f 405/194/113 119/195/113 122/196/113
f 283/197/114 282/198/115 120/199/116
f 120/199/116 121/200/117 283/197/114
f 122/196/113 119/195/113 406/201/113
f 123/202/118 118/203/119 124/204/120
f 125/205/121 286/206/121 126/207/121
f 126/208/121 127/209/121 125/210/121
f 123/211/118 121/200/117 120/199/116
f 120/199/116 118/212/119 123/211/118
f 131/213/122 128/214/123 130/215/124
f 132/216/125 131/217/122 130/218/124
f 130/218/124 133/219/126 132/216/125
f 134/220/127 132/216/125 133/219/126
f 133/219/126 135/221/128 134/220/127
f 136/222/129 134/223/127 135/224/128
f 135/224/128 152/225/130 136/222/129
f 137/226/131 145/227/132 138/228/133
f 139/229/134 137/230/131 138/231/133
f 138/231/133 140/232/135 139/229/134
f 140/233/135 142/234/136 141/235/137
f 143/236/138 144/237/139 148/238/140
f 146/239/141 138/228/133 145/227/132
f 144/237/139 147/240/142 148/238/140
f 149/241/143 151/242/144 150/243/145
f 151/242/144 153/244/146 150/243/145
f 129/245/147 130/215/124 128/214/123
f 141/246/137 139/247/134 140/233/135
f 154/248/148 155/249/148 156/250/148
f 156/250/148 157/251/148 154/248/148
f 159/252/148 158/253/148 135/254/128
f 135/254/128 130/255/124 159/252/148
f 130/255/124 135/254/128 133/256/126
f 156/250/148 155/249/148 160/257/148
f 163/258/149 162/259/150 161/260/151
f 149/261/143 150/243/145 307/262/152
f 307/262/152 303/263/153 149/261/143
f 148/238/140 306/264/154 164/265/155
f 164/265/155 165/266/156 148/238/140
f 150/243/145 162/259/150 319/267/157
f 319/267/157 307/262/152 150/243/145
f 162/259/150 163/258/149 166/268/158
f 166/268/158 319/267/157 162/259/150
f 148/269/140 147/270/142 149/271/143
f 149/261/143 303/263/153 306/264/154
f 306/264/154 148/269/140 149/261/143
f 320/272/159 168/273/160 167/274/161
f 167/274/161 168/273/160 169/275/162
f 107/276/163 98/277/164 265/278/163
f 177/279/165 171/280/166 170/281/167
f 171/282/166 177/283/165 178/284/168
f 172/285/169 203/286/170 173/287/171
f 173/287/171 203/288/170 209/289/172
f 173/290/171 213/291/173 172/292/169
f 172/292/169 200/293/174 194/294/175
f 186/295/176 175/296/177 197/297/178
f 181/298/179 182/299/180 184/300/181
f 183/301/182 181/302/179 184/303/181
f 19/304/20 187/305/183 18/306/21
f 187/305/183 19/304/20 188/307/184
f 176/308/185 189/309/185 179/310/185
f 182/299/180 181/298/179 198/311/186
f 193/312/187 171/313/166 178/314/168
f 172/292/169 199/315/188 200/316/174
f 201/317/189 183/318/182 202/319/190
f 204/320/191 191/321/192 192/322/193
f 191/321/192 204/320/191 205/323/194
f 205/323/194 180/324/195 191/321/192
f 180/325/195 205/323/194 203/326/170
f 208/327/196 202/328/190 183/329/182
f 209/330/172 210/331/197 199/332/188
f 208/333/196 183/334/182 185/335/198
f 185/335/198 211/336/199 208/333/196
f 172/285/169 180/337/195 203/326/170
f 197/338/178 237/339/200 186/340/176
f 212/341/201 209/289/172 199/342/188
f 212/343/201 199/344/188 213/345/173
f 199/315/188 172/292/169 213/291/173
f 214/346/202 213/291/173 173/347/171
f 209/289/172 212/341/201 173/348/171
f 237/349/200 197/350/178 195/351/203
f 49/352/204 215/353/204 216/354/204
f 207/355/205 206/356/206 217/357/207
f 219/358/208 54/359/43 218/360/46
f 231/361/209 224/362/210 220/363/211
f 222/364/212 226/365/213 227/366/213
f 230/367/214 68/368/67 234/369/215
f 223/370/216 66/371/60 220/372/211
f 66/96/60 228/373/59 220/374/211
f 220/375/211 224/376/210 223/377/216
f 229/378/217 68/368/67 230/379/214
f 221/380/218 231/381/209 220/382/211
f 226/383/213 225/384/219 227/385/213
f 74/386/64 234/369/215 68/387/67
f 233/388/220 232/389/221 73/390/220
f 73/390/220 72/391/222 233/388/220
f 185/392/198 184/393/181 235/394/223
f 184/393/181 185/395/198 183/396/182
f 245/397/224 244/398/225 236/399/226
f 236/399/226 185/400/198 245/397/224
f 174/401/227 237/402/200 195/403/203
f 195/403/203 196/404/228 174/401/227
f 175/296/177 238/405/229 239/406/230
f 239/406/230 197/297/178 175/296/177
f 240/407/231 241/408/232 243/409/231
f 243/409/231 242/410/233 240/407/231
f 236/399/226 211/336/199 185/400/198
f 246/411/234 247/412/235 201/413/189
f 201/413/189 245/414/224 246/411/234
f 207/415/205 217/416/207 248/417/236
f 245/418/224 201/317/189 202/419/190
f 202/419/190 244/420/225 245/418/224
f 87/151/83 249/421/237 88/422/84
f 88/423/84 249/424/237 250/425/238
f 175/296/177 251/426/239 238/427/229
f 253/428/240 92/429/87 252/430/89
f 257/431/241 264/432/242 256/433/243
f 259/434/244 104/435/245 260/436/246
f 261/437/247 262/438/248 259/434/244
f 259/434/244 260/439/246 261/437/247
f 260/436/246 104/435/245 105/440/249
f 264/441/242 263/442/250 256/433/243
f 107/443/163 265/444/163 266/445/251
f 267/446/99 268/447/252 269/448/253
f 269/448/253 270/449/254 267/446/99
f 271/450/255 272/451/256 268/452/252
f 268/452/252 267/453/99 271/450/255
f 273/454/257 274/455/258 272/456/256
f 272/456/256 271/457/255 273/454/257
f 274/458/258 273/459/257 275/460/107
f 276/461/110 270/462/259 277/463/260
f 277/463/260 274/458/258 275/184/107
f 275/184/107 276/190/110 277/463/260
f 116/464/112 279/465/112 278/466/261
f 281/467/113 122/468/113 406/201/113
f 280/469/262 285/470/263 284/471/264
f 126/472/121 286/473/121 287/474/121
f 284/475/264 285/476/263 282/477/115
f 282/477/115 283/478/114 284/475/264
f 291/479/265 289/480/266 290/481/267
f 292/482/268 293/483/269 289/484/266
f 289/484/266 291/485/265 292/482/268
f 295/486/270 294/487/271 293/483/269
f 293/483/269 292/482/268 295/486/270
f 309/488/272 296/489/273 294/490/271
f 294/490/271 295/491/270 309/488/272
f 298/492/274 297/493/275 305/494/276
f 300/495/277 299/496/278 297/497/275
f 297/497/275 298/498/274 300/495/277
f 301/499/279 302/500/280 299/501/278
f 305/494/276 297/493/275 304/502/281
f 307/503/152 308/504/282 303/505/153
f 290/481/267 289/480/266 288/506/283
f 301/507/279 299/501/278 300/508/277
f 312/509/284 313/510/284 310/511/284
f 310/511/284 311/512/284 312/509/284
f 294/513/271 315/514/284 314/515/284
f 314/515/284 289/516/266 294/513/271
f 289/516/266 293/517/269 294/513/271
f 310/511/284 316/518/284 311/512/284
f 318/519/151 319/520/157 317/521/285
f 166/268/158 317/522/285 319/520/157
f 321/523/286 168/524/160 320/525/159
f 321/523/286 322/526/287 168/524/160
f 338/527/288 323/528/289 324/529/290
f 325/530/291 324/529/290 341/531/292
f 325/532/291 341/531/292 326/533/293
f 327/534/294 326/533/293 330/535/295
f 328/536/296 324/529/290 325/530/291
f 329/537/297 324/529/290 328/536/296
f 331/538/298 332/539/299 334/540/300
f 331/538/298 347/541/301 333/542/302
f 333/542/302 332/539/299 331/538/298
f 333/543/302 347/541/301 336/544/303
f 329/537/297 335/545/304 338/527/288
f 338/527/288 324/529/290 329/537/297
f 347/546/301 350/547/305 336/548/303
f 336/549/303 337/550/306 338/551/307
f 348/552/308 324/529/290 339/553/309
f 341/531/292 324/529/290 340/554/310
f 330/535/295 326/533/293 344/555/311
f 342/556/312 340/554/310 324/529/290
f 343/557/313 342/556/312 324/529/290
f 341/558/292 344/555/311 326/533/293
f 345/559/314 346/560/315 331/538/298
f 331/538/298 346/560/315 347/561/301
f 343/557/313 324/529/290 348/552/308
f 348/562/308 349/563/316 350/564/317
f 351/565/318 354/566/319 352/567/320
f 352/567/320 353/568/321 351/565/318
f 355/569/322 352/570/320 354/571/319
f 360/572/323 361/573/323 356/574/323
f 356/574/323 357/575/323 360/572/323
f 358/576/324 362/577/324 363/578/324
f 363/578/324 359/579/324 358/576/324
f 364/580/323 366/581/323 367/582/323
f 367/582/323 365/466/323 364/580/323
f 370/583/323 376/584/325 371/585/323
f 371/585/323 372/586/323 370/583/323
f 377/587/324 373/588/324 374/589/324
f 374/589/324 375/590/324 377/587/324
f 378/591/326 368/592/326 369/593/326
f 369/593/326 379/594/326 378/591/326
f 404/595/327 380/596/328 381/597/329
f 383/598/113 394/599/113 381/600/330
f 387/601/331 381/602/329 392/603/332
f 388/604/333 389/605/334 401/606/335
f 394/607/113 395/608/113 381/600/330
f 402/609/336 396/610/337 397/611/338
f 386/612/113 399/613/113 400/614/113
f 384/615/339 403/616/340 398/617/341
f 387/601/331 404/618/327 381/602/329
f 106/169/98 113/619/105 98/620/108
f 100/170/95 106/169/98 98/620/108
f 103/166/96 102/621/342 101/167/97
f 255/622/343 273/623/344 263/624/250
f 255/625/343 263/442/250 264/441/242
f 257/431/241 256/626/243 270/627/254
f 257/431/241 270/627/254 258/628/345
f 388/604/333 382/629/346 389/605/334
f 384/630/339 385/631/347 391/632/348
f 400/614/113 396/633/349 386/612/113
f 401/634/335 393/635/350 388/636/333
f 407/637/351 390/638/352 396/610/337
f 407/637/351 396/610/337 402/609/336
f 384/615/339 391/639/348 403/616/340
f 409/640/353 410/641/353 408/642/353
f 418/643/354 417/644/355 422/645/356
f 419/646/357 421/647/357 420/648/357
f 423/649/358 418/650/354 422/651/356
f 424/652/359 426/653/360 431/654/361
f 426/655/360 425/656/362 431/657/361
f 426/658/360 428/659/363 425/660/362
f 428/659/363 427/661/364 425/660/362
f 429/662/365 424/663/359 431/664/361
f 429/662/365 431/664/361 430/665/366
f 434/666/367 435/667/368 433/668/369
f 436/669/370 432/670/371 434/671/367
f 436/672/370 434/673/367 433/674/369
f 433/675/369 435/676/368 437/677/372
f 442/678/373 440/679/374 441/680/375
f 442/678/373 441/680/375 444/681/376
f 443/682/377 442/678/373 444/681/376
f 445/683/378 443/684/377 444/685/376
f 446/686/379 447/687/380 448/688/381
f 446/686/379 448/688/381 457/689/382
f 452/690/383 450/691/384 453/692/385
f 451/693/386 454/694/387 452/695/383
f 452/696/383 454/697/387 455/698/388
f 452/699/383 455/700/388 450/701/384
f 450/702/384 455/703/388 456/704/389
f 449/705/390 457/706/382 439/707/391
f 449/705/390 439/707/391 438/708/392
f 449/709/390 446/710/379 457/711/382
f 458/712/393 414/713/393 411/714/393
f 459/715/394 415/716/394 412/717/394
f 460/718/395 416/719/395 413/720/395
f 464/721/396 461/722/397 462/723/396
f 463/724/398 464/725/396 462/723/396
f 467/726/399 466/727/400 465/728/401
f 475/729/402 470/730/403 471/731/404
f 471/731/404 472/732/405 475/729/402
f 473/733/406 474/734/407 472/732/405
f 472/732/405 471/731/404 473/733/406
f 488/735/408 469/736/409 468/737/408
f 479/738/410 477/739/411 476/740/410
f 478/741/412 479/738/410 476/742/410
f 467/743/399 480/744/413 481/745/414
f 481/746/414 466/747/400 467/748/399
f 468/749/408 489/750/415 488/751/408
f 482/752/416 483/753/417 484/754/418
f 484/754/418 487/755/419 482/752/416
f 483/753/417 485/756/420 486/757/421
f 486/757/421 484/754/418 483/753/417
f 492/758/422 491/759/422 490/760/422
f 493/761/423 495/762/423 494/763/423
f 498/764/424 496/765/424 497/766/424
f 508/767/425 507/768/425 506/769/426
f 508/770/425 509/771/427 507/772/425
f 511/773/428 506/774/429 505/775/430
f 511/773/428 505/775/430 510/776/431
f 513/777/432 514/778/433 515/779/434
f 513/777/432 515/779/434 512/780/435
f 514/781/433 517/782/436 515/783/434
f 517/782/436 516/784/437 515/783/434
f 519/785/438 513/786/432 518/787/439
f 513/786/432 512/788/435 518/787/439
f 522/789/440 521/790/440 520/791/440
f 525/792/441 526/793/442 527/794/443
f 537/795/444 528/796/445 529/797/446
f 530/798/379 531/799/380 529/800/447
f 530/798/379 529/800/447 536/801/448
f 533/802/449 534/803/449 535/804/449
f 532/805/390 536/806/448 524/807/391
f 532/805/390 524/807/391 523/808/450
f 525/809/441 527/810/443 528/811/445
f 525/809/441 528/811/445 537/812/444
f 532/813/390 530/814/379 536/815/448
f 538/816/393 502/817/393 499/818/393
f 539/819/394 503/820/394 500/821/394
f 540/822/395 504/823/395 501/824/395
f 542/825/451 541/826/451 543/827/451
f 558/828/452 550/829/453 552/830/454
f 558/831/452 552/832/454 551/833/455
f 551/834/455 552/835/454 554/836/456
f 551/834/455 554/836/456 553/837/457
f 553/838/457 554/839/456 555/840/458
f 553/841/457 555/842/458 556/843/459
f 556/844/460 557/845/461 550/846/453
f 556/844/460 550/846/453 558/847/452
f 568/848/462 559/849/463 561/850/464
f 568/848/462 561/850/464 560/851/465
f 560/852/465 561/853/464 562/854/466
f 560/855/465 562/856/466 563/857/467
f 563/857/467 562/856/466 564/858/468
f 563/859/467 564/860/468 565/861/469
f 566/862/470 567/863/471 559/864/463
f 566/862/470 559/864/463 568/865/462
f 569/866/472 572/867/473 573/868/474
f 569/869/472 573/870/474 574/871/475
f 571/872/476 570/873/477 572/874/473
f 571/875/476 572/867/473 569/866/472
f 579/876/478 580/877/479 577/878/480
f 579/876/478 577/878/480 578/879/481
f 581/880/482 580/877/479 579/876/478
f 582/881/483 580/882/479 581/883/482
f 586/884/484 585/885/485 583/886/486
f 586/884/484 583/886/486 584/887/380
f 587/888/487 589/889/488 588/890/489
f 591/891/490 590/892/491 587/893/487
f 592/894/492 591/895/490 587/896/487
f 592/897/492 587/898/487 588/899/489
f 593/900/493 592/901/492 588/902/489
f 575/903/494 585/904/485 594/905/495
f 575/903/494 594/905/495 576/906/496
f 594/907/495 585/908/485 586/909/484
f 547/910/497 544/911/497 595/912/497
f 548/913/498 545/914/498 596/915/498
f 549/916/499 546/917/499 597/918/499
f 599/919/500 598/920/500 600/921/500
f 613/922/501 607/923/502 608/924/503
f 613/925/501 608/926/503 609/927/504
f 609/928/504 608/929/503 611/930/505
f 609/931/504 611/932/505 610/933/506
f 612/934/507 607/935/502 613/936/501
f 614/937/508 615/938/509 617/939/510
f 614/937/508 617/939/510 616/940/511
f 616/941/511 617/942/510 618/943/512
f 619/944/513 620/945/514 615/946/509
f 619/944/513 615/946/509 614/947/508
f 622/948/515 623/949/515 621/950/515
f 628/951/516 626/952/517 627/953/518
f 629/954/519 630/955/520 645/956/521
f 633/957/484 632/958/485 630/959/522
f 633/957/484 630/959/522 631/960/380
f 634/961/523 636/962/524 635/963/525
f 635/964/525 637/965/526 638/966/527
f 639/967/528 643/968/529 634/969/523
f 639/970/528 634/971/523 635/972/525
f 640/973/530 639/974/528 635/975/525
f 640/976/530 635/977/525 638/978/527
f 641/979/531 640/976/530 638/978/527
f 642/980/532 641/981/531 638/982/527
f 624/983/494 632/984/485 644/985/495
f 624/983/494 644/985/495 625/986/496
f 645/987/521 626/988/517 628/989/516
f 645/987/521 628/989/516 629/990/519
f 644/991/495 632/992/485 633/993/484
f 604/994/497 601/995/497 646/996/497
f 605/997/498 602/998/498 647/999/498
f 606/1000/499 603/1001/499 648/1002/499
