####
#
# OBJ File Generated by Meshlab
#
####
# Object building5.obj
#
# Vertices: 16
# Faces: 30
#
####
mtllib ./building5.obj.mtl

vn -0.6396016 0.4264016 0.6396026
v -5.7807922 32.7485962 16.4685993
vn 0.6882477 0.2294156 0.6882467
v 5.8909931 32.7485962 16.4685841
vn 0.6396018 0.4264015 -0.6396025
v 5.8909841 32.7485962 -16.5316429
vn -0.6882476 0.2294157 -0.6882469
v -5.7808008 32.7485962 -16.5316334
vn 0.8944274 0.0000000 0.4472132
v 5.8909931 0.2070940 16.4685841
vn 0.4472130 0.0000000 -0.8944275
v 5.8909841 0.2070940 -16.5316429
vn -0.8944274 0.0000000 -0.4472133
v -5.7808008 0.2070940 -16.5316334
vn -0.4472126 0.0000000 0.8944277
v -5.7807922 0.2070940 16.4685993
vn -0.6396016 0.4264016 0.6396026
v -5.7807922 65.2901001 16.4685993
vn 0.6882477 0.2294156 0.6882467
v 5.8909931 65.2901001 16.4685841
vn 0.6396018 0.4264015 -0.6396025
v 5.8909841 65.2901001 -16.5316429
vn -0.6882476 0.2294157 -0.6882469
v -5.7808008 65.2901001 -16.5316334
vn -0.6666664 0.6666668 0.3333336
v -5.7807922 97.8316040 16.4685993
vn 0.4082492 0.4082482 0.8164962
v 5.8909931 97.8316040 16.4685841
vn 0.6666664 0.6666667 -0.3333336
v 5.8909841 97.8316040 -16.5316429
vn -0.4082489 0.4082482 -0.8164964
v -5.7808008 97.8316040 -16.5316334
# 16 vertices, 0 vertices normals


usemtl material_0
vt 0.0000000 0.6283000
vt 0.1111110 0.6283000
vt 0.1111110 0.9424510
f 1/1/1 2/2/2 3/3/3
vt 0.0000000 0.9424500
f 1/1/1 3/3/3 4/4/4
vt 0.6195660 0.3141500
vt 0.6195660 0.6283000
vt 0.3097830 0.6283000
f 5/5/5 6/6/6 3/7/3
vt 0.3097830 0.3141500
f 5/5/5 3/7/3 2/8/2
vt 0.3097830 0.0000000
vt -0.0000000 0.3141500
f 7/9/7 8/8/8 1/10/1
vt -0.0000000 0.0000000
f 7/9/7 1/10/1 4/11/4
vt 0.4444440 0.9380840
vt 0.3333330 0.9380840
vt 0.3333330 0.6283000
f 8/12/8 5/13/5 2/14/2
vt 0.4444440 0.6283000
f 8/12/8 2/14/2 1/15/1
vt 0.5555560 0.9380840
f 6/16/6 7/12/7 4/15/4
vt 0.5555560 0.6283000
f 6/16/6 4/15/4 3/17/3
vt 0.2222220 0.6283000
vt 0.2222220 0.9424510
f 9/2/9 10/18/10 11/19/11
vt 0.1111110 0.9424500
f 9/2/9 11/19/11 12/20/12
vt 0.9293500 0.0000000
vt 0.9293500 0.3141500
f 2/21/2 3/22/3 11/5/11
vt 0.6195660 -0.0000000
f 2/21/2 11/5/11 10/23/10
f 4/23/4 1/5/1 9/8/9
f 4/23/4 9/8/9 12/9/12
vt 0.6666670 0.9380840
f 1/24/1 2/16/2 10/17/10
vt 0.6666670 0.6283000
f 1/24/1 10/17/10 9/25/9
vt 0.7777780 0.9380840
f 3/26/3 4/24/4 12/25/12
vt 0.7777780 0.6283000
f 3/26/3 12/25/12 11/27/11
vt 0.3333330 0.9424510
f 13/18/13 14/14/14 15/28/15
vt 0.2222220 0.9424500
f 13/18/13 15/28/15 16/29/16
vt 0.9293500 0.6283000
f 10/22/10 11/30/11 15/6/15
f 10/22/10 15/6/15 14/5/14
f 12/8/12 9/7/9 13/1/13
f 12/8/12 13/1/13 16/10/16
vt 0.8888890 0.9380840
f 9/31/9 10/26/10 14/27/14
vt 0.8888890 0.6283000
f 9/31/9 14/27/14 13/32/13
vt 1.0000000 0.9380840
f 11/33/11 12/31/12 16/32/16
vt 1.0000000 0.6283000
f 11/33/11 16/32/16 15/34/15
# 30 faces, 34 coords texture

# End of File
