####
#
# OBJ File Generated by Meshlab
#
####
# Object building1.obj
#
# Vertices: 140
# Faces: 226
#
####
mtllib ./building1.obj.mtl

vn -0.5345227 0.8017837 -0.2672610
v 21.6995754 62.4858818 14.1503515
vn -0.2672610 0.8017837 0.5345227
v 21.6995640 62.4858818 -12.9853954
vn -0.6666666 0.6666667 0.3333336
v 21.6995640 62.2067223 -12.9853954
vn -0.4082487 0.4082483 -0.8164964
v 21.6995754 62.2067223 14.1503515
vn 0.8944274 0.0000000 0.4472132
v 22.1617146 0.0044210 14.6124907
vn 0.4472132 0.0000000 -0.8944274
v 22.1617031 0.0044210 -13.4475327
vn 0.5345224 0.8017837 -0.2672615
v 22.1617031 62.4858818 -13.4475327
vn 0.2672615 0.8017837 0.5345224
v 22.1617146 62.4858818 14.6124907
vn -0.8944274 0.0000000 -0.4472132
v -22.6021538 0.0044210 -13.4475145
vn -0.4472132 0.0000000 0.8944274
v -22.6021423 0.0044210 14.6125107
vn -0.5345224 0.8017837 0.2672615
v -22.6021423 62.4858818 14.6125107
vn -0.2672614 0.8017837 -0.5345224
v -22.6021538 62.4858818 -13.4475145
vn 0.2672610 0.8017837 -0.5345227
v -22.1400032 62.4858818 14.1503735
vn 0.5345227 0.8017837 0.2672610
v -22.1400146 62.4858818 -12.9853783
vn 0.6666665 0.6666667 -0.3333336
v -22.1400032 62.2067223 14.1503735
vn 0.4082486 0.4082483 0.8164964
v -22.1400146 62.2067223 -12.9853783
vn -0.8944272 0.0000000 0.4472136
v -21.7296448 62.0524254 -11.1949368
vn -0.3333333 0.6666667 0.6666667
v -21.7296448 63.5075874 -11.1949368
vn -0.8164966 0.4082483 -0.4082483
v -21.7296448 63.5075874 -12.6500969
vn -0.4472136 0.0000000 -0.8944272
v -21.7296448 62.0524254 -12.6500969
vn -0.2294157 0.6882472 -0.6882472
v -19.0899887 63.5075874 -12.6500969
vn 0.3162278 0.0000000 -0.9486833
v -19.0899887 62.0524254 -12.6500969
vn 0.2294157 0.6882472 0.6882472
v -19.0899887 63.5075874 -11.1949368
vn -0.3162278 0.0000000 0.9486833
v -19.0899887 62.0524254 -11.1949368
vn -0.2294157 0.6882472 -0.6882472
v -16.4503307 63.5075874 -12.6500969
vn 0.3162278 0.0000000 -0.9486833
v -16.4503307 62.0524254 -12.6500969
vn 0.2294157 0.6882472 0.6882472
v -16.4503307 63.5075874 -11.1949368
vn -0.3162278 0.0000000 0.9486833
v -16.4503307 62.0524254 -11.1949368
vn -0.2294157 0.6882472 -0.6882472
v -13.8106737 63.5075874 -12.6500969
vn 0.3162278 0.0000000 -0.9486833
v -13.8106737 62.0524254 -12.6500969
vn 0.2294157 0.6882472 0.6882472
v -13.8106737 63.5075874 -11.1949368
vn -0.3162278 0.0000000 0.9486833
v -13.8106737 62.0524254 -11.1949368
vn -0.2294157 0.6882472 -0.6882472
v -11.1710176 63.5075874 -12.6500969
vn 0.3162278 0.0000000 -0.9486833
v -11.1710176 62.0524254 -12.6500969
vn 0.2294157 0.6882472 0.6882472
v -11.1710176 63.5075874 -11.1949368
vn -0.3162278 0.0000000 0.9486833
v -11.1710176 62.0524254 -11.1949368
vn -0.2294157 0.6882472 -0.6882472
v -8.5313597 63.5075874 -12.6500969
vn 0.3162278 0.0000000 -0.9486833
v -8.5313597 62.0524254 -12.6500969
vn 0.2294157 0.6882472 0.6882472
v -8.5313597 63.5075874 -11.1949368
vn -0.3162278 0.0000000 0.9486833
v -8.5313597 62.0524254 -11.1949368
vn -0.2294157 0.6882472 -0.6882472
v -5.8917031 63.5075874 -12.6500969
vn 0.3162278 0.0000000 -0.9486833
v -5.8917031 62.0524254 -12.6500969
vn 0.2294157 0.6882472 0.6882472
v -5.8917031 63.5075874 -11.1949368
vn -0.3162278 0.0000000 0.9486833
v -5.8917031 62.0524254 -11.1949368
vn 0.3333333 0.6666667 -0.6666667
v -3.2520461 63.5075874 -12.6500969
vn 0.8944272 0.0000000 -0.4472136
v -3.2520461 62.0524254 -12.6500969
vn 0.8164966 0.4082483 0.4082483
v -3.2520461 63.5075874 -11.1949368
vn 0.4472136 0.0000000 0.8944272
v -3.2520461 62.0524254 -11.1949368
vn -0.8944272 0.0000000 0.4472136
v -3.2520440 62.0524254 -11.1949368
vn -0.3333333 0.6666667 0.6666667
v -3.2520440 63.5075874 -11.1949368
vn -0.8164966 0.4082483 -0.4082483
v -3.2520440 63.5075874 -12.6500969
vn -0.4472136 0.0000000 -0.8944272
v -3.2520440 62.0524254 -12.6500969
vn 0.3333333 0.6666667 -0.6666667
v -0.6123880 63.5075874 -12.6500969
vn 0.8944272 0.0000000 -0.4472136
v -0.6123880 62.0524254 -12.6500969
vn 0.8164966 0.4082483 0.4082483
v -0.6123880 63.5075874 -11.1949368
vn 0.4472136 0.0000000 0.8944272
v -0.6123880 62.0524254 -11.1949368
vn -0.8944272 0.0000000 0.4472136
v -0.6123870 62.0524254 -11.1949368
vn -0.3333333 0.6666667 0.6666667
v -0.6123870 63.5075874 -11.1949368
vn -0.8164966 0.4082483 -0.4082483
v -0.6123870 63.5075874 -12.6500969
vn -0.4472136 0.0000000 -0.8944272
v -0.6123870 62.0524254 -12.6500969
vn 0.3333333 0.6666667 -0.6666667
v 2.0272689 63.5075874 -12.6500969
vn 0.8944272 0.0000000 -0.4472136
v 2.0272689 62.0524254 -12.6500969
vn 0.8164966 0.4082483 0.4082483
v 2.0272689 63.5075874 -11.1949368
vn 0.4472136 0.0000000 0.8944272
v 2.0272689 62.0524254 -11.1949368
vn -0.8944272 0.0000000 0.4472136
v 2.0272710 62.0524254 -11.1949368
vn -0.3333333 0.6666667 0.6666667
v 2.0272710 63.5075874 -11.1949368
vn -0.8164966 0.4082483 -0.4082483
v 2.0272710 63.5075874 -12.6500969
vn -0.4472136 0.0000000 -0.8944272
v 2.0272710 62.0524254 -12.6500969
vn 0.3333333 0.6666667 -0.6666667
v 4.6669259 63.5075874 -12.6500969
vn 0.8944272 0.0000000 -0.4472136
v 4.6669259 62.0524254 -12.6500969
vn 0.8164966 0.4082483 0.4082483
v 4.6669259 63.5075874 -11.1949368
vn 0.4472136 0.0000000 0.8944272
v 4.6669259 62.0524254 -11.1949368
vn -0.8944272 0.0000000 0.4472136
v 4.6669278 62.0524254 -11.1949368
vn -0.3333333 0.6666667 0.6666667
v 4.6669278 63.5075874 -11.1949368
vn -0.8164966 0.4082483 -0.4082483
v 4.6669278 63.5075874 -12.6500969
vn -0.4472136 0.0000000 -0.8944272
v 4.6669278 62.0524254 -12.6500969
vn 0.3333333 0.6666667 -0.6666667
v 7.3065839 63.5075874 -12.6500969
vn 0.8944272 0.0000000 -0.4472136
v 7.3065839 62.0524254 -12.6500969
vn 0.8164966 0.4082483 0.4082483
v 7.3065839 63.5075874 -11.1949368
vn 0.4472136 0.0000000 0.8944272
v 7.3065839 62.0524254 -11.1949368
vn -0.8944272 0.0000000 0.4472136
v 7.3065858 62.0524254 -11.1949368
vn -0.3333333 0.6666667 0.6666667
v 7.3065858 63.5075874 -11.1949368
vn -0.8164966 0.4082483 -0.4082483
v 7.3065858 63.5075874 -12.6500969
vn -0.4472136 0.0000000 -0.8944272
v 7.3065858 62.0524254 -12.6500969
vn 0.3333333 0.6666667 -0.6666667
v 9.9462414 63.5075874 -12.6500969
vn 0.8944272 0.0000000 -0.4472136
v 9.9462414 62.0524254 -12.6500969
vn 0.8164966 0.4082483 0.4082483
v 9.9462414 63.5075874 -11.1949368
vn 0.4472136 0.0000000 0.8944272
v 9.9462414 62.0524254 -11.1949368
vn -0.8944272 0.0000000 0.4472136
v 9.9462433 62.0524254 -11.1949368
vn -0.3333333 0.6666667 0.6666667
v 9.9462433 63.5075874 -11.1949368
vn -0.8164966 0.4082483 -0.4082483
v 9.9462433 63.5075874 -12.6500969
vn -0.4472136 0.0000000 -0.8944272
v 9.9462433 62.0524254 -12.6500969
vn -0.2294157 0.6882472 -0.6882472
v 12.5859013 63.5075874 -12.6500969
vn 0.3162278 0.0000000 -0.9486833
v 12.5859013 62.0524254 -12.6500969
vn 0.2294157 0.6882472 0.6882472
v 12.5859013 63.5075874 -11.1949368
vn -0.3162278 0.0000000 0.9486833
v 12.5859013 62.0524254 -11.1949368
vn -0.2294157 0.6882472 -0.6882472
v 15.2255564 63.5075874 -12.6500969
vn 0.3162278 0.0000000 -0.9486833
v 15.2255564 62.0524254 -12.6500969
vn 0.2294157 0.6882472 0.6882472
v 15.2255564 63.5075874 -11.1949368
vn -0.3162278 0.0000000 0.9486833
v 15.2255564 62.0524254 -11.1949368
vn -0.2294157 0.6882472 -0.6882472
v 17.8652115 63.5075874 -12.6500969
vn 0.3162278 0.0000000 -0.9486833
v 17.8652115 62.0524254 -12.6500969
vn 0.2294157 0.6882472 0.6882472
v 17.8652115 63.5075874 -11.1949368
vn -0.3162278 0.0000000 0.9486833
v 17.8652115 62.0524254 -11.1949368
vn 0.3333333 0.6666667 -0.6666667
v 20.5048676 63.5075874 -12.6500969
vn 0.8944272 0.0000000 -0.4472136
v 20.5048676 62.0524254 -12.6500969
vn 0.8164966 0.4082483 0.4082483
v 20.5048676 63.5075874 -11.1949368
vn 0.4472136 0.0000000 0.8944272
v 20.5048676 62.0524254 -11.1949368
vn -0.4472135 0.0000000 -0.8944273
v -21.7226982 62.0524254 -11.1996660
vn -0.6666666 0.6666666 -0.3333338
v -21.7226982 63.5075874 -11.1996660
vn 0.4082484 0.4082484 -0.8164965
v -20.4200020 63.5075874 -11.1996660
vn 0.8944275 0.0000000 -0.4472131
v -20.4200020 62.0524254 -11.1996660
vn 0.6666666 0.6666666 0.3333338
v -20.4200039 63.5075874 -8.5600080
vn 0.4472135 0.0000000 0.8944273
v -20.4200039 62.0524254 -8.5600080
vn -0.4082484 0.4082484 0.8164965
v -21.7227001 63.5075874 -8.5600080
vn -0.8944275 0.0000000 0.4472131
v -21.7227001 62.0524254 -8.5600080
vn -0.7071071 0.0000000 -0.7071066
v -21.8370838 61.9757423 -8.6010284
vn -0.7071064 0.0000000 0.7071072
v -21.8370819 61.9757423 -4.5951438
vn -0.6666663 0.3333334 0.6666670
v -21.8370819 63.5491600 -4.5951438
vn -0.4082485 0.8164966 -0.4082481
v -21.8370838 63.5491600 -8.6010284
vn 0.4082486 0.8164966 0.4082481
v -18.7065277 63.5491600 -4.5951462
vn 0.6666664 0.3333333 -0.6666670
v -18.7065296 63.5491600 -8.6010294
vn 0.7071072 0.0000000 0.7071064
v -18.7065277 61.9757423 -4.5951462
vn 0.7071065 0.0000000 -0.7071071
v -18.7065296 61.9757423 -8.6010294
vn 0.7071063 0.0000000 0.7071072
v -18.7114525 61.8502235 0.3003470
vn 0.7071071 0.0000000 -0.7071065
v -18.7114506 61.8502235 -1.7288160
vn 0.6666670 0.3333335 -0.6666663
v -18.7114506 63.3966026 -1.7288160
vn 0.4082481 0.8164966 0.4082487
v -18.7114525 63.3966026 0.3003470
vn -0.4082482 0.8164965 -0.4082486
v -21.6142826 63.3966026 -1.7288160
vn -0.6666670 0.3333334 0.6666663
v -21.6142845 63.3966026 0.3003460
vn -0.7071065 0.0000000 -0.7071072
v -21.6142826 61.8502235 -1.7288160
vn -0.7071072 0.0000000 0.7071063
v -21.6142845 61.8502235 0.3003460
vn -0.7071071 0.0000000 -0.7071065
v -21.6142845 61.8502235 4.8436351
vn -0.7071066 0.0000000 0.7071069
v -21.6142845 61.8502235 6.8727970
vn -0.6666666 0.3333334 0.6666668
v -21.6142845 63.3966026 6.8727970
vn -0.4082485 0.8164965 -0.4082482
v -21.6142845 63.3966026 4.8436351
vn 0.4082484 0.8164966 0.4082483
v -18.7114525 63.3966026 6.8727961
vn 0.6666664 0.3333335 -0.6666669
v -18.7114525 63.3966026 4.8436332
vn 0.7071069 0.0000000 0.7071067
v -18.7114525 61.8502235 6.8727961
vn 0.7071066 0.0000000 -0.7071070
v -18.7114525 61.8502235 4.8436332
# 140 vertices, 0 vertices normals


usemtl material_0
vt 0.7127910 0.7171500
vt 0.7127910 0.5000000
vt 0.7150250 0.5000000
f 1/1/1 2/2/2 3/3/3
vt 0.7150250 0.7171500
f 1/1/1 3/3/3 4/4/4
vt 0.4490940 1.0000000
vt 0.2245470 1.0000000
vt 0.2245470 0.5000000
f 5/5/5 6/6/6 7/7/7
vt 0.4490940 0.5000000
f 5/5/5 7/7/7 8/8/8
vt 0.0000000 1.0000000
vt 0.0000000 0.5000000
f 9/6/9 10/9/10 11/10/11
f 9/6/9 11/10/11 12/7/12
vt 0.3582170 0.5000000
vt -0.0000000 0.0000000
f 10/11/10 5/10/5 8/12/8
vt 0.3582170 0.0000000
f 10/11/10 8/12/8 11/13/11
vt 0.7164340 0.5000000
f 6/14/6 9/11/9 12/13/12
vt 0.7164340 0.0000000
f 6/14/6 12/13/12 7/15/7
vt 0.6736410 0.7208490
vt 0.6736410 0.5036980
vt 0.6773390 0.5000000
f 13/16/13 14/17/14 12/18/12
vt 0.6773390 0.7245470
f 13/16/13 12/18/12 11/19/11
vt 0.6699420 0.5036980
vt 0.6699420 0.8545190
vt 0.6662440 0.8582170
f 14/20/14 2/21/2 7/22/7
vt 0.6662440 0.5000000
f 14/20/14 7/22/7 12/23/12
vt 0.6810370 0.5036980
vt 0.6810370 0.7208490
f 2/24/2 1/25/1 8/19/8
f 2/24/2 8/19/8 7/18/7
vt 0.6736400 0.5036980
vt 0.6736410 0.8545190
vt 0.6699420 0.8582170
f 1/26/1 13/27/13 11/28/11
vt 0.6699420 0.5000000
f 1/26/1 11/28/11 8/29/8
vt 0.6662440 0.8508210
vt 0.4490940 0.8508210
f 15/23/15 4/30/4 3/31/3
f 15/23/15 3/31/3 16/8/16
vt 0.7105570 0.7171500
vt 0.7105570 0.5000000
f 14/32/14 13/33/13 15/2/15
f 14/32/14 15/2/15 16/1/16
vt 0.7060890 0.8508210
vt 0.7060890 0.5000000
vt 0.7083230 0.5000000
f 13/34/13 1/35/1 4/36/4
vt 0.7083230 0.8508210
f 13/34/13 4/36/4 15/37/15
f 2/37/2 14/36/14 16/33/16
vt 0.7105570 0.8508210
f 2/37/2 16/33/16 3/38/3
vt 0.7326720 0.4145740
vt 0.7326720 0.4029290
vt 0.7443170 0.4029290
f 17/39/17 18/40/18 19/41/19
vt 0.7443170 0.4145740
f 17/39/17 19/41/19 20/42/20
vt 0.7280790 0.3380880
vt 0.7164340 0.3380880
vt 0.7164340 0.3169650
f 20/43/20 19/44/19 21/45/21
vt 0.7280790 0.3169650
f 20/43/20 21/45/21 22/46/22
vt 0.7326720 0.4262180
f 22/47/22 21/39/21 23/42/23
vt 0.7443170 0.4262180
f 22/47/22 23/42/23 24/48/24
vt 0.7280790 0.3592120
vt 0.7164340 0.3592120
f 24/49/24 23/50/23 18/44/18
f 24/49/24 18/44/18 17/43/17
vt 0.7326720 0.0844940
vt 0.7326720 0.0633710
vt 0.7443170 0.0633710
f 21/51/21 19/52/19 18/53/18
vt 0.7443170 0.0844940
f 21/51/21 18/53/18 23/54/23
vt 0.7326720 0.4378630
f 24/55/24 23/47/23 21/48/21
vt 0.7443170 0.4378630
f 24/55/24 21/48/21 22/56/22
vt 0.7280790 0.2747180
vt 0.7164340 0.2747180
vt 0.7164340 0.2535940
f 22/57/22 21/58/21 25/59/25
vt 0.7280790 0.2535940
f 22/57/22 25/59/25 26/60/26
vt 0.7326720 0.4495080
f 26/61/26 25/55/25 27/56/27
vt 0.7443170 0.4495080
f 26/61/26 27/56/27 28/62/28
vt 0.7280790 0.2958410
vt 0.7164340 0.2958410
f 28/63/28 27/64/27 23/58/23
f 28/63/28 23/58/23 24/57/24
vt 0.7164340 0.7816820
vt 0.7164340 0.7605590
vt 0.7280790 0.7605590
f 25/65/25 21/66/21 23/67/23
vt 0.7280790 0.7816820
f 25/65/25 23/67/23 27/68/27
vt 0.7326720 0.4611530
f 28/69/28 27/61/27 25/62/25
vt 0.7443170 0.4611530
f 28/69/28 25/62/25 26/70/26
vt 0.7280790 0.3803350
vt 0.7164340 0.3803350
f 26/71/26 25/72/25 29/50/29
f 26/71/26 29/50/29 30/49/30
vt 0.7326720 0.4727970
f 30/73/30 29/69/29 31/70/31
vt 0.7443170 0.4727970
f 30/73/30 31/70/31 32/74/32
f 32/46/32 31/45/31 27/64/27
f 32/46/32 27/64/27 28/63/28
vt 0.7164340 0.6338180
vt 0.7164340 0.6126940
vt 0.7280790 0.6126940
f 29/75/29 25/76/25 27/77/27
vt 0.7280790 0.6338180
f 29/75/29 27/77/27 31/78/31
vt 0.7326720 0.4844420
f 32/79/32 31/73/31 29/74/29
vt 0.7443170 0.4844420
f 32/79/32 29/74/29 30/80/30
vt 0.7280790 0.6760650
vt 0.7164340 0.6760650
vt 0.7164340 0.6549410
f 30/81/30 29/82/29 33/83/33
vt 0.7280790 0.6549410
f 30/81/30 33/83/33 34/84/34
vt 0.7326720 0.4960870
f 34/85/34 33/79/33 35/80/35
vt 0.7443170 0.4960870
f 34/85/34 35/80/35 36/86/36
vt 0.7280790 0.6971880
vt 0.7164340 0.6971880
f 36/87/36 35/88/35 31/82/31
f 36/87/36 31/82/31 32/81/32
vt 0.7326720 0.1689880
vt 0.7326720 0.1478650
vt 0.7443170 0.1478650
f 33/89/33 29/90/29 31/91/31
vt 0.7443170 0.1689880
f 33/89/33 31/91/31 35/92/35
vt 0.7326720 0.5077310
f 36/93/36 35/85/35 33/86/33
vt 0.7443170 0.5077310
f 36/93/36 33/86/33 34/94/34
vt 0.7280790 0.4014590
vt 0.7164340 0.4014590
f 34/95/34 33/96/33 37/72/37
f 34/95/34 37/72/37 38/71/38
vt 0.7326720 0.5193760
f 38/97/38 37/93/37 39/94/39
vt 0.7443170 0.5193760
f 38/97/38 39/94/39 40/98/40
vt 0.7280790 0.4225820
vt 0.7164340 0.4225820
f 40/99/40 39/100/39 35/96/35
f 40/99/40 35/96/35 36/95/36
vt 0.7326720 0.0422470
vt 0.7326720 0.0211240
vt 0.7443170 0.0211240
f 37/101/37 33/102/33 35/103/35
vt 0.7443170 0.0422470
f 37/101/37 35/103/35 39/104/39
vt 0.7326720 0.5310210
f 40/105/40 39/97/39 37/98/37
vt 0.7443170 0.5310210
f 40/105/40 37/98/37 38/106/38
vt 0.7280790 0.5915710
vt 0.7164340 0.5915710
vt 0.7164340 0.5704470
f 38/107/38 37/108/37 41/109/41
vt 0.7280790 0.5704470
f 38/107/38 41/109/41 42/110/42
vt 0.7326720 0.5426660
f 42/111/42 41/105/41 43/106/43
vt 0.7443170 0.5426660
f 42/111/42 43/106/43 44/112/44
f 44/77/44 43/76/43 39/108/39
f 44/77/44 39/108/39 40/107/40
f 41/52/41 37/101/37 39/104/39
f 41/52/41 39/104/39 43/53/43
vt 0.7326720 0.5543110
f 44/113/44 43/111/43 41/112/41
vt 0.7443170 0.5543110
f 44/113/44 41/112/41 42/114/42
f 42/84/42 41/83/41 45/75/45
f 42/84/42 45/75/45 46/78/46
vt 0.7326720 0.5659550
vt 0.7326720 0.5543100
vt 0.7443170 0.5543100
f 46/115/46 45/116/45 47/117/47
vt 0.7443170 0.5659550
f 46/115/46 47/117/47 48/118/48
vt 0.7280790 0.7183120
vt 0.7164340 0.7183120
f 48/119/48 47/120/47 43/88/43
f 48/119/48 43/88/43 44/87/44
vt 0.7326720 0.1901120
f 45/121/45 41/89/41 43/92/43
vt 0.7443170 0.1901120
f 45/121/45 43/92/43 47/122/47
vt 0.7326720 0.5776000
f 49/123/49 50/115/50 51/118/51
vt 0.7443170 0.5776000
f 49/123/49 51/118/51 52/124/52
vt 0.7280790 0.8028060
vt 0.7164340 0.8028060
f 52/125/52 51/126/51 53/65/53
f 52/125/52 53/65/53 54/68/54
vt 0.7326720 0.5892450
f 54/127/54 53/123/53 55/124/55
vt 0.7443170 0.5892450
f 54/127/54 55/124/55 56/128/56
vt 0.7280790 0.8239290
vt 0.7164340 0.8239290
f 56/129/56 55/130/55 50/126/50
f 56/129/56 50/126/50 49/125/49
vt 0.7326720 0.2323590
vt 0.7326720 0.2112350
vt 0.7443170 0.2112350
f 53/131/53 51/132/51 50/133/50
vt 0.7443170 0.2323590
f 53/131/53 50/133/50 55/134/55
vt 0.7326720 0.6008900
f 57/135/57 58/127/58 59/128/59
vt 0.7443170 0.6008900
f 57/135/57 59/128/59 60/136/60
vt 0.7280790 0.8450530
vt 0.7164340 0.8450530
f 60/137/60 59/138/59 61/130/61
f 60/137/60 61/130/61 62/129/62
vt 0.7326720 0.6125340
vt 0.7326720 0.6008890
vt 0.7443170 0.6008890
f 62/139/62 61/140/61 63/141/63
vt 0.7443170 0.6125340
f 62/139/62 63/141/63 64/142/64
vt 0.7280790 0.8661760
vt 0.7164340 0.8661760
f 64/143/64 63/144/63 58/138/58
f 64/143/64 58/138/58 57/137/57
vt 0.7326720 0.2534820
f 61/145/61 59/131/59 58/134/58
vt 0.7443170 0.2534820
f 61/145/61 58/134/58 63/146/63
vt 0.7326720 0.6241790
f 65/147/65 66/139/66 67/142/67
vt 0.7443170 0.6241790
f 65/147/65 67/142/67 68/148/68
vt 0.7326720 -0.0000000
f 68/103/68 67/102/67 69/149/69
vt 0.7443170 -0.0000000
f 68/103/68 69/149/69 70/150/70
vt 0.7326720 0.6358240
f 70/151/70 69/147/69 71/148/71
vt 0.7443170 0.6358240
f 70/151/70 71/148/71 72/152/72
vt 0.7280790 0.8873000
vt 0.7164340 0.8873000
f 72/153/72 71/154/71 66/144/66
f 72/153/72 66/144/66 65/143/65
vt 0.7326720 0.2746060
f 69/155/69 67/145/67 66/146/66
vt 0.7443170 0.2746060
f 69/155/69 66/146/66 71/156/71
vt 0.7326720 0.6474690
f 73/157/73 74/151/74 75/152/75
vt 0.7443170 0.6474690
f 73/157/73 75/152/75 76/158/76
vt 0.7280790 0.9084230
vt 0.7164340 0.9084230
f 76/159/76 75/160/75 77/154/77
f 76/159/76 77/154/77 78/153/78
vt 0.7326720 0.6591130
vt 0.7326720 0.6474680
vt 0.7443170 0.6474680
f 78/161/78 77/162/77 79/163/79
vt 0.7443170 0.6591130
f 78/161/78 79/163/79 80/164/80
vt 0.7280790 0.9295470
vt 0.7164340 0.9295470
f 80/165/80 79/166/79 74/160/74
f 80/165/80 74/160/74 73/159/73
vt 0.7326720 0.1267410
vt 0.7443170 0.1267410
f 77/90/77 75/167/75 74/168/74
f 77/90/77 74/168/74 79/91/79
vt 0.7326720 0.6707580
f 81/169/81 82/161/82 83/164/83
vt 0.7443170 0.6707580
f 81/169/81 83/164/83 84/170/84
vt 0.7280790 0.7394350
vt 0.7164340 0.7394350
f 84/171/84 83/172/83 85/120/85
f 84/171/84 85/120/85 86/119/86
vt 0.7326720 0.6824030
f 86/173/86 85/169/85 87/170/87
vt 0.7443170 0.6824030
f 86/173/86 87/170/87 88/174/88
f 88/67/88 87/66/87 82/172/82
f 88/67/88 82/172/82 81/171/81
vt 0.7326720 0.2957290
f 85/175/85 83/155/83 82/156/82
vt 0.7443170 0.2957290
f 85/175/85 82/156/82 87/176/87
vt 0.7326720 0.6940480
f 89/177/89 90/173/90 91/174/91
vt 0.7443170 0.6940480
f 89/177/89 91/174/91 92/178/92
vt 0.7280790 0.4437060
vt 0.7164340 0.4437060
f 92/179/92 91/180/91 93/100/93
f 92/179/92 93/100/93 94/99/94
vt 0.7326720 0.7056920
vt 0.7326720 0.6940470
vt 0.7443170 0.6940470
f 94/181/94 93/182/93 95/183/95
vt 0.7443170 0.7056920
f 94/181/94 95/183/95 96/184/96
vt 0.7280790 0.4648290
vt 0.7164340 0.4648290
f 96/185/96 95/186/95 90/180/90
f 96/185/96 90/180/90 89/179/89
vt 0.7326720 0.1056180
f 93/187/93 91/51/91 90/54/90
vt 0.7443170 0.1056180
f 93/187/93 90/54/90 95/188/95
vt 0.7326720 0.7173370
f 96/189/96 95/181/95 93/184/93
vt 0.7443170 0.7173370
f 96/189/96 93/184/93 94/190/94
vt 0.7280790 0.9506700
vt 0.7164340 0.9506700
f 94/191/94 93/192/93 97/166/97
f 94/191/94 97/166/97 98/165/98
vt 0.7326720 0.7289820
f 98/193/98 97/189/97 99/190/99
vt 0.7443170 0.7289820
f 98/193/98 99/190/99 100/194/100
vt 0.7280790 0.9717940
vt 0.7164340 0.9717940
f 100/195/100 99/196/99 95/192/95
f 100/195/100 95/192/95 96/191/96
vt 0.7326720 0.3168530
f 97/197/97 93/175/93 95/176/95
vt 0.7443170 0.3168530
f 97/197/97 95/176/95 99/198/99
vt 0.7326720 0.7406270
f 100/199/100 99/193/99 97/194/97
vt 0.7443170 0.7406270
f 100/199/100 97/194/97 98/200/98
vt 0.7280790 0.4859530
vt 0.7164340 0.4859530
f 98/201/98 97/202/97 101/186/101
f 98/201/98 101/186/101 102/185/102
vt 0.7326720 0.7522710
vt 0.7326720 0.7406260
vt 0.7443170 0.7406260
f 102/203/102 101/204/101 103/205/103
vt 0.7443170 0.7522710
f 102/203/102 103/205/103 104/206/104
vt 0.7280790 0.9929170
vt 0.7164340 0.9929170
f 104/207/104 103/208/103 99/196/99
f 104/207/104 99/196/99 100/195/100
f 101/132/101 97/121/97 99/122/99
f 101/132/101 99/122/99 103/133/103
vt 0.7326720 0.7639160
f 104/209/104 103/203/103 101/206/101
vt 0.7443170 0.7639160
f 104/209/104 101/206/101 102/210/102
vt 0.7280790 0.5070760
vt 0.7164340 0.5070760
f 102/211/102 101/212/101 105/202/105
f 102/211/102 105/202/105 106/201/106
vt 0.7326720 0.7755610
f 106/213/106 105/209/105 107/210/107
vt 0.7443170 0.7755610
f 106/213/106 107/210/107 108/214/108
vt 0.7280790 0.5282000
vt 0.7164340 0.5282000
vt 0.7164340 0.5070770
f 108/215/108 107/216/107 103/217/103
vt 0.7280790 0.5070770
f 108/215/108 103/217/103 104/218/104
f 105/167/105 101/187/101 103/188/103
f 105/167/105 103/188/103 107/168/107
vt 0.7326720 0.7872060
vt 0.7430970 0.7755610
f 109/219/109 110/213/110 111/220/111
vt 0.7430970 0.7872060
f 109/219/109 111/220/111 112/221/112
vt 0.7280790 0.5493240
vt 0.7164340 0.5493240
f 112/222/112 111/223/111 113/216/113
f 112/222/112 113/216/113 114/215/114
vt 0.7326720 0.7988500
vt 0.7326720 0.7872050
vt 0.7430970 0.7872050
f 114/224/114 113/225/113 115/226/115
vt 0.7430970 0.7988500
f 114/224/114 115/226/115 116/227/116
vt 0.7164340 0.5493230
f 116/110/116 115/109/115 110/228/110
vt 0.7280790 0.5493230
f 116/110/116 110/228/110 109/229/109
vt 0.7326720 0.3379760
vt 0.7430970 0.3168530
f 113/230/113 111/197/111 110/231/110
vt 0.7430970 0.3379760
f 113/230/113 110/231/110 115/232/115
vt 0.7290250 0.0320570
vt 0.7290250 0.0641130
vt 0.7164340 0.0641130
f 117/233/117 118/234/118 119/235/119
vt 0.7164340 0.0320570
f 117/233/117 119/235/119 120/236/120
vt 0.7060890 0.5320570
vt 0.6810370 0.5320570
f 120/35/120 119/237/119 121/238/121
vt 0.6810370 0.5000000
f 120/35/120 121/238/121 122/239/122
vt 0.7290250 0.0000000
f 122/236/122 121/15/121 123/240/123
f 122/236/122 123/240/123 124/233/124
vt 0.7290250 0.1356240
vt 0.7164340 0.1356240
vt 0.7164340 0.1105720
f 117/241/117 120/242/120 122/243/122
vt 0.7290250 0.1105720
f 117/241/117 122/243/122 124/244/124
vt 0.7290250 0.1606760
f 119/242/119 118/241/118 123/245/123
vt 0.7164340 0.1606760
f 119/242/119 123/245/123 121/246/121
vt 0.7450470 0.3379760
vt 0.7450470 0.3542140
vt 0.7326720 0.3542140
f 125/247/125 126/248/126 127/249/127
f 125/247/125 127/249/127 128/230/128
vt 0.7326720 0.1105720
vt 0.7164340 0.0873430
f 128/250/128 127/243/127 129/251/129
vt 0.7326720 0.0873430
f 128/250/128 129/251/129 130/252/130
vt 0.7326720 0.3866910
vt 0.7450470 0.3866910
f 130/40/130 129/253/129 131/254/131
vt 0.7450470 0.4029290
f 130/40/130 131/254/131 132/255/132
vt 0.7288090 0.1839060
vt 0.7164340 0.1839060
f 125/256/125 128/257/128 130/246/130
vt 0.7288090 0.1606760
f 125/256/125 130/246/130 132/258/132
vt 0.7288090 0.2071350
f 127/257/127 126/256/126 131/259/131
vt 0.7164340 0.2071350
f 127/257/127 131/259/131 129/260/129
vt 0.7450470 0.3704530
vt 0.7326720 0.3704530
f 133/248/133 134/261/134 135/262/135
f 133/248/133 135/262/135 136/249/136
vt 0.7326720 0.0641130
f 136/235/136 135/263/135 137/252/137
f 136/235/136 137/252/137 138/251/138
f 138/253/138 137/262/137 139/261/139
f 138/253/138 139/261/139 140/254/140
vt 0.7288090 0.2303650
vt 0.7164340 0.2303650
f 133/264/133 136/265/136 138/260/138
f 133/264/133 138/260/138 140/259/140
vt 0.7288090 0.2535940
f 135/265/135 134/264/134 139/266/139
f 135/265/135 139/266/139 137/59/137
# 226 faces, 266 coords texture

# End of File
