####
#
# OBJ File Generated by Meshlab
#
####
# Object car1Low.obj
#
# Vertices: 452
# Faces: 465
#
####
mtllib ./car1Low.obj.mtl

vn -0.0106367 0.2040620 0.9789002
v -1.2802169 0.6705166 0.8465397
vn 0.0040211 0.1568331 0.9876170
v 0.7881537 0.9357116 0.8227423
vn -0.0568271 0.3411097 0.9383043
v 0.7914881 1.1485749 0.7702892
vn -0.0010967 -0.0773531 0.9970031
v -1.1816241 0.4603553 0.8082168
vn -0.0074330 -0.0994367 0.9950162
v -1.1461803 0.2728668 0.7897449
vn -0.0035777 -0.0812001 0.9966914
v -0.2883950 0.2726332 0.7961295
vn 0.1477111 0.0137059 0.9889356
v 1.5624378 0.7195304 0.8177716
vn 0.1002478 0.3274011 0.9395525
v 1.8788245 1.0327742 0.7710865
vn -0.0838125 0.9778609 0.1917385
v -0.4996590 1.7103595 0.6353779
vn -0.0280124 -0.0199997 0.9994075
v 0.7573322 0.4649899 0.8055632
vn 0.0046302 -0.0380608 0.9992647
v 0.7201628 0.2745407 0.7994796
vn 0.0016381 -0.0399197 0.9992015
v -0.2863298 0.2742821 0.8022646
vn -0.1232453 -0.0278499 0.9919854
v 0.6988032 0.2869821 0.7867217
vn -0.0629771 0.2441338 0.9676945
v 0.8022348 1.0365177 0.7984082
vn 0.7351693 0.6776459 0.0179503
v 1.8712116 1.7174944 0.5961895
vn -0.1879235 -0.0195243 0.9819896
v -1.9946568 0.3961466 0.7973533
vn -0.1070991 0.0239628 0.9939595
v -1.7845368 0.7735227 0.8108958
vn -0.1860851 0.3794457 0.9063075
v -1.7907298 0.8019569 0.8135924
vn -0.0023644 0.0139292 0.9999002
v 0.7979718 0.9910349 0.8172293
vn 0.0101148 0.0398174 0.9991558
v 1.1353585 0.7359297 0.8215808
vn 0.0536989 0.1326610 0.9897058
v 1.6584822 1.0141506 0.7960541
vn -0.2693023 0.4577955 0.8472896
v -1.6604002 1.0274751 0.7331675
vn 0.3602024 0.5142415 0.7783379
v 1.8886765 1.6449182 0.6015453
vn -0.8840634 0.2120024 -0.4165177
v -2.3883417 0.3979153 -0.6298400
vn -0.0890000 0.9960200 0.0048097
v -0.2454685 1.7456614 0.0000293
vn -0.3355679 0.9414480 0.0327087
v -0.7277240 1.6931492 0.6285244
vn 0.0497367 0.9983574 0.0284387
v 1.8524878 1.7023786 0.5893581
vn 0.9855632 0.1374247 0.0988923
v 2.0736332 0.9377106 0.5968955
vn 0.9957051 -0.0920388 0.0100156
v 2.2176137 0.4302830 -0.0004027
vn -0.5810503 -0.8133725 0.0283846
v -1.3547437 0.6527241 0.8445628
vn 0.1981574 -0.0250199 0.9798509
v -1.1376835 0.2761060 0.7847666
vn -0.3448172 -0.7170057 0.6058086
v 1.4995925 0.6220787 0.8168728
vn -0.0224135 0.0115809 0.9996817
v 0.9934036 0.6342558 0.8330728
vn 0.0376656 0.0366631 0.9986176
v 1.5177826 0.6725939 0.8170947
vn -0.2077059 -0.9538543 0.2168414
v -1.1902621 0.2130276 0.7706482
vn 0.0558579 0.0591726 0.9966838
v -0.2699743 1.6603494 0.6828235
vn -0.3555683 -0.1435206 0.9235654
v 0.7082960 1.6209399 0.6826279
vn 0.1407563 0.6096469 0.7800758
v 1.6539822 1.6278589 0.6858336
vn -0.0931340 0.3056831 0.9475673
v 0.8513409 1.6199846 0.6973330
vn -0.0205934 0.1900054 0.9815671
v -1.2507565 0.9165213 0.8179397
vn -0.0188501 0.2247645 0.9742308
v -0.3724429 1.1453307 0.7731882
vn -0.0353584 0.1834328 0.9823962
v -0.3099309 1.6418654 0.6827253
vn -0.2499221 0.4471875 0.8588145
v -1.1725864 1.3554457 0.6917634
vn 0.1685718 0.4778890 0.8620937
v -0.2194481 1.1447141 0.7660343
vn -0.2509331 0.8328366 0.4933718
v 0.7162753 1.1575692 0.7562392
vn 0.0428471 -0.6693763 0.7416869
v -0.2038506 1.6229787 0.6838702
vn 0.0863044 0.1922411 0.9775454
v 0.8621872 1.1540251 0.7623712
vn 0.1076347 0.6426706 0.7585442
v 1.7049936 1.1614395 0.7472534
vn 0.2988953 -0.9122804 -0.2800109
v 0.8610891 1.6127424 0.6799979
vn -0.4373058 -0.5433871 0.7165850
v -1.2187902 0.2653305 0.8008938
vn 0.0213707 0.2325431 0.9723513
v -0.2932311 1.0521241 0.7934427
vn 0.0379193 -0.0167209 0.9991409
v -1.2540425 0.5620787 0.8156002
vn -0.0771633 0.0108084 0.9969599
v 0.7881909 1.6603936 0.6883839
vn -0.0912467 0.8242491 0.5588269
v 0.8032075 1.7110898 0.6428696
vn -0.2205051 0.7710432 0.5973858
v -0.6927694 1.6451781 0.6938886
vn -0.4978299 0.8536608 0.1530639
v -2.1490750 0.8976566 0.6580884
vn -0.3473263 0.9134123 0.2122317
v -1.5995917 1.0918721 0.7214680
vn -0.3169938 0.4757864 0.8204525
v -2.0980632 0.8626280 0.6596660
vn -0.4676656 0.1897392 0.8633006
v -2.1306293 0.6546104 0.7764711
vn -0.8443490 0.1421696 0.5165876
v -2.3024788 0.4153002 0.7130910
vn -0.9000497 0.4341317 0.0379499
v -2.2158720 0.8525410 0.4767414
vn -0.3359588 0.7995865 0.4977882
v -0.8595755 1.5912540 0.6679277
vn 0.0181034 0.7176926 -0.6961248
v -1.5154668 1.1261365 0.6993691
vn -0.2750628 -0.7617914 0.5865273
v 1.6412666 0.2185908 0.7632223
vn 0.6484678 -0.1250822 0.7508954
v 2.0783668 0.3116409 0.7463636
vn 0.6856853 -0.7129956 0.1465361
v 2.1218679 0.2569001 0.6191522
vn 0.5832069 0.2080900 0.7852187
v 2.0715911 1.0475705 0.6239914
vn 0.9806929 0.0040613 0.1955122
v 2.1080110 0.4476380 0.5948424
vn 0.9941276 -0.0105867 0.1076947
v 2.0660770 0.4506736 0.5888540
vn 0.0907559 0.0438341 0.9949080
v 1.8147644 0.8066145 0.7909417
vn 0.7179540 0.0921070 0.6899698
v 2.0828063 0.7535597 0.6827503
vn 0.9976412 0.0158877 0.0667808
v 2.0576396 0.9462253 0.5970046
vn 0.9421688 0.2685049 0.2005571
v 1.9221557 1.5736583 0.5661413
vn 0.9073532 0.4203669 -0.0013302
v 2.0742419 1.1044387 -0.0003803
vn -0.4151840 -0.7976239 -0.4375140
v 1.9189987 1.5820965 0.5387119
vn 0.7306843 0.6806169 0.0534904
v 2.0412292 1.1307429 0.5350749
vn 0.9965504 -0.0279574 0.0781395
v 2.1007674 0.6753211 0.3629588
vn 0.9976308 0.0459945 0.0511591
v 2.0729995 0.9108819 0.3759511
vn 0.9990550 0.0417933 0.0119377
v 2.0834589 0.6695274 0.3455818
vn 0.6600822 -0.3975506 0.6373736
v 0.8876895 0.2660590 0.8096017
vn 0.3444622 -0.7591957 0.5522389
v 0.8839159 0.2128870 0.7635341
vn -0.9796713 0.1949018 0.0475128
v -2.2555444 0.6674947 0.4178092
vn 0.0035637 0.0370762 0.9993061
v -0.0703012 0.9302495 0.8281174
vn 0.0005010 -0.0395459 0.9992177
v -0.2920682 0.9244867 0.8280005
vn -0.0002316 0.2668615 0.9637349
v -0.0755345 1.0493302 0.7957212
vn -0.0241625 0.1012536 0.9945672
v -0.5418881 0.9329640 0.8285959
vn -0.0168687 0.2654409 0.9639795
v -0.5400555 1.0469078 0.7962616
vn -0.0107139 -0.0327070 0.9994076
v -0.2994130 0.9290965 0.8375291
vn -0.5139011 -0.6377827 0.5737064
v -1.3324835 0.5839896 0.4627688
vn -0.5129979 -0.7698213 0.3797480
v -1.2028464 0.2131222 0.4633963
vn -0.6159920 -0.3224887 0.7187176
v 1.6609867 0.3605290 0.7733106
vn -0.2072879 -0.8005861 0.5622221
v 1.2232349 0.6938406 0.4583235
vn 0.6579999 -0.7502322 0.0647129
v 1.0291160 0.6367897 0.8453457
vn 0.6495780 -0.7526504 0.1075439
v -1.9351389 0.2769264 0.8028501
vn 0.4507889 -0.8366593 0.3111120
v -1.9447018 0.2201723 0.4634145
vn 0.7748592 -0.6312832 0.0327839
v -1.8517979 0.5921524 0.8313042
vn 0.2740837 -0.6965461 0.6631001
v -1.7701464 0.6352546 0.4652500
vn -0.8108869 -0.2537500 0.5273266
v 1.6555245 0.2206038 0.4624887
vn 0.4237069 -0.8881531 0.1779226
v 0.8753512 0.2109232 0.4606877
vn -0.0201631 -0.9997717 -0.0070772
v -2.3256085 0.2218246 0.0004001
vn 0.0436591 -0.9953666 0.0856696
v -2.2184453 0.2264318 0.6756473
vn -0.8324429 -0.5032335 -0.2319372
v -2.3489997 0.3096729 0.4345543
vn -0.8353136 -0.2835207 0.4710280
v 0.8163469 0.5638222 0.9066723
vn 0.0057326 -0.1775503 0.9840950
v -1.1575568 0.5146093 0.8220725
vn -0.3109689 -0.2408170 0.9194050
v 0.7586875 0.6002844 0.8263674
vn 0.0031228 -0.1196151 0.9928154
v -1.1581634 0.5977976 0.8320970
vn -0.4747064 -0.2975676 0.8283160
v 0.7743193 0.5229685 0.8075507
vn -0.9227997 0.3827859 0.0437694
v -0.9284746 1.6126142 0.0027199
vn -0.9796713 0.1949018 0.0475128
v -2.2880054 0.6954467 -0.3661670
vn -0.9480707 -0.3180445 0.0031141
v -2.2925086 0.2829586 0.2413511
vn -0.9280072 -0.3664647 -0.0671289
v -2.3119528 0.3408481 0.2339488
vn -0.0077865 -0.0966856 -0.9952846
v -1.1464585 0.2728668 -0.7893645
vn -0.0025007 -0.0785479 -0.9969072
v -0.2886755 0.2726332 -0.7960526
vn -0.1206623 0.5753047 -0.8089902
v 1.7431126 1.1707785 -0.7451915
vn 0.7294278 -0.1970059 -0.6550754
v 2.0837443 0.3107294 -0.7478201
vn -0.1742979 0.5358438 -0.8261305
v -0.8818279 1.6283460 -0.6637862
vn -0.0781594 0.9572085 -0.2786453
v -0.5032548 1.7097317 -0.6351960
vn -0.2859145 0.5549542 -0.7812034
v -1.2941533 1.1859101 -0.7221410
vn -0.0070041 0.2414325 -0.9703923
v -0.2935152 1.0521265 -0.7933789
vn 0.0103458 -0.0620320 -0.9980206
v 0.7136282 0.2726614 -0.7926177
vn -0.6187752 0.7855144 0.0091904
v -2.1350400 1.0043534 0.0074055
vn -0.3810240 0.8878490 -0.2579631
v -1.9735888 1.0312352 -0.5950310
vn 0.0161540 0.9998673 -0.0021457
v 1.2380605 1.7497833 -0.0002324
vn 0.0549785 0.9975856 -0.0424314
v 1.8164853 1.6921300 -0.6062261
vn 0.7529284 0.6521754 -0.0881258
v 1.9355402 1.5957384 -0.5755170
vn 0.5695755 0.8201662 -0.0539556
v 1.8097914 1.6809670 -0.6074290
vn -0.0109312 0.2040550 -0.9788984
v -1.2805163 0.6705167 -0.8461116
vn -0.0143813 0.2616094 -0.9650667
v -0.2993390 0.9296134 -0.8358247
vn 0.9995494 0.0299231 -0.0023811
v 2.0574291 0.9462252 -0.5977563
vn 0.9961635 0.0874348 -0.0036573
v 2.0918663 0.6657767 -0.3448893
vn 0.8607752 -0.5054499 0.0598874
v 2.0130572 1.5777810 0.0142532
vn 0.0401729 -0.0491508 -0.9979832
v -1.2408319 0.5483834 -0.8153909
vn 0.0191686 0.0976144 -0.9950397
v 1.5194395 0.6864143 -0.8194749
vn -0.0552191 0.0576748 -0.9968072
v 0.9846178 0.6389310 -0.8282843
vn 0.6236520 -0.4108942 -0.6649993
v 0.8876220 0.2673270 -0.8130580
vn 0.4179799 -0.8258556 -0.3784909
v 1.4729187 0.6078464 -0.8354630
vn -0.1160954 0.1722846 -0.9781820
v -0.3126670 1.6377894 -0.6879547
vn 0.3010254 -0.7474220 -0.5922365
v -0.2242783 1.6265576 -0.6843467
vn -0.0211314 0.2751535 -0.9611681
v -0.2166610 1.1399970 -0.7762027
vn -0.0727493 0.0306370 -0.9968796
v 0.7858540 1.6602761 -0.6873201
vn -0.0435854 0.2482807 -0.9677071
v 0.7919697 1.1143812 -0.7761841
vn 0.1425359 0.2146883 -0.9662259
v 0.8629357 1.1582439 -0.7624393
vn -0.1474493 0.3191776 -0.9361541
v 1.6802787 1.6105013 -0.7095955
vn -0.0825911 0.3335589 -0.9391045
v 0.8505034 1.6189480 -0.6954449
vn -0.0385247 0.1590317 -0.9865215
v 0.8013142 1.0140151 -0.8113791
vn -0.0209220 0.3414361 -0.9396721
v -1.2510449 0.9165323 -0.8175199
vn -0.0109312 0.2040550 -0.9788984
v -1.2208624 1.2771499 -0.7203228
vn -0.2463129 0.6874529 -0.6831825
v 0.7261072 1.1529096 -0.7611342
vn -0.2822181 0.4469545 -0.8488726
v -1.1772069 1.3605855 -0.6816877
vn -0.1581981 0.5513938 -0.8191082
v -0.6934072 1.6446433 -0.6929686
vn -0.1029992 -0.9405457 0.3236741
v -0.7362821 1.5856565 -0.6620799
vn -0.2631583 0.9561750 0.1283628
v -0.3812883 1.1418337 -0.7648484
vn -0.0447145 0.2526361 -0.9665276
v -0.3726332 1.1457174 -0.7675049
vn 0.4735320 -0.1201511 -0.8725429
v -0.2450108 1.1722025 -0.7653595
vn -0.0877732 -0.8425710 0.5313850
v 1.6486033 1.6165358 -0.6732475
vn 0.0854928 -0.9522111 0.2932321
v 0.8697430 1.6181790 -0.6787270
vn 0.5025920 -0.4818391 0.7177969
v 0.8416450 1.5928000 -0.6924897
vn 0.0022812 -0.0457188 -0.9989518
v -0.2866669 0.2741947 -0.8030824
vn -0.4342545 -0.4900126 -0.7558510
v -1.2193632 0.2676780 -0.8021023
vn 0.0080130 0.0921636 -0.9957116
v 0.7846561 0.8690349 -0.8289490
vn 0.0835943 0.2209250 -0.9717017
v -1.2363836 1.0994020 -0.7622945
vn -0.1149647 -0.0108870 -0.9933099
v 0.7271650 0.2711739 -0.7944562
vn -0.0998040 0.8251866 -0.5559734
v 0.8001897 1.7128956 -0.6324247
vn -0.7004945 0.6232272 -0.3477000
v -2.1726363 0.8605260 -0.6256947
vn 0.3427034 0.9386640 -0.0382671
v -1.6945531 1.1206348 -0.5434775
vn -0.3126797 0.7765373 -0.5470113
v -1.5680041 1.1037638 -0.7239075
vn -0.1530423 0.3913161 -0.9074413
v -1.7910366 0.8020129 -0.8129998
vn -0.2859145 0.5549542 -0.7812034
v -2.0996220 0.8616557 -0.6576906
vn -0.3464038 0.1328066 -0.9286371
v -2.0850699 0.6500031 -0.7921626
vn -0.9566578 0.2810167 0.0763907
v -2.3663826 0.6142790 0.0726180
vn -0.8466873 0.5260205 -0.0801441
v -2.3261716 0.2503892 -0.2095569
vn -0.0230713 -0.9965093 -0.0802313
v -2.2186434 0.2485501 -0.7364905
vn -0.8310065 0.4651142 -0.3051181
v -2.2906845 0.6596745 -0.4967960
vn -0.0713551 0.0183987 -0.9972813
v -1.7431242 0.7223374 -0.8152942
vn -0.2596110 0.0013591 -0.9657124
v -1.9959110 0.4027048 -0.8164791
vn -0.0608120 -0.0315600 -0.9976502
v -1.8285974 0.8206328 -0.8131937
vn -0.4821177 0.4547312 -0.7488539
v -0.8485419 1.5845068 -0.6730557
vn -0.2252269 -0.7456717 -0.6270938
v 1.7120676 0.2852942 -0.7720203
vn 0.4058197 -0.8988021 -0.1657261
v 2.0880780 0.2523018 -0.6558890
vn 0.2828335 0.6066542 -0.7429509
v 1.8884640 1.6449184 -0.6022384
vn 0.9989218 -0.0132503 -0.0444930
v 2.0723283 0.4491232 -0.5903230
vn 0.9835895 0.0241955 -0.1787916
v 2.1080048 0.4443723 -0.5962696
vn 0.9896303 0.1279933 -0.0651884
v 2.0731661 0.9377801 -0.5985621
vn 0.5486867 0.2615114 -0.7940747
v 2.0713713 1.0475709 -0.6247488
vn 0.7257180 0.1034572 -0.6801691
v 2.0862417 0.7519861 -0.6780380
vn 0.1201515 0.1758259 -0.9770613
v 1.9142678 1.0354612 -0.7821139
vn 0.0415497 0.0597542 -0.9973480
v 1.8820071 0.7786326 -0.7988452
vn -0.2005653 -0.5343328 -0.8211346
v 1.5222068 0.6770600 -0.8252766
vn 0.9943003 0.0879611 -0.0602476
v 2.0592141 0.9035810 -0.3843281
vn 0.9953783 0.0324946 -0.0903673
v 2.0852842 0.6781614 -0.3652577
vn -0.1247473 -0.5416601 -0.8312896
v 0.8205179 0.2669332 -0.7896129
vn 0.2075865 -0.7117780 -0.6710290
v 0.8836470 0.2128870 -0.7638704
vn 0.1841784 -0.0324188 -0.9823580
v -1.1513660 0.2660538 -0.7893001
vn 0.0001128 -0.0381697 -0.9992713
v -0.2923605 0.9244868 -0.8279226
vn 0.0046195 0.0601518 -0.9981786
v -0.0705942 0.9302493 -0.8281177
vn -0.0187837 0.5327665 -0.8460539
v -0.5416570 0.9328865 -0.8229710
vn -0.0137357 0.2760562 -0.9610434
v -0.5403373 1.0469075 -0.7960959
vn 0.0058508 0.2840223 -0.9587998
v -0.0702013 1.0461501 -0.7976907
vn -0.5184878 -0.6330696 -0.5747985
v -1.3326476 0.5839906 -0.4623229
vn -0.5569774 -0.8299801 -0.0301518
v -1.3847135 0.6780823 -0.8402173
vn 0.5342562 -0.6325560 -0.5607524
v 1.0111340 0.5683690 -0.4634500
vn 0.0343989 -0.8140111 -0.5798299
v 1.3727841 0.6453526 -0.4637386
vn 0.4862880 -0.8069532 -0.3351875
v 0.8678185 0.2132874 -0.4630764
vn 0.4242610 -0.8467824 -0.3208774
v -1.9448659 0.2201723 -0.4627523
vn 0.6303391 -0.7726662 -0.0752303
v -1.9368119 0.2598968 -0.8032664
vn 0.2851225 -0.6795781 -0.6759281
v -1.7545832 0.6348758 -0.4615318
vn 0.7919090 -0.6092287 -0.0414793
v -1.8665956 0.5739046 -0.8308454
vn 0.5961348 -0.8022407 -0.0321440
v 1.0288942 0.6369249 -0.8451936
vn -0.3479249 -0.9028758 -0.2525144
v -1.2029794 0.2132987 -0.4629045
vn -0.3358071 -0.8609463 -0.3821062
v 1.6553611 0.2206037 -0.4630987
vn -0.2696730 -0.9221711 -0.2772670
v -1.1905335 0.2130276 -0.7702525
vn -0.4942374 -0.8664192 -0.0710438
v -2.3920751 0.3595178 0.0613199
vn -0.9423990 -0.3104772 -0.1244510
v -2.3132436 0.3537928 -0.5213444
vn -0.9510428 -0.3068585 -0.0368155
v -2.2891803 0.2659314 -0.4843685
vn -0.8355558 -0.2832606 -0.4707547
v 0.8160263 0.5638228 -0.9069834
vn 0.0027739 -0.1196228 -0.9928156
v -1.1584572 0.5977976 -0.8317135
vn -0.3113229 -0.2407314 -0.9193076
v 0.7584092 0.6002863 -0.8266578
vn -0.4750471 -0.2974342 -0.8281686
v 0.7740198 0.5229751 -0.8078461
vn 0.0053871 -0.1775648 -0.9840944
v -1.1578467 0.5146075 -0.8216884
vn -0.0106367 0.2040620 0.9789002
v -1.2206088 1.2771493 0.7207284
vn -0.0157940 0.2336156 0.9722008
v -1.1366333 1.3365482 0.7060487
vn -0.0230031 0.2680665 0.9631258
v -1.2362981 1.0975850 0.7618514
vn -0.0157940 0.2336156 0.9722008
v -1.0986797 1.1202410 0.7586429
vn -0.8315369 0.4060647 -0.3790220
v -0.4602070 1.0105700 0.0931690
vn 0.9181166 0.1037350 -0.3824932
v -0.3405120 0.9894650 0.0931480
vn 0.1571961 0.9154807 0.3703842
v -0.3501402 1.2835274 0.6374695
vn 0.0599111 0.3357640 0.9400390
v -0.3993925 1.0000038 0.7418776
vn 0.1059621 0.6126297 -0.7832350
v -0.3511055 1.2870288 0.1975079
vn -0.8853311 0.2447495 0.3953310
v 0.6923660 1.0201970 0.6505280
vn 0.5217850 0.2826026 0.8049076
v 0.8130300 0.9989210 0.6505070
vn -0.1331198 0.8445051 0.5187390
v 0.7457011 1.3228202 0.5117095
vn 0.8713202 0.3508019 0.3431315
v 0.8661757 1.3004677 0.5080927
vn -0.6901199 0.6101817 -0.3891182
v 0.7452756 1.3214338 -0.5127982
vn 0.5270239 0.7780315 -0.3419254
v 0.8662156 1.3017095 -0.5075763
vn -0.8240725 0.4304148 0.3683038
v -0.4602400 1.0105700 -0.0930310
vn 0.9193653 0.1296315 0.3714339
v -0.3405450 0.9894650 -0.0930520
vn 0.0686042 0.3878105 -0.9191825
v -0.3996662 1.0000141 -0.7416765
vn 0.1119811 0.6463637 0.7547676
v -0.3510999 1.2880247 -0.2171882
vn 0.1570053 0.9179647 -0.3642666
v -0.3502633 1.2843179 -0.6180393
vn 0.7172865 -0.0995291 -0.6896334
v 0.7695044 1.0066372 -0.6511683
vn -0.8853299 0.2447525 0.3953318
v 1.5732620 1.0125110 0.6503730
vn 0.5217906 0.2826005 0.8049047
v 1.6939260 0.9912350 0.6503510
vn -0.1331110 0.8445061 0.5187398
v 1.6265980 1.3151351 0.5115540
vn 0.8713223 0.3507988 0.3431295
v 1.7470719 1.2927819 0.5079363
vn -0.6901156 0.6101856 -0.3891197
v 1.6261728 1.3137487 -0.5129538
vn 0.5270311 0.7780271 -0.3419242
v 1.7471117 1.2940236 -0.5077311
vn 0.7172896 -0.0995277 -0.6896303
v 1.6504003 0.9989513 -0.6513237
vn -0.7190809 -0.0926778 -0.6887187
v -0.3018982 1.1430197 0.6808344
vn -0.3575383 0.8809406 -0.3100162
v -0.3821340 1.1409005 0.7648925
vn 0.7392442 -0.0777693 -0.6689320
v 0.7855192 1.6194067 0.5957100
vn 0.7392442 -0.0777693 -0.6689320
v 0.8406505 1.1526442 0.7109015
vn -0.4532880 -0.3189490 -0.8323470
v 1.6488420 1.6165353 0.6726399
vn -0.0051516 -0.0515447 -0.9986574
v -0.8452897 1.5775461 0.6726129
vn -0.0051516 -0.0515447 -0.9986574
v -1.1703767 1.1171439 0.6980531
vn 0.7214084 -0.1383185 -0.6785558
v -0.3019279 1.1432061 0.6786531
vn 0.7214084 -0.1383185 -0.6785558
v -0.2365562 1.6027563 0.6544774
vn -0.7362302 -0.1230899 -0.6654427
v 0.7853695 1.6196676 0.5975910
vn -0.7299259 -0.1217676 -0.6725927
v 0.7951809 1.1539794 0.6728762
vn -0.4739973 -0.8805262 0.0004951
v -0.8195354 1.5907180 0.6617175
vn 0.0428239 -0.9990573 -0.0071213
v -0.4194030 1.6394420 0.0000610
vn -0.0370458 -0.9993100 -0.0026812
v 1.5941490 1.5798720 -0.0002940
vn -0.0416104 -0.9977068 0.0533839
v 1.6318146 1.6140257 0.6673726
vn 0.0363832 -0.9988217 -0.0321177
v -0.3594092 1.6196438 0.6837223
vn 0.0268229 -0.9973311 -0.0679065
v -0.7317656 1.5836264 0.6964321
vn 0.0363077 -0.9985208 -0.0404725
v -0.2811780 1.6201700 0.5995320
vn -0.0195848 -0.9998072 -0.0013964
v 0.7856798 1.6190540 0.5936874
vn -0.0087315 0.9999613 0.0011565
v 0.8851377 1.1547740 0.7566848
vn 0.0423323 0.9990948 0.0041783
v 1.5189700 1.1611840 -0.0002810
vn -0.0129708 0.9998891 -0.0073155
v -0.3015618 1.1432710 0.6787522
vn -0.0106002 0.9999059 -0.0087039
v 0.7949740 1.1539840 0.6730058
vn 0.0245516 0.9991259 0.0338333
v -1.1886623 1.1158248 0.7090966
vn -0.7954910 -0.0745138 0.6013666
v -0.3021389 1.1430202 -0.6807532
vn -0.8554936 -0.0818796 0.5112988
v -0.2952143 1.6039152 -0.5953591
vn 0.7229306 -0.4300760 0.5407457
v 0.7853087 1.6194061 -0.5960121
vn 0.8603947 -0.0241020 0.5090579
v 0.8403990 1.1526440 -0.7112236
vn -0.2464440 -0.9411197 0.2314281
v 1.9188068 1.5820972 -0.5394195
vn 0.5903887 0.6821327 0.4314352
v 2.0410068 1.1308061 -0.5358992
vn 0.9910036 -0.0442868 0.1262950
v -1.0935388 1.1122874 -0.7178140
vn 0.8195375 -0.1287536 0.5583735
v -0.2846575 1.6242400 -0.6029352
vn -0.7581646 -0.1195626 0.6410080
v 0.7851586 1.6196686 -0.5978934
vn -0.4084104 -0.3806653 -0.8296354
v 0.7131196 1.6186335 -0.6832920
vn -0.7695427 -0.1218741 0.6268578
v 0.7949430 1.1539795 -0.6731823
vn -0.0288291 -0.0434598 0.9986392
v -1.0754222 1.4255271 -0.6991968
vn -0.4810960 0.8759341 -0.0358631
v -0.8550866 1.6334610 -0.6512164
vn -0.0452249 -0.9975399 -0.0535623
v 1.6315795 1.6140257 -0.6679743
vn -0.6176190 -0.7797962 0.1022971
v -0.3518361 1.6235902 -0.6869466
vn 0.0841994 -0.9951238 0.0513723
v -0.2813890 1.6201700 -0.5994580
vn -0.0022840 -0.9999974 0.0000004
v 0.7854690 1.6190540 -0.5954930
vn -0.0125079 0.9999189 0.0023873
v 0.8848702 1.1547740 -0.7570230
vn -0.0441587 0.9541504 -0.2960525
v -1.0867193 1.1120260 -0.7556949
vn 0.6404098 0.7540670 0.1458020
v -0.3012078 1.1427394 -0.6824811
vn -0.0122093 0.9999255 0.0000022
v 0.7947360 1.1539840 -0.6733120
vn -0.0014775 0.9989104 -0.0466456
v -1.2434140 1.1301577 -0.6738856
vn 0.7114140 -0.5584970 0.4265808
v -1.4594502 0.1964788 0.6081400
vn 0.7853569 -0.2286276 0.5752773
v -1.4584970 0.3165950 0.6673880
vn -0.6943762 -0.2136585 0.6871621
v -1.7157490 0.3165950 0.6674340
vn 0.9094666 -0.1897093 0.3699743
v -1.4934282 0.1486569 0.6671429
vn -0.4640359 -0.7419776 0.4838802
v -1.7005988 0.1893488 0.6431787
vn 0.7188191 -0.6458814 -0.2571702
v -1.4664574 0.2011907 -0.5997532
vn -0.5256922 -0.6261426 -0.5758414
v -1.7020994 0.1943140 -0.6175420
vn -0.9024847 -0.2465974 -0.3531447
v -1.7159849 0.3165950 -0.6668520
vn 0.6583695 -0.3712958 -0.6547436
v -1.4587330 0.3165950 -0.6668970
vn 0.9523734 -0.1984489 -0.2315231
v -1.4936641 0.1486564 -0.6666391
vn -0.9540473 -0.1987638 -0.2242470
v -1.6810547 0.1486560 -0.6666062
vn 0.7628677 -0.5400413 0.3555114
v 1.3591309 0.2104136 0.5999573
vn 0.8251795 -0.2035327 0.5269282
v 1.3666320 0.3634230 0.6698780
vn 0.9798546 -0.1207337 0.1590857
v 1.3404135 0.1503576 0.6696653
vn -0.4570412 -0.7323661 0.5047308
v 1.1508957 0.1992208 0.6430777
vn 0.7454063 -0.6198251 -0.2453293
v 1.3606520 0.2149502 -0.5948381
vn -0.5417657 -0.5836308 -0.6048679
v 1.1492654 0.2051014 -0.6189731
vn -0.9205912 -0.1742224 -0.3495117
v 1.1391410 0.3634230 -0.6703460
vn 0.6906357 -0.3031633 -0.6565930
v 1.3663960 0.3634230 -0.6703870
vn 0.9792672 -0.1206761 -0.1627054
v 1.3401766 0.1503572 -0.6701646
vn -0.9765619 -0.1203521 -0.1784441
v 1.1653605 0.1503573 -0.6701334
vn -0.7884237 0.6076578 0.0956038
v -1.6197708 1.0818380 0.7009500
vn 0.0568708 0.9977534 0.0354093
v -1.7245698 1.1218849 0.3877655
vn 0.5600885 0.8054742 -0.1936808
v -1.5546340 1.0792727 0.7019736
vn -0.9115472 0.3721194 -0.1749540
v -1.5736713 1.0697471 -0.6907640
vn -0.1143466 0.9932809 -0.0178300
v -1.7273881 1.0438328 0.0550143
vn 0.0177158 0.7029710 0.7109979
v -1.5204177 1.1244466 -0.7001531
vn 0.5051929 0.8520538 0.1370569
v -1.5775467 1.0766853 -0.7015394
vn -0.7012992 -0.1626469 0.6940645
v 1.1393780 0.3634230 0.6699190
vn 0.8182213 0.2362470 -0.5241197
v -1.7931236 0.3071423 0.5689607
vn -0.5550287 -0.5825626 -0.5937711
v -1.5777152 0.4128453 0.6664977
vn -0.9415496 -0.0805561 0.3271011
v -1.5321242 0.1793896 0.7402360
vn -0.3210172 0.8481225 0.4214692
v -1.5845170 0.1010123 0.5701228
vn 0.8182213 0.2362470 -0.5241197
v -1.6318845 0.1512959 0.7504289
vn -0.0278817 0.0818197 0.9962571
v -1.5690486 0.6582156 0.8143331
vn -0.2921783 0.1040137 0.9506908
v -1.8860741 0.4966523 0.7895482
vn -0.2441771 -0.0449575 0.9686880
v -1.8597620 0.1373644 0.8023039
vn 0.1237090 -0.0418465 0.9914358
v -1.4292213 0.5116999 0.7907016
vn -0.1373795 0.0184298 0.9903470
v -1.7926650 0.3834698 0.8306389
vn -0.0819518 -0.0919145 0.9923888
v -1.6649153 0.0391996 0.8093024
vn 0.5466668 0.8352731 -0.0589431
v -1.5898058 0.6359296 0.7032694
vn -0.5798559 0.7898847 0.1996228
v -1.5917813 0.6449024 0.8004023
vn -0.9688723 0.1927039 0.1554084
v -1.9200310 0.4040091 0.8001038
vn -0.6476970 0.7602284 0.0504134
v -1.6142179 0.6773783 0.6067259
vn 0.6929708 -0.7207505 0.0176116
v -1.3856071 0.0563582 0.6051273
vn 0.9917462 -0.0272363 0.1252906
v -1.2288587 0.4065989 0.8010597
vn -0.5162775 0.1142243 -0.8487699
v -1.9114107 0.3843122 0.6006147
vn -0.6037195 -0.7114329 -0.3597026
v -1.7411885 -0.0101606 0.6022143
vn 0.0194169 -0.0021474 -0.9998091
v -1.2926739 0.4994085 0.5995393
vn -0.0378188 0.0650171 -0.9971672
v -1.6071665 0.6635149 0.5989672
vn -0.0522664 0.0510690 -0.9973266
v -1.8169122 0.5437914 0.6038287
vn 0.0235255 0.0110839 -0.9996618
v -1.4271433 0.4593574 0.5970138
vn -0.0562666 0.0289945 -0.9979947
v -1.7525965 0.4398750 0.5859436
vn -0.0326548 -0.0200964 -0.9992647
v -1.7975067 0.1837263 0.6145571
vn 0.0087753 0.0180381 -0.9997988
v -1.3791152 0.1168977 0.6068341
vn 0.9352710 0.3238211 -0.1428573
v -1.2614223 0.4140602 0.6047826
vn 0.0297374 -0.9598460 0.2789469
v -1.6211432 -0.0464502 0.7983686
vn -0.0921624 0.2025115 0.9749334
v -1.4661677 0.1907716 0.7871967
vn -0.0094496 0.2550431 0.9668835
v -1.4315259 0.3554647 0.7440928
vn -0.0921624 0.2025115 0.9749334
v -1.6466800 0.4636922 0.7134419
vn -0.1739842 0.1480225 0.9735599
v -1.7134012 0.2020703 0.7412959
vn 0.0808032 0.1220327 -0.9892315
v -1.1198782 1.3532922 -0.7141149
vn -0.0222121 0.1605436 -0.9867788
v -0.3701734 1.1436187 -0.7679878
vn -0.0271873 0.1564658 -0.9873092
v -1.0917760 1.1119103 -0.7531422
vn -0.0197241 0.1625800 -0.9864982
v -0.6588627 1.5922678 -0.6882761
vn 0.0172159 0.1738631 -0.9846194
v 0.8556758 1.6114924 -0.6828874
vn 0.0175999 0.1746165 -0.9844792
v 1.6502572 1.6077482 -0.6693465
vn -0.0166304 0.1791735 0.9836770
v -1.0833725 1.3787172 0.7132090
vn 0.0164414 0.1721861 0.9849272
v 1.7665385 1.2855697 0.7255063
vn -0.0265778 0.1500689 0.9883183
v -1.0915108 1.1119103 0.7535028
vn 0.0165412 0.1759123 0.9842669
v 0.8559163 1.6114920 0.6825597
vn 0.0179567 0.1797718 0.9835445
v 1.6504935 1.6077479 0.6687374
vn 0.9689723 0.2462125 0.0217305
v 1.9264516 1.5818799 0.5415555
vn -0.0166304 0.1791735 0.9836770
v -0.3699033 1.1436186 0.7680935
vn -0.9189145 0.1461491 0.3663832
v -0.3485604 1.6393336 0.6627669
vn -0.5075054 0.8598647 -0.0554174
v -1.6402797 1.1485311 -0.1761506
vn -0.5471573 0.8131451 0.1985296
v -1.5224689 1.1389693 0.7011400
vn -0.4014115 0.9129644 0.0732445
v -1.5982637 1.1491197 0.4506712
vn -0.5395645 0.8302128 0.1400607
v -0.8671324 1.5867219 0.6733574
vn 0.9690729 0.2467249 0.0049568
v 1.9506024 1.5820757 -0.5375620
vn -0.5817224 0.7972241 -0.1613469
v -1.5212165 1.1299076 -0.6974422
vn -0.5602129 0.8214891 -0.1063826
v -0.8820685 1.6012834 -0.6727412
vn -0.8819951 -0.3111754 -0.3539132
v 1.4347407 0.3852881 0.5676184
vn 0.8978177 -0.4236556 -0.1201641
v 1.1259488 0.4856086 0.5690830
vn -0.0373690 -0.7589706 -0.6500517
v 1.2061543 0.4911571 0.7556111
vn -0.8533313 0.1570662 -0.4971477
v 1.2931659 0.1733628 0.7436704
vn -0.8798835 0.4412132 -0.1764538
v 1.2852284 0.0881984 0.5703020
vn 0.9766409 0.0973129 -0.1915798
v 1.1928864 0.1649065 0.7474186
vn 0.9760786 0.2162490 0.0225146
v 1.2103003 0.1045943 0.5717571
vn 0.1864779 -0.0907591 0.9782581
v 1.4438728 0.2423520 0.8498430
vn -0.0707286 -0.0133261 0.9974066
v 1.1147594 0.5168573 0.7994905
vn -0.0367204 0.0267858 0.9989665
v 0.9071153 0.3660739 0.7959009
vn 0.0896219 -0.7705066 0.6311002
v 1.3152547 0.0871982 0.8261763
vn 0.2045148 -0.0703052 0.9763355
v 1.5870198 0.2225578 0.8184323
vn -0.0118463 -0.1941300 -0.9809043
v 1.4143282 0.4453737 0.8100199
vn -0.5901555 -0.4851755 0.6452296
v 1.0471464 0.1378830 0.8071668
vn 0.5703979 0.6565216 0.4935847
v 1.4487436 0.5659639 0.7995359
vn -0.6524886 0.7550101 0.0649490
v 0.9829817 0.5461786 0.7932810
vn -0.0686122 -0.9928821 0.0973533
v 1.1601355 -0.0113271 0.6051674
vn 0.7744023 -0.6231183 -0.1096575
v 1.5720037 0.1536762 0.8000548
vn 0.0226044 -0.0057446 -0.9997280
v 1.1459823 0.0573033 0.5995513
vn 0.0226044 -0.0057446 -0.9997280
v 1.3916848 0.0033151 0.6054170
vn 0.7340714 0.0151405 -0.6789035
v 1.5377635 0.2449298 0.6073315
vn 0.0761620 0.9181805 -0.3887723
v 1.2810422 0.5922824 0.6087201
vn -0.9997025 -0.0181435 -0.0163032
v 0.8952793 0.3333458 0.6062799
vn -0.1481349 -0.0536091 0.9875131
v 1.2639751 0.4760968 0.7330811
vn -0.1481349 -0.0536091 0.9875131
v 1.1178776 0.2587030 0.6993636
vn -0.1481349 -0.0536091 0.9875131
v 1.4143616 0.2719438 0.7445574
vn -0.2415712 -0.2644853 0.9336439
v -1.6588943 0.4169366 -0.8056327
vn -0.2415712 -0.2644853 0.9336439
v -1.4584756 0.2496614 -0.8011625
vn 0.2806474 -0.9451634 0.1670429
v -1.6692806 0.4695256 -0.5743252
vn 0.7625607 -0.0742824 0.6426378
v -1.6133444 0.1636096 -0.6760605
vn -0.3464335 -0.3975666 0.8496615
v -1.5192429 0.4828841 -0.7508175
vn -0.9225317 -0.3609596 0.1365411
v -1.3995138 0.2456232 -0.5690974
vn -0.6956481 0.1813498 0.6951158
v -1.5674806 0.1207197 -0.7046065
vn 0.1902529 -0.0987874 -0.9767522
v -1.4296933 0.5139585 -0.8564173
vn 0.1902529 -0.0987874 -0.9767522
v -1.4154129 0.0917706 -0.8109362
vn -0.8471473 -0.3619400 -0.3890256
v -1.8157507 0.2223406 -0.7960970
vn 0.7862366 0.6121680 0.0841574
v -1.3257666 0.5045763 -0.6046731
vn 0.8522388 -0.0533995 -0.5204207
v -1.2551700 0.2789715 -0.7986572
vn -0.6498283 0.6511891 0.3920152
v -1.6092380 0.6287546 -0.7089165
vn -0.9478223 -0.2099268 -0.2399242
v -1.9184970 0.2577830 -0.6053302
vn -0.8809192 0.4697572 -0.0575291
v -1.7603059 0.5309718 -0.7969057
vn 0.6773317 -0.5679500 0.4676053
v -1.2847527 0.1611377 -0.6013067
vn -0.0756899 -0.9486768 -0.3070562
v -1.5705347 0.0329138 -0.7998781
vn -0.0391209 -0.8552615 0.5167178
v -1.6525772 -0.0138992 -0.6020893
vn 0.1351329 0.0694653 0.9883894
v -1.3491981 0.4415959 -0.6122067
vn 0.2975940 0.8722925 0.3879996
v -1.5654093 0.5870716 -0.6063324
vn -0.1330472 -0.1496306 0.9797496
v -1.8354166 0.1718854 -0.5985448
vn 0.0877137 -0.2121129 0.9733008
v -1.5182512 0.1061312 -0.5655168
vn 0.5814125 0.8136081 -0.0011972
v -1.5581683 0.6703668 -0.7991486
vn -0.0051623 0.3245467 -0.9458556
v -1.6220940 0.4214526 -0.6708011
vn -0.0051623 0.3245467 -0.9458556
v -1.6545128 0.1518545 -0.7631300
vn -0.0051623 0.3245467 -0.9458556
v -1.4417715 0.2428340 -0.7330738
vn -0.0316282 -0.0493610 -0.9982801
v 1.3822827 0.1523449 -0.8219419
vn 0.8853670 0.1802363 0.4285326
v 1.2188760 0.1736136 -0.7468761
vn -0.9733495 -0.0513237 0.2235100
v 1.4730234 0.3245941 -0.5693296
vn -0.1275374 -0.7031676 0.6994924
v 1.3055800 0.4397961 -0.7496282
vn -0.6962095 0.7133630 0.0800343
v 1.2549100 0.1116356 -0.5685300
vn -0.7772793 0.4499781 0.4397233
v 1.2554798 0.1334830 -0.7583038
vn 0.8567961 0.5155567 0.0100760
v 1.2497659 0.1188037 -0.5690994
vn 0.9034932 -0.3814655 0.1954075
v 1.0894307 0.3852497 -0.5684484
vn 0.6393957 0.1616659 -0.7516897
v 1.5417103 0.4968672 -0.8114179
vn -0.9829617 0.1750333 0.0561224
v 0.9691154 0.4075514 -0.6215276
vn -0.6327255 -0.6367993 -0.4406191
v 1.1025537 0.0691362 -0.8098050
vn 0.1615902 -0.0833041 -0.9833357
v 1.3712691 -0.0136437 -0.8133854
vn 0.6906357 -0.6716182 -0.2682373
v 1.5010923 0.0970019 -0.8029859
vn -0.4429688 0.5540765 -0.7048247
v 1.2949743 0.5772268 -0.8099201
vn -0.8862838 0.3105376 -0.3436096
v 1.0363075 0.3713997 -0.8275104
vn 0.2015142 -0.0452244 -0.9784411
v 1.4558215 0.3257240 -0.8330348
vn 0.9779782 0.1176524 0.1723851
v 1.5701166 0.3638534 -0.6051851
vn -0.1570775 -0.9768686 0.1451014
v 1.1972522 0.0298561 -0.6070133
vn -0.6550146 0.5409211 0.5275985
v 1.1846415 0.6497257 -0.6022410
vn 0.0373091 -0.1122833 0.9929756
v 1.3361760 0.5490772 -0.6193157
vn 0.6898643 -0.6781511 0.2533741
v 1.4813890 0.1527419 -0.6001526
vn 0.4843243 0.7641053 0.4261140
v 1.2519635 0.6243107 -0.7106205
vn -0.2837343 -0.1579485 -0.9458051
v 1.3582513 0.4508065 -0.7636631
vn -0.2837343 -0.1579485 -0.9458051
v 1.1409893 0.2879480 -0.6712890
vn -0.2837343 -0.1579485 -0.9458051
v 1.3858331 0.2210827 -0.7335738
# 452 vertices, 0 vertices normals


usemtl material_0
vt 0.4109300 0.4051350
vt 0.4115180 0.3816220
vt 0.4199710 0.3763280
f 18/1/18 1/2/1 220/3/220
vt 0.0926550 0.5710880
vt 0.0890040 0.5800670
vt 0.0000000 0.5792110
f 3/4/3 85/5/85 2/6/2
vt 0.7606640 0.5612740
vt 0.7110770 0.5663750
vt 0.7175240 0.5377650
f 4/7/4 6/8/6 88/9/88
vt 0.7587610 0.5721190
f 5/10/5 6/8/6 4/7/4
vt 0.4298370 0.0389210
vt 0.4382150 0.0353050
vt 0.4382210 0.0726910
f 21/11/21 48/12/48 14/13/14
vt 0.4294860 0.0194990
f 48/12/48 21/11/21 8/14/8
vt 0.0268380 0.8124040
vt 0.0426720 0.8125810
vt 0.0432280 0.8220280
f 65/15/65 71/16/71 7/17/7
vt 0.0143890 0.8444480
vt 0.0000510 0.8426370
vt 0.0121840 0.8269260
f 7/18/7 91/19/91 65/20/65
vt 0.9421750 0.0159950
vt 0.9460700 0.0152690
vt 0.9459940 0.0535200
f 38/21/38 23/22/23 54/23/54
vt 0.4958200 0.0191210
vt 0.4995930 0.0183170
vt 0.5021110 0.0245540
f 8/24/8 23/25/23 38/26/38
vt 0.4330330 0.3975280
vt 0.4311390 0.3919800
vt 0.4458210 0.3757990
f 22/27/22 18/28/18 43/29/43
vt 0.1222060 0.5714380
vt 0.1169610 0.5640130
vt 0.1220650 0.5640100
f 51/30/51 44/31/44 36/32/36
vt 0.0889420 0.5894970
vt 0.0002820 0.5888940
f 85/5/85 83/33/83 2/34/2
vt 0.9309090 0.1066110
vt 0.9419210 0.1048600
vt 0.9417670 0.1330360
f 121/35/121 61/36/61 56/37/56
vt 0.3660290 0.5714750
vt 0.3643500 0.6901490
vt 0.3445360 0.6900130
f 123/38/123 25/39/25 9/40/9
vt 0.3466070 0.5709550
f 9/40/9 54/41/54 123/38/123
vt 0.3671120 0.5025010
vt 0.3476350 0.5033880
vt 0.3486080 0.4650720
f 123/42/123 54/43/54 27/44/27
vt 0.3557220 0.8691920
vt 0.3580560 0.8788080
vt 0.3452910 0.8727790
f 59/45/59 60/46/60 16/47/16
vt 0.0033420 0.6266030
vt 0.0010760 0.6012380
vt 0.0926060 0.6016950
f 11/48/11 2/49/2 83/50/83
vt 0.1224220 0.6262810
f 83/50/83 12/51/12 11/48/11
vt 0.3949160 0.0852880
vt 0.4074480 0.0770560
vt 0.4066330 0.1107140
f 20/52/20 21/53/21 19/54/19
vt 0.3936830 0.0743270
f 20/52/20 34/55/34 21/53/21
vt 0.4066660 0.0268350
vt 0.4197670 0.0224580
vt 0.4195640 0.0429900
f 70/56/70 8/57/8 21/58/21
vt 0.9713220 0.8077900
vt 0.9711100 0.8201580
vt 0.9636760 0.8180550
f 22/59/22 58/60/58 18/61/18
vt 0.1489730 0.6720290
vt 0.1647900 0.6727760
vt 0.1650170 0.6802020
f 68/62/68 71/63/71 65/64/65
vt 0.9504210 0.8720150
vt 0.9527690 0.9014870
vt 0.9470190 0.9022400
f 67/65/67 23/66/23 8/67/8
vt 0.8943240 0.6588130
vt 0.8942940 0.6871860
vt 0.8831500 0.6858940
f 24/68/24 60/69/60 170/70/170
vt 0.1342480 0.6443730
vt 0.1224720 0.6442560
vt 0.1224220 0.5914840
f 68/71/68 65/72/65 29/73/29
vt 0.6945370 0.0663370
vt 0.6948490 0.1186700
vt 0.6773100 0.1196430
f 74/74/74 76/75/76 28/76/28
vt 0.6769940 0.0662400
f 28/76/28 78/77/78 74/74/74
vt 0.9037560 0.5927570
vt 0.8943240 0.5824020
vt 0.9027260 0.5807640
f 52/78/52 50/79/50 31/80/31
vt 0.8737690 0.0827510
vt 0.8852280 0.0749360
vt 0.8912090 0.0802830
f 80/81/80 33/82/33 13/83/13
vt 0.8942280 0.0255770
vt 0.9010390 0.0219900
vt 0.9050620 0.0308000
f 33/84/33 34/85/34 20/86/20
vt 0.8885680 0.0177310
vt 0.8946040 0.0130310
f 33/84/33 32/87/32 34/88/34
vt 0.6689500 0.4508820
vt 0.6699630 0.4751360
vt 0.6621360 0.4751210
f 42/89/42 41/90/41 51/91/51
vt 0.9530040 0.1327460
vt 0.9471670 0.1331140
vt 0.9471930 0.0080470
f 50/92/50 35/93/35 81/94/81
vt 0.9531400 0.0190240
f 81/94/81 80/95/80 50/92/50
vt 0.0106200 0.5110910
vt 0.0016980 0.5075610
vt 0.1207470 0.5075610
f 37/96/37 53/97/53 36/98/36
vt 0.1134510 0.5108220
f 36/98/36 46/99/46 37/96/37
vt 0.1166080 0.5393870
vt 0.1215120 0.5395180
f 44/31/44 46/100/46 36/101/36
vt 0.1141380 0.5668710
f 44/102/44 51/30/51 3/4/3
vt 0.0001600 0.5627120
vt 0.0005210 0.5382960
vt 0.0072000 0.5383400
f 3/103/3 53/104/53 37/105/37
vt 0.4438580 0.0372830
vt 0.4429990 0.0725700
f 48/106/48 47/107/47 14/13/14
vt 0.4997280 0.0725110
vt 0.5003260 0.1386640
vt 0.4959990 0.1298380
f 38/108/38 54/109/54 39/110/39
vt 0.4444840 0.1363660
vt 0.4445350 0.1298430
vt 0.4690060 0.1311720
f 14/111/14 47/112/47 39/113/39
vt 0.7695640 0.5418590
vt 0.7285630 0.5138160
f 52/114/52 88/9/88 86/115/86
vt 0.7697630 0.5142370
f 86/115/86 40/116/40 52/114/52
vt 0.7643100 0.5508960
f 4/117/4 88/9/88 52/114/52
vt 0.4932660 0.1382460
vt 0.4930790 0.1325520
f 14/118/14 39/119/39 54/109/54
vt 0.3639920 0.7125710
f 9/40/9 25/39/25 26/120/26
vt 0.7188130 0.4846480
vt 0.7162970 0.4803940
vt 0.7648830 0.4827250
f 87/121/87 41/122/41 222/123/222
vt 0.7690990 0.4873780
f 222/123/222 40/124/40 87/121/87
vt 0.4956810 0.2994500
vt 0.4983240 0.2995560
vt 0.4951540 0.3119060
f 55/125/55 9/126/9 62/127/62
vt 0.5039850 0.1397490
vt 0.5022330 0.2591530
vt 0.4989290 0.2588850
f 54/128/54 9/129/9 55/130/55
vt 0.4699200 0.3493310
vt 0.4807250 0.3325150
vt 0.4818690 0.3349220
f 43/131/43 55/132/55 62/133/62
vt 0.6605270 0.8407380
vt 0.6610770 0.8650770
vt 0.6596520 0.8653460
f 37/134/37 45/135/45 3/136/3
vt 0.3469760 0.8626220
vt 0.3460290 0.8511140
vt 0.3568460 0.8604210
f 16/137/16 17/138/17 59/139/59
vt 0.9740930 0.7000590
vt 0.9744030 0.7163260
vt 0.9670330 0.7167390
f 65/140/65 91/141/91 64/142/64
vt 0.9738740 0.6863190
vt 0.9671460 0.6955910
vt 0.9674810 0.6775240
f 65/143/65 64/144/64 66/145/66
vt 0.9053900 0.1853130
vt 0.9054390 0.2380850
vt 0.8990890 0.2386410
f 29/146/29 65/147/65 66/148/66
vt -0.0000000 0.7324700
vt 0.0091760 0.7321390
vt 0.0093330 0.7853110
f 181/149/181 77/150/77 69/151/69
vt 0.7091640 0.1338900
vt 0.7090700 0.1287400
vt 0.7384990 0.1297210
f 28/152/28 76/153/76 73/154/73
vt 0.7515520 0.1274650
vt 0.7512250 0.1176060
vt 0.7573660 0.1173420
f 73/155/73 131/156/131 15/157/15
vt 0.3853830 0.0547360
vt 0.3972400 0.0447220
vt 0.4066140 0.0499260
f 34/158/34 70/159/70 21/160/21
vt 0.0351680 0.7854320
vt 0.0538940 0.7852080
vt 0.0567340 0.7994310
f 69/161/69 78/162/78 72/163/72
vt 0.8865240 0.3516770
vt 0.8863960 0.3111520
vt 0.9041440 0.3116210
f 79/164/79 130/165/130 78/166/78
vt 0.0351390 0.7756030
vt 0.0538740 0.7780620
f 69/161/69 77/167/77 78/168/78
vt 0.3852910 0.1126210
vt 0.3910040 0.1038600
f 10/169/10 20/170/20 19/54/19
vt 0.8621370 0.2280110
vt 0.8596230 0.2483350
vt 0.8533630 0.2477930
f 170/171/170 60/172/60 59/173/59
vt 0.9606630 0.6107280
vt 0.9618790 0.6412200
vt 0.9581420 0.6412190
f 109/174/109 82/175/82 61/176/61
vt 0.7252560 0.4933330
vt 0.6989010 0.4923280
f 87/121/87 40/177/40 86/178/86
vt 0.0551280 0.8886200
vt 0.0547990 0.8034510
vt 0.0563350 0.8037100
f 44/179/44 3/180/3 45/181/45
vt 0.6948030 0.4837920
vt 0.6622080 0.4826310
vt 0.6726340 0.4782530
f 87/182/87 51/183/51 41/184/41
vt 0.1223450 0.6018440
f 83/50/83 84/185/84 12/51/12
vt 0.0988890 0.5769370
f 85/186/85 3/4/3 51/30/51
vt 0.5012820 0.8912400
vt 0.5002910 0.9112680
vt 0.4596010 0.9020460
f 89/187/89 90/188/90 30/189/30
vt 0.4604420 0.9159970
f 50/190/50 30/189/30 90/188/90
vt 0.5459520 0.8196530
vt 0.5464440 0.8273440
vt 0.5040060 0.8170970
f 91/191/91 32/192/32 92/193/92
vt 0.1784300 0.8890780
vt 0.2027500 0.8901230
vt 0.1947800 0.9295200
f 92/194/92 98/195/98 91/196/91
vt 0.7208950 0.8663910
vt 0.7449510 0.8643380
vt 0.7418550 0.9069860
f 99/197/99 92/198/92 93/199/93
vt 0.7256540 0.9071560
vt 0.7118910 0.9059450
f 93/200/93 80/201/80 99/197/99
vt 0.8376270 0.9224270
vt 0.8317040 0.9215960
vt 0.8346650 0.8837860
f 96/202/96 94/203/94 95/204/95
vt 0.8572260 0.8835300
vt 0.8444920 0.9232890
f 95/204/95 97/205/97 96/206/96
vt 0.7041840 0.8464180
vt 0.7039650 0.8550150
vt 0.6611310 0.8506180
f 30/207/30 96/208/96 97/209/97
vt 0.6611480 0.8248730
vt 0.7041980 0.8286410
f 97/209/97 89/210/89 30/211/30
vt 0.5468860 0.8367590
vt 0.5471290 0.8464270
vt 0.5039850 0.8498170
f 32/212/32 93/213/93 92/214/92
vt 0.4631440 0.9221610
f 35/215/35 50/190/50 90/188/90
vt 0.8299280 0.9224580
vt 0.8244550 0.9185400
vt 0.8258950 0.8835300
f 94/216/94 101/217/101 95/218/95
vt 0.2143530 0.9258780
vt 0.2065650 0.9287460
f 64/219/64 91/220/91 98/195/98
vt 0.7057490 0.9030580
vt 0.7057490 0.8667690
f 80/201/80 81/221/81 99/222/99
vt 0.8205690 0.3664680
vt 0.8188520 0.2853840
vt 0.8435840 0.2986770
f 99/223/99 98/224/98 92/225/92
vt 0.8389160 0.6522610
vt 0.8158220 0.6586780
vt 0.8199870 0.5787540
f 97/226/97 95/227/95 90/228/90
vt 0.8401120 0.5855500
f 90/228/90 89/229/89 97/226/97
vt 0.1418550 0.3008620
vt 0.1417570 0.1431040
vt 0.1757940 0.1506930
f 35/230/35 99/231/99 81/232/81
vt 0.1731800 0.0299620
vt 0.1417040 0.0579180
vt 0.1417350 0.0032480
f 64/233/64 98/234/98 66/235/66
vt 0.1419040 0.3811890
vt 0.1419550 0.4633040
vt 0.0894130 0.4633350
f 90/236/90 95/237/95 100/238/100
vt 0.0893380 0.3410570
f 100/238/100 209/239/209 90/236/90
f 99/231/99 35/230/35 209/239/209
f 35/230/35 90/236/90 209/239/209
vt 0.0891880 0.1005430
f 66/235/66 98/234/98 99/240/99
vt 0.1435030 0.5040050
f 95/237/95 101/241/101 100/238/100
vt 0.9108120 0.9724800
vt 0.9108120 0.9824180
vt 0.9061120 0.9796800
f 102/242/102 212/243/212 111/244/111
vt 0.9495340 0.5574360
vt 0.9495350 0.6727290
vt 0.9467230 0.6743300
f 105/245/105 106/246/106 104/247/104
vt 0.9467220 0.5563990
f 104/247/104 107/248/107 105/245/105
vt 0.7468530 0.3648620
vt 0.7521140 0.3649050
vt 0.7508480 0.3678210
f 103/249/103 105/250/105 107/251/107
vt 0.9306310 0.0741730
vt 0.9419690 0.0743010
f 121/252/121 164/253/164 61/36/61
vt 0.4146050 0.7481800
vt 0.4143810 0.7660310
vt 0.3677270 0.7630660
f 26/254/26 108/255/108 259/256/259
vt 0.7015520 0.2542320
vt 0.6896750 0.2564170
vt 0.6930950 0.2155100
f 56/257/56 57/258/57 316/259/316
vt 0.7048510 0.2155100
f 316/259/316 121/260/121 56/257/56
vt 0.9102860 0.2989640
vt 0.9090010 0.3274570
vt 0.9042730 0.3263140
f 171/261/171 102/262/102 111/263/111
vt 0.2624810 0.3779280
vt 0.2709410 0.3834330
vt 0.2715260 0.4069490
f 147/264/147 127/265/127 167/266/167
vt 0.3013600 0.5220720
vt 0.2120560 0.5229280
vt 0.2085910 0.5139440
f 160/267/160 198/268/198 141/269/141
vt 0.2310180 0.7275580
vt 0.2379000 0.7561360
vt 0.1881100 0.7511920
f 128/270/128 113/271/113 132/272/132
vt 0.1902050 0.7620260
f 112/273/112 132/272/132 113/271/113
vt 0.2529740 0.0199470
vt 0.2526250 0.0394550
vt 0.2442390 0.0356400
f 186/274/186 145/275/145 114/276/114
vt 0.1323190 0.8113810
vt 0.1328740 0.8018480
vt 0.1487140 0.8014910
f 188/277/188 185/278/185 115/279/115
vt 0.1477980 0.8182570
vt 0.1633740 0.8159840
vt 0.1611710 0.8336240
f 188/280/188 115/281/115 178/282/178
vt 0.2302170 0.0088510
vt 0.2296880 0.0185250
vt 0.1996270 0.0236570
f 186/283/186 114/284/114 143/285/143
vt 0.9248910 0.3233320
vt 0.9250230 0.2850810
vt 0.9289140 0.2858280
f 163/286/163 180/287/180 143/288/143
vt 0.1789400 0.5142940
vt 0.1791590 0.5068640
vt 0.1842750 0.5068670
f 119/289/119 138/290/138 154/291/154
vt 0.3009120 0.5317600
vt 0.2119480 0.5323630
f 160/292/160 195/293/195 198/268/198
vt 0.2971750 0.1135700
vt 0.3018810 0.1397150
vt 0.2765190 0.1379430
f 134/294/134 162/295/162 145/296/145
vt 0.1785210 0.5691430
vt 0.2979960 0.5694640
vt 0.2941020 0.5977320
f 158/297/158 160/298/160 120/299/120
vt 0.7252730 0.1538480
vt 0.7381720 0.1552500
vt 0.7418480 0.1830270
f 122/300/122 164/301/164 121/302/121
vt 0.4676230 0.5727560
vt 0.4870520 0.5727250
vt 0.4861180 0.6917980
f 123/303/123 163/304/163 117/305/117
vt 0.4663070 0.6914340
f 117/305/117 25/306/25 123/303/123
vt 0.4877240 0.4668250
vt 0.4877290 0.5051540
vt 0.4682810 0.5037760
f 124/307/124 163/308/163 123/309/123
vt 0.9046310 0.3920610
vt 0.8919200 0.3979970
vt 0.8942430 0.3884170
f 175/310/175 24/311/24 169/312/169
vt 0.8930890 0.3796910
vt 0.8931000 0.3701570
vt 0.9071590 0.3592330
f 169/313/169 176/314/176 174/315/174
vt 0.2082670 0.5445610
f 160/298/160 158/297/158 195/316/195
vt 0.2629050 0.0437180
vt 0.2627010 0.0230780
vt 0.2758020 0.0274840
f 145/317/145 186/318/186 133/319/133
vt 0.9735340 0.4450980
vt 0.9660980 0.4472020
vt 0.9658860 0.4348340
f 167/320/167 168/321/168 118/322/118
vt 0.1650170 0.5077100
vt 0.1647900 0.5142160
vt 0.1489730 0.5152790
f 115/323/115 185/324/185 182/325/182
vt 0.2009830 0.0110880
vt 0.2304380 0.0033220
f 143/326/143 184/327/184 186/283/186
vt 0.9494130 0.7259680
vt 0.9445270 0.7253370
vt 0.9476320 0.6957500
f 143/328/143 180/329/180 184/330/184
vt 0.8831830 0.6588230
vt 0.8831500 0.6317000
f 24/68/24 170/331/170 173/332/173
vt 0.4660990 0.7138580
vt 0.4150420 0.7135320
vt 0.4153300 0.6906670
f 284/333/284 26/334/26 25/335/25
vt 0.4182340 0.4605220
vt 0.4688970 0.4633010
f 27/336/27 124/337/124 123/309/123
vt 0.9315850 0.4541560
vt 0.9357460 0.4527600
vt 0.9330470 0.5039420
f 125/338/125 126/339/126 15/340/15
vt 0.1224720 0.5397540
vt 0.1342480 0.5391950
f 29/73/29 115/341/115 182/342/182
vt 0.7509300 0.0182540
vt 0.7570740 0.0190670
vt 0.7583910 0.0678700
f 131/343/131 125/344/125 15/345/15
vt 0.6769940 0.0134720
f 74/74/74 78/77/78 183/346/183
vt 0.6945400 0.0146370
f 183/346/183 277/347/277 74/74/74
vt 0.3924060 0.8379170
vt 0.4009130 0.8397400
vt 0.3915590 0.8502020
f 193/348/193 159/349/159 132/350/132
vt 0.9005190 0.5151070
vt 0.8968090 0.5217030
vt 0.8830810 0.5126230
f 135/351/135 162/352/162 134/353/134
vt 0.8797030 0.4454730
vt 0.8856310 0.4503850
vt 0.8799360 0.4582750
f 133/354/133 136/355/136 134/356/134
vt 0.2866280 0.6647300
vt 0.2787800 0.6647690
vt 0.2799320 0.6405050
f 119/357/119 153/358/153 137/359/137
vt 0.9407930 0.5678820
vt 0.9406560 0.4537900
vt 0.9465940 0.4424720
f 159/360/159 191/361/191 192/362/192
vt 0.9466220 0.5679530
f 192/362/192 211/363/211 159/360/159
vt 0.1811710 0.4503950
vt 0.3005990 0.4503950
vt 0.2915670 0.4539270
f 138/364/138 140/365/140 281/366/281
vt 0.1870760 0.5097250
f 141/269/141 119/289/119 139/367/139
vt 0.2946310 0.4811870
vt 0.3013360 0.4811420
vt 0.3014760 0.5055650
f 281/368/281 140/369/140 141/370/141
vt 0.2948250 0.5057310
f 141/370/141 148/371/148 281/368/281
vt 0.2442340 0.0732000
vt 0.2394540 0.0730270
vt 0.2385930 0.0375660
f 145/372/145 142/373/142 114/374/114
vt 0.1864300 0.1299210
vt 0.1820980 0.1386730
vt 0.1826970 0.0722920
f 144/375/144 163/376/163 143/377/143
vt 0.2134370 0.1316270
vt 0.2379180 0.1305200
vt 0.2379690 0.1370670
f 144/378/144 142/379/142 145/380/145
vt 0.1789060 0.7318130
vt 0.1784300 0.7042000
vt 0.2197140 0.7036490
f 132/381/132 146/382/146 128/383/128
f 139/367/139 119/289/119 154/291/154
vt 0.1891640 0.1384080
vt 0.1893510 0.1327010
f 145/384/145 163/376/163 144/385/144
f 284/333/284 25/306/25 117/305/117
vt 0.2297640 0.6744370
vt 0.1794580 0.6773220
vt 0.1837150 0.6726540
f 197/386/197 146/387/146 161/388/161
vt 0.2323160 0.6701740
f 161/388/161 153/389/153 197/386/197
vt 0.1872590 0.3123160
vt 0.1840870 0.2998830
vt 0.1867390 0.2999780
f 116/390/116 117/391/117 150/392/150
vt 0.1937180 0.3242070
vt 0.1901090 0.3122010
f 177/393/177 116/390/116 150/394/150
vt 0.1834920 0.2592700
vt 0.1801780 0.2593300
vt 0.1784300 0.1395430
f 150/395/150 117/396/117 163/397/163
vt 0.2005470 0.3354960
vt 0.2016990 0.3332700
vt 0.2125050 0.3501780
f 177/398/177 150/399/150 149/400/149
vt 0.9904150 0.1573530
vt 0.9891670 0.1576630
vt 0.9894850 0.1000740
f 156/401/156 157/402/157 155/403/155
vt 0.6854540 0.1510650
vt 0.6779460 0.1384650
vt 0.6938730 0.1418030
f 165/404/165 166/405/166 122/406/122
vt 0.9039010 0.3704350
vt 0.9029520 0.3819170
f 169/313/169 174/407/174 175/408/175
vt 0.4502580 0.9135890
vt 0.4485360 0.9270680
vt 0.4454380 0.9269420
f 166/409/166 164/410/164 122/411/122
vt 0.8797430 0.5979630
vt 0.8794500 0.5768630
vt 0.8810330 0.5770100
f 173/412/173 169/413/169 24/414/24
vt 0.9706070 0.8533540
vt 0.9709510 0.8719650
vt 0.9641940 0.8629460
f 179/415/179 178/416/178 115/417/115
vt 0.8990890 0.1345220
vt 0.9054390 0.1335830
f 179/418/179 115/419/115 29/146/29
vt 0.8991210 0.1861060
f 29/146/29 66/420/66 179/418/179
vt 0.2730220 0.0170550
f 187/421/187 133/319/133 186/318/186
vt 0.7381310 0.0059920
vt 0.7087040 0.0054430
vt 0.7087670 0.0005490
f 125/422/125 277/423/277 183/424/183
vt 0.0567340 0.6653680
vt 0.0538940 0.6790060
vt 0.0351680 0.6790150
f 129/425/129 189/426/189 181/427/181
vt 0.8865240 0.2711440
vt 0.9042730 0.2704700
f 130/428/130 189/429/189 78/166/78
vt 0.0538740 0.6860670
vt 0.0351390 0.6887270
f 189/430/189 190/431/190 181/427/181
vt 0.0093330 0.6796020
vt 0.0250200 0.6939570
f 77/150/77 181/432/181 190/433/190
vt 0.9406120 0.4425220
vt 0.9407160 0.4349540
vt 0.9467220 0.4349030
f 191/434/191 135/435/135 192/436/192
vt 0.2758390 0.1117740
vt 0.2914640 0.1048180
f 145/437/145 133/438/133 134/294/134
vt 0.2495620 0.6820620
vt 0.2231410 0.6831500
f 196/439/196 146/440/146 197/386/197
vt 0.2159570 0.6923100
vt 0.2492850 0.6911940
f 128/383/128 146/441/146 196/442/196
vt 0.2065510 0.5095260
vt 0.2919780 0.5086490
f 141/269/141 139/443/139 148/444/148
vt 0.2760800 0.6678960
vt 0.2865010 0.6722430
vt 0.2538300 0.6735060
f 153/445/153 119/446/119 197/447/197
vt 0.1784300 0.5447100
f 195/316/195 158/297/158 194/448/194
vt 0.2022100 0.5197970
f 119/289/119 141/269/141 198/449/198
vt 0.5454250 0.9017120
vt 0.5043310 0.9086530
vt 0.5042040 0.8886010
f 200/450/200 209/451/209 199/452/199
vt 0.5438990 0.9155950
f 159/453/159 209/451/209 200/450/200
vt 0.8066120 0.3745460
vt 0.8485650 0.3720050
vt 0.8061100 0.3822370
f 188/454/188 202/455/202 136/456/136
vt 0.7485670 0.3761720
vt 0.7565280 0.4155220
vt 0.7322340 0.4170620
f 188/457/188 210/458/210 202/459/202
vt 0.8054320 0.4165510
vt 0.8485560 0.4047250
vt 0.8485650 0.4272900
f 208/460/208 202/461/202 201/462/201
vt 0.7004050 0.8794350
vt 0.7004050 0.9211210
vt 0.6762620 0.9213810
f 208/463/208 201/464/201 203/465/203
vt 0.6840370 0.8810710
vt 0.6701760 0.8818950
f 208/466/208 203/465/203 135/467/135
vt 0.8972450 0.8815350
vt 0.8926980 0.9201630
vt 0.8912930 0.8823110
f 207/468/207 204/469/204 205/470/205
vt 0.9041400 0.8806330
vt 0.9152280 0.9189800
f 207/471/207 206/472/206 204/469/204
vt 0.6160400 0.8385440
vt 0.6590920 0.8427760
vt 0.6162530 0.8471410
f 200/473/200 206/474/206 207/475/207
vt 0.6160460 0.8207670
vt 0.6591010 0.8170310
f 200/476/200 199/477/199 206/474/206
vt 0.8056590 0.3916520
vt 0.8054110 0.4013190
f 136/478/136 202/461/202 208/479/208
vt 0.5408880 0.9215990
f 209/451/209 159/453/159 211/480/211
vt 0.7603460 0.3768520
vt 0.7681320 0.3796760
f 210/458/210 188/481/188 178/482/178
vt 0.6611310 0.9206330
vt 0.6638270 0.8844440
f 203/483/203 192/484/192 135/467/135
vt 0.2580760 0.7824380
vt 0.2828060 0.7689990
vt 0.2810890 0.8503260
f 202/485/202 210/486/210 203/487/203
vt 0.2562060 0.8376890
f 203/487/203 201/488/201 202/485/202
vt 0.0759670 0.8500770
vt 0.0747720 0.7831720
vt 0.0948930 0.7762700
f 206/489/206 199/490/199 209/491/209
vt 0.0990580 0.8564150
f 209/491/209 204/492/204 206/489/206
vt 0.0026460 0.1507980
vt 0.0366730 0.1431680
vt 0.0367710 0.3009260
f 192/493/192 203/494/203 211/495/211
vt 0.0365130 0.0033110
vt 0.0366200 0.0579810
vt 0.0051050 0.0300640
f 179/496/179 210/497/210 178/498/178
vt 0.0113840 0.4942190
vt 0.0014610 0.4633890
vt 0.0368710 0.4633670
f 172/499/172 205/500/205 204/501/204
f 210/497/210 99/240/99 203/494/203
vt 0.0368210 0.3812530
f 100/238/100 204/501/204 209/502/209
f 203/494/203 99/240/99 209/239/209
f 209/239/209 211/495/211 203/494/203
vt 0.0891220 -0.0000000
f 179/496/179 66/503/66 99/240/99
f 99/240/99 210/497/210 179/496/179
vt 0.0353730 0.5040710
f 204/501/204 100/238/100 172/504/172
vt 0.9470720 0.2962990
vt 0.9519290 0.2971300
vt 0.9519290 0.3071430
f 213/505/213 214/506/214 212/507/212
vt 0.7678460 0.3727810
vt 0.7630460 0.3754920
vt 0.7630460 0.3655960
f 111/508/111 212/509/212 214/510/214
vt 0.9569220 0.5545980
vt 0.9541140 0.5531410
vt 0.9541160 0.4374700
f 219/511/219 216/512/216 217/513/217
vt 0.9569230 0.4362800
f 217/513/217 218/514/218 219/511/219
vt 0.7560370 0.3677910
vt 0.7548770 0.3648620
vt 0.7601460 0.3648620
f 218/515/218 217/516/217 215/517/215
vt 0.4610950 0.7642430
f 284/518/284 108/255/108 26/254/26
vt 0.6896750 0.1746030
vt 0.7015520 0.1767880
f 316/259/316 165/519/165 122/520/122
f 122/520/122 121/260/121 316/259/316
vt 0.3281560 0.6072190
vt 0.3354570 0.6065910
vt 0.3354870 0.6339590
f 111/521/111 214/522/214 110/523/110
vt 0.9055060 0.2989640
vt 0.9042730 0.2716130
f 171/261/171 111/524/111 214/525/214
vt 0.9966850 0.3097660
vt 0.9967150 0.3230290
vt 0.9954700 0.3220450
f 221/526/221 222/527/222 223/528/223
vt 0.5520340 0.8766340
vt 0.5520340 0.8232370
vt 0.5815770 0.8132760
f 226/529/226 228/530/228 224/531/224
vt 0.5815770 0.8867550
f 224/531/224 227/532/227 226/529/226
vt 0.8244550 0.8108100
vt 0.8534430 0.8196970
vt 0.8534430 0.8725430
f 225/533/225 228/534/228 226/535/226
vt 0.8244550 0.8835300
f 226/535/226 227/536/227 225/533/225
vt 0.9849150 0.0613320
vt 0.9849150 0.0916860
vt 0.9711310 0.0917120
f 228/537/228 225/538/225 224/539/224
vt 0.8053040 0.2847390
vt 0.7755220 0.2716020
vt 0.7755220 0.1501440
f 229/540/229 231/541/231 233/542/233
vt 0.8053040 0.1371680
f 233/542/233 240/543/240 229/540/229
vt 0.8239600 0.9382490
vt 0.8239600 0.9687920
vt 0.8101210 0.9692570
f 231/544/231 229/545/229 230/546/230
vt 0.8101210 0.9387150
f 230/546/230 232/547/232 231/544/231
vt 0.9543840 0.8516590
vt 0.9409680 0.8516580
vt 0.9409680 0.7446060
f 231/548/231 232/549/232 234/550/234
vt 0.9543840 0.7446060
f 234/550/234 233/551/233 231/548/231
vt 0.6159180 0.8867550
vt 0.5863760 0.8746460
vt 0.5863760 0.8252260
f 235/552/235 238/553/238 239/554/239
vt 0.6159180 0.8132760
f 239/554/239 237/555/237 235/552/235
vt 0.3304640 0.8363630
vt 0.3304640 0.8852730
vt 0.3014760 0.8982280
f 239/556/239 238/557/238 236/558/236
vt 0.3014760 0.8255070
f 236/558/236 237/559/237 239/556/239
vt 0.9790070 0.6469670
vt 0.9652790 0.6473940
vt 0.9652790 0.6171290
f 235/560/235 236/561/236 238/562/238
vt 0.8345270 0.1490320
vt 0.8345270 0.2692360
f 240/543/240 234/563/234 232/564/232
vt 0.8053040 0.2832160
f 232/564/232 230/565/230 240/543/240
vt 0.9652790 0.5859540
vt 0.9791750 0.5859190
vt 0.9791750 0.6166670
f 233/566/233 234/567/234 240/568/240
vt 0.8053040 0.4323110
vt 0.7755220 0.4191740
vt 0.7755220 0.2977150
f 241/569/241 243/570/243 245/571/245
f 245/571/245 247/540/247 241/569/241
vt 0.9791170 0.5549120
vt 0.9791170 0.5854540
vt 0.9652790 0.5859190
f 243/572/243 241/573/241 242/574/242
vt 0.9652790 0.5553770
f 242/574/242 244/575/244 243/572/243
vt 0.9522240 0.4349030
vt 0.9388070 0.4349030
vt 0.9388070 0.3278500
f 243/576/243 244/577/244 246/578/246
vt 0.9522240 0.3278510
f 246/578/246 245/579/245 243/576/243
vt 0.3014760 0.6794590
vt 0.3306990 0.6913220
vt 0.3306990 0.8115270
f 247/580/247 246/581/246 244/582/244
f 244/582/244 242/559/242 247/580/247
vt 0.9711310 0.0000350
vt 0.9850270 0.0000000
vt 0.9850270 0.0307480
f 245/583/245 246/584/246 247/585/247
vt 0.3729890 0.9317690
vt 0.3635270 0.9336470
vt 0.3640100 0.9074640
f 248/586/248 249/587/249 368/588/368
vt 0.9706350 0.7714230
vt 0.9710050 0.7955670
vt 0.9628930 0.7935680
f 251/589/251 250/590/250 49/591/49
vt 0.4390810 0.8543100
vt 0.4454630 0.8749280
vt 0.4184040 0.8742350
f 8/592/8 252/593/252 75/594/75
vt 0.4113180 0.8450790
f 75/594/75 76/595/76 8/592/8
vt 0.4099820 0.8375860
vt 0.4447000 0.8431610
f 76/596/76 48/597/48 8/592/8
vt 0.9665600 0.3387200
vt 0.9746680 0.3407670
vt 0.9740430 0.3649520
f 44/598/44 255/599/255 256/600/256
vt 0.9408430 0.9526580
vt 0.9312940 0.9544990
vt 0.9307330 0.9301600
f 258/601/258 45/602/45 37/603/37
vt 0.9402790 0.9283440
f 37/603/37 257/604/257 258/601/258
vt 0.8341690 0.0781700
vt 0.8158880 0.1018000
vt 0.8156060 0.0831880
f 254/605/254 63/606/63 253/607/253
vt 0.6606180 0.7133940
vt 0.5828620 0.6874850
vt 0.6605000 0.6941680
f 264/608/264 260/609/260 263/610/263
vt 0.6611310 0.5419340
vt 0.5840870 0.5508050
vt 0.5849120 0.4590420
f 49/611/49 266/612/266 261/613/261
vt 0.6608880 0.4846550
f 261/613/261 262/614/262 49/611/49
vt 0.6605260 0.6636160
f 46/615/46 260/609/260 266/612/266
vt 0.6610940 0.5610550
f 266/612/266 37/616/37 46/615/46
vt 0.6447850 0.4231830
vt 0.6354300 0.4211350
f 75/617/75 261/613/261 131/618/131
vt 0.6509950 0.6723970
f 265/619/265 260/609/260 46/615/46
vt 0.6606210 0.4554270
f 262/620/262 261/613/261 75/617/75
vt 0.6604760 0.6813480
f 263/621/263 260/609/260 265/619/265
vt 0.6542100 0.7239290
vt 0.5825510 0.7223770
f 259/622/259 108/623/108 260/609/260
f 260/609/260 264/608/264 259/622/259
vt 0.5052490 0.0796490
vt 0.5900860 0.0618780
vt 0.5902550 0.1437530
f 267/624/267 268/625/268 270/626/270
vt 0.5059350 0.0444560
f 48/627/48 268/625/268 267/624/267
vt 0.5043100 0.1540150
vt 0.5905100 0.2677360
f 45/628/45 270/626/270 269/629/269
vt 0.5039850 0.2579900
f 269/629/269 44/630/44 45/628/45
vt 0.5040670 0.2778390
vt 0.5907070 0.3633030
f 249/631/249 269/629/269 293/632/293
vt 0.5042800 0.3213140
f 293/632/293 271/633/271 249/631/249
vt 0.5312420 0.0035490
vt 0.5899600 -0.0000000
f 76/634/76 74/635/74 268/625/268
f 268/625/268 48/627/48 76/634/76
vt 0.5544090 0.4146390
vt 0.5543450 0.3835460
f 371/636/371 271/637/271 293/632/293
vt 0.5908200 0.4184850
f 293/632/293 369/638/369 371/636/371
vt 0.5227910 0.4088160
vt 0.5118680 0.4047660
f 271/637/271 371/639/371 63/640/63
vt 0.9752580 0.2542500
vt 0.9757290 0.2804270
vt 0.9665160 0.2785970
f 286/641/286 152/642/152 272/643/272
vt 0.9660450 0.2526920
f 272/643/272 273/644/273 286/641/286
vt 0.6826230 0.9751810
vt 0.6847210 0.9739550
vt 0.6847210 0.9873890
f 157/645/157 156/646/156 274/647/274
vt 0.9664580 0.7262650
vt 0.9562920 0.7284670
vt 0.9566740 0.7043850
f 157/648/157 274/649/274 275/650/275
vt 0.2114180 0.8747740
vt 0.1828060 0.8749050
vt 0.1891990 0.8544110
f 276/651/276 155/652/155 143/653/143
vt 0.2189500 0.8457610
f 143/653/143 277/654/277 276/651/276
vt 0.1836240 0.8431500
vt 0.2204010 0.8382960
f 143/653/143 114/655/114 277/656/277
vt 0.7941790 0.8991870
vt 0.7947130 0.9234670
vt 0.7844480 0.9253740
f 154/657/154 138/658/138 279/659/279
vt 0.7838490 0.9012930
f 279/659/279 291/660/291 154/657/154
vt 0.9703700 0.5298880
vt 0.9698000 0.5542300
vt 0.9605210 0.5524210
f 281/661/281 148/662/148 282/663/282
vt 0.9610840 0.5281010
f 282/663/282 280/664/280 281/661/281
vt 0.9829680 0.2512240
vt 0.9828350 0.2628410
vt 0.9758390 0.2640360
f 177/665/177 283/666/283 151/667/151
vt 0.8737690 0.0836980
vt 0.8734880 0.1023510
vt 0.8551690 0.0785880
f 283/668/283 320/669/320 278/670/278
vt 0.5108830 0.7226450
vt 0.5356850 0.7423960
f 151/671/151 108/623/108 284/672/284
vt 0.5072150 0.5405550
vt 0.5084830 0.4832890
f 156/673/156 285/674/285 261/613/261
f 261/613/261 266/612/266 156/673/156
vt 0.5056420 0.6622290
vt 0.5069090 0.5596740
f 138/675/138 281/676/281 266/612/266
f 266/612/266 260/609/260 138/675/138
vt 0.5256890 0.4221160
vt 0.5350790 0.4202360
f 276/677/276 131/678/131 261/613/261
vt 0.5150140 0.6711790
f 287/679/287 138/675/138 260/609/260
vt 0.5165670 0.5502000
f 288/680/288 156/673/156 266/612/266
vt 0.5092730 0.4540710
f 285/681/285 276/677/276 261/613/261
vt 0.5053750 0.6799580
f 286/682/286 287/679/287 260/609/260
f 281/676/281 288/680/288 266/612/266
f 260/609/260 108/623/108 151/671/151
vt 0.5046640 0.7119960
f 151/671/151 286/683/286 260/609/260
vt 0.6749960 0.0792980
f 270/626/270 268/625/268 289/684/289
vt 0.6741650 0.0441080
f 114/685/114 289/684/289 268/625/268
vt 0.6762410 0.1536590
vt 0.6769940 0.2576320
f 148/686/148 291/687/291 269/629/269
f 269/629/269 270/626/270 148/686/148
vt 0.6769940 0.2774810
vt 0.6769600 0.3209570
f 152/688/152 290/689/290 293/632/293
f 293/632/293 269/629/269 152/688/152
vt 0.6674880 0.2675760
f 291/690/291 152/688/152 269/629/269
vt 0.6666030 0.1435950
f 292/691/292 148/686/148 270/626/270
vt 0.6486910 0.0033060
f 277/692/277 114/685/114 268/625/268
f 268/625/268 74/635/74 277/692/277
vt 0.6759770 0.1334910
f 289/693/289 292/691/292 270/626/270
vt 0.6697160 0.4044400
vt 0.6588090 0.4085350
vt 0.6271520 0.3833960
f 320/694/320 369/695/369 293/696/293
vt 0.3190420 0.9493210
vt 0.3190420 0.9784100
vt 0.3066550 0.9784540
f 295/697/295 296/698/296 298/699/298
vt 0.3066550 0.9493660
f 298/699/298 294/700/294 295/697/295
vt 0.1078500 0.7866880
vt 0.1202190 0.9240650
vt 0.1078500 0.9119510
f 299/701/299 295/702/295 294/703/294
vt 0.3005510 0.6204360
vt 0.2881550 0.6080710
vt 0.3005510 0.6080660
f 300/704/300 301/705/301 304/706/304
vt 0.3863700 0.9773840
vt 0.3739850 0.9773930
vt 0.3739850 0.9482200
f 300/707/300 301/708/301 302/709/302
vt 0.3863700 0.9482110
f 302/709/302 299/710/299 300/707/300
vt 0.8383450 0.5589000
vt 0.8383450 0.4323110
vt 0.8675190 0.4323110
f 298/711/298 300/712/300 299/713/299
vt 0.8675190 0.5589000
f 299/713/299 294/714/294 298/711/298
vt 0.5887270 0.9379070
vt 0.6048860 0.9378490
vt 0.5887270 0.9636030
f 305/715/305 306/716/306 308/717/308
vt 0.8828750 0.1315670
vt 0.8990090 0.2695220
vt 0.8828750 0.2573910
f 309/718/309 306/719/306 305/720/305
vt 0.8515020 0.6712410
vt 0.8353300 0.6588230
vt 0.8515020 0.6588160
f 310/721/310 311/722/311 314/723/314
vt 0.7219060 0.9619760
vt 0.7057490 0.9619880
vt 0.7057490 0.9362160
f 310/724/310 311/725/311 312/726/312
vt 0.8839240 0.8717620
vt 0.8581530 0.8717620
vt 0.8839240 0.7446060
f 305/727/305 308/728/308 309/729/309
vt 0.9231250 0.6817590
vt 0.9226900 0.6454310
vt 0.9344210 0.6456010
f 371/730/371 369/731/369 319/732/319
vt 0.9238940 0.7132530
vt 0.9350520 0.6844950
f 315/733/315 371/730/371 319/734/319
vt 0.3291280 0.5961520
vt 0.3301520 0.5680330
vt 0.3401250 0.5702990
f 317/735/317 319/736/319 316/737/316
vt 0.9231250 0.6089630
vt 0.9350520 0.6065750
f 369/738/369 318/739/318 319/732/319
vt 0.3301520 0.4909170
vt 0.3401250 0.4893420
vt 0.3402660 0.5303150
f 319/740/319 165/741/165 316/742/316
vt 0.3291280 0.4615590
f 165/741/165 319/740/319 321/743/321
vt 0.1078500 0.7744450
vt 0.1202190 0.7743180
f 299/701/299 303/744/303 302/745/302
f 299/701/299 302/745/302 295/702/295
vt 0.1078500 0.9241930
f 295/702/295 297/746/297 294/703/294
vt 0.3005510 0.7470050
vt 0.2881550 0.7593800
f 298/747/298 296/748/296 301/705/301
f 300/704/300 298/747/298 301/705/301
vt 0.6048860 0.9635450
f 306/716/306 322/749/322 308/717/308
vt 0.8828750 0.1192700
vt 0.8990090 0.1191040
f 309/718/309 313/750/313 312/751/312
f 309/718/309 312/751/312 306/719/306
vt 0.8828750 0.2696880
f 306/719/306 307/752/307 305/720/305
vt 0.8515020 0.7983780
vt 0.8353300 0.8108090
f 308/753/308 322/754/322 311/722/311
f 310/721/310 308/753/308 311/722/311
vt 0.7219060 0.9362040
f 312/726/312 309/755/309 310/724/310
vt 0.8581530 0.7446060
f 308/728/308 310/756/310 309/729/309
vt 0.1791860 0.9589570
vt 0.1786900 0.9539820
vt 0.1995800 0.9547370
f 324/757/324 327/758/327 323/759/323
vt 0.0215520 0.9655750
vt 0.0214990 0.9715760
vt -0.0000000 0.9700320
f 324/760/324 326/761/326 325/762/325
vt 0.2001470 0.9304380
vt 0.1995800 0.9354780
vt 0.1786900 0.9371640
f 326/763/326 323/764/323 327/765/327
vt 0.8235810 0.5326760
vt 0.8194550 0.5269730
vt 0.8250130 0.5213190
f 332/766/332 331/767/331 328/768/328
vt 0.8306050 0.5290490
f 328/768/328 329/769/329 332/766/332
vt 0.8335450 0.5476860
vt 0.8306050 0.5567690
vt 0.8235810 0.5531260
f 329/770/329 330/771/330 332/772/332
vt 0.8137780 0.5629640
vt 0.8194550 0.5588250
vt 0.8250130 0.5644940
f 333/773/333 332/774/332 330/775/330
vt 0.6611310 0.9431080
vt 0.6611310 0.9326390
vt 0.6833180 0.9326400
f 336/776/336 335/777/335 337/778/337
vt 0.4720810 0.8553310
vt 0.4721120 0.8664340
vt 0.4499280 0.8664250
f 340/779/340 341/780/341 336/781/336
vt 0.2462830 0.9601810
vt 0.2462860 0.9490660
vt 0.2684730 0.9490750
f 341/782/341 338/783/338 350/784/350
vt 0.5786410 0.7931830
vt 0.5842480 0.8009080
vt 0.5814760 0.8036340
f 343/785/343 340/786/340 344/787/344
vt 0.5835460 0.7757910
vt 0.5756930 0.7745480
vt 0.5786410 0.7654630
f 345/788/345 343/789/343 342/790/342
vt 0.5857210 0.7895380
vt 0.5898580 0.7952380
f 343/785/343 345/791/345 346/792/346
f 346/792/346 340/786/340 343/785/343
vt 0.6010390 0.8094680
vt 0.6022450 0.8015520
vt 0.6092830 0.8015500
f 340/793/340 346/794/346 347/795/347
vt 0.6359250 0.7840770
vt 0.6279820 0.7828210
vt 0.6279820 0.7757740
f 341/796/341 347/797/347 348/798/348
vt 0.6092830 0.7570590
vt 0.6105790 0.7491570
vt 0.6196520 0.7521050
f 345/799/345 342/800/342 348/801/348
vt 0.6611310 0.9739530
vt 0.6611310 0.9517660
vt 0.6706890 0.9517670
f 339/802/339 349/803/349 334/804/334
vt 0.4500190 0.8339730
vt 0.4722030 0.8339820
vt 0.4721120 0.8441500
f 336/805/336 337/806/337 340/807/340
vt 0.4722030 0.8763700
vt 0.4500190 0.8763610
f 341/808/341 350/809/350 336/781/336
vt 0.3024370 0.9081530
vt 0.3014760 0.8985010
vt 0.3234290 0.8982280
f 339/810/339 350/811/350 338/812/338
vt 0.3243900 0.9078800
f 338/812/338 349/813/349 339/810/339
vt 0.2589640 0.8964750
vt 0.2682470 0.8964560
vt 0.2630480 0.9137040
f 352/814/352 353/815/353 351/816/351
vt 0.2809280 0.9184730
vt 0.2762860 0.9265510
f 353/817/353 354/818/354 351/816/351
vt 0.7999080 0.0410560
vt 0.8020580 0.0862940
vt 0.7869840 0.0853510
f 356/819/356 357/820/357 355/821/355
vt 0.7784200 0.0309800
vt 0.7627040 0.0337920
vt 0.7616190 0.0144700
f 356/822/356 358/823/358 286/824/286
vt 0.0843580 0.6652260
vt 0.1086080 0.6652180
vt 0.1089170 0.7743180
f 281/825/281 148/826/148 154/827/154
vt 0.8045410 0.6794990
vt 0.7803170 0.6800130
vt 0.7810820 0.6217280
f 142/828/142 359/829/359 114/830/114
vt 0.7571120 0.6208970
vt 0.7579670 0.5882020
vt 0.7724020 0.5835670
f 359/831/359 360/832/360 114/833/114
vt 0.1110800 0.6676670
vt 0.1113580 0.7719630
f 148/834/148 291/835/291 154/827/154
vt 0.0591950 0.7727710
vt 0.0567340 0.7702300
vt 0.0577810 0.6676720
f 154/836/154 138/837/138 281/838/281
vt 0.7714550 0.0573580
vt 0.7657440 0.0435600
f 356/822/356 355/839/355 358/840/358
vt 0.9408910 0.7393010
vt 0.9396200 0.7402900
vt 0.9396090 0.7270370
f 278/841/278 161/842/161 355/843/355
vt 0.6768310 0.7752240
vt 0.6897580 0.8196480
vt 0.6746820 0.8204370
f 367/844/367 361/845/361 363/846/363
vt 0.1248690 0.7889850
vt 0.1248870 0.6802530
vt 0.1491340 0.6804140
f 44/847/44 45/848/45 37/849/37
vt 0.1745770 0.7878470
vt 0.1491890 0.7883850
f 46/850/46 44/851/44 37/849/37
vt 0.7565740 0.7825840
vt 0.7564400 0.7259230
vt 0.7800300 0.7252750
f 47/852/47 48/853/48 362/854/362
vt 0.7807940 0.7833140
f 362/854/362 364/855/364 47/852/47
vt 0.7887070 0.6873820
vt 0.8031390 0.6922040
vt 0.8039940 0.7247520
f 362/856/362 365/857/365 364/858/364
vt 0.6983210 0.7653780
vt 0.7110000 0.7781060
vt 0.7052890 0.7918080
f 367/859/367 368/860/368 361/861/361
vt 0.7232140 0.7237980
vt 0.7023330 0.7238000
vt 0.7071750 0.6937250
f 370/862/370 372/863/372 371/864/371
vt 0.6696450 0.6557930
vt 0.6896000 0.6557920
vt 0.6874100 0.6988060
f 108/865/108 369/866/369 371/867/371
vt 0.6672680 0.7024810
f 371/867/371 372/868/372 108/865/108
vt 0.6769940 0.3539790
vt 0.6902250 0.3541910
vt 0.6903810 0.4059580
f 74/869/74 373/870/373 76/871/76
vt 0.7196880 0.4056360
f 366/872/366 76/871/76 373/870/373
vt 0.7442780 0.5877790
vt 0.7501660 0.6193840
vt 0.7286820 0.6199150
f 374/873/374 369/874/369 375/875/375
vt 0.6874100 0.6127780
f 375/876/375 369/866/369 108/865/108
vt 0.6903810 0.3030570
f 277/877/277 373/870/373 74/869/74
vt 0.8247150 0.9477520
vt 0.8244550 0.9420900
vt 0.8453060 0.9420230
f 378/878/378 381/879/381 377/880/377
vt 0.5039850 0.9389590
vt 0.5039860 0.9323650
vt 0.5254520 0.9331580
f 377/881/377 376/882/376 378/883/378
vt 0.5254540 0.9279340
f 379/884/379 378/883/378 376/882/376
vt 0.1009430 0.9557320
vt 0.1009240 0.9623320
vt 0.0794190 0.9615480
f 376/885/376 380/886/380 379/887/379
vt 0.8453060 0.9353870
f 382/888/382 377/880/377 381/879/381
vt 0.9730130 0.7787390
vt 0.9764250 0.7791770
vt 0.9756840 0.7895630
f 383/889/383 387/890/387 390/891/390
vt 0.9889470 0.4346810
vt 0.9857310 0.4353370
vt 0.9857320 0.4262220
f 390/892/390 384/893/384 383/894/383
vt 0.9764250 0.7569420
vt 0.9730130 0.7575360
vt 0.9723060 0.7483130
f 387/895/387 383/896/383 386/897/386
vt 0.7996770 0.4361310
vt 0.8091900 0.4361350
vt 0.8080240 0.4440380
f 383/898/383 384/899/384 388/900/388
vt 0.8203760 0.4822160
vt 0.8245010 0.4765170
vt 0.8315250 0.4801600
f 389/901/389 384/902/384 385/903/385
vt 0.8952850 0.7019120
vt 0.8957900 0.6915120
vt 0.9177440 0.6912390
f 390/904/390 393/905/393 396/906/396
vt 0.6364210 0.9694890
vt 0.6254770 0.9694890
vt 0.6254770 0.9473020
f 391/907/391 390/908/390 397/909/397
vt 0.1446090 0.9285100
vt 0.1446120 0.9396820
vt 0.1224250 0.9396900
f 386/910/386 389/911/389 392/912/392
vt 0.2906640 0.9490750
vt 0.2906610 0.9601910
vt 0.2684730 0.9601810
f 393/913/393 386/914/386 392/915/392
vt 0.2684760 0.9490660
f 392/915/392 396/916/396 393/913/393
vt 0.2395690 0.7868720
vt 0.2323990 0.7905030
vt 0.2282630 0.7848040
f 395/917/395 394/918/394 396/919/396
vt 0.6159180 0.9694880
vt 0.6159180 0.9473010
f 390/920/390 396/921/396 397/909/397
vt 0.0001220 0.9041620
vt 0.0223050 0.9041700
vt 0.0222150 0.9143380
f 391/922/391 397/923/397 398/924/398
vt 0.0223050 0.9465580
vt 0.0001220 0.9465490
vt 0.0000310 0.9366130
f 398/925/398 389/926/389 391/927/391
vt 0.1446090 0.9579210
vt 0.1224220 0.9579300
vt 0.1224250 0.9498250
f 389/928/389 398/929/398 392/930/392
vt 0.1570670 0.9064230
vt 0.1570670 0.9157390
vt 0.1391870 0.9109710
f 399/931/399 400/932/400 401/933/401
vt 0.4933740 0.9575260
vt 0.5022070 0.9558950
vt 0.5022600 0.9617600
f 406/934/406 402/935/402 403/936/403
vt 0.5469220 0.9514050
vt 0.5254600 0.9497840
vt 0.5254580 0.9446450
f 404/937/404 405/938/405 406/939/406
vt 0.0782190 0.9625760
vt 0.0568060 0.9625060
vt 0.0567870 0.9559530
f 406/940/406 407/941/407 404/942/404
vt 0.0782030 0.9683390
f 407/941/407 406/940/406 408/943/408
vt 0.9774130 0.6763540
vt 0.9783300 0.6855590
vt 0.9753640 0.6849670
f 410/944/410 409/945/409 413/946/413
vt 0.8839240 0.9036430
vt 0.8619710 0.9039160
vt 0.8619710 0.8926730
f 413/947/413 412/948/412 417/949/417
vt 0.8834190 0.9140440
f 412/948/412 413/947/413 424/950/424
vt 0.3412220 0.9250910
vt 0.3634060 0.9251000
vt 0.3634370 0.9362020
f 415/951/415 416/952/416 411/953/411
vt 0.2175080 0.9543200
vt 0.2396950 0.9543290
vt 0.2396920 0.9654440
f 418/954/418 417/955/417 419/956/419
vt 0.7925940 0.8482350
vt 0.7830810 0.8482300
vt 0.7844090 0.8403180
f 422/957/422 419/958/419 423/959/423
vt 0.7607460 0.8319260
vt 0.7578060 0.8228410
vt 0.7657630 0.8215870
f 419/960/419 417/961/417 423/962/423
vt 0.7657630 0.8145410
f 420/963/420 423/962/423 417/961/417
vt 0.6911920 0.9739540
vt 0.6816330 0.9739530
vt 0.6816330 0.9517660
f 421/964/421 412/965/412 424/966/424
vt 0.3412530 0.9139090
vt 0.3413440 0.9037420
vt 0.3635270 0.9037510
f 415/967/415 414/968/414 416/969/416
vt 0.3635270 0.9461380
vt 0.3413440 0.9461290
f 411/953/411 418/970/418 415/971/415
vt 0.1668030 0.9498160
vt 0.1668000 0.9579210
vt 0.1446120 0.9579300
f 419/972/419 415/973/415 418/974/418
vt 0.8605050 0.8720350
vt 0.8824580 0.8717620
vt 0.8834190 0.8814150
f 417/975/417 418/976/418 413/977/413
vt 0.5599510 0.8867550
vt 0.5649250 0.9041590
vt 0.5518900 0.8914150
f 427/978/427 426/979/426 425/980/425
vt 0.5687030 0.9559730
vt 0.5472410 0.9537650
vt 0.5472370 0.9497190
f 435/981/435 429/982/429 431/983/431
vt 0.5472370 0.9278680
vt 0.5687000 0.9263170
vt 0.5686970 0.9322990
f 431/984/431 430/985/430 435/986/435
vt 0.9061120 0.9717280
vt 0.9081460 0.9502650
vt 0.9126080 0.9502650
f 430/987/430 431/988/431 433/989/433
vt 0.9112220 0.9717280
f 433/989/433 432/990/432 430/987/430
vt 0.8710720 0.9523940
vt 0.8726060 0.9738760
vt 0.8669640 0.9738130
f 429/991/429 435/992/435 434/993/434
vt 0.9829740 0.2594310
vt 0.9829680 0.2519440
vt 0.9861840 0.2505750
f 439/994/439 436/995/436 440/996/440
vt 0.5241140 0.7521160
vt 0.5276990 0.7592420
vt 0.5220050 0.7633860
f 436/997/436 443/998/443 441/999/441
vt 0.5178680 0.7895390
vt 0.5107880 0.7931830
vt 0.5078400 0.7841000
f 442/1000/442 437/1001/437 441/1002/441
vt 0.5414310 0.8015500
vt 0.5427260 0.8094640
vt 0.5331860 0.8094680
f 442/1003/442 438/1004/438 437/1005/437
vt 0.5651250 0.7654420
vt 0.5579550 0.7690730
vt 0.5538180 0.7633740
f 439/1006/439 438/1007/438 428/1008/428
vt 0.5517990 0.7521060
vt 0.5481240 0.7592340
vt 0.5414310 0.7570590
f 439/1009/439 428/1010/428 443/1011/443
vt 0.5427260 0.7491570
f 443/1011/443 436/1012/436 439/1009/439
vt 0.6048830 0.9290370
vt 0.5829300 0.9293100
vt 0.5834350 0.9189090
f 436/1013/436 449/1014/449 444/1015/444
vt 0.4312620 0.9352220
vt 0.4090750 0.9352210
vt 0.4090750 0.9239630
f 441/1016/441 437/1017/437 446/1018/446
vt 0.7540900 0.9500720
vt 0.7762780 0.9500810
vt 0.7762750 0.9611960
f 440/1019/440 448/1020/448 445/1021/445
vt 0.7540870 0.9611870
f 445/1021/445 438/1022/438 440/1019/440
vt 0.5834350 0.9076660
vt 0.5829300 0.8966800
vt 0.6048830 0.8964080
f 444/1023/444 448/1024/448 440/1025/440
vt 0.6053890 0.9073930
f 440/1025/440 436/1026/436 444/1023/444
vt 0.4628920 0.7897860
vt 0.4587670 0.7840830
vt 0.4643250 0.7784290
f 437/1027/437 447/1028/447 446/1029/446
vt 0.8959590 0.1108610
vt 0.8959560 0.1189660
vt 0.8737690 0.1189750
f 445/1030/445 437/1031/437 438/1032/438
vt 0.4438100 0.9019150
vt 0.4267650 0.9065890
vt 0.4391570 0.8938450
f 451/1033/451 450/1034/450 452/1035/452
# 465 faces, 1035 coords texture

# End of File
