####
#
# OBJ File Generated by Meshlab
#
####
# Object building2.obj
#
# Vertices: 72
# Faces: 98
#
####
mtllib ./building2.obj.mtl

vn -0.8944272 0.0000000 -0.4472136
v -10.3092508 0.4534990 -12.0256681
vn -0.2182179 0.8728716 -0.4364358
v -10.3092508 87.3002777 -12.0256672
vn -0.8164966 0.4082483 -0.4082483
v -10.3092508 87.3002777 -22.3097382
vn -0.4472136 0.0000000 -0.8944272
v -10.3092508 0.4534990 -22.3097382
vn 0.3333333 0.6666667 -0.6666667
v 11.5839262 87.3002777 -22.3097382
vn 0.8944272 0.0000000 -0.4472136
v 11.5839262 0.4534990 -22.3097382
vn 0.0000000 0.5547002 0.8320503
v 11.5839291 87.3002777 23.8625088
vn 0.0000001 0.0000000 1.0000000
v 11.5839291 0.4534990 23.8625088
vn 0.4472136 0.0000000 0.8944272
v 12.2240753 0.4534990 23.8625088
vn 0.6666667 0.6666667 0.3333333
v 12.2240753 87.3002777 23.8625088
vn 0.0000000 0.8000000 0.6000000
v -10.3092480 87.3002777 23.8625107
vn 0.0000000 0.0000000 1.0000000
v -10.3092480 0.4534990 23.8625107
vn 0.3651484 0.9128709 -0.1825742
v 11.5839281 87.3002777 17.9085255
vn -0.2182179 0.8728716 -0.4364358
v -10.3092489 87.3002777 17.9085255
vn 0.2182179 0.8728716 0.4364358
v 11.5839272 87.3002777 0.7533800
vn -0.3651484 0.9128709 0.1825742
v -10.3092499 87.3002777 0.7533810
vn -0.7071068 0.7071068 0.0000000
v -10.3092489 87.3002777 8.3733673
vn 0.7071068 0.7071068 -0.0000001
v 11.5839281 87.3002777 8.3733654
vn 0.8944273 -0.0000000 0.4472135
v 11.5839272 0.4534990 0.7533790
vn 1.0000000 0.0000000 -0.0000000
v 11.5839281 0.4534990 8.3733644
vn -0.8944272 0.0000000 -0.4472136
v -10.3092489 0.4534990 17.9085255
vn -1.0000000 0.0000000 0.0000001
v -10.3092489 0.4534990 8.3733673
vn 0.4472136 -0.0000000 0.8944272
v 12.2240734 0.4534990 0.7533790
vn 0.6666667 0.6666667 0.3333333
v 12.2240734 87.3002777 0.7533800
vn 0.3651484 0.9128709 -0.1825742
v 11.5839262 87.3002777 -12.0256701
vn -0.4472136 0.0000000 0.8944272
v -10.3092499 0.4534990 0.7533810
vn 0.4472136 0.0000000 -0.8944272
v 11.5839262 0.4534990 -12.0256701
vn -0.4472136 0.0000000 -0.8944272
v -10.7175655 0.4534990 -12.0256681
vn -0.6666667 0.6666667 -0.3333333
v -10.7175655 87.3002777 -12.0256672
vn 0.4472136 0.0000000 -0.8944272
v 11.5839281 0.4534990 17.9085255
vn 0.8944271 0.0000000 -0.4472137
v 12.2240744 0.4534990 17.9085255
vn 0.4082483 0.4082483 -0.8164966
v 12.2240744 87.3002777 17.9085255
vn 0.8944272 0.0000000 -0.4472136
v 12.2240725 0.4534990 -12.0256701
vn 0.4082483 0.4082483 -0.8164966
v 12.2240725 87.3002777 -12.0256701
vn -0.8944272 0.0000000 0.4472136
v -10.7175655 0.4534990 0.7533810
vn -0.4082483 0.4082483 0.8164966
v -10.7175655 87.3002777 0.7533810
vn -0.8944271 0.0000000 0.4472137
v -10.7175636 0.4534990 23.8625107
vn -0.4082483 0.4082483 0.8164966
v -10.7175636 87.3002777 23.8625107
vn -0.6666667 0.6666667 -0.3333333
v -10.7175646 87.3002777 17.9085255
vn -0.4472136 0.0000000 -0.8944272
v -10.7175646 0.4534990 17.9085255
vn -0.4472136 0.0000000 -0.8944272
v -3.2314000 87.3265076 -15.8551846
vn -0.6666667 0.6666667 -0.3333333
v -3.2314000 89.3265076 -15.8551846
vn 0.4082484 0.4082484 -0.8164965
v 4.2864432 89.3265076 -15.8551846
vn 0.8944275 0.0000000 -0.4472131
v 4.2864432 87.3265076 -15.8551846
vn 0.6666665 0.6666666 0.3333338
v 4.2864408 89.3265076 -12.4707489
vn 0.4472133 0.0000000 0.8944274
v 4.2864408 87.3265076 -12.4707489
vn -0.4082485 0.4082483 0.8164966
v -3.2314000 89.3265076 -12.4707508
vn -0.8944272 0.0000000 0.4472136
v -3.2314000 87.3265076 -12.4707508
vn 0.4472132 0.0000000 0.8944274
v 4.2864518 87.3265076 4.5223980
vn 0.6666666 0.6666667 0.3333335
v 4.2864518 89.3265076 4.5223980
vn -0.4082488 0.4082483 0.8164964
v -3.2313910 89.3265076 4.5223942
vn -0.8944274 0.0000000 0.4472131
v -3.2313910 87.3265076 4.5223942
vn -0.6666666 0.6666667 -0.3333337
v -3.2313890 89.3265076 1.1379600
vn -0.4472132 0.0000000 -0.8944274
v -3.2313890 87.3265076 1.1379600
vn 0.4082486 0.4082483 -0.8164964
v 4.2864528 89.3265076 1.1379631
vn 0.8944274 0.0000000 -0.4472133
v 4.2864528 87.3265076 1.1379631
vn -0.4472134 0.0000000 -0.8944273
v -3.2313981 87.3265076 14.2690210
vn -0.6666666 0.6666667 -0.3333334
v -3.2313981 89.3265076 14.2690210
vn 0.4082485 0.4082484 -0.8164965
v 4.2864451 89.3265076 14.2690229
vn 0.8944274 0.0000000 -0.4472132
v 4.2864451 87.3265076 14.2690229
vn 0.6666666 0.6666667 0.3333337
v 4.2864432 89.3265076 17.6534576
vn 0.4472134 0.0000000 0.8944274
v 4.2864432 87.3265076 17.6534576
vn -0.4082485 0.4082483 0.8164966
v -3.2313981 89.3265076 17.6534557
vn -0.8944272 0.0000000 0.4472136
v -3.2313981 87.3265076 17.6534557
vn 0.7071068 0.0000000 0.7071068
v 4.2046609 87.1410217 7.7693052
vn 0.7071066 0.0000000 -0.7071069
v 4.2046609 87.1410217 4.5464482
vn 0.6666666 0.3333334 -0.6666668
v 4.2046609 88.4068909 4.5464482
vn 0.4082483 0.8164966 0.4082483
v 4.2046609 88.4068909 7.7693052
vn -0.4082484 0.8164966 -0.4082483
v 1.6860330 88.4068909 4.5464492
vn -0.6666667 0.3333331 0.6666668
v 1.6860330 88.4068909 7.7693052
vn -0.7071070 -0.0000003 -0.7071066
v 1.6860330 87.1410217 4.5464492
vn -0.7071067 -0.0000005 0.7071069
v 1.6860340 87.1410217 7.7693052
# 72 vertices, 0 vertices normals


usemtl material_0
vt 0.4941710 0.6188990
vt 0.4941710 0.0000000
vt 0.5674590 0.0000000
f 1/1/1 2/2/2 3/3/3
vt 0.5674590 0.6188990
f 1/1/1 3/3/3 4/4/4
vt 0.0000000 0.6188990
vt 0.0000000 0.0000000
vt 0.1560180 0.0000000
f 4/5/4 3/6/3 5/7/5
vt 0.1560180 0.6188990
f 4/5/4 5/7/5 6/8/6
vt 0.9746750 0.0000000
vt 0.9746750 0.6188990
vt 0.9701130 0.6188990
f 7/9/7 8/10/8 9/11/9
vt 0.9701130 0.0000000
f 7/9/7 9/11/9 10/12/10
vt 0.3120360 0.0000000
f 8/8/8 7/7/7 11/13/11
vt 0.3120360 0.6188990
f 8/8/8 11/13/11 12/14/12
vt 0.2866090 0.7749170
vt 0.2866090 0.6188990
vt 0.3290390 0.6188990
f 13/15/13 14/16/14 11/17/11
vt 0.3290390 0.7749170
f 13/15/13 11/17/11 7/18/7
vt 0.2323060 0.7749170
f 15/16/15 16/15/16 17/19/17
vt 0.2323060 0.6188990
f 15/16/15 17/19/17 18/20/18
vt 0.7766480 0.6188990
vt 0.7766480 0.0000000
vt 0.8309510 0.0000000
f 19/21/19 15/22/15 18/23/18
vt 0.8309510 0.6188990
f 19/21/19 18/23/18 20/24/20
vt 0.6407470 0.6188990
vt 0.6407470 0.0000000
vt 0.7086970 0.0000000
f 21/25/21 14/26/14 17/27/17
vt 0.7086970 0.6188990
f 21/25/21 17/27/17 22/28/22
vt 0.9792370 0.0000000
vt 0.9792370 0.6188990
f 15/29/15 19/30/19 23/10/23
f 15/29/15 23/10/23 24/9/24
vt 0.0910680 0.6188990
vt 0.0910680 0.7749170
vt 0.0000000 0.7749170
f 25/31/25 2/32/2 16/33/16
f 25/31/25 16/33/16 15/5/15
vt 0.8852530 0.0000000
f 22/24/22 17/23/17 16/34/16
vt 0.8852530 0.6188990
f 22/24/22 16/34/16 26/35/26
vt 0.1643550 0.6188990
f 5/32/5 3/31/3 2/36/2
vt 0.1643550 0.7749170
f 5/32/5 2/36/2 25/37/25
f 6/4/6 5/3/5 25/26/25
f 6/4/6 25/26/25 27/25/27
vt 0.9912710 0.0000000
vt 0.9912710 0.6188990
vt 0.9883610 0.6188990
f 2/38/2 1/39/1 28/40/28
vt 0.9883610 0.0000000
f 2/38/2 28/40/28 29/41/29
f 18/20/18 17/19/17 14/37/14
f 18/20/18 14/37/14 13/36/13
f 20/28/20 18/27/18 13/22/13
f 20/28/20 13/22/13 30/21/30
vt 0.9276830 0.6188990
vt 0.9276830 0.0000000
f 31/42/31 32/43/32 10/12/10
f 31/42/31 10/12/10 9/11/9
vt 0.4031040 0.0000000
f 33/14/33 34/13/34 24/44/24
vt 0.4031040 0.6188990
f 33/14/33 24/44/24 23/45/23
vt 0.9837990 0.0000000
f 27/30/27 25/29/25 34/46/34
vt 0.9837990 0.6188990
f 27/30/27 34/46/34 33/47/33
vt 0.4869100 0.7099660
vt 0.4869100 0.6188990
vt 0.4914720 0.6188990
f 25/48/25 15/49/15 24/50/24
vt 0.4914720 0.7099660
f 25/48/25 24/50/24 34/51/34
f 30/47/30 13/46/13 32/41/32
f 30/47/30 32/41/32 31/40/31
vt 0.6158890 0.6613290
vt 0.6158890 0.6188990
vt 0.6204510 0.6188990
f 13/52/13 7/53/7 10/54/10
vt 0.6204510 0.6613290
f 13/52/13 10/54/10 32/55/32
f 35/45/35 36/44/36 29/2/29
f 35/45/35 29/2/29 28/1/28
f 37/35/37 38/34/38 39/43/39
f 37/35/37 39/43/39 40/42/40
vt 0.9941810 0.0000000
vt 0.9941810 0.6188990
f 14/56/14 21/57/21 40/39/40
f 14/56/14 40/39/40 39/38/39
vt 0.6414020 0.6188990
vt 0.6414020 0.6613290
vt 0.6384920 0.6613290
f 11/58/11 14/59/14 39/60/39
vt 0.6384920 0.6188990
f 11/58/11 39/60/39 38/61/38
vt 0.9970900 0.0000000
f 26/57/26 16/56/16 36/62/36
vt 0.9970900 0.6188990
f 26/57/26 36/62/36 35/63/35
vt 1.0000000 0.0000000
f 12/63/12 11/62/11 38/64/38
vt 1.0000000 0.6188990
f 12/63/12 38/64/38 37/65/37
vt 0.5978470 0.6188990
vt 0.5978470 0.7099660
vt 0.5949370 0.7099660
f 16/66/16 2/67/2 29/68/29
vt 0.5949370 0.6188990
f 16/66/16 29/68/29 36/69/36
vt 0.4156470 0.6724730
vt 0.4013940 0.6724730
vt 0.4013940 0.6188990
f 41/70/41 42/71/42 43/72/43
vt 0.4156470 0.6188990
f 41/70/41 43/72/43 44/73/44
vt 0.5379260 0.6430170
vt 0.5236740 0.6430170
vt 0.5236740 0.6188990
f 44/74/44 43/75/43 45/76/45
vt 0.5379260 0.6188990
f 44/74/44 45/76/45 46/77/46
vt 0.4726580 0.6724730
vt 0.4584050 0.6724730
vt 0.4584050 0.6188990
f 46/78/46 45/79/45 47/80/47
vt 0.4726580 0.6188990
f 46/78/46 47/80/47 48/81/48
vt 0.5949370 0.6430170
vt 0.5806840 0.6430170
vt 0.5806840 0.6188990
f 48/82/48 47/83/47 42/84/42
f 48/82/48 42/84/42 41/69/41
vt 0.3531570 0.6188990
vt 0.3531570 0.6724730
f 45/17/45 43/85/43 42/86/42
vt 0.3290390 0.6724730
f 45/17/45 42/86/42 47/87/47
vt 0.4299000 0.6724730
f 49/88/49 50/70/50 51/73/51
vt 0.4299000 0.6188990
f 49/88/49 51/73/51 52/89/52
vt 0.5664320 0.6430170
vt 0.5521790 0.6430170
vt 0.5521790 0.6188990
f 52/90/52 51/91/51 53/92/53
vt 0.5664320 0.6188990
f 52/90/52 53/92/53 54/93/54
vt 0.4441520 0.6724730
f 54/94/54 53/88/53 55/89/55
vt 0.4441520 0.6188990
f 54/94/54 55/89/55 56/95/56
f 56/83/56 55/90/55 50/93/50
f 56/83/56 50/93/50 49/84/49
vt 0.4013950 0.6724730
vt 0.3772760 0.6724730
vt 0.3772760 0.6188990
f 53/96/53 51/97/51 50/98/50
vt 0.4013950 0.6188990
f 53/96/53 50/98/50 55/99/55
f 57/79/57 58/94/58 59/95/59
f 57/79/57 59/95/59 60/80/60
vt 0.5094210 0.6430170
vt 0.5094210 0.6188990
f 60/75/60 59/100/59 61/101/61
f 60/75/60 61/101/61 62/76/62
vt 0.4869100 0.6724730
f 62/102/62 61/78/61 63/81/63
f 62/102/62 63/81/63 64/49/64
f 64/91/64 63/74/63 58/77/58
f 64/91/64 58/77/58 57/92/57
f 61/85/61 59/98/59 58/97/58
f 61/85/61 58/97/58 63/86/63
vt 0.6068680 0.6188990
vt 0.6068680 0.6418660
vt 0.5978470 0.6418660
f 65/103/65 66/104/66 67/105/67
f 65/103/65 67/105/67 68/66/68
vt 0.5094210 0.6418660
vt 0.4914720 0.6418660
f 68/101/68 67/106/67 69/107/69
f 68/101/68 69/107/69 70/50/70
f 70/104/70 69/103/69 71/53/71
vt 0.6158890 0.6418660
f 70/104/70 71/53/71 72/108/72
vt 0.6294720 0.6368470
vt 0.6204510 0.6368470
f 65/109/65 68/110/68 70/54/70
vt 0.6294720 0.6188990
f 65/109/65 70/54/70 72/111/72
vt 0.6384930 0.6188990
vt 0.6384930 0.6368470
f 67/111/67 66/112/66 71/113/71
f 67/111/67 71/113/71 69/109/69
# 98 faces, 113 coords texture

# End of File
