####
#
# OBJ File Generated by Meshlab
#
####
# Object building4Low.obj
#
# Vertices: 218
# Faces: 425
#
####
mtllib ./building4Low.obj.mtl

vn 0.7263470 0.4877928 -0.4842295
v 26.8455486 25.2514992 -7.4521379
vn -0.5303493 0.2879489 -0.7973801
v -25.8377953 25.2514992 -7.4521370
vn 0.5323162 0.2806847 0.7986586
v 26.8455486 25.2514992 5.9351258
vn 0.7027529 0.0898157 -0.7057418
v 26.8455486 23.1156540 -7.4836030
vn 0.8039339 0.3105687 -0.5071859
v 26.8455486 14.9249926 -7.4521379
vn 0.7653865 -0.5027105 -0.4018281
v 26.8455486 14.1026402 -7.4521379
vn 0.6666667 -0.3333333 -0.6666667
v 26.8455486 14.1026402 -7.6518049
vn 0.4082483 0.8164966 -0.4082483
v 26.8455486 14.9249926 -7.6518049
vn -0.6733145 0.6000492 0.4319590
v -25.8377953 1.4184430 5.9351258
vn 0.6023988 0.7357051 0.3096026
v 26.8860664 1.4184430 5.9351258
vn 0.7072219 -0.0449651 0.7055604
v 26.9495296 3.0787218 5.9820185
vn 0.7052368 0.0435660 0.7076320
v 26.8891106 4.1013460 6.0437136
vn 0.6459994 -0.4058356 0.6465154
v 26.8455486 5.8057189 5.9351258
vn -0.7055950 -0.0281471 0.7080562
v -25.8377953 22.3160267 6.0272703
vn 0.8061596 -0.3023768 0.5086011
v 26.8455486 14.1026421 5.9351258
vn -0.7653865 -0.5027105 0.4018281
v -25.8377953 14.1026402 5.9351258
vn -0.8053163 0.3054270 0.5081143
v -25.8377953 14.9249926 5.9351258
vn 0.7622588 0.5096897 0.3989711
v 26.8455486 14.9249945 5.9351258
vn -0.7038252 0.0673547 0.7071729
v -25.8377953 17.6924210 5.9673572
vn 0.5525662 -0.0407897 0.8324703
v 26.8455486 19.7007885 5.9666939
vn -0.8001654 -0.0143985 0.5996066
v -25.9061852 19.7469273 6.0204768
vn 0.7070147 -0.0447954 0.7057787
v 26.9411011 8.6502113 5.9758320
vn 0.4028145 0.5708296 -0.7154678
v 26.8455486 1.4184430 -7.4521379
vn -0.6041212 0.6826844 -0.4110714
v -25.8377953 1.4184430 -7.4521370
vn 0.8246914 0.2197442 -0.5211493
v 26.9487362 4.1013460 -7.4521379
vn -0.6407649 -0.4217293 -0.6415332
v -25.8377953 5.8057189 -7.4521370
vn 0.7056659 0.0481051 0.7069098
v 26.8455486 23.1156540 6.0204849
vn 0.5520748 0.0665315 -0.8311359
v 26.8455486 12.2932529 -7.4893117
vn -0.8002532 0.0174248 -0.5994092
v -25.9149837 12.2426090 -7.5471735
vn -0.8061596 -0.3023768 -0.5086011
v -25.8377953 14.1026421 -7.4521370
vn -0.7685986 0.4976199 -0.4020332
v -25.8377953 14.9249945 -7.4521370
vn 0.7058586 0.0366957 0.7074017
v 26.9520683 22.4081497 5.9703550
vn 0.7253395 -0.5562614 -0.4055316
v 26.8892155 5.8057189 -7.4521379
vn 0.6551811 -0.3764274 0.6550116
v 27.0362644 5.8057189 5.9351258
vn -0.9203390 -0.1939706 0.3396344
v -26.0285110 14.3767576 5.9351258
vn -0.7059397 0.0012904 -0.7082708
v -25.9060154 23.0667782 -7.5372977
vn 0.5639025 0.5579781 -0.6088303
v 26.8455486 6.8224659 -7.4521379
vn 0.8322926 0.3584396 -0.4228595
v 27.0362644 6.8224659 -7.4521379
vn 0.7447215 -0.0814530 -0.6623861
v 26.8899860 3.0787215 -7.5620141
vn -0.7070147 -0.0447951 -0.7057788
v -25.9333477 8.6502113 -7.4928427
vn 0.7055731 -0.0435925 -0.7072951
v 26.8841629 8.6502113 -7.5530314
vn -0.6666667 -0.3333333 0.6666667
v -25.8377953 14.1026402 6.1347942
vn -0.4082483 0.8164966 0.4082483
v -25.8377953 14.9249926 6.1347942
vn -0.5835659 0.5652885 -0.5830092
v -25.8377953 6.8224659 -7.4521370
vn -0.5639027 0.5579781 0.6088302
v -25.8377953 6.8224659 5.9351258
vn 0.5835659 0.5652885 0.5830092
v 26.8455486 6.8224659 5.9351258
vn -0.7041955 -0.0617366 -0.7073170
v -25.8377953 22.3160267 -7.4874339
vn -0.7075285 0.0195668 0.7064139
v -25.9321384 9.5889034 5.9749999
vn -0.8007042 -0.0006441 0.5990596
v -25.9133511 11.5153408 6.0283847
vn 0.5525222 -0.0410620 0.8324861
v 26.8455486 11.4646978 5.9712224
vn -0.7055731 -0.0435926 0.7072951
v -25.8764095 8.6502113 6.0360203
vn 0.6337502 -0.3072713 -0.7098909
v 26.8455486 5.8057189 -7.6518049
vn 0.4082483 0.8164966 -0.4082483
v 26.8455486 6.8224659 -7.6518049
vn -0.5520748 0.0665317 0.8311359
v -25.8377953 12.2932529 5.9723001
vn 0.7052976 0.0299847 0.7082770
v 26.8833790 9.5889034 6.0347314
vn -0.8002653 0.0105886 -0.5995526
v -25.9095459 20.4094868 -7.5412192
vn -0.5524551 -0.0496321 -0.8320637
v -25.8377953 19.7007885 -7.4837050
vn 0.2335466 0.9582788 -0.1647958
v 27.0325451 1.3646778 -7.6506076
vn -0.7064151 0.0132251 -0.7076742
v -25.9395752 17.0078125 -7.4845095
vn 0.7058506 -0.0447442 -0.7069462
v 26.8455486 16.9186707 -7.5392551
vn 0.5526123 0.0354179 -0.8326856
v 26.8455486 20.4556255 -7.4857922
vn -0.4082483 -0.8164966 -0.4082483
v -25.8377953 14.1026421 -7.6518030
vn -0.7052976 0.0299846 -0.7082770
v -25.8756256 9.5889034 -7.5517416
vn -0.7772509 0.4388157 0.4509123
v -26.0257092 1.0856066 6.1330037
vn 0.2659948 0.7157457 0.6457205
v 27.0294094 1.3062018 6.1340728
vn -0.2974272 0.8070381 0.5101243
v -25.8377953 1.4184430 6.1347942
vn -0.6337504 -0.3072713 0.7098906
v -25.8377953 5.8057189 6.1347942
vn 0.4082483 -0.8164966 0.4082483
v 26.8455486 5.8057189 6.1347928
vn 0.6666667 0.3333333 0.6666667
v 26.8455486 6.8224659 6.1347928
vn -0.4082483 0.8164966 0.4082483
v -25.8377953 6.8224659 6.1347942
vn -0.4082483 -0.8164966 -0.4082483
v -25.8377953 5.8057189 -7.6518030
vn -0.6666667 0.3333333 -0.6666667
v -25.8377953 6.8224659 -7.6518030
vn -0.3832576 0.3268169 -0.8638890
v -25.8377953 4.1013460 -7.6518030
vn 0.3468979 0.7461482 -0.5682647
v 26.8455486 4.1013460 -7.6518049
vn 0.7075285 0.0195666 -0.7064139
v 26.9398918 9.5889034 -7.4920115
vn -0.5525222 -0.0410619 -0.8324861
v -25.8377953 11.4646978 -7.4882331
vn -0.6666667 0.3333333 -0.6666667
v -25.8377953 14.9249945 -7.6518030
vn 0.4082483 -0.8164966 0.4082483
v 26.8455486 14.1026421 6.1347928
vn 0.6666667 0.3333333 0.6666667
v 26.8455486 14.9249945 6.1347928
vn -0.7054220 0.0335769 -0.7079919
v -25.8377953 17.6924229 -7.5388942
vn 0.7029027 -0.0882862 0.7057857
v 26.8455486 16.9186707 5.9675555
vn -0.5525309 0.0455656 0.8322459
v -25.8377953 20.4556255 5.9687805
vn -0.7067113 -0.0188163 0.7072518
v -25.9378948 23.0235329 5.9665370
vn 0.4082483 0.8164966 0.4082483
v 27.0362644 6.8224659 5.9351258
vn -0.4684914 0.8732962 -0.1336769
v -26.0238857 1.3396688 -7.6508441
vn -0.6551811 -0.3764274 -0.6550116
v -26.0285110 5.8057189 -7.4521370
vn -0.7273188 -0.5529045 0.4065759
v -25.8814621 5.8057189 5.9351258
vn -0.8322926 0.3584396 0.4228595
v -26.0285110 6.8224659 5.9351258
vn -0.4082483 0.8164966 -0.4082483
v -26.0285110 6.8224659 -7.4521370
vn -0.7782332 -0.0460355 -0.6262859
v -25.9417763 3.0787218 -7.4990296
vn -0.7053053 -0.0493752 0.7071821
v -25.8822327 3.0787215 6.0450029
vn -0.7072362 0.0447148 0.7055619
v -25.9405670 4.1013460 5.9810882
vn -0.8456737 0.4654952 -0.2610562
v -25.8816547 4.1013460 -7.4521370
vn 0.8002531 0.0174250 0.5994092
v 26.9227371 12.2426090 6.0301628
vn 0.8007042 -0.0006441 -0.5990596
v 26.9211044 11.5153427 -7.5453959
vn -0.9203390 0.1939706 -0.3396344
v -26.0285110 14.6508770 -7.4521370
vn 0.9203390 0.1939706 0.3396344
v 27.0362644 14.6508770 5.9351258
vn 0.9203390 -0.1939706 -0.3396344
v 27.0362644 14.3767576 -7.4521379
vn -0.7064120 -0.0068151 0.7077681
v -25.9075871 16.9659653 6.0220375
vn 0.7058650 -0.0043711 0.7083330
v 26.9150181 17.6451283 6.0216794
vn 0.7060592 -0.0340538 -0.7073335
v 26.9469872 17.6032810 -7.4843125
vn 0.8004990 -0.0085100 0.5992737
v 26.9172993 20.4094868 6.0242085
vn 0.8004673 0.0023565 -0.5993719
v 26.9139385 19.7469273 -7.5374885
vn 0.7057383 0.0060693 -0.7084466
v 26.9198742 22.3649025 -7.5440512
vn 0.6594275 0.6747680 -0.3314264
v 26.8455486 49.9839211 -7.4521379
vn -0.4019768 0.4367300 -0.8047867
v -25.8377953 49.9839211 -7.4521370
vn -0.6594275 0.6747680 0.3314264
v -25.8377953 49.9839211 5.9351258
vn 0.4019767 0.4367301 0.8047866
v 26.8455486 49.9839211 5.9351258
vn -0.5522546 0.0644253 0.8311824
v -25.8377953 47.8480721 5.9665909
vn 0.8039338 0.3105687 -0.5071859
v 26.8455486 39.6574135 -7.4521379
vn 0.7637782 -0.5057850 -0.4010293
v 26.8455486 38.8350601 -7.4521379
vn 0.6666667 -0.3333333 -0.6666667
v 26.8455486 38.8350601 -7.6518049
vn 0.4082483 0.8164966 -0.4082483
v 26.8455486 39.6574135 -7.6518049
vn -0.7600707 0.4406111 0.4776552
v -25.8377953 26.1508598 5.9351258
vn 0.6844112 0.5617110 0.4648248
v 26.8455486 26.1508617 5.9351258
vn 0.7068831 -0.0506957 0.7055114
v 26.9495296 27.8111382 5.9820185
vn 0.7052368 0.0435659 0.7076320
v 26.8891106 28.8337631 6.0437136
vn 0.6459994 -0.4058356 0.6465154
v 26.8455486 30.5381374 5.9351258
vn 0.5526606 -0.0337029 0.8327247
v 26.8455486 47.0484467 5.9704227
vn 0.8061596 -0.3023768 0.5086011
v 26.8455486 38.8350601 5.9351258
vn -0.7625948 -0.5090613 0.3991314
v -25.8377953 38.8350601 5.9351258
vn -0.8053162 0.3054270 0.5081144
v -25.8377953 39.6574135 5.9351258
vn 0.7622586 0.5096900 0.3989712
v 26.8455486 39.6574135 5.9351258
vn -0.7038252 0.0673547 0.7071729
v -25.8377953 42.4248390 5.9673572
vn 0.5525662 -0.0407897 0.8324703
v 26.8455486 44.4332085 5.9666939
vn -0.8001654 -0.0143985 0.5996066
v -25.9061852 44.4793472 6.0204768
vn 0.7070147 -0.0447954 0.7057787
v 26.9411011 33.3826294 5.9758320
vn 0.5956787 0.5140954 -0.6171489
v 26.8455486 26.1508598 -7.4521379
vn -0.6844118 0.5617090 -0.4648264
v -25.8377953 26.1508617 -7.4521370
vn 0.8246914 0.2197442 -0.5211493
v 26.9487362 28.8337631 -7.4521379
vn -0.6407649 -0.4217293 -0.6415332
v -25.8377953 30.5381374 -7.4521370
vn 0.7680767 0.2582227 -0.5859857
v 26.8455486 37.0256729 -7.4521379
vn -0.7613814 0.5114999 -0.3983294
v -25.8377953 37.0256729 -7.4521370
vn -0.8014051 -0.3194750 -0.5056537
v -25.8377953 38.8350601 -7.4521370
vn -0.7685984 0.4976202 -0.4020332
v -25.8377953 39.6574135 -7.4521370
vn 0.8001437 0.0185014 0.5995231
v 26.9137688 47.7991943 6.0202870
vn 0.7253395 -0.5562614 -0.4055316
v 26.8892155 30.5381374 -7.4521379
vn 0.6551811 -0.3764274 0.6550116
v 27.0362644 30.5381374 5.9351258
vn -0.9203389 -0.1939710 0.3396344
v -26.0285110 39.1091766 5.9351258
vn -0.5526606 -0.0337029 -0.8327247
v -25.8377953 47.0484467 -7.4874334
vn -0.8001437 0.0185013 -0.5995231
v -25.9060154 47.7991943 -7.5372977
vn 0.5639025 0.5579781 -0.6088303
v 26.8455486 31.5548840 -7.4521379
vn 0.8322926 0.3584396 -0.4228595
v 27.0362644 31.5548840 -7.4521379
vn 0.7446161 -0.0860914 -0.6619177
v 26.8899860 27.8111382 -7.5620141
vn -0.7070147 -0.0447952 -0.7057788
v -25.9333477 33.3826294 -7.4928427
vn 0.7055731 -0.0435927 -0.7072951
v 26.8841629 33.3826294 -7.5530314
vn -0.6666667 -0.3333333 0.6666667
v -25.8377953 38.8350601 6.1347942
vn -0.4082483 0.8164966 0.4082483
v -25.8377953 39.6574135 6.1347942
vn -0.5835659 0.5652885 -0.5830092
v -25.8377953 31.5548840 -7.4521370
vn -0.5639027 0.5579781 0.6088302
v -25.8377953 31.5548840 5.9351258
vn 0.5835659 0.5652885 0.5830092
v 26.8455486 31.5548840 5.9351258
vn -0.7075285 0.0195667 0.7064139
v -25.9321384 34.3213234 5.9749999
vn -0.7954347 -0.0464144 0.6042595
v -25.9133511 36.2477608 6.0283847
vn -0.7716812 -0.2409892 -0.5885850
v -25.8377953 36.1971169 -7.4521370
vn 0.7686058 -0.4981366 -0.4013790
v 26.8455486 36.1971169 -7.4521379
vn 0.6736028 -0.1714144 0.7189412
v 26.8455486 36.1971169 5.9712224
vn -0.7055731 -0.0435926 0.7072951
v -25.8764095 33.3826294 6.0360203
vn 0.6337502 -0.3072713 -0.7098909
v 26.8455486 30.5381374 -7.6518049
vn 0.4082483 0.8164966 -0.4082483
v 26.8455486 31.5548840 -7.6518049
vn -0.6711462 0.1926001 0.7158687
v -25.8377953 37.0256729 5.9723001
vn 0.7055925 0.0394507 0.7075189
v 26.8833790 34.3213234 6.0347314
vn 0.4082483 0.8164966 -0.4082483
v 26.8455486 37.0256729 -7.6518049
vn -0.6666667 0.3333333 -0.6666667
v -25.8377953 37.0256729 -7.6518030
vn -0.7997203 0.0028143 -0.6003662
v -25.9095459 45.1419067 -7.5412192
vn -0.5524551 -0.0496321 -0.8320637
v -25.8377953 44.4332085 -7.4837050
vn 0.4475058 0.8838476 -0.1362063
v 26.8455486 26.1299820 -7.6518049
vn -0.7064152 0.0132250 -0.7076742
v -25.9395752 41.7402306 -7.4845095
vn 0.7058506 -0.0447442 -0.7069462
v 26.8455486 41.6510887 -7.5392551
vn 0.4313397 0.5585368 -0.7085074
v 27.0362644 26.0035763 -7.4521379
vn 0.5526123 0.0354180 -0.8326856
v 26.8455486 45.1880455 -7.4857922
vn 0.7997880 -0.0019482 -0.6002794
v 26.9198742 47.0973244 -7.5440512
vn -0.4082483 -0.8164966 -0.4082483
v -25.8377953 38.8350601 -7.6518030
vn -0.7052904 0.0345259 -0.7080774
v -25.8756256 34.3213234 -7.5517421
vn -0.4320070 0.8916119 0.1356403
v -25.8377953 26.1299820 6.1347947
vn 0.7072378 0.6926561 0.1415706
v 26.8455486 26.1100521 6.1347933
vn -0.6337504 -0.3072714 0.7098907
v -25.8377953 30.5381374 6.1347942
vn 0.4082483 -0.8164966 0.4082483
v 26.8455486 30.5381374 6.1347928
vn 0.6666667 0.3333333 0.6666667
v 26.8455486 31.5548840 6.1347928
vn -0.4082483 0.8164966 0.4082483
v -25.8377953 31.5548840 6.1347942
vn -0.7072378 0.6926547 -0.1415779
v -25.8377953 26.1100502 -7.6518030
vn -0.4082483 -0.8164966 -0.4082483
v -25.8377953 30.5381374 -7.6518030
vn -0.6666667 0.3333333 -0.6666667
v -25.8377953 31.5548840 -7.6518030
vn -0.3832576 0.3268169 -0.8638890
v -25.8377953 28.8337631 -7.6518030
vn 0.3468979 0.7461482 -0.5682647
v 26.8455486 28.8337631 -7.6518049
vn 0.7070040 0.0451282 -0.7057683
v 26.9398918 34.3213234 -7.4920120
vn 0.6666667 -0.3333333 -0.6666667
v 26.8455486 36.1971169 -7.6518049
vn -0.4082483 -0.8164966 -0.4082483
v -25.8377953 36.1971169 -7.6518030
vn -0.6666667 0.3333333 -0.6666667
v -25.8377953 39.6574135 -7.6518030
vn 0.4082483 -0.8164966 0.4082483
v 26.8455486 38.8350601 6.1347928
vn 0.6666667 0.3333333 0.6666667
v 26.8455486 39.6574135 6.1347928
vn -0.7054219 0.0335768 -0.7079918
v -25.8377953 42.4248428 -7.5388942
vn 0.7029027 -0.0882859 0.7057857
v 26.8455486 41.6510887 5.9675560
vn -0.5526123 0.0354180 0.8326856
v -25.8377953 45.1880455 5.9687805
vn 0.5522546 0.0644252 -0.8311824
v 26.8455486 47.8480721 -7.4836025
vn 0.4501037 0.7719924 0.4488145
v 27.0362644 26.0706520 5.9351258
vn 0.4082483 0.8164966 0.4082483
v 27.0362644 31.5548840 5.9351258
vn -0.7012903 0.5084413 -0.4996793
v -26.0285110 26.0706501 -7.4521370
vn -0.8531251 0.4745650 0.2167158
v -25.9114819 25.2531223 5.9351258
vn -0.6551811 -0.3764274 -0.6550116
v -26.0285110 30.5381374 -7.4521370
vn -0.7273188 -0.5529046 0.4065759
v -25.8814621 30.5381374 5.9351258
vn -0.8322926 0.3584396 0.4228595
v -26.0285110 31.5548840 5.9351258
vn -0.4082483 0.8164966 -0.4082483
v -26.0285110 31.5548840 -7.4521370
vn -0.7782332 -0.0460355 -0.6262859
v -25.9417763 27.8111382 -7.4990296
vn -0.7053053 -0.0493752 0.7071820
v -25.8822327 27.8111382 6.0450029
vn -0.7072362 0.0447148 0.7055619
v -25.9405670 28.8337631 5.9810882
vn -0.8456737 0.4654952 -0.2610562
v -25.8816547 28.8337631 -7.4521370
vn -0.9349683 0.1148371 -0.3356290
v -26.0285110 36.7494888 -7.4521370
vn 0.7943206 0.0636394 0.6041563
v 26.9227371 36.9750290 6.0301628
vn 0.9348657 -0.1155468 -0.3356714
v 27.0362644 36.4733009 -7.4521379
vn -0.9203389 0.1939710 -0.3396344
v -26.0285110 39.3832970 -7.4521370
vn 0.9203390 0.1939710 0.3396344
v 27.0362644 39.3832970 5.9351258
vn 0.9203390 -0.1939710 -0.3396344
v 27.0362644 39.1091766 -7.4521379
vn -0.7064120 -0.0068148 0.7077681
v -25.9075871 41.6983833 6.0220380
vn 0.7058650 -0.0043707 0.7083330
v 26.9150181 42.3775482 6.0216794
vn 0.7060593 -0.0340537 -0.7073336
v 26.9469872 42.3357010 -7.4843125
vn 0.7997203 0.0028142 0.6003662
v 26.9172993 45.1419067 6.0242085
vn 0.8004673 0.0023565 -0.5993719
v 26.9139385 44.4793472 -7.5374885
vn -0.7997880 -0.0019482 0.6002794
v -25.9121208 47.0973244 6.0270395
# 218 vertices, 0 vertices normals


usemtl material_0
vt 0.0000000 0.5000000
vt -0.0000000 0.0000000
vt 0.1270540 -0.0000000
f 1/1/1 2/2/2 198/3/198
vt 0.1270540 0.5000000
f 1/1/1 198/3/198 3/4/3
vt 0.6177930 0.3811620
vt 0.6177930 0.5082160
vt 0.5975230 0.5082160
f 36/5/36 83/6/83 198/7/198
vt 0.5975230 0.3811620
f 36/5/36 198/7/198 2/8/2
vt 0.6177930 0.2541080
f 27/9/27 4/5/4 1/8/1
vt 0.5975230 0.2541080
f 27/9/27 1/8/1 3/10/3
vt 0.3149200 0.0000000
vt 0.3149200 0.5000000
vt 0.2946500 0.5000000
f 4/11/4 36/12/36 2/13/2
vt 0.2946500 0.0000000
f 4/11/4 2/13/2 1/14/1
vt 0.3351910 -0.0000000
vt 0.3351910 0.5000000
f 83/15/83 27/16/27 3/12/3
f 83/15/83 3/12/3 198/11/198
vt 0.8348170 0.0627320
vt 0.8348170 0.0705360
vt 0.8329220 0.0705360
f 5/17/5 6/18/6 7/19/7
vt 0.8329220 0.0627320
f 5/17/5 7/19/7 8/20/8
vt 0.3425690 0.5000000
vt 0.3425690 1.0000000
vt 0.3268120 1.0000000
f 9/21/9 10/22/10 11/23/11
vt 0.3268120 0.5000000
f 9/21/9 11/23/11 91/24/91
vt 0.3106360 0.5000000
vt 0.3106360 1.0000000
vt 0.2944610 1.0000000
f 92/25/92 12/26/12 13/27/13
vt 0.2944610 0.5000000
f 92/25/92 13/27/13 87/28/87
vt 0.2277650 1.0000000
vt 0.2277650 0.5000000
vt 0.2449370 0.5000000
f 54/29/54 94/30/94 15/31/15
vt 0.2449370 1.0000000
f 54/29/54 15/31/15 16/32/16
vt 0.4681980 0.5000000
vt 0.4681980 0.0000000
vt 0.4871190 -0.0000000
f 17/33/17 18/34/18 81/35/81
vt 0.4871200 0.5000000
f 17/33/17 81/35/81 99/36/99
vt 0.3923730 -0.0000000
vt 0.3923730 0.5000000
vt 0.3733130 0.5000000
f 19/37/19 100/38/100 20/39/20
vt 0.3733130 -0.0000000
f 19/37/19 20/39/20 21/40/21
vt 0.3583260 0.5000000
vt 0.3583260 1.0000000
f 23/41/23 24/42/24 90/22/90
f 23/41/23 90/22/90 39/21/39
f 25/24/25 93/23/93 26/26/26
f 25/24/25 26/26/26 33/25/33
vt 0.2621090 0.5000000
f 28/32/28 29/31/29 30/43/30
vt 0.2621090 1.0000000
f 28/32/28 30/43/30 6/44/6
vt 0.4492770 0.5000000
f 5/34/5 31/33/31 59/45/59
vt 0.4492770 -0.0000000
f 5/34/5 59/45/59 60/46/60
vt 0.4114340 0.0000000
vt 0.4114340 0.5000000
f 101/47/101 80/48/80 57/38/57
f 101/47/101 57/38/57 103/37/103
vt 0.6720030 0.6352700
vt 0.6720030 0.5082160
vt 0.6877600 0.5082160
f 10/49/10 23/50/23 39/51/39
vt 0.6877600 0.6352700
f 10/49/10 39/51/39 11/52/11
vt 0.6881790 0.0000000
vt 0.6881790 0.1270540
vt 0.6720030 0.1270540
f 12/53/12 25/54/25 33/55/33
vt 0.6720030 0.0000000
f 12/53/12 33/55/33 13/56/13
vt 0.8092030 0.6352700
vt 0.8073930 0.7623240
vt 0.8073930 0.6352700
f 13/57/13 33/58/33 34/59/34
vt 0.6546570 0.5082160
vt 0.6546570 0.3811620
vt 0.6718290 0.3811620
f 94/60/94 28/61/28 6/62/6
vt 0.6718290 0.5082160
f 94/60/94 6/62/6 15/63/15
vt 0.6367150 0.2541080
vt 0.6367150 0.3811620
f 18/64/18 5/65/5 60/5/60
f 18/64/18 60/5/60 81/9/81
vt 0.6165840 0.7623240
vt 0.6165840 0.8893780
vt 0.5975230 0.8893780
f 100/66/100 101/67/101 103/68/103
vt 0.5975230 0.7623240
f 100/66/100 103/68/103 20/69/20
vt 0.8329220 0.2643990
vt 0.8329220 0.2565940
vt 0.8347320 0.2565940
f 16/70/16 17/71/17 35/72/35
vt 0.6877600 0.7623240
vt 0.6720030 0.7623240
f 24/52/24 9/73/9 91/74/91
f 24/52/24 91/74/91 90/49/90
vt 0.6881790 0.2541080
vt 0.6720030 0.2541080
f 93/54/93 92/75/92 87/76/87
f 93/54/93 87/76/87 26/55/26
vt 0.6546570 0.6352700
f 29/77/29 54/60/54 16/63/16
vt 0.6718290 0.6352700
f 29/77/29 16/63/16 30/78/30
vt 0.6367150 0.1270540
vt 0.6177940 0.2541080
f 31/79/31 17/64/17 99/80/99
vt 0.6177940 0.1270540
f 31/79/31 99/80/99 59/81/59
vt 0.6368540 0.0000000
vt 0.6368540 0.1270540
vt 0.6177930 0.1270540
f 80/82/80 19/83/19 21/84/21
vt 0.6177930 0.0000000
f 80/82/80 21/84/21 57/85/57
vt 0.8310270 0.6232950
vt 0.8310270 0.6136450
vt 0.8328370 0.6136450
f 33/86/33 37/87/37 38/88/38
vt 0.8348170 0.0471220
vt 0.8348170 0.0549270
vt 0.8329220 0.0549270
f 17/89/17 16/90/16 42/91/42
vt 0.8329220 0.0471220
f 17/89/17 42/91/42 43/92/43
vt 0.6546570 0.2541080
f 44/55/44 45/76/45 51/93/51
vt 0.6546570 0.1270540
f 44/55/44 51/93/51 40/94/40
vt 0.6542010 0.7623240
vt 0.6542010 0.8893780
vt 0.6368540 0.8893780
f 46/95/46 37/96/37 41/97/41
vt 0.6368540 0.7623240
f 46/95/46 41/97/41 22/98/22
vt 0.1760730 0.5000000
vt 0.1760730 1.0000000
vt 0.1587270 1.0000000
f 37/99/37 44/100/44 40/101/40
vt 0.1587270 0.5000000
f 37/99/37 40/101/40 41/102/41
vt 0.1934200 0.5000000
vt 0.1934200 1.0000000
f 45/103/45 46/104/46 22/100/22
f 45/103/45 22/100/22 51/99/51
vt 0.6177930 0.8893780
vt 0.6177930 0.7623240
vt 0.6355960 0.7623240
f 63/105/63 48/106/48 49/107/49
vt 0.6355960 0.8893780
f 63/105/63 49/107/49 76/108/76
vt 0.6177930 0.6352700
vt 0.6355960 0.6352700
f 55/106/55 75/109/75 95/110/95
f 55/106/55 95/110/95 50/107/50
vt 0.0178030 1.0000000
vt 0.0178030 0.5000000
vt 0.0356050 0.5000000
f 75/111/75 63/112/63 76/113/76
vt 0.0356050 1.0000000
f 75/111/75 76/113/76 95/114/95
vt 0.0534080 0.5000000
f 48/114/48 55/113/55 50/115/50
vt 0.0534080 1.0000000
f 48/114/48 50/115/50 49/116/49
vt 0.8147360 0.2541080
vt 0.8165460 0.1270540
vt 0.8165460 0.2541080
f 23/117/23 10/118/10 58/119/58
vt 0.8329220 0.4781040
vt 0.8329220 0.4877540
vt 0.8310270 0.4877540
f 37/120/37 33/121/33 52/122/52
vt 0.8310270 0.4781040
f 37/120/37 52/122/52 53/123/53
vt 0.8147360 0.3811620
vt 0.8165460 0.3811620
f 28/124/28 94/119/94 95/125/95
vt 0.8237860 0.6352700
vt 0.8219760 0.7623240
vt 0.8219760 0.6352700
f 82/126/82 56/127/56 21/128/21
vt 0.8237860 0.7623240
vt 0.8219760 0.8893780
f 54/129/54 29/130/29 49/127/49
vt 0.1063770 0.5000000
vt 0.1063770 1.0000000
vt 0.0887210 1.0000000
f 82/131/82 102/132/102 32/133/32
vt 0.0887210 0.5000000
f 82/131/82 32/133/32 14/134/14
vt 0.1240340 0.5000000
vt 0.1240340 1.0000000
f 61/135/61 56/136/56 47/132/47
f 61/135/61 47/132/47 104/131/104
vt 0.6545110 0.2541080
vt 0.6545110 0.3811620
vt 0.6368540 0.3811620
f 102/137/102 61/138/61 104/139/104
vt 0.6368540 0.2541080
f 102/137/102 104/139/104 32/140/32
vt 0.6545110 0.5082160
vt 0.6545110 0.6352700
vt 0.6368540 0.6352700
f 56/141/56 82/142/82 14/143/14
vt 0.6368540 0.5082160
f 56/141/56 14/143/14 47/144/47
vt 0.7905740 -0.0000000
vt 0.7905740 0.5000000
vt 0.7886800 0.5000000
f 6/145/6 30/146/30 62/147/62
vt 0.7886800 -0.0000000
f 6/145/6 62/147/62 7/148/7
vt 0.8147360 0.5082160
vt 0.8165460 0.5082160
f 61/149/61 102/125/102 103/150/103
vt 0.5134580 0.0000000
vt 0.5049220 0.5000000
vt 0.5049220 0.0000000
f 64/151/64 65/152/65 66/153/66
vt 0.4383120 0.5000000
vt 0.4383120 1.0000000
vt 0.4286630 1.0000000
f 67/154/67 68/155/68 69/156/69
vt 0.4286630 0.5000000
f 67/154/67 69/156/69 70/157/70
vt 0.4479620 0.5000000
vt 0.4479620 1.0000000
f 52/158/52 71/159/71 72/155/72
f 52/158/52 72/155/72 53/154/53
vt 0.4189570 1.0000000
f 39/157/39 90/156/90 73/160/73
vt 0.4189570 0.5000000
f 39/157/39 73/160/73 74/161/74
vt 0.3898410 1.0000000
vt 0.3898410 0.5000000
vt 0.3995460 0.5000000
f 91/162/91 11/163/11 12/164/12
vt 0.3995460 1.0000000
f 91/162/91 12/164/12 92/165/92
vt 0.4939880 0.5000000
vt 0.4939880 1.0000000
vt 0.4850790 1.0000000
f 41/166/41 40/167/40 63/168/63
vt 0.4850790 0.5000000
f 41/166/41 63/168/63 75/169/75
vt 0.5028970 0.5000000
vt 0.5028970 1.0000000
f 51/170/51 22/171/22 55/167/55
f 51/170/51 55/167/55 48/166/48
vt 0.5298570 0.5000000
vt 0.5298570 -0.0000000
vt 0.5377200 -0.0000000
f 95/172/95 76/173/76 29/174/29
vt 0.5377200 0.5000000
f 95/172/95 29/174/29 28/175/28
vt 0.5298570 1.0000000
f 49/176/49 50/172/50 94/175/94
vt 0.5377200 1.0000000
f 49/176/49 94/175/94 54/177/54
vt 0.5455250 0.5000000
vt 0.5455250 -0.0000000
vt 0.5533300 -0.0000000
f 7/178/7 62/179/62 77/180/77
vt 0.5533300 0.5000000
f 7/178/7 77/180/77 8/181/8
vt 0.5455250 1.0000000
f 42/182/42 78/178/78 79/181/79
vt 0.5533300 1.0000000
f 42/182/42 79/181/79 43/183/43
vt 0.5758510 0.5000000
vt 0.5758510 -0.0000000
vt 0.5831950 -0.0000000
f 60/184/60 59/185/59 80/186/80
vt 0.5831950 0.5000000
f 60/184/60 80/186/80 101/187/101
vt 0.5758510 1.0000000
f 99/188/99 81/184/81 100/187/100
vt 0.5831950 1.0000000
f 99/188/99 100/187/100 19/189/19
vt 0.5975230 -0.0000000
vt 0.5975230 0.5000000
vt 0.5903590 0.5000000
f 21/190/21 20/191/20 102/192/102
vt 0.5903590 -0.0000000
f 21/190/21 102/192/102 82/193/82
vt 0.5975230 1.0000000
vt 0.5903590 1.0000000
f 103/191/103 57/194/57 56/195/56
f 103/191/103 56/195/56 61/192/61
vt 0.5685080 -0.0000000
vt 0.5685080 0.5000000
vt 0.5609190 0.5000000
f 14/196/14 32/197/32 27/198/27
vt 0.5609190 -0.0000000
f 14/196/14 27/198/27 83/199/83
vt 0.5685080 1.0000000
vt 0.5609190 1.0000000
f 104/197/104 47/200/47 36/201/36
f 104/197/104 36/201/36 4/198/4
vt 0.8329220 0.0861460
vt 0.8329220 0.0783410
vt 0.8348170 0.0783410
f 15/202/15 18/203/18 79/204/79
vt 0.8348170 0.0861460
f 15/202/15 79/204/79 78/205/78
vt 0.7716250 0.0000000
vt 0.7716250 0.5000000
vt 0.7697300 0.5000000
f 31/206/31 5/207/5 8/208/8
vt 0.7697300 0.0000000
f 31/206/31 8/208/8 77/209/77
vt 0.7526750 0.5000000
vt 0.7526750 -0.0000000
vt 0.7545700 -0.0000000
f 18/210/18 17/211/17 43/212/43
vt 0.7545700 0.5000000
f 18/210/18 43/212/43 79/213/79
vt 0.8310270 0.5070530
vt 0.8310270 0.4974040
vt 0.8329220 0.4974040
f 13/214/13 46/215/46 69/216/69
vt 0.8329220 0.5070530
f 13/214/13 69/216/69 68/217/68
vt 0.8329220 0.7621120
vt 0.8310270 0.7706480
vt 0.8310270 0.7621120
f 9/218/9 64/219/64 66/220/66
vt 0.7545700 1.0000000
vt 0.7564650 0.5000000
f 10/221/10 9/213/9 66/222/66
vt 0.7564650 1.0000000
f 10/221/10 66/222/66 65/223/65
vt 0.8329220 0.4588050
vt 0.8329220 0.4684550
vt 0.8310270 0.4684550
f 45/224/45 87/225/87 67/226/67
vt 0.8310270 0.4588050
f 45/224/45 67/226/67 70/227/70
vt 0.7394100 0.5000000
vt 0.7394100 -0.0000000
vt 0.7413050 -0.0000000
f 87/228/87 13/229/13 68/230/68
vt 0.7413050 0.5000000
f 87/228/87 68/230/68 67/231/67
vt 0.7564650 -0.0000000
vt 0.7583600 -0.0000000
f 46/222/46 45/232/45 70/233/70
vt 0.7583600 0.5000000
f 46/222/46 70/233/70 69/234/69
vt 0.8329220 0.4102780
vt 0.8310270 0.4199840
vt 0.8310270 0.4102780
f 25/235/25 39/236/39 74/237/74
vt 0.7394100 1.0000000
f 16/238/16 15/228/15 78/231/78
vt 0.7413050 1.0000000
f 16/238/16 78/231/78 42/239/42
vt 0.7754150 0.0000000
vt 0.7754150 0.5000000
vt 0.7735200 0.5000000
f 24/240/24 23/241/23 58/242/58
vt 0.7735200 0.0000000
f 24/240/24 58/242/58 85/243/85
vt 0.8329220 0.1017550
vt 0.8329220 0.0939500
vt 0.8348170 0.0939500
f 30/244/30 31/245/31 77/246/77
vt 0.8348170 0.1017550
f 30/244/30 77/246/77 62/247/62
vt 0.7754150 1.0000000
vt 0.7735200 1.0000000
f 93/241/93 25/248/25 74/249/74
f 93/241/93 74/249/74 73/242/73
vt 0.7943640 -0.0000000
vt 0.7943640 0.5000000
vt 0.7924700 0.5000000
f 33/250/33 26/251/26 71/252/71
vt 0.7924700 -0.0000000
f 33/250/33 71/252/71 52/253/52
vt 0.8310270 0.5263520
vt 0.8310270 0.5167030
vt 0.8329220 0.5167030
f 26/254/26 44/255/44 72/256/72
vt 0.8329220 0.5263520
f 26/254/26 72/256/72 71/257/71
vt 0.7773100 0.0000000
vt 0.7773100 0.5000000
f 44/258/44 37/259/37 53/241/53
f 44/258/44 53/241/53 72/240/72
vt 0.8310270 0.4491000
vt 0.8329220 0.4491000
f 90/227/90 93/260/93 73/261/73
vt 0.7124720 0.7623240
vt 0.7039360 0.8893780
vt 0.7039360 0.7623240
f 65/262/65 58/263/58 10/264/10
vt 0.6978290 0.6352700
vt 0.6978290 0.7623240
vt 0.6881790 0.7623240
f 34/265/34 33/266/33 38/267/38
vt 0.6881790 0.6352700
f 34/265/34 38/267/38 84/268/84
vt 0.6978290 0.8893780
vt 0.6881790 0.8893780
f 86/266/86 87/269/87 88/270/88
f 86/266/86 88/270/88 89/267/89
vt 0.6881790 0.3811620
vt 0.6978840 0.2541080
f 90/271/90 91/75/91 92/272/92
vt 0.6978840 0.3811620
f 90/271/90 92/272/92 93/273/93
vt 0.6978840 0.1270540
f 11/75/11 39/54/39 25/274/25
f 11/75/11 25/274/25 12/272/12
vt 0.7128450 0.6352700
vt 0.7128450 0.7623240
f 40/275/40 51/276/51 48/264/48
vt 0.7039360 0.6352700
f 40/275/40 48/264/48 63/277/63
vt 0.7128450 0.5082160
f 22/278/22 41/275/41 75/277/75
vt 0.7039360 0.5082160
f 22/278/22 75/277/75 55/279/55
vt 0.8147360 0.6352700
f 37/280/37 46/149/46 84/150/84
vt 0.8165460 0.6352700
f 37/280/37 84/150/84 38/281/38
vt 0.8329220 0.2722040
vt 0.8347320 0.2643990
f 6/282/6 5/70/5 98/283/98
vt 0.8165460 0.7623240
vt 0.8147360 0.7623240
f 15/281/15 6/284/6 98/285/98
f 15/281/15 98/285/98 97/280/97
vt 0.8165460 0.8893780
vt 0.8147360 0.8893780
f 81/284/81 60/286/60 101/287/101
f 81/284/81 101/287/101 100/285/100
vt 0.8255970 0.0000000
vt 0.8255970 0.1270540
vt 0.8237860 0.1270540
f 17/288/17 31/289/31 96/290/96
vt 0.8237860 0.0000000
f 17/288/17 96/290/96 35/291/35
vt 0.8183560 0.1270540
f 20/292/20 103/119/103 102/118/102
vt 0.8237870 0.2541080
vt 0.8237870 0.1270540
f 47/293/47 14/294/14 83/289/83
vt 0.8255970 0.2541080
f 47/293/47 83/289/83 36/295/36
vt 0.8183560 0.2541080
f 5/125/5 18/119/18 97/296/97
vt 0.8183560 0.3811620
f 5/125/5 97/296/97 98/297/98
vt 0.8255970 0.3811620
vt 0.8237860 0.3811620
f 9/295/9 24/298/24 85/299/85
vt 0.8237860 0.2541080
f 9/295/9 85/299/85 64/300/64
vt 0.8347320 0.2722040
vt 0.8347320 0.2800080
vt 0.8329220 0.2800080
f 18/301/18 15/302/15 97/303/97
vt 0.8237870 0.7623240
vt 0.8255970 0.6352700
vt 0.8255970 0.7623240
f 26/304/26 87/305/87 86/306/86
vt 0.8328370 0.6232950
vt 0.8328370 0.6329440
vt 0.8310270 0.6329440
f 46/307/46 13/308/13 34/309/34
f 46/307/46 34/309/34 84/86/84
vt 0.8255970 0.8893780
vt 0.8237860 0.8893780
f 45/306/45 44/310/44 89/311/89
f 45/306/45 89/311/89 88/129/88
vt 0.8274070 0.0000000
f 30/289/30 16/288/16 35/312/35
vt 0.8274070 0.1270540
f 30/289/30 35/312/35 96/313/96
vt 0.8274070 0.2541080
vt 0.8274070 0.3811620
f 57/298/57 21/314/21 56/315/56
vt 0.8183560 0.5082160
f 4/281/4 27/150/27 32/316/32
vt 0.8183560 0.6352700
f 4/281/4 32/316/32 104/317/104
vt 0.8310270 0.6425940
f 87/318/87 45/309/45 88/308/88
vt 0.8274070 0.5082160
vt 0.8255970 0.5082160
f 19/315/19 80/319/80 59/320/59
f 19/315/19 59/320/59 99/298/99
vt 0.8274070 0.6352700
vt 0.8274070 0.7623240
f 76/306/76 49/321/49 29/322/29
vt 0.8183560 0.7623240
f 50/323/50 95/286/95 94/284/94
vt 0.8347320 0.2878130
vt 0.8329220 0.2878130
f 31/302/31 30/324/30 96/325/96
vt 0.8328370 0.6425940
vt 0.8328370 0.6522440
vt 0.8310270 0.6522440
f 44/326/44 26/327/26 86/328/86
f 44/326/44 86/328/86 89/318/89
vt 0.2541080 -0.0000000
f 105/4/105 106/3/106 107/329/107
vt 0.2541080 0.5000000
f 105/4/105 107/329/107 108/330/108
f 141/84/141 109/9/109 107/10/107
vt 0.5975230 0.1270540
f 141/84/141 107/10/107 106/331/106
f 136/85/136 194/84/194 105/331/105
f 136/85/136 105/331/105 108/190/108
vt 0.2743790 -0.0000000
vt 0.2743790 0.5000000
f 194/332/194 141/333/141 106/330/106
f 194/332/194 106/330/106 105/329/105
f 109/14/109 136/13/136 108/333/108
f 109/14/109 108/333/108 107/332/107
f 110/90/110 111/17/111 112/20/112
f 110/90/110 112/20/112 113/91/113
vt 0.3740840 0.5000000
vt 0.3740840 1.0000000
f 114/334/114 115/335/115 116/42/116
f 114/334/114 116/42/116 204/41/204
vt 0.2782850 0.5000000
vt 0.2782850 1.0000000
f 205/336/205 117/337/117 118/44/118
f 205/336/205 118/44/118 200/43/200
vt 0.2105920 0.5000000
vt 0.2105920 1.0000000
f 160/338/160 208/339/208 120/104/120
f 160/338/160 120/104/120 121/103/121
vt 0.4303550 0.0000000
vt 0.4303550 0.5000000
f 122/340/122 123/341/123 192/48/192
f 122/340/122 192/48/192 213/47/213
vt 0.3542520 0.0000000
vt 0.3542520 0.5000000
f 124/342/124 214/343/214 125/16/125
f 124/342/124 125/16/125 126/15/126
f 128/163/128 129/162/129 203/335/203
f 128/163/128 203/335/203 144/334/144
f 130/28/130 206/27/206 131/337/131
f 130/28/130 131/337/131 137/336/137
f 132/30/132 133/29/133 134/339/134
f 132/30/132 134/339/134 111/338/111
f 110/46/110 135/45/135 167/341/167
f 110/46/110 167/341/167 168/340/168
vt 0.3733120 -0.0000000
vt 0.3733120 0.5000000
f 215/344/215 191/345/191 165/343/165
f 215/344/215 165/343/165 217/342/217
vt 0.6877600 0.8893780
vt 0.6720030 0.8893780
f 115/73/115 128/346/128 144/347/144
f 115/73/115 144/347/144 116/74/116
vt 0.6720030 0.3811620
f 117/75/117 130/271/130 137/348/137
f 117/75/117 137/348/137 118/76/118
vt 0.8201660 0.1270540
f 118/349/118 137/296/137 138/292/138
vt 0.6718290 0.7623240
vt 0.6546570 0.7623240
f 208/78/208 132/350/132 111/351/111
f 208/78/208 111/351/111 120/77/120
vt 0.6367150 0.5082160
f 123/65/123 110/352/110 168/6/168
f 123/65/123 168/6/168 192/5/192
vt 0.6165830 0.5082160
vt 0.6165840 0.6352700
vt 0.5975230 0.6352700
f 214/353/214 215/354/215 217/355/217
f 214/353/214 217/355/217 125/7/125
vt 0.8329220 0.2331800
vt 0.8329220 0.2253750
vt 0.8347320 0.2253750
f 121/356/121 122/357/122 139/358/139
vt 0.7039360 -0.0000000
vt 0.7039360 0.1270540
f 129/359/129 114/360/114 204/54/204
f 129/359/129 204/54/204 203/53/203
vt 0.6881790 0.5082160
f 206/271/206 205/361/205 200/50/200
f 206/271/206 200/50/200 131/348/131
vt 0.6718290 0.8893780
vt 0.6546570 0.8893780
f 133/350/133 160/362/160 121/363/121
f 133/350/133 121/363/121 134/351/134
vt 0.6367150 0.6352700
f 135/352/135 122/364/122 213/109/213
f 135/352/135 213/109/213 167/6/167
vt 0.6165830 0.6352700
f 191/365/191 124/66/124 126/69/126
f 191/365/191 126/69/126 165/355/165
vt 0.8310270 0.6618930
f 137/366/137 142/328/142 143/327/143
vt 0.8348170 0.0393180
f 122/367/122 121/89/121 147/92/147
vt 0.8329220 0.0393180
f 122/367/122 147/92/147 148/368/148
f 149/76/149 150/348/150 157/61/157
f 149/76/149 157/61/157 145/93/145
f 151/56/151 142/55/142 146/94/146
vt 0.6546570 -0.0000000
f 151/56/151 146/94/146 127/369/127
vt 0.1413800 0.5000000
vt 0.1413800 1.0000000
f 142/370/142 149/371/149 145/136/145
f 142/370/142 145/136/145 146/135/146
f 150/102/150 151/101/151 127/371/127
f 150/102/150 127/371/127 157/370/157
f 173/94/173 152/93/152 153/140/153
f 173/94/173 153/140/153 154/83/154
f 161/369/161 185/94/185 155/83/155
f 161/369/161 155/83/155 156/82/156
vt 0.4871190 0.5000000
f 185/153/185 173/152/173 154/372/154
vt 0.4871200 0.0000000
f 185/153/185 154/372/154 155/373/155
vt 0.0000000 1.0000000
f 152/112/152 161/111/161 156/374/156
f 152/112/152 156/374/156 153/1/153
vt 0.8201660 0.5082160
f 128/317/128 115/316/115 195/375/195
vt 0.8201660 0.6352700
f 128/317/128 195/375/195 169/376/169
f 142/121/142 137/216/137 158/215/158
f 142/121/142 158/215/158 159/122/159
vt 0.8201660 0.7623240
f 132/323/132 208/376/208 209/377/209
vt 0.7792050 0.0000000
vt 0.7792050 0.5000000
f 133/378/133 132/379/132 162/259/162
f 133/378/133 162/259/162 163/258/163
vt 0.8292170 0.1270540
f 193/380/193 164/314/164 126/313/126
vt 0.8329220 0.7877190
vt 0.8329220 0.7962550
vt 0.8310270 0.7962550
f 128/381/128 1/382/1 166/383/166
vt 0.8310270 0.9614160
vt 0.8310270 0.9528800
vt 0.8328370 0.9528800
f 1/384/1 128/385/128 169/386/169
vt 0.8292170 0.2541080
vt 0.8292170 0.3811620
f 160/387/160 133/388/133 207/315/207
f 160/387/160 207/315/207 153/314/153
vt 0.0710640 0.5000000
vt 0.0710640 1.0000000
f 193/389/193 216/390/216 119/116/119
f 193/389/193 119/116/119 218/115/218
f 170/134/170 164/133/164 140/390/140
f 170/134/170 140/390/140 171/389/171
f 216/138/216 170/141/170 171/144/171
f 216/138/216 171/144/171 119/139/119
vt 0.6545110 0.7623240
f 164/142/164 193/391/193 218/98/218
f 164/142/164 218/98/218 140/143/140
vt 0.7981540 -0.0000000
vt 0.7981540 0.5000000
vt 0.7962590 0.5000000
f 111/392/111 134/393/134 172/394/172
vt 0.7962590 -0.0000000
f 111/392/111 172/394/172 112/395/112
vt 0.8183560 0.8893780
vt 0.8201660 0.8893780
f 170/396/170 216/377/216 217/397/217
vt 0.4576110 0.5000000
vt 0.4576110 1.0000000
f 176/398/176 177/399/177 178/159/178
f 176/398/176 178/159/178 179/158/179
vt 0.4672610 0.5000000
vt 0.4672610 1.0000000
f 158/400/158 181/401/181 182/399/182
f 158/400/158 182/399/182 159/398/159
vt 0.4092520 0.5000000
vt 0.4092520 1.0000000
f 144/402/144 203/403/203 183/165/183
f 144/402/144 183/165/183 184/164/184
f 204/161/204 116/160/116 117/403/117
f 204/161/204 117/403/117 205/402/205
vt 0.4761700 0.5000000
vt 0.4761700 1.0000000
f 146/404/146 145/405/145 173/401/173
f 146/404/146 173/401/173 185/400/185
f 157/169/157 127/168/127 161/405/161
f 157/169/157 161/405/161 152/404/152
vt 0.5219930 0.5000000
f 186/173/186 187/172/187 163/406/163
vt 0.5219930 -0.0000000
f 186/173/186 163/406/163 162/407/162
vt 0.5219930 1.0000000
f 153/172/153 156/176/156 208/408/208
f 153/172/153 208/408/208 160/406/160
f 112/179/112 172/178/172 188/175/188
vt 0.5377210 -0.0000000
f 112/179/112 188/175/188 113/409/113
vt 0.5377210 1.0000000
f 147/178/147 189/182/189 190/410/190
vt 0.5377210 0.5000000
f 147/178/147 190/410/190 148/411/148
f 168/197/168 167/196/167 191/185/191
f 168/197/168 191/185/191 215/184/215
f 213/200/213 192/197/192 214/184/214
f 213/200/213 214/184/214 124/188/124
f 126/193/126 125/192/125 216/187/216
f 126/193/126 216/187/216 193/186/193
f 217/192/217 165/195/165 164/189/164
f 217/192/217 164/189/164 170/187/170
f 218/199/218 119/198/119 136/181/136
f 218/199/218 136/181/136 109/180/109
f 171/198/171 140/201/140 141/183/141
f 171/198/171 141/183/141 194/181/194
f 120/203/120 123/19/123 190/18/190
f 120/203/120 190/18/190 189/204/189
vt 0.8310270 0.8218610
vt 0.8310270 0.8133260
vt 0.8329220 0.8133260
f 2/412/2 129/413/129 180/414/180
vt 0.7792050 1.0000000
vt 0.7773100 1.0000000
f 135/379/135 110/415/110 113/416/113
f 135/379/135 113/416/113 188/259/188
vt 0.7602550 1.0000000
vt 0.7602550 0.5000000
vt 0.7621500 0.5000000
f 123/417/123 122/418/122 148/419/148
vt 0.7621500 1.0000000
f 123/417/123 148/419/148 190/420/190
f 118/255/118 151/214/151 178/217/178
f 118/255/118 178/217/178 177/256/177
vt 0.8310270 0.8047900
f 3/421/3 115/383/115 175/382/175
vt 0.8329220 0.7706480
vt 0.8329220 0.7791840
vt 0.8310270 0.7791830
f 114/422/114 198/423/198 174/424/174
vt 0.7640450 0.5000000
vt 0.7640450 -0.0000000
vt 0.7659400 -0.0000000
f 115/425/115 114/426/114 174/427/174
vt 0.7659400 0.5000000
f 115/425/115 174/427/174 175/428/175
f 150/225/150 200/120/200 176/123/176
f 150/225/150 176/123/176 179/226/179
vt 0.8329220 0.0314540
vt 0.8348170 0.0314540
f 154/368/154 133/429/133 163/430/163
f 154/368/154 163/430/163 187/367/187
vt 0.7469900 0.5000000
vt 0.7469900 -0.0000000
vt 0.7488850 -0.0000000
f 200/431/200 118/432/118 177/433/177
vt 0.7488850 0.5000000
f 200/431/200 177/433/177 176/434/176
vt 0.7640450 1.0000000
f 151/435/151 150/425/150 179/428/179
vt 0.7659400 1.0000000
f 151/435/151 179/428/179 178/436/178
vt 0.8329220 0.4005730
vt 0.8310270 0.4005730
f 130/437/130 144/237/144 184/438/184
vt 0.7469900 1.0000000
f 121/439/121 120/431/120 189/434/189
vt 0.7488850 1.0000000
f 121/439/121 189/434/189 147/440/147
vt 0.8000490 -0.0000000
vt 0.8000490 0.5000000
f 155/441/155 154/442/154 187/393/187
f 155/441/155 187/393/187 186/392/186
vt 0.7829950 0.5000000
vt 0.7829950 1.0000000
vt 0.7811000 1.0000000
f 129/443/129 128/444/128 166/445/166
vt 0.7811000 0.5000000
f 129/443/129 166/445/166 180/446/180
vt 0.8329220 0.0939510
f 134/447/134 135/202/135 188/205/188
vt 0.8348170 0.0939510
f 134/447/134 188/205/188 172/448/172
vt 0.7848900 0.0000000
vt 0.7848900 0.5000000
f 206/449/206 130/450/130 184/443/184
vt 0.7829950 0.0000000
f 206/449/206 184/443/184 183/451/183
vt 0.8348170 0.0000000
vt 0.8348170 0.0078640
vt 0.8329220 0.0078640
f 132/452/132 155/453/155 186/454/186
vt 0.8329220 0.0000000
f 132/452/132 186/454/186 162/455/162
vt 0.8019440 -0.0000000
vt 0.8019440 0.5000000
f 137/456/137 131/457/131 181/442/181
f 137/456/137 181/442/181 158/441/158
vt 0.8310270 0.5360020
f 131/458/131 149/254/149 182/257/182
vt 0.8329220 0.5360020
f 131/458/131 182/257/182 181/459/181
vt 0.7848900 1.0000000
f 149/450/149 142/460/142 159/444/159
f 149/450/149 159/444/159 182/443/182
vt 0.8310270 0.4393940
vt 0.8329220 0.4393940
f 203/260/203 206/461/206 183/462/183
vt 0.7135860 -0.0000000
vt 0.7135860 0.1270540
f 138/463/138 137/464/137 143/360/143
f 138/463/138 143/360/143 196/359/196
vt 0.7135860 0.2541080
vt 0.7039360 0.2541080
f 199/464/199 200/465/200 201/466/201
f 199/464/199 201/466/201 202/360/202
vt 0.6978840 0.5082160
vt 0.6978840 0.6352700
f 203/467/203 204/468/204 205/268/205
f 203/467/203 205/268/205 206/361/206
f 116/273/116 144/467/144 130/361/130
f 116/273/116 130/361/130 117/271/117
vt 0.7128450 0.3811620
f 145/469/145 157/278/157 152/279/152
vt 0.7039360 0.3811620
f 145/469/145 152/279/152 173/470/173
vt 0.7128450 0.2541080
f 127/471/127 146/469/146 185/470/185
f 127/471/127 185/470/185 161/466/161
vt 0.8201660 0.0000000
vt 0.8219760 0.0000000
f 142/349/142 151/472/151 196/473/196
vt 0.8219760 0.1270540
f 142/349/142 196/473/196 143/474/143
vt 0.8329220 0.2409850
vt 0.8347320 0.2331800
f 111/475/111 110/356/110 212/476/212
vt 0.8219760 0.2541080
vt 0.8201660 0.2541080
f 120/474/120 111/477/111 212/478/212
f 120/474/120 212/478/212 211/349/211
vt 0.8219760 0.3811620
vt 0.8201660 0.3811620
f 192/477/192 168/479/168 215/480/215
f 192/477/192 215/480/215 214/478/214
f 119/479/119 171/375/171 136/480/136
vt 0.8292170 0.5082160
f 122/388/122 135/481/135 210/319/210
f 122/388/122 210/319/210 139/315/139
vt 0.8219760 0.5082160
f 125/482/125 217/376/217 216/375/216
vt 0.8292170 0.6352700
f 140/321/140 218/481/218 141/483/141
f 110/377/110 123/376/123 211/128/211
f 110/377/110 211/128/211 212/127/212
vt 0.8292170 0.7623240
f 114/483/114 129/484/129 197/322/197
f 114/483/114 197/322/197 198/321/198
vt 0.8347320 0.2409850
vt 0.8347320 0.2487900
vt 0.8329220 0.2487900
f 123/485/123 120/486/120 211/487/211
vt 0.8328370 0.9016670
vt 0.8328370 0.9102030
vt 0.8310270 0.9102030
f 129/488/129 2/489/2 197/490/197
vt 0.8310270 0.1270540
vt 0.8310270 0.2541080
f 131/387/131 200/491/200 199/492/199
vt 0.8328370 0.6618930
vt 0.8328370 0.6715430
vt 0.8310270 0.6715430
f 151/493/151 118/494/118 138/495/138
f 151/493/151 138/495/138 196/366/196
vt 0.8328370 0.9187380
vt 0.8310270 0.9187380
f 115/489/115 3/496/3 195/497/195
vt 0.8310270 0.3811620
f 150/492/150 149/498/149 202/388/202
f 150/492/150 202/388/202 201/387/201
f 134/481/134 121/388/121 139/498/139
vt 0.8310270 0.5082160
f 134/481/134 139/498/139 210/499/210
vt 0.8310270 0.6352700
vt 0.8310270 0.7623240
f 165/484/165 126/500/126 164/501/164
f 194/474/194 136/291/136 171/290/171
vt 0.8310270 0.6811920
f 200/502/200 150/495/150 201/494/201
vt 0.8310270 0.8893780
vt 0.8292170 0.8893780
f 124/501/124 191/503/191 167/504/167
f 124/501/124 167/504/167 213/484/213
vt 0.8347320 0.1939210
vt 0.8347320 0.2017850
vt 0.8329220 0.2017850
f 133/505/133 154/506/154 207/507/207
vt 0.8328370 0.0000000
vt 0.8310270 0.0000000
f 109/508/109 141/491/141 218/509/218
vt 0.8328370 0.1270540
vt 0.8328370 0.2541080
f 154/492/154 153/510/153 207/511/207
f 156/300/156 155/299/155 209/479/209
f 156/300/156 209/479/209 208/477/208
vt 0.8347320 0.2487890
f 135/512/135 134/72/134 210/71/210
vt 0.8329220 0.2175120
vt 0.8347320 0.2175120
f 155/357/155 132/513/132 209/514/209
vt 0.8328370 0.6811920
vt 0.8328370 0.6908420
vt 0.8310270 0.6908420
f 149/515/149 131/516/131 199/517/199
f 149/515/149 199/517/199 202/502/202
# 425 faces, 517 coords texture

# End of File
