# Blender 5.1.1
# www.blender.org
mtllib building6Low.mtl
o building6
v -7.553102 15.053101 -7.500001
v -7.553103 0.053101 -7.500000
v -7.551118 0.053103 7.502808
v -7.551118 15.053102 7.502806
v -7.553102 30.053102 -7.500002
v -7.551118 30.053102 7.502805
v -7.553102 45.053101 -7.500003
v -7.551118 45.053101 7.502804
v -7.553102 60.053101 -7.500005
v -7.551118 60.053101 7.502802
v -7.553102 75.053101 -7.500006
v -7.551118 75.053101 7.502801
v -7.553102 90.053101 -7.500007
v -7.551118 90.053101 7.502800
v -7.553102 105.053101 -7.500008
v -7.551118 105.053101 7.502799
v 7.369456 0.053103 7.500000
v 7.448882 15.053102 7.502805
v 7.448882 30.053102 7.502804
v 7.369455 45.053101 7.499997
v 7.448882 60.053101 7.502801
v 7.369455 75.053101 7.499994
v 7.369455 90.053101 7.499993
v 7.448882 105.053101 7.502798
v 7.369454 15.053101 -7.500001
v 7.416565 0.053101 -7.484240
v 7.416565 30.053102 -7.484241
v 7.416565 45.053101 -7.484242
v 7.416565 60.053101 -7.484244
v 7.416565 75.053101 -7.484245
v 7.416565 90.053101 -7.484246
v 7.416565 105.053101 -7.484247
vn -0.7071 0.0002 -0.7072
vn -0.4469 -0.0005 -0.8946
vn -0.8943 -0.0002 0.4474
vn -0.7070 -0.0000 0.7072
vn -0.7068 -0.0000 -0.7074
vn -0.7071 -0.0000 0.7072
vn -0.6665 0.6668 -0.3335
vn -0.4082 0.4083 0.8165
vn 0.4468 -0.0024 0.8946
vn 0.7081 -0.0005 0.7061
vn 0.7084 0.0008 0.7058
vn 0.7066 -0.0001 0.7076
vn 0.7073 -0.0000 0.7069
vn 0.7065 0.0012 0.7077
vn 0.7060 -0.0013 0.7082
vn 0.6674 0.6656 0.3341
vn 0.7057 -0.0000 -0.7085
vn 0.8941 -0.0015 -0.4479
vn 0.7072 0.0008 -0.7070
vn 0.7081 -0.0009 -0.7061
vn 0.7072 0.0009 -0.7070
vn 0.7086 -0.0000 -0.7056
vn 0.4087 0.4079 -0.8165
vt 0.000000 0.000000
vt 0.167985 0.000000
vt 0.167985 0.168016
vt 0.000000 0.168016
vt 0.335970 0.168016
vt 0.335970 0.336033
vt 0.167985 0.336033
vt 0.000000 0.336033
vt 0.167985 0.504049
vt 0.000000 0.504049
vt 0.335970 0.000000
vt 0.503955 0.000000
vt 0.503955 0.168016
vt 0.503955 0.336033
vt 0.503955 0.504049
vt 0.335970 0.504049
vt 0.671795 0.336033
vt 0.835894 0.336067
vt 0.835901 0.503162
vt 0.671795 0.504018
vt 0.332084 0.504049
vt 0.496183 0.504083
vt 0.496183 0.672068
vt 0.332084 0.672034
vt 0.671795 0.000000
vt 0.835894 0.000034
vt 0.835894 0.168019
vt 0.671802 0.167095
vt 0.671802 0.168019
vt 0.835901 0.168059
vt 0.835901 0.335154
vt 0.671795 0.336004
vt 0.332084 0.504083
vt 0.332084 0.672068
vt 0.167992 0.671145
vt 0.835901 0.168019
vt 1.000000 0.168059
vt 1.000000 0.335154
vt 0.835901 0.335114
vt 0.835894 0.504052
vt 0.835901 0.671147
vt 0.671795 0.672003
vt 0.835894 0.000496
vt 0.999956 0.000000
vt 0.999993 0.167645
vt 0.835894 0.167614
vt 0.503955 0.672003
vt 0.668092 0.672562
vt 0.668092 0.839679
vt 0.503993 0.839648
vt 0.496183 0.672136
vt 0.496183 0.839781
vt 0.332084 0.839713
vt 0.668092 0.672003
vt 0.832191 0.672071
vt 0.832191 0.839716
vt 0.668092 0.839648
vt 0.832191 0.672003
vt 0.996290 0.672071
vt 0.996290 0.839716
vt 0.832191 0.839648
vt 0.167985 0.672068
vt 0.332084 0.672136
vt 0.332084 0.839781
vt 0.167985 0.839713
vt 0.000000 0.672035
vt 0.164099 0.672102
vt 0.164099 0.839748
vt 0.000000 0.839680
vt 0.167985 0.167985
vt 0.167985 0.000177
vt -0.000000 0.335856
vt 0.671764 0.504018
vt 0.503955 0.504018
vt 0.671795 0.168016
vt 0.671764 0.336002
vt 0.503955 0.336002
vt 0.503955 0.168017
vt 0.671764 0.336033
vt 0.167809 0.504049
vt 0.167809 0.672034
vt 0.000000 0.672034
vt 0.671764 0.167985
vt 0.503955 0.167985
vt 0.998579 0.504040
vt 0.836072 0.503678
vt 0.835901 0.336033
vt 0.998579 0.336055
s 1
usemtl material_0
f 1/1/1 2/2/2 3/3/3
f 1/1/1 3/3/3 4/4/4
f 5/3/5 1/5/1 4/6/4
f 5/3/5 4/6/4 6/7/6
f 7/8/5 5/7/5 6/9/6
f 7/8/5 6/9/6 8/10/4
f 9/11/5 7/12/5 8/13/4
f 9/11/5 8/13/4 10/5/4
f 11/6/5 9/14/5 10/15/4
f 11/6/5 10/15/4 12/16/4
f 13/7/5 11/6/5 12/16/4
f 13/7/5 12/16/4 14/9/4
f 15/5/7 13/13/5 14/14/4
f 15/5/7 14/14/4 16/6/8
f 4/17/4 3/18/3 17/19/9
f 4/17/4 17/19/9 18/20/10
f 6/21/6 4/22/4 18/23/10
f 6/21/6 18/23/10 19/24/11
f 8/25/4 6/26/6 19/27/11
f 8/25/4 19/27/11 20/28/12
f 10/29/4 8/30/4 20/31/12
f 10/29/4 20/31/12 21/32/13
f 12/9/4 10/33/4 21/34/13
f 12/9/4 21/34/13 22/35/14
f 14/36/4 12/37/4 22/38/14
f 14/36/4 22/38/14 23/39/15
f 16/20/8 14/40/4 23/41/15
f 16/20/8 23/41/15 24/42/16
f 25/43/17 26/44/18 2/45/2
f 25/43/17 2/45/2 1/46/1
f 27/47/19 25/48/17 1/49/1
f 27/47/19 1/49/1 5/50/5
f 28/34/20 27/51/19 5/52/5
f 28/34/20 5/52/5 7/53/5
f 29/54/21 28/55/20 7/56/5
f 29/54/21 7/56/5 9/57/5
f 30/58/22 29/59/21 9/60/5
f 30/58/22 9/60/5 11/61/5
f 31/62/20 30/63/22 11/64/5
f 31/62/20 11/64/5 13/65/5
f 32/66/23 31/67/20 13/68/5
f 32/66/23 13/68/5 15/69/7
f 18/5/10 17/70/9 26/71/18
f 18/5/10 26/71/18 25/11/17
f 19/4/11 18/3/10 25/7/17
f 19/4/11 25/7/17 27/72/19
f 20/73/12 19/42/11 27/47/19
f 20/73/12 27/47/19 28/74/20
f 21/75/13 20/76/12 28/77/20
f 21/75/13 28/77/20 29/78/21
f 22/79/14 21/20/13 29/74/21
f 22/79/14 29/74/21 30/14/22
f 23/80/15 22/81/14 30/82/22
f 23/80/15 30/82/22 31/10/20
f 24/25/16 23/83/15 31/84/20
f 24/25/16 31/84/20 32/12/23
f 24/85/16 32/86/23 15/87/7
f 24/85/16 15/87/7 16/88/8
