####
#
# OBJ File Generated by Meshlab
#
####
# Object building1Low.obj
#
# Vertices: 154
# Faces: 113
#
####
mtllib ./building1Low.obj.mtl

vn -0.5345227 0.8017837 -0.2672610
v 21.6995754 62.4858818 14.1503515
vn -0.2672610 0.8017837 0.5345227
v 21.6995640 62.4858818 -12.9853954
vn -0.6666666 0.6666667 0.3333336
v 21.6995640 62.2067223 -12.9853954
vn -0.4082487 0.4082483 -0.8164964
v 21.6995754 62.2067223 14.1503515
vn 0.8944274 0.0000000 0.4472132
v 22.1617146 0.0044210 14.6124907
vn 0.4472132 0.0000000 -0.8944274
v 22.1617031 0.0044210 -13.4475327
vn 0.5345224 0.8017837 -0.2672615
v 22.1617031 62.4858818 -13.4475327
vn 0.2672615 0.8017837 0.5345224
v 22.1617146 62.4858818 14.6124907
vn -0.8944274 0.0000000 -0.4472132
v -22.6021538 0.0044210 -13.4475145
vn -0.4472132 0.0000000 0.8944274
v -22.6021423 0.0044210 14.6125107
vn -0.5345224 0.8017837 0.2672615
v -22.6021423 62.4858818 14.6125107
vn -0.2672614 0.8017837 -0.5345224
v -22.6021538 62.4858818 -13.4475145
vn 0.2672610 0.8017837 -0.5345227
v -22.1400032 62.4858818 14.1503735
vn 0.5345227 0.8017837 0.2672610
v -22.1400146 62.4858818 -12.9853783
vn 0.6666665 0.6666667 -0.3333336
v -22.1400032 62.2067223 14.1503735
vn 0.4082486 0.4082483 0.8164964
v -22.1400146 62.2067223 -12.9853783
vn 0.0000000 0.0000000 -1.0000000
v -21.7296448 62.0524254 -12.6500969
vn 0.0000000 0.0000000 -1.0000000
v -21.7296448 63.5075874 -12.6500969
vn 0.0000000 0.0000000 -1.0000000
v -19.0899887 63.5075874 -12.6500969
vn 0.0000000 0.0000000 -1.0000000
v -19.0899887 62.0524254 -12.6500969
vn 0.0000000 0.0000000 1.0000000
v -19.0899887 62.0524254 -11.1949368
vn 0.0000000 0.0000000 1.0000000
v -19.0899887 63.5075874 -11.1949368
vn 0.0000000 0.0000000 1.0000000
v -21.7296448 63.5075874 -11.1949368
vn 0.0000000 0.0000000 1.0000000
v -21.7296448 62.0524254 -11.1949368
vn 0.0000000 0.0000000 -1.0000000
v -19.0899887 62.0524254 -12.6500969
vn 0.0000000 0.0000000 -1.0000000
v -19.0899887 63.5075874 -12.6500969
vn 0.0000000 0.0000000 -1.0000000
v -16.4503307 63.5075874 -12.6500969
vn 0.0000000 0.0000000 -1.0000000
v -16.4503307 62.0524254 -12.6500969
vn 0.0000000 0.0000000 1.0000000
v -16.4503307 62.0524254 -11.1949368
vn 0.0000000 0.0000000 1.0000000
v -16.4503307 63.5075874 -11.1949368
vn 0.0000000 0.0000000 1.0000000
v -19.0899887 63.5075874 -11.1949368
vn 0.0000000 0.0000000 1.0000000
v -13.8106737 62.0524254 -11.1949368
vn 0.0000000 0.0000000 1.0000000
v -13.8106737 63.5075874 -11.1949368
vn 0.0000000 0.0000000 1.0000000
v -16.4503307 63.5075874 -11.1949368
vn 0.0000000 0.0000000 -1.0000000
v -13.8106737 62.0524254 -12.6500969
vn 0.0000000 0.0000000 -1.0000000
v -13.8106737 63.5075874 -12.6500969
vn 0.0000000 0.0000000 -1.0000000
v -11.1710176 63.5075874 -12.6500969
vn 0.0000000 0.0000000 -1.0000000
v -11.1710176 62.0524254 -12.6500969
vn 0.0000000 0.0000000 1.0000000
v -11.1710176 62.0524254 -11.1949368
vn 0.0000000 0.0000000 1.0000000
v -11.1710176 63.5075874 -11.1949368
vn 0.0000000 0.0000000 1.0000000
v -13.8106737 63.5075874 -11.1949368
vn 0.0000000 0.0000000 -1.0000000
v -11.1710176 62.0524254 -12.6500969
vn 0.0000000 0.0000000 -1.0000000
v -11.1710176 63.5075874 -12.6500969
vn 0.0000000 0.0000000 -1.0000000
v -8.5313597 63.5075874 -12.6500969
vn 0.0000000 0.0000000 -1.0000000
v -8.5313597 62.0524254 -12.6500969
vn 0.0000000 0.0000000 1.0000000
v -8.5313597 62.0524254 -11.1949368
vn 0.0000000 0.0000000 1.0000000
v -8.5313597 63.5075874 -11.1949368
vn 0.0000000 0.0000000 1.0000000
v -11.1710176 63.5075874 -11.1949368
vn 0.0000000 0.0000000 -1.0000000
v -8.5313597 62.0524254 -12.6500969
vn 0.0000000 0.0000000 -1.0000000
v -8.5313597 63.5075874 -12.6500969
vn 0.0000000 0.0000000 -1.0000000
v -5.8917031 63.5075874 -12.6500969
vn 0.0000000 0.0000000 -1.0000000
v -5.8917031 62.0524254 -12.6500969
vn 0.0000000 0.0000000 1.0000000
v -5.8917031 62.0524254 -11.1949368
vn 0.0000000 0.0000000 1.0000000
v -5.8917031 63.5075874 -11.1949368
vn 0.0000000 0.0000000 1.0000000
v -8.5313597 62.7800064 -11.1949368
vn 0.0000000 0.0000000 -1.0000000
v -5.8917031 62.0524254 -12.6500969
vn 0.0000000 0.0000000 -1.0000000
v -5.8917031 63.5075874 -12.6500969
vn 0.0000000 0.0000000 -1.0000000
v -3.2520461 62.7800064 -12.6500969
vn 0.0000000 0.0000000 1.0000000
v -3.2520461 62.0524254 -11.1949368
vn 0.0000000 0.0000000 1.0000000
v -3.2520461 63.5075874 -11.1949368
vn 0.0000000 0.0000000 1.0000000
v -5.8917031 62.7800064 -11.1949368
vn 0.0000000 0.0000000 1.0000000
v -0.6123880 62.0524254 -11.1949368
vn 0.0000000 0.0000000 1.0000000
v -0.6123880 63.5075874 -11.1949368
vn 0.0000000 0.0000000 1.0000000
v -3.2520440 63.5075874 -11.1949368
vn 0.0000000 0.0000000 1.0000000
v -3.2520440 62.0524254 -11.1949368
vn 0.0000000 0.0000000 -1.0000000
v -0.6123870 62.0524254 -12.6500969
vn 0.0000000 0.0000000 -1.0000000
v -0.6123870 63.5075874 -12.6500969
vn 0.0000000 0.0000000 -1.0000000
v 2.0272689 63.5075874 -12.6500969
vn 0.0000000 0.0000000 -1.0000000
v 2.0272689 62.0524254 -12.6500969
vn 0.0000000 0.0000000 1.0000000
v 2.0272689 62.0524254 -11.1949368
vn 0.0000000 0.0000000 1.0000000
v 2.0272689 63.5075874 -11.1949368
vn 0.0000000 0.0000000 1.0000000
v -0.6123870 63.5075874 -11.1949368
vn 0.0000000 0.0000000 1.0000000
v -0.6123870 62.0524254 -11.1949368
vn 0.0000000 0.0000000 -1.0000000
v 2.0272710 62.0524254 -12.6500969
vn 0.0000000 0.0000000 -1.0000000
v 2.0272710 63.5075874 -12.6500969
vn 0.0000000 0.0000000 -1.0000000
v 4.6669259 63.5075874 -12.6500969
vn 0.0000000 0.0000000 -1.0000000
v 4.6669259 62.0524254 -12.6500969
vn 0.0000000 0.0000000 1.0000000
v 4.6669259 62.0524254 -11.1949368
vn 0.0000000 0.0000000 1.0000000
v 4.6669259 63.5075874 -11.1949368
vn 0.0000000 0.0000000 1.0000000
v 2.0272710 63.5075874 -11.1949368
vn 0.0000000 0.0000000 1.0000000
v 2.0272710 62.0524254 -11.1949368
vn 0.0000000 0.0000000 -1.0000000
v 4.6669278 62.0524254 -12.6500969
vn 0.0000000 0.0000000 -1.0000000
v 4.6669278 63.5075874 -12.6500969
vn 0.0000000 0.0000000 -1.0000000
v 7.3065839 63.5075874 -12.6500969
vn 0.0000000 0.0000000 -1.0000000
v 7.3065839 62.0524254 -12.6500969
vn 0.0000000 0.0000000 1.0000000
v 7.3065839 62.0524254 -11.1949368
vn 0.0000000 0.0000000 1.0000000
v 7.3065839 63.5075874 -11.1949368
vn 0.0000000 0.0000000 1.0000000
v 4.6669278 63.5075874 -11.1949368
vn 0.0000000 0.0000000 1.0000000
v 4.6669278 62.0524254 -11.1949368
vn 0.0000000 0.0000000 -1.0000000
v 7.3065858 62.0524254 -12.6500969
vn 0.0000000 0.0000000 -1.0000000
v 7.3065858 63.5075874 -12.6500969
vn 0.0000000 0.0000000 -1.0000000
v 9.9462414 63.5075874 -12.6500969
vn 0.0000000 0.0000000 -1.0000000
v 9.9462414 62.0524254 -12.6500969
vn 0.0000000 0.0000000 1.0000000
v 9.9462414 62.0524254 -11.1949368
vn 0.0000000 0.0000000 1.0000000
v 9.9462414 63.5075874 -11.1949368
vn 0.0000000 0.0000000 1.0000000
v 7.3065858 63.5075874 -11.1949368
vn 0.0000000 0.0000000 1.0000000
v 7.3065858 62.0524254 -11.1949368
vn 0.0000000 0.0000000 -1.0000000
v 9.9462433 62.0524254 -12.6500969
vn 0.0000000 0.0000000 -1.0000000
v 9.9462433 63.5075874 -12.6500969
vn 0.0000000 0.0000000 -1.0000000
v 12.5859013 63.5075874 -12.6500969
vn 0.0000000 0.0000000 -1.0000000
v 12.5859013 62.0524254 -12.6500969
vn 0.0000000 0.0000000 1.0000000
v 12.5859013 62.0524254 -11.1949368
vn 0.0000000 0.0000000 1.0000000
v 12.5859013 63.5075874 -11.1949368
vn 0.0000000 0.0000000 1.0000000
v 9.9462433 63.5075874 -11.1949368
vn 0.0000000 0.0000000 1.0000000
v 9.9462433 62.0524254 -11.1949368
vn 0.0000000 0.0000000 -1.0000000
v 12.5859013 62.0524254 -12.6500969
vn 0.0000000 0.0000000 -1.0000000
v 12.5859013 63.5075874 -12.6500969
vn 0.0000000 0.0000000 -1.0000000
v 15.2255564 63.5075874 -12.6500969
vn 0.0000000 0.0000000 -1.0000000
v 15.2255564 62.0524254 -12.6500969
vn 0.0000000 0.0000000 1.0000000
v 15.2255564 62.0524254 -11.1949368
vn 0.0000000 0.0000000 1.0000000
v 15.2255564 63.5075874 -11.1949368
vn 0.0000000 0.0000000 1.0000000
v 12.5859013 63.5075874 -11.1949368
vn 0.0000000 0.0000000 -1.0000000
v 15.2255564 62.0524254 -12.6500969
vn 0.0000000 0.0000000 -1.0000000
v 15.2255564 63.5075874 -12.6500969
vn 0.0000000 0.0000000 -1.0000000
v 17.8652115 63.5075874 -12.6500969
vn 0.0000000 0.0000000 -1.0000000
v 17.8652115 62.0524254 -12.6500969
vn 0.0000000 0.0000000 1.0000000
v 17.8652115 62.0524254 -11.1949368
vn 0.0000000 0.0000000 1.0000000
v 17.8652115 63.5075874 -11.1949368
vn 0.0000000 0.0000000 1.0000000
v 15.2255564 63.5075874 -11.1949368
vn 0.0000000 0.0000000 -1.0000000
v 17.8652115 62.0524254 -12.6500969
vn 0.0000000 0.0000000 -1.0000000
v 17.8652115 63.5075874 -12.6500969
vn 0.0000000 0.0000000 -1.0000000
v 20.5048676 62.7800064 -12.6500969
vn 0.0000000 0.0000000 1.0000000
v 20.5048676 62.7800064 -11.1949368
vn 0.0000000 0.0000000 1.0000000
v 17.8652115 63.5075874 -11.1949368
vn 1.0000000 0.0000000 0.0000007
v -20.4200020 62.7800064 -11.1996660
vn 1.0000000 0.0000000 0.0000007
v -20.4200039 63.5075874 -8.5600080
vn 1.0000000 0.0000000 0.0000007
v -20.4200039 62.0524254 -8.5600080
vn -1.0000000 0.0000000 -0.0000007
v -21.7227001 62.0524254 -8.5600080
vn -1.0000000 0.0000000 -0.0000007
v -21.7227001 63.5075874 -8.5600080
vn -1.0000000 0.0000000 -0.0000007
v -21.7226982 62.7800064 -11.1996660
vn -0.7071071 0.0000000 -0.7071066
v -21.8370838 61.9757423 -8.6010284
vn -0.7071064 0.0000000 0.7071072
v -21.8370819 61.9757423 -4.5951438
vn -0.6666663 0.3333334 0.6666670
v -21.8370819 63.5491600 -4.5951438
vn -0.4082485 0.8164966 -0.4082481
v -21.8370838 63.5491600 -8.6010284
vn 0.4082486 0.8164966 0.4082481
v -18.7065277 63.5491600 -4.5951462
vn 0.6666664 0.3333333 -0.6666670
v -18.7065296 63.5491600 -8.6010294
vn 0.7071072 0.0000000 0.7071064
v -18.7065277 61.9757423 -4.5951462
vn 0.7071065 0.0000000 -0.7071071
v -18.7065296 61.9757423 -8.6010294
vn 0.7071063 0.0000000 0.7071072
v -18.7114525 61.8502235 0.3003470
vn 0.7071071 0.0000000 -0.7071065
v -18.7114506 61.8502235 -1.7288160
vn 0.6666670 0.3333335 -0.6666663
v -18.7114506 63.3966026 -1.7288160
vn 0.4082481 0.8164966 0.4082487
v -18.7114525 63.3966026 0.3003470
vn -0.4082482 0.8164965 -0.4082486
v -21.6142826 63.3966026 -1.7288160
vn -0.6666670 0.3333334 0.6666663
v -21.6142845 63.3966026 0.3003460
vn -0.7071065 0.0000000 -0.7071072
v -21.6142826 61.8502235 -1.7288160
vn -0.7071072 0.0000000 0.7071063
v -21.6142845 61.8502235 0.3003460
vn -0.7071071 0.0000000 -0.7071065
v -21.6142845 61.8502235 4.8436351
vn -0.7071066 0.0000000 0.7071069
v -21.6142845 61.8502235 6.8727970
vn -0.6666666 0.3333334 0.6666668
v -21.6142845 63.3966026 6.8727970
vn -0.4082485 0.8164965 -0.4082482
v -21.6142845 63.3966026 4.8436351
vn 0.4082484 0.8164966 0.4082483
v -18.7114525 63.3966026 6.8727961
vn 0.6666664 0.3333335 -0.6666669
v -18.7114525 63.3966026 4.8436332
vn 0.7071069 0.0000000 0.7071067
v -18.7114525 61.8502235 6.8727961
vn 0.7071066 0.0000000 -0.7071070
v -18.7114525 61.8502235 4.8436332
# 154 vertices, 0 vertices normals


usemtl material_0
vt 0.7127910 0.7171500
vt 0.7127910 0.5000000
vt 0.7150250 0.5000000
f 1/1/1 2/2/2 3/3/3
vt 0.7150250 0.7171500
f 1/1/1 3/3/3 4/4/4
vt 0.4490940 1.0000000
vt 0.2245470 1.0000000
vt 0.2245470 0.5000000
f 5/5/5 6/6/6 7/7/7
vt 0.4490940 0.5000000
f 5/5/5 7/7/7 8/8/8
vt 0.0000000 1.0000000
vt 0.0000000 0.5000000
f 9/6/9 10/9/10 11/10/11
f 9/6/9 11/10/11 12/7/12
vt 0.3582170 0.5000000
vt -0.0000000 0.0000000
f 10/11/10 5/10/5 8/12/8
vt 0.3582170 0.0000000
f 10/11/10 8/12/8 11/13/11
vt 0.7164340 0.5000000
f 6/14/6 9/11/9 12/13/12
vt 0.7164340 0.0000000
f 6/14/6 12/13/12 7/15/7
vt 0.6736410 0.7208490
vt 0.6736410 0.5036980
vt 0.6773390 0.5000000
f 13/16/13 14/17/14 12/18/12
vt 0.6773390 0.7245470
f 13/16/13 12/18/12 11/19/11
vt 0.6699420 0.5036980
vt 0.6699420 0.8545190
vt 0.6662440 0.8582170
f 14/20/14 2/21/2 7/22/7
vt 0.6662440 0.5000000
f 14/20/14 7/22/7 12/23/12
vt 0.6810370 0.5036980
vt 0.6810370 0.7208490
f 2/24/2 1/25/1 8/19/8
f 2/24/2 8/19/8 7/18/7
vt 0.6736400 0.5036980
vt 0.6736410 0.8545190
vt 0.6699420 0.8582170
f 1/26/1 13/27/13 11/28/11
vt 0.6699420 0.5000000
f 1/26/1 11/28/11 8/29/8
vt 0.6662440 0.8508210
vt 0.4490940 0.8508210
f 15/23/15 4/30/4 3/31/3
f 15/23/15 3/31/3 16/8/16
vt 0.7105570 0.7171500
vt 0.7105570 0.5000000
f 14/32/14 13/33/13 15/2/15
f 14/32/14 15/2/15 16/1/16
vt 0.7060890 0.8508210
vt 0.7060890 0.5000000
vt 0.7083230 0.5000000
f 13/34/13 1/35/1 4/36/4
vt 0.7083230 0.8508210
f 13/34/13 4/36/4 15/37/15
f 2/37/2 14/36/14 16/33/16
vt 0.7105570 0.8508210
f 2/37/2 16/33/16 3/38/3
vt 0.7280790 0.3380880
vt 0.7164340 0.3380880
vt 0.7164340 0.3169650
f 17/39/17 18/40/18 19/41/19
vt 0.7280790 0.3169650
f 17/39/17 19/41/19 20/42/20
vt 0.7280790 0.3592120
vt 0.7164340 0.3592120
f 21/43/21 22/44/22 23/40/23
f 21/43/21 23/40/23 24/39/24
vt 0.7280790 0.2747180
vt 0.7164340 0.2747180
vt 0.7164340 0.2535940
f 25/45/25 26/46/26 27/47/27
vt 0.7280790 0.2535940
f 25/45/25 27/47/27 28/48/28
vt 0.7280790 0.2958410
vt 0.7164340 0.2958410
f 29/49/29 30/50/30 31/46/31
f 29/49/29 31/46/31 21/45/21
f 32/42/32 33/41/33 34/50/34
f 32/42/32 34/50/34 29/49/29
vt 0.7280790 0.6760650
vt 0.7164340 0.6760650
vt 0.7164340 0.6549410
f 35/51/35 36/52/36 37/53/37
vt 0.7280790 0.6549410
f 35/51/35 37/53/37 38/54/38
vt 0.7280790 0.6971880
vt 0.7164340 0.6971880
f 39/55/39 40/56/40 41/52/41
f 39/55/39 41/52/41 32/51/32
vt 0.7280790 0.4014590
vt 0.7164340 0.4014590
vt 0.7164340 0.3803350
f 42/57/42 43/58/43 44/59/44
vt 0.7280790 0.3803350
f 42/57/42 44/59/44 45/60/45
vt 0.7280790 0.4225820
vt 0.7164340 0.4225820
f 46/61/46 47/62/47 48/58/48
f 46/61/46 48/58/48 39/57/39
vt 0.7280790 0.5915710
vt 0.7164340 0.5915710
vt 0.7164340 0.5704470
f 49/63/49 50/64/50 51/65/51
vt 0.7280790 0.5704470
f 49/63/49 51/65/51 52/66/52
vt 0.7280790 0.6126940
vt 0.7164340 0.6126940
f 53/67/53 54/68/54 55/64/55
vt 0.7164340 0.6338180
f 56/54/56 57/53/57 58/69/58
vt 0.7280790 0.7183120
vt 0.7164340 0.7183120
f 59/70/59 60/71/60 61/56/61
vt 0.7280790 0.8239290
vt 0.7164340 0.8239290
vt 0.7164340 0.8028060
f 62/72/62 63/73/63 64/74/64
vt 0.7280790 0.8028060
f 62/72/62 64/74/64 65/75/65
vt 0.7280790 0.8450530
vt 0.7164340 0.8450530
f 66/76/66 67/77/67 68/73/68
f 66/76/66 68/73/68 69/72/69
vt 0.7280790 0.8661760
vt 0.7164340 0.8661760
f 70/78/70 71/79/71 72/77/72
f 70/78/70 72/77/72 73/76/73
vt 0.7443170 0.0211240
vt 0.7326720 0.0211240
vt 0.7326720 -0.0000000
f 74/80/74 75/81/75 76/82/76
vt 0.7443170 -0.0000000
f 74/80/74 76/82/76 77/83/77
vt 0.7280790 0.8873000
vt 0.7164340 0.8873000
f 78/84/78 79/85/79 80/79/80
f 78/84/78 80/79/80 81/78/81
vt 0.7280790 0.9084230
vt 0.7164340 0.9084230
f 82/86/82 83/87/83 84/85/84
f 82/86/82 84/85/84 85/84/85
vt 0.7280790 0.9295470
vt 0.7164340 0.9295470
f 86/88/86 87/89/87 88/87/88
f 86/88/86 88/87/88 89/86/89
vt 0.7280790 0.7394350
vt 0.7164340 0.7394350
f 90/90/90 91/91/91 92/71/92
f 90/90/90 92/71/92 93/70/93
vt 0.7280790 0.7605590
vt 0.7164340 0.7605590
f 94/92/94 95/93/95 96/91/96
f 94/92/94 96/91/96 97/90/97
vt 0.7280790 0.4437060
vt 0.7164340 0.4437060
f 98/94/98 99/95/99 100/62/100
f 98/94/98 100/62/100 101/61/101
vt 0.7280790 0.4648290
vt 0.7164340 0.4648290
f 102/96/102 103/97/103 104/95/104
f 102/96/102 104/95/104 105/94/105
vt 0.7280790 0.9506700
vt 0.7164340 0.9506700
f 106/98/106 107/99/107 108/89/108
f 106/98/106 108/89/108 109/88/109
vt 0.7280790 0.9717940
vt 0.7164340 0.9717940
f 110/100/110 111/101/111 112/99/112
f 110/100/110 112/99/112 102/98/102
vt 0.7280790 0.4859530
vt 0.7164340 0.4859530
f 113/102/113 114/103/114 115/97/115
f 113/102/113 115/97/115 116/96/116
vt 0.7280790 0.9929170
vt 0.7164340 0.9929170
f 117/104/117 118/105/118 119/101/119
f 117/104/117 119/101/119 110/100/110
vt 0.7280790 0.5070760
vt 0.7164340 0.5070760
f 120/106/120 121/107/121 122/103/122
vt 0.7280790 0.5282000
vt 0.7164340 0.5070770
vt 0.7280790 0.5070770
f 123/108/123 124/109/124 117/110/117
vt 0.7280790 0.5493240
vt 0.7164340 0.5282000
f 125/111/125 126/112/126 127/108/127
vt 0.7164340 0.5493230
f 128/66/128 129/65/129 130/113/130
vt 0.7290250 0.0320570
vt 0.7290250 0.0641130
vt 0.7164340 0.0641130
f 131/114/131 132/115/132 133/116/133
vt 0.7164340 0.0320570
f 131/114/131 133/116/133 134/117/134
vt 0.7060890 0.5320570
vt 0.6810370 0.5320570
f 134/35/134 133/118/133 135/119/135
vt 0.6810370 0.5000000
f 134/35/134 135/119/135 136/120/136
vt 0.7290250 0.0000000
f 136/117/136 135/15/135 137/121/137
f 136/117/136 137/121/137 138/114/138
vt 0.7290250 0.1356240
vt 0.7164340 0.1356240
vt 0.7164340 0.1105720
f 131/122/131 134/123/134 136/124/136
vt 0.7290250 0.1105720
f 131/122/131 136/124/136 138/125/138
vt 0.7290250 0.1606760
f 133/123/133 132/122/132 137/126/137
vt 0.7164340 0.1606760
f 133/123/133 137/126/137 135/127/135
vt 0.7450470 0.3379760
vt 0.7450470 0.3542140
vt 0.7326720 0.3542140
f 139/128/139 140/129/140 141/130/141
vt 0.7326720 0.3379760
f 139/128/139 141/130/141 142/131/142
vt 0.7326720 0.1105720
vt 0.7164340 0.0873430
f 142/132/142 141/124/141 143/133/143
vt 0.7326720 0.0873430
f 142/132/142 143/133/143 144/134/144
vt 0.7326720 0.4029290
vt 0.7326720 0.3866910
vt 0.7450470 0.3866910
f 144/135/144 143/136/143 145/137/145
vt 0.7450470 0.4029290
f 144/135/144 145/137/145 146/138/146
vt 0.7288090 0.1839060
vt 0.7164340 0.1839060
f 139/139/139 142/140/142 144/127/144
vt 0.7288090 0.1606760
f 139/139/139 144/127/144 146/141/146
vt 0.7288090 0.2071350
f 141/140/141 140/139/140 145/142/145
vt 0.7164340 0.2071350
f 141/140/141 145/142/145 143/143/143
vt 0.7450470 0.3704530
vt 0.7326720 0.3704530
f 147/129/147 148/144/148 149/145/149
f 147/129/147 149/145/149 150/130/150
vt 0.7326720 0.0641130
f 150/116/150 149/146/149 151/134/151
f 150/116/150 151/134/151 152/133/152
f 152/136/152 151/145/151 153/144/153
f 152/136/152 153/144/153 154/137/154
vt 0.7288090 0.2303650
vt 0.7164340 0.2303650
f 147/147/147 150/148/150 152/143/152
f 147/147/147 152/143/152 154/142/154
vt 0.7288090 0.2535940
f 149/148/149 148/147/148 153/149/153
f 149/148/149 153/149/153 151/47/151
# 113 faces, 149 coords texture

# End of File
