# Blender 5.1.1
# www.blender.org
mtllib building3Low.mtl
o building3
v 11.798522 12.952722 -12.599094
v 11.798522 0.306264 -12.599093
v -0.836670 0.306264 -12.643071
v -0.836670 12.952722 -12.643072
v 11.798522 25.599180 -12.599095
v -0.836670 25.599178 -12.643073
v 11.798522 38.245636 -12.599096
v -0.836670 38.245636 -12.643074
v 11.798522 50.892094 -12.599097
v -0.836670 50.892094 -12.643075
v -13.483126 0.306264 -12.643078
v -13.483126 12.952722 -12.643079
v -13.482956 25.599178 -12.643837
v -13.483126 38.245636 -12.643081
v -13.483126 50.892094 -12.643082
v -13.482962 0.306265 0.002621
v -13.482962 12.952723 0.002620
v -13.482962 25.599180 0.002619
v -13.482962 38.245636 0.002618
v -13.482962 50.892094 0.002617
v -5.829505 50.892094 12.688755
v -5.829505 38.245636 12.688756
v -0.836682 38.245636 12.688759
v -0.836682 50.892094 12.688758
v -5.829505 12.952724 12.688758
v -5.829505 0.306266 12.688759
v -0.836682 0.306266 12.688762
v -0.836682 12.952724 12.688761
v -5.829374 25.599182 12.673093
v -0.836682 25.599182 12.688760
v 11.798510 12.952724 12.693816
v 11.798510 0.306266 12.693817
v 11.798515 0.306265 0.047362
v 11.798515 12.952723 0.047361
v 11.798510 25.599182 12.693815
v 11.798515 25.599180 0.047360
v 11.809773 38.245636 12.688766
v 11.798515 38.245636 0.047359
v 11.798510 50.892094 12.693813
v 11.798515 50.892094 0.047358
v -13.483031 0.306265 5.035104
v -13.483031 12.952723 5.035103
v -13.482965 25.599180 4.995424
v -13.483031 38.245636 5.035101
v -13.483031 50.892094 5.035100
v -13.245802 50.708157 -12.383361
v -0.847635 50.708157 -12.383354
v -0.847647 50.708157 12.451138
v -5.742446 50.708157 12.451136
v 11.539490 50.708157 -12.340240
v 11.539484 50.708157 0.057927
v 11.539478 50.708157 12.456095
v -13.245709 50.708157 4.947745
v -13.245642 50.708157 0.014064
v 7.940407 50.561665 9.833256
v 10.757992 50.561665 9.833257
v 10.757994 50.561665 7.631344
v 7.940408 50.561665 7.631343
v 7.752946 50.561665 6.271361
v 10.570531 50.561665 6.271362
v 10.570532 50.561665 4.069449
v 7.752946 50.561665 4.069448
v 5.064820 50.616348 8.904180
v 4.190974 50.616348 8.904179
v 4.190976 50.616348 7.319025
v 5.064821 50.616348 7.319025
v 4.190977 50.616348 5.733871
v 5.064822 50.616348 5.733871
v 4.190978 50.616348 4.148717
v 5.064823 50.616348 4.148718
v 5.064823 50.616348 4.148717
v 4.190979 50.616348 2.563563
v 5.064824 50.616348 2.563564
v 4.190980 50.616348 0.978409
v 5.064826 50.616348 0.978410
v 4.190980 50.616348 0.978410
v 4.190981 50.616348 -0.606745
v 5.064826 50.616348 -0.606744
vn 0.7083 -0.0000 -0.7059
vn 0.8946 0.0002 -0.4468
vn 0.0017 -0.0000 -1.0000
vn 0.0018 -0.0000 -1.0000
vn 0.4499 0.0002 -0.8931
vn -0.4474 -0.0000 -0.8943
vn -0.7071 -0.0000 -0.7071
vn -0.8943 0.0001 -0.4474
vn -1.0000 -0.0000 -0.0000
vn -0.2529 -0.0000 0.9675
vn -0.3833 -0.0004 0.9236
vn -0.0001 0.0001 1.0000
vn -0.0001 -0.0001 1.0000
vn -0.3828 0.0008 0.9238
vn -0.5053 -0.0001 0.8630
vn -0.0002 -0.0000 1.0000
vn -0.0004 0.0002 1.0000
vn -0.3846 -0.0005 0.9231
vn -0.0016 -0.0002 1.0000
vn 0.7070 -0.0000 0.7072
vn 0.4472 0.0002 0.8945
vn 1.0000 -0.0000 -0.0000
vn 0.7069 -0.0002 0.7074
vn 1.0000 -0.0001 -0.0001
vn 0.7076 0.0002 0.7066
vn 1.0000 0.0001 -0.0003
vn 0.8944 0.0002 0.4473
vn -0.9675 -0.0000 0.2529
vn -0.9237 0.0006 0.3830
vn -0.9244 -0.0002 0.3815
vn -0.9238 -0.0004 0.3828
vn -0.8629 0.0001 0.5053
vn 0.0001 0.7999 -0.6001
vn -0.6001 0.7999 -0.0000
vn 0.6001 0.7999 -0.0000
vn -0.0017 0.7070 0.7072
vn 0.4082 0.4084 0.8164
vn 0.7871 0.5815 -0.2056
vn 0.4760 0.3367 -0.8124
vn -0.4081 0.4083 -0.8166
vn -0.8169 0.4091 0.4066
vt 0.499355 0.584070
vt 0.499355 0.731568
vt 0.351988 0.731568
vt 0.351988 0.584070
vt 0.646853 0.584070
vt 0.646853 0.731568
vt 0.499486 0.731568
vt 0.499486 0.584070
vt 0.791653 0.000000
vt 0.791653 0.147498
vt 0.644286 0.147498
vt 0.644286 0.000000
vt 0.794220 0.584070
vt 0.794220 0.731568
vt 0.646984 0.289074
vt 0.646984 0.436572
vt 0.499486 0.436572
vt 0.499486 0.289074
vt 0.646984 0.584070
vt 0.499488 0.436572
vt 0.147498 0.499759
vt 0.147498 0.647257
vt 0.000002 0.647257
vt 0.000000 0.499759
vt 0.204490 0.731568
vt 0.204490 0.584070
vt 0.895978 0.000000
vt 0.895978 0.147498
vt 0.814178 0.731568
vt 0.814173 0.879066
vt 0.709848 0.879066
vt 0.709848 0.731568
vt 0.895783 0.433676
vt 0.895788 0.581174
vt 0.791457 0.581174
vt 0.791458 0.433676
vt 0.895903 0.286178
vt 0.895903 0.433676
vt 0.791578 0.433676
vt 0.791578 0.286178
vt 0.939647 0.584070
vt 0.939647 0.731568
vt 0.898483 0.731568
vt 0.898483 0.584070
vt 0.959605 0.731568
vt 0.959605 0.879066
vt 0.918442 0.879066
vt 0.918442 0.731568
vt 0.937194 0.286178
vt 0.937066 0.433676
vt 0.000000 0.204763
vt 0.147498 0.204763
vt 0.147498 0.352261
vt 0.000000 0.352261
vt 0.351988 0.436572
vt 0.351988 0.289074
vt 0.204490 0.289133
vt 0.204490 0.436572
vt 0.349290 -0.000000
vt 0.496788 0.000059
vt 0.496788 0.147498
vt 0.349290 0.147498
vt 0.496788 -0.000000
vt 0.189014 0.557079
vt 0.189014 0.704577
vt 0.147498 0.704577
vt 0.147498 0.557079
vt 0.937141 0.000000
vt 0.937270 0.147498
vt 0.143542 0.647257
vt 0.143542 0.794755
vt 0.102026 0.794755
vt 0.102353 0.647257
vt 0.189014 0.409581
vt 0.147498 0.409581
vt 1.000000 0.433676
vt 1.000000 0.581174
vt 0.895788 0.433676
vt 0.104212 0.852020
vt 0.104212 0.999518
vt 0.000000 0.999518
vt 0.000000 0.852020
vt 0.814229 0.879066
vt 0.794271 0.584070
vt 0.583608 0.879066
vt 0.583608 0.731568
vt 0.457368 0.879066
vt 0.457368 0.731568
vt 0.204490 0.879066
vt 0.330730 0.731677
vt 0.330929 0.879176
vt 0.330929 0.731678
vt 0.457169 0.879066
vt 0.189014 0.852075
vt 0.147825 0.852075
vt 0.204490 0.144217
vt 0.349290 0.289074
vt 0.791578 0.289074
vt 0.646984 0.433674
vt 0.188123 0.409581
vt 0.147498 0.368829
vt 0.188123 0.204763
vt 0.143542 0.963776
vt 0.113983 0.843596
vt 0.646984 0.433734
vt 0.791458 0.578278
vt 0.102026 0.749729
vt 0.000000 0.647257
vt 0.204490 0.204763
vt 0.000000 0.204322
vt 0.204490 0.000000
s 1
usemtl material_0
f 1/1/1 2/2/2 3/3/3
f 1/1/1 3/3/3 4/4/3
f 5/5/1 1/6/1 4/7/3
f 5/5/1 4/7/3 6/8/4
f 7/9/1 5/10/1 6/11/4
f 7/9/1 6/11/4 8/12/3
f 9/13/5 7/14/1 8/6/3
f 9/13/5 8/6/3 10/5/3
f 4/15/3 3/16/3 11/17/6
f 4/15/3 11/17/6 12/18/7
f 6/16/4 4/19/3 12/8/7
f 6/16/4 12/8/7 13/20/7
f 8/21/3 6/22/4 13/23/7
f 8/21/3 13/23/7 14/24/7
f 10/4/3 8/3/3 14/25/7
f 10/4/3 14/25/7 15/26/8
f 12/27/7 11/28/6 16/10/9
f 12/27/7 16/10/9 17/9/9
f 13/29/7 12/30/7 17/31/9
f 13/29/7 17/31/9 18/32/9
f 14/33/7 13/34/7 18/35/9
f 14/33/7 18/35/9 19/36/9
f 15/37/8 14/38/7 19/39/9
f 15/37/8 19/39/9 20/40/9
f 21/41/10 22/42/11 23/43/12
f 21/41/10 23/43/12 24/44/13
f 25/45/14 26/46/15 27/47/16
f 25/45/14 27/47/16 28/48/17
f 29/49/18 25/50/14 28/38/17
f 29/49/18 28/38/17 30/37/19
f 31/51/20 32/52/21 33/53/22
f 31/51/20 33/53/22 34/54/22
f 35/18/23 31/17/20 34/55/22
f 35/18/23 34/55/22 36/56/24
f 37/57/25 35/56/23 36/55/24
f 37/57/25 36/55/24 38/58/26
f 39/59/27 37/60/25 38/61/26
f 39/59/27 38/61/26 40/62/22
f 34/17/22 33/8/22 2/4/2
f 34/17/22 2/4/2 1/55/1
f 36/53/24 34/21/22 1/24/1
f 36/53/24 1/24/1 5/54/1
f 38/58/26 36/55/24 5/4/1
f 38/58/26 5/4/1 7/26/1
f 40/63/22 38/12/26 7/11/1
f 40/63/22 7/11/1 9/61/5
f 17/64/9 16/65/9 41/66/28
f 17/64/9 41/66/28 42/67/29
f 22/68/11 29/69/18 30/28/19
f 22/68/11 30/28/19 23/27/12
f 18/70/9 17/71/9 42/72/29
f 18/70/9 42/72/29 43/73/30
f 20/74/9 19/64/9 44/67/31
f 20/74/9 44/67/31 45/75/32
f 28/76/17 27/77/16 32/34/21
f 28/76/17 32/34/21 31/78/20
f 30/79/19 28/80/17 31/81/20
f 30/79/19 31/81/20 35/82/23
f 23/48/12 30/47/19 35/83/23
f 23/48/12 35/83/23 37/29/25
f 24/44/13 23/43/12 37/14/25
f 24/44/13 37/14/25 39/84/27
f 42/32/29 41/31/28 26/85/15
f 42/32/29 26/85/15 25/86/14
f 45/86/32 44/85/31 22/87/11
f 45/86/32 22/87/11 21/88/10
f 29/89/18 22/25/11 44/90/31
f 29/89/18 44/90/31 43/91/30
f 25/91/14 29/92/18 43/88/30
f 25/91/14 43/88/30 42/93/29
f 19/65/9 18/94/9 43/95/30
f 19/65/9 43/95/30 44/66/31
f 48/96/33 51/59/34 54/97/35
f 47/98/36 46/39/37 54/99/35
f 54/100/35 53/101/38 48/102/33
f 53/103/38 49/104/39 48/71/33
f 48/105/33 52/36/40 51/106/34
f 50/107/41 47/82/36 51/108/34
f 47/109/36 54/110/35 51/111/34
l 55 56
l 57 58
l 55 58
l 56 57
l 59 60
l 61 62
l 59 62
l 60 61
l 63 64
l 64 65
l 65 66
l 63 66
l 65 67
l 67 68
l 66 68
l 67 69
l 69 70
l 68 70
l 69 71
l 69 72
l 72 73
l 71 73
l 72 74
l 74 75
l 73 75
l 75 76
l 76 77
l 77 78
l 75 78
