# Blender 5.1.0
# www.blender.org
mtllib car2Low.mtl
o car2Low
v 1.539837 0.178220 -0.396374
v 1.325010 0.586055 -0.541219
v 0.879271 0.500938 -0.662194
v 0.673698 0.764631 -0.613427
v 0.671498 0.461758 -0.632309
v 0.633138 0.173604 -0.569356
v -0.293539 0.550253 -0.631993
v -1.415454 0.603873 -0.524731
v 1.272001 0.712081 -0.516111
v -1.256513 1.215832 -0.428910
v -1.430836 0.820796 -0.508807
v 0.277991 1.203493 -0.457139
v -0.070581 1.294420 -0.439455
v -1.073774 1.286729 -0.416694
v 1.269736 0.214178 -0.607886
v 1.315507 0.647861 -0.541197
v 0.744248 0.401929 -0.662698
v 0.693248 0.174573 -0.598328
v -1.276717 0.480472 -0.638653
v 0.672868 0.440906 -0.634498
v 0.620859 0.253735 -0.604573
v -0.804030 0.466389 -0.610258
v -1.255575 0.475684 -0.628986
v 0.229410 1.213374 -0.473518
v -1.149417 0.987591 -0.516733
v -0.990646 1.202055 -0.451347
v 0.620141 0.257604 -0.605308
v -0.736232 0.267874 -0.582974
v -0.716710 0.292558 -0.598854
v -1.084790 0.657733 -0.602660
v -0.991925 0.596419 -0.597140
v -1.155174 0.893980 -0.550071
v 0.658390 0.948327 -0.532209
v -0.305365 0.872172 -0.589076
v -0.297407 0.266436 -0.602463
v -0.357725 1.276053 -0.445393
v 0.677337 0.898638 -0.563531
v 1.010211 0.860512 -0.509751
v -1.345107 0.804635 -0.573447
v -1.597272 0.467149 -0.376470
v -1.507865 0.513415 -0.502365
v -1.582571 0.488079 -0.395106
v -1.392706 0.614923 -0.583304
v -0.879692 1.263788 -0.399919
v -1.200551 1.243598 -0.423880
v -1.406204 0.247748 -0.360208
v -1.378203 0.286915 -0.600075
v -1.578206 0.439314 -0.366916
v -1.612125 0.467239 0.013946
v 1.274545 0.186958 -0.603318
v 1.201127 0.417541 -0.646822
v -1.037997 1.107529 -0.450977
v -0.904184 1.210774 -0.457682
v 0.090082 1.171535 -0.474989
v -0.306519 0.869009 -0.573054
v -0.961999 1.170642 -0.463438
v -0.350713 1.238382 -0.461869
v 1.504379 0.581275 -0.345009
v 1.459654 0.558108 -0.267375
v 1.562497 0.471684 0.231147
v 1.524505 0.558859 -0.271040
v 1.590012 0.455554 -0.276125
v 1.544856 0.434844 -0.456972
v 1.536088 0.228901 -0.360902
v 1.535279 0.294784 -0.481112
v 1.596209 0.313474 -0.187643
v 1.564394 0.227101 -0.022820
v 1.447931 0.263881 -0.396519
v 1.519971 0.482840 -0.241513
v 1.225174 0.427242 -0.667101
v -0.286364 0.270299 -0.612747
v -1.003811 0.797630 -0.578933
v -1.139742 0.789663 -0.583017
v -0.110968 0.777556 -0.611038
v -0.199104 0.773765 -0.655824
v -0.177927 0.697789 -0.622755
v -0.129420 0.696772 -0.619109
v -0.299303 0.871112 -0.581608
v 1.453373 0.583997 -0.256519
v 1.537551 0.467424 0.199699
v 1.331781 0.586197 0.533120
v 0.628306 0.253730 0.604936
v -0.734553 0.180999 0.576298
v -1.148819 0.893249 0.574892
v -1.268705 0.480473 0.662369
v -1.500245 0.274043 0.521129
v 1.322128 0.647866 0.533006
v -1.142767 0.987946 0.538788
v -1.195298 1.243591 0.446715
v 0.690300 0.611278 0.639633
v -0.298037 0.872172 0.600835
v 1.277128 0.214255 0.600232
v 1.259990 0.702476 0.500254
v 1.554418 0.234474 0.207890
v -1.573469 0.340527 0.374610
v 1.040085 0.855075 0.436309
v -0.178800 1.304458 0.442083
v -1.533740 0.319225 0.546065
v 1.238019 0.431696 0.659821
v 1.235527 0.418903 0.655783
v 1.209051 0.417543 0.640028
v 0.752400 0.401926 0.661525
v -0.796120 0.184951 0.632810
v -1.370660 0.286916 0.625045
v -1.388383 0.260418 0.620041
v -0.728948 0.267875 0.600039
v -0.796577 0.466474 0.628005
v -0.984443 0.596419 0.617389
v 0.680681 0.440906 0.634206
v 0.627844 0.257373 0.605628
v -0.283840 0.266293 0.614785
v -1.132464 0.789675 0.605083
v -1.077359 0.657865 0.624000
v 0.238395 1.213376 0.478442
v -0.709231 0.292553 0.615676
v -0.289916 0.266436 0.614122
v -0.285685 0.550258 0.643602
v -0.280290 0.566069 0.642209
v -0.139677 1.272709 0.444442
v 0.953264 0.864395 0.535887
v 0.684275 0.898638 0.563190
v -1.424411 0.820798 0.534439
v -1.442851 0.622638 0.566488
v -1.501516 0.513414 0.528939
v -1.577536 0.488079 0.422604
v -1.337895 0.804636 0.598011
v -0.875717 1.263957 0.418997
v -1.595168 0.468015 0.407426
v -1.569425 0.336675 -0.347679
v -1.593592 0.444226 0.393487
v -1.241858 1.258233 0.453514
v 1.461184 0.256169 0.439020
v 1.088737 0.504696 0.651315
v 0.887406 0.500938 0.659359
v 0.692674 0.172560 0.588940
v -0.925695 0.486529 0.669215
v -1.247684 0.475684 0.652443
v -0.350066 1.243074 0.472920
v -0.299463 0.868845 0.584559
v 0.677201 0.838732 0.573740
v -0.958606 1.183749 0.468870
v -1.385367 0.614924 0.608452
v 1.536389 0.565307 0.314053
v 1.452894 0.564184 0.257949
v 1.607087 0.424026 0.020212
v 1.533869 0.452743 0.354369
v 1.571756 0.428552 0.356946
v 1.528529 0.294811 0.457944
v 1.662012 0.319388 0.011417
v 1.541638 0.225522 0.261485
v -0.996560 0.797641 0.599293
v -0.173891 0.697934 0.626430
v -0.118117 0.753327 0.619786
v -0.196469 0.754433 0.606352
v -0.291834 0.870027 0.598925
v -1.520524 0.502186 -0.411083
v -1.547020 0.499196 0.013523
v -1.440621 0.872032 -0.378936
v -1.512847 0.605136 -0.504265
v -1.394983 0.854440 0.505209
v -1.506473 0.605136 0.530901
v -1.515297 0.502186 0.437820
v -0.380312 0.881378 -0.574349
v -1.020478 0.902246 -0.540003
v 0.431314 0.846497 -0.580690
v -0.300963 0.870125 -0.577017
v -0.235881 0.879162 -0.566710
v -0.383845 0.883105 -0.562752
v -1.018235 0.903004 -0.543646
v -0.424575 1.203759 -0.469048
v -0.433764 1.199284 -0.471887
v 0.401291 0.858283 -0.568378
v -0.276974 1.194030 -0.468502
v 0.516059 0.989557 -0.549923
v 0.605006 0.840359 -0.577403
v 0.362483 1.071198 -0.505177
v 1.274727 0.172960 -0.378125
v 1.218995 0.384938 -0.377679
v 1.080669 0.504698 -0.656629
v 0.762428 0.440037 -0.666590
v 0.847805 0.498554 -0.375182
v 0.705592 0.171878 -0.374518
v -0.927780 0.478067 -0.648743
v -0.904559 0.447092 -0.365134
v -0.811230 0.179740 -0.365178
v -1.243170 0.489505 -0.362494
v -1.385128 0.265029 -0.595510
v 1.272253 0.174438 -0.378007
v 0.635329 0.172867 -0.568500
v -0.761543 0.181189 -0.563051
v -1.384605 0.249512 -0.571024
v -1.547229 0.312464 -0.487758
v 1.291160 0.172160 -0.453585
v -0.806624 0.179733 0.383174
v 0.705592 0.171878 -0.374518
v 0.886395 0.864374 -0.532964
v 1.018999 0.855517 -0.240966
v 1.054663 0.802264 -0.283965
v 1.077402 0.863379 -0.280012
v 0.972738 0.831094 -0.515883
v -1.011039 0.902479 0.560278
v -1.026373 1.099726 0.476058
v 0.631147 0.847979 0.518577
v 0.435947 0.856436 0.579914
v -0.227410 0.866228 0.589680
v -0.293785 0.870125 0.588722
v -0.274123 1.199986 0.486915
v -0.342259 1.219872 0.474069
v 0.452107 1.054956 0.518828
v -1.014162 1.099795 0.499159
v 0.408295 0.858331 0.571517
v -0.226192 0.878645 0.575720
v -0.268772 1.197659 0.484070
v 0.095919 1.168280 0.479259
v 0.433455 0.858874 0.574873
v 0.367609 1.072010 0.512206
v 1.279107 0.172964 0.370438
v 1.223512 0.384938 0.370682
v 1.281886 0.186983 0.595610
v 0.900648 0.514647 0.370865
v 0.690902 0.172338 0.373769
v 0.774801 0.443539 0.665820
v -0.894386 0.444241 0.384416
v -0.806622 0.179740 0.383183
v -1.238562 0.489505 0.385819
v -1.397262 0.249411 0.386748
v 1.275486 0.173085 0.370346
v 0.641872 0.172024 0.569224
v -1.377419 0.249512 0.596075
v 1.537869 0.206522 0.389452
v -1.589835 0.318580 -0.009156
v 0.999470 0.852306 0.317339
v 0.501399 0.835096 -0.152821
v 0.631493 0.806041 -0.431500
v 0.455995 0.846834 -0.476535
v -0.379943 0.745642 -0.049290
v -0.383066 0.740299 -0.571610
v -0.444575 1.096148 -0.349039
v -1.061544 0.759772 -0.530241
v -1.163263 0.742088 -0.529615
v -1.106065 1.011333 -0.414518
v -1.210034 0.992811 -0.410854
v -1.100573 1.010192 0.436812
v -1.205138 0.993827 0.433061
v -0.375949 0.740299 0.584326
v -0.379258 0.745642 0.062008
v -0.440194 1.096148 0.362529
v -1.120114 0.748319 0.551797
v 0.869626 0.139652 -0.454387
v 0.868840 0.248745 -0.499556
v 1.099327 0.248744 -0.500975
v 0.900338 0.097940 -0.499568
v 1.086542 0.132445 -0.480719
v 0.880190 0.146083 0.439650
v 1.094963 0.140775 0.450495
v 1.105463 0.248744 0.495441
v 0.874975 0.248745 0.496860
v 0.906471 0.097940 0.496484
v 1.073965 0.097940 0.495453
v -0.979271 0.182213 -0.445457
v -1.214968 0.180494 -0.437983
v -1.223217 0.332719 -0.489211
v -0.972751 0.332719 -0.490754
v -1.192114 0.118309 -0.489135
v -1.002378 0.118417 -0.490303
v -0.979000 0.162327 0.488969
v -1.213051 0.185842 0.449631
v -0.966584 0.332719 0.510738
v -1.217050 0.332719 0.512281
v -1.185950 0.118308 0.511821
v 0.322263 1.115114 -0.500734
v -0.309852 0.877056 -0.476886
v -0.232165 0.878529 -0.564044
v -1.243389 1.165607 -0.402195
v -0.405758 1.188913 -0.446091
v -0.359026 1.229989 -0.259977
v 0.157920 1.213151 -0.261884
v 0.307985 1.235461 -0.399243
v 0.157920 1.213150 -0.261884
v -0.310996 0.876788 -0.474885
v -0.864670 0.869573 0.009346
v 0.606891 0.859284 -0.563587
v -0.948706 0.901429 -0.544255
v 0.207606 0.843156 0.002743
v -0.393504 1.184305 -0.427528
v 0.336736 1.167561 -0.467508
v -1.422395 0.866748 -0.497386
v -0.904424 1.182441 -0.458016
v 0.694154 0.859638 -0.543711
v 0.422842 0.860018 -0.567444
v -1.011294 1.089648 -0.479117
v -1.098124 0.897229 -0.457772
v 0.286461 1.162428 0.434226
v 0.709928 0.863692 0.545605
v -1.130409 0.885450 0.447033
v -0.310217 1.215832 0.446278
v -0.433010 1.237799 0.256684
v 0.161183 1.213150 0.267961
v 0.161183 1.213151 0.267960
v -0.941883 0.901429 0.563939
v -0.305075 0.876788 0.486721
v -1.434990 0.878856 -0.492063
v -0.376879 0.883433 0.574785
v -0.387921 1.184358 0.440568
v 0.292779 1.217379 0.457876
v -1.416113 0.866748 0.522907
v -1.242495 1.186880 0.418152
v -1.423383 0.881941 0.521465
v 0.796730 0.882338 0.577330
v -0.999717 1.130757 0.525733
v 1.455848 0.513630 0.424535
v -0.100936 0.731296 -0.617723
v 1.271796 0.172422 0.571170
v 1.503275 0.277055 -0.428479
v 1.552034 0.298042 0.442154
v 0.747647 0.321325 -0.653499
v 1.180121 0.262538 -0.614735
v 1.008547 0.059895 -0.656320
v 0.884598 0.107757 -0.652715
v 0.969032 0.071763 -0.551402
v 0.914341 0.313212 -0.651615
v 1.066849 0.249729 -0.522484
v 0.885240 0.277455 -0.578302
v 0.858181 0.301103 -0.479880
v 1.004102 0.507463 -0.637086
v 1.150166 0.401899 -0.680277
v 0.790154 0.379641 -0.567315
v 1.173802 0.064867 -0.510940
v 0.778654 0.100679 -0.625084
v 0.877738 0.449027 -0.515369
v 1.139693 0.347708 -0.514638
v 0.999693 0.041501 -0.507766
v 0.805010 0.171028 -0.511826
v 0.885237 0.127594 -0.590620
v 0.930299 0.368446 -0.571307
v 1.121866 0.219618 -0.571244
v -1.283813 0.321783 -0.614102
v -1.243740 0.405487 -0.610752
v -1.253908 0.104725 -0.597326
v -0.985419 0.365475 -0.645384
v -0.952329 0.123526 -0.607511
v -1.151364 0.092654 -0.603765
v -1.186868 0.266061 -0.633123
v -0.955807 0.306634 -0.473826
v -1.115438 0.312056 -0.519597
v -1.172741 0.120348 -0.509291
v -0.968783 0.174219 -0.577705
v -0.996263 0.494901 -0.608953
v -0.906567 0.266898 -0.585628
v -1.119028 -0.016976 -0.616941
v -1.106572 0.495765 -0.499890
v -0.968432 0.080485 -0.555219
v -0.838085 0.203809 -0.497723
v -1.315206 0.160669 -0.541997
v -1.360129 0.297841 -0.613368
v -1.274758 0.379217 -0.508710
v -1.054623 -0.007078 -0.496084
v -0.966626 0.395776 -0.513762
v -0.929462 0.158465 -0.470201
v -1.172309 0.030004 -0.533253
v -1.290552 0.243806 -0.440397
v -1.141626 0.095294 -0.578140
v -1.180056 0.346125 -0.557069
v -0.955398 0.254641 -0.559695
v -1.082794 0.378954 -0.558249
v -1.164672 0.244135 -0.614059
v -1.017560 0.225634 -0.645411
v -1.033034 0.392959 0.645854
v -1.203064 0.408525 0.642105
v -1.137742 0.071011 0.660485
v -1.123150 0.400012 0.643522
v -1.230447 0.241271 0.552726
v -1.016728 0.102635 0.637440
v -0.970815 0.275047 0.628589
v -0.946523 0.335209 0.493788
v -1.070965 0.090828 0.596451
v -1.016766 0.031685 0.485826
v -0.840814 0.287780 0.637263
v -1.068750 0.516946 0.629462
v -1.080406 -0.023677 0.644784
v -1.265242 0.203682 0.660051
v -0.919329 0.309987 0.577274
v -1.348607 0.246002 0.635532
v -0.902172 0.057730 0.633729
v -0.881029 0.083777 0.522017
v -1.224707 0.035786 0.518563
v -1.048507 0.430988 0.519244
v -1.279578 0.370080 0.514308
v -1.127860 0.378200 0.592354
v -1.195072 0.136576 0.589962
v -0.953784 0.205466 0.564975
v 1.128594 0.394493 0.630994
v 0.879537 0.164039 0.590040
v 0.921157 0.308886 0.645969
v 0.933880 0.322259 0.488140
v 1.083020 0.093982 0.484765
v 1.013232 0.268889 0.560811
v 1.072638 0.484670 0.632661
v 0.742305 0.320806 0.624492
v 1.175516 0.239185 0.614048
v 0.792972 0.081401 0.622351
v 1.099656 0.078613 0.608467
v 1.167247 0.410882 0.621503
v 0.891273 0.460612 0.618683
v 1.236636 0.126746 0.620117
v 1.088660 0.443766 0.486438
v 1.200963 0.285830 0.499272
v 0.984881 0.025552 0.547451
v 0.871179 0.366871 0.505935
v 0.832254 0.160955 0.501119
v 1.045536 0.011225 0.506909
v 0.766102 0.100834 0.503810
v 0.892564 0.001838 0.623703
v 1.118228 0.176239 0.564672
v 1.014731 0.369042 0.559405
v 0.847878 0.236527 0.614724
v 0.930578 0.090334 0.605531
v -1.278448 1.211019 -0.277305
v -1.425290 0.888483 -0.488210
v -1.235559 1.196466 -0.426848
v -1.258569 1.208604 0.455333
v -1.453434 0.883352 0.508757
v 0.738878 0.912529 -0.532276
v -0.233218 0.878641 -0.566163
v 0.339173 1.090669 -0.497077
v 0.382301 1.059914 -0.501549
v -0.426426 1.196481 -0.464896
v -1.016267 0.903562 -0.540939
v 0.610562 1.094444 0.406161
v 0.804068 0.893699 0.539349
v -0.226179 0.878641 0.577034
v 0.394464 1.061758 0.511934
v 0.345155 1.090841 0.500751
v 1.229257 0.680473 -0.517724
v 1.450557 0.513631 -0.434390
v 1.573312 0.476359 -0.284355
v 1.235591 0.680474 0.510589
v 1.576746 0.476360 0.273001
vn 0.7254 0.0854 -0.6831
vn 0.8673 0.3423 -0.3614
vn 0.6440 -0.0154 -0.7649
vn 0.1457 0.3343 -0.9311
vn -0.0405 0.3923 -0.9189
vn -0.0100 0.2360 -0.9717
vn 0.0028 0.0043 -1.0000
vn -0.0267 0.1655 -0.9858
vn -0.0028 0.2741 -0.9617
vn 0.0063 -0.1327 -0.9911
vn 0.0046 -0.0814 -0.9967
vn 0.0452 0.1849 -0.9817
vn -0.0351 0.0184 -0.9992
vn -0.0338 -0.0727 -0.9968
vn -0.1992 -0.2699 -0.9421
vn -0.2014 -0.4198 -0.8850
vn -0.0944 -0.9191 -0.3827
vn 0.1159 -0.1662 -0.9793
vn 0.0178 0.1983 -0.9800
vn -0.0152 0.1693 -0.9854
vn -0.7688 -0.3405 -0.5413
vn -0.6373 0.1936 -0.7459
vn -0.5432 0.1295 -0.8296
vn 0.0490 0.4963 -0.8668
vn -0.0770 0.4209 -0.9038
vn -0.0013 0.3818 -0.9243
vn -0.0336 0.1810 -0.9829
vn 0.6045 -0.2325 -0.7619
vn 0.7469 0.0170 -0.6647
vn -0.9905 -0.1369 -0.0119
vn -0.8974 -0.4392 -0.0427
vn -0.9276 -0.3706 0.0471
vn 0.0362 0.9993 0.0057
vn 0.9898 -0.1255 -0.0668
vn 0.5123 0.8500 -0.1224
vn 0.4846 0.8613 -0.1525
vn 0.1322 0.9819 -0.1360
vn 0.0436 0.9990 0.0077
vn 0.7407 0.6279 -0.2389
vn 0.5839 0.7994 -0.1414
vn -0.1988 0.9800 -0.0132
vn -0.3603 0.9326 -0.0225
vn -0.9822 -0.1772 0.0618
vn -0.2103 0.9776 -0.0086
vn -0.1303 0.2851 -0.9496
vn -0.4939 0.4217 -0.7604
vn -0.1475 0.4402 -0.8857
vn 0.1386 0.3907 -0.9100
vn 0.0650 0.3253 -0.9434
vn 0.1467 0.4401 -0.8859
vn 0.1852 0.8165 -0.5468
vn 0.2402 0.9571 0.1621
vn -0.3553 -0.8445 0.4008
vn -0.2633 0.0063 -0.9647
vn -0.2605 0.1363 -0.9558
vn 0.3865 -0.6935 -0.6080
vn -0.2759 -0.4792 -0.8332
vn 0.3090 0.2512 -0.9173
vn 0.0453 0.1850 -0.9817
vn 0.2608 -0.2819 -0.9233
vn -0.0136 0.1441 -0.9895
vn 0.2859 -0.0335 -0.9577
vn -0.9094 0.0050 -0.4159
vn -0.0062 0.4352 -0.9003
vn -0.0743 0.6308 -0.7724
vn -0.0598 0.7127 -0.6989
vn -0.0467 0.3338 -0.9415
vn -0.0553 0.5833 -0.8104
vn -0.0150 -0.1033 -0.9945
vn -0.3804 0.9248 0.0079
vn -0.4406 0.8977 0.0027
vn -0.7854 0.6189 0.0040
vn -0.3187 0.9479 0.0019
vn -0.0826 0.1489 -0.9854
vn -0.0958 -0.9304 -0.3538
vn -0.4645 -0.8855 0.0071
vn -0.5376 0.1154 -0.8353
vn -0.8974 -0.4392 -0.0428
vn 0.6316 0.5200 -0.5750
vn 0.7708 -0.5999 -0.2144
vn -0.9253 -0.1649 -0.3415
vn 0.0253 0.1780 -0.9837
vn -0.0795 -0.3982 -0.9139
vn 0.8448 0.5343 0.0288
vn 0.9586 0.2533 0.1301
vn 0.9769 0.2136 0.0040
vn 0.9504 0.3031 0.0698
vn 0.7166 -0.6934 0.0759
vn 0.5781 -0.8097 -0.1006
vn 0.8391 -0.5436 -0.0199
vn 0.9766 0.2117 -0.0384
vn -0.1353 0.1773 -0.9748
vn 0.6315 0.5200 -0.5751
vn 0.3780 0.9254 -0.0267
vn 0.0981 0.4219 -0.9013
vn 0.1314 0.2626 -0.9559
vn 0.8188 0.4963 -0.2884
vn 0.8660 -0.3342 -0.3719
vn 0.8102 0.5566 -0.1835
vn 0.7998 0.6002 0.0058
vn 0.7064 0.1403 0.6938
vn 0.8780 0.0452 0.4765
vn 0.0019 0.2360 0.9718
vn -0.0292 0.3923 0.9194
vn 0.1573 0.3339 0.9294
vn 0.0089 0.0882 0.9961
vn -0.0211 0.1107 0.9936
vn 0.0080 -0.0942 0.9955
vn 0.0090 -0.0972 0.9952
vn 0.0590 0.1955 0.9789
vn -0.0215 -0.0727 0.9971
vn -0.0228 0.0184 0.9996
vn -0.1268 -0.1977 0.9720
vn 0.3458 -0.1256 0.9299
vn 0.1304 -0.8022 0.5827
vn 0.3092 -0.6417 0.7019
vn -0.0022 0.1613 0.9869
vn 0.0308 0.1884 0.9816
vn 0.5252 -0.8186 0.2325
vn -0.7884 -0.4213 0.4483
vn -0.4791 -0.8642 0.1534
vn 0.5009 0.8277 0.2529
vn 0.7254 0.6838 0.0783
vn 0.3249 0.9404 0.1003
vn 0.4701 0.8172 0.3334
vn -0.0204 0.1708 0.9851
vn 0.0089 0.3827 0.9238
vn 0.8152 -0.0651 0.5755
vn 0.5875 0.1086 0.8019
vn 0.5414 -0.3068 0.7828
vn -0.1211 0.4085 0.9047
vn -0.4845 0.4216 0.7665
vn -0.1246 0.2870 0.9498
vn -0.3876 -0.8245 -0.4124
vn 0.2383 0.9571 -0.1650
vn -0.2487 0.1364 0.9589
vn -0.2350 -0.0080 0.9720
vn 0.3304 0.2669 0.9053
vn -0.0154 -0.3644 0.9311
vn -0.3292 -0.7073 0.6255
vn 0.0590 0.1956 0.9789
vn -0.0032 0.1413 0.9900
vn 0.2728 -0.2812 0.9200
vn 0.7203 -0.6936 0.0093
vn -0.0162 0.6308 0.7757
vn 0.0030 0.4067 0.9135
vn -0.0257 0.5285 0.8486
vn -0.0281 0.3437 0.9387
vn -0.0027 -0.1033 0.9946
vn 0.0093 0.4310 0.9023
vn -0.0037 0.7065 0.7077
vn -0.3805 0.9248 -0.0032
vn -0.3187 0.9479 0.0020
vn -0.0705 0.1488 0.9863
vn -0.5717 0.1126 0.8127
vn -0.7884 -0.4212 0.4483
vn -0.4336 0.0635 0.8989
vn -0.4429 0.0608 0.8945
vn -0.9168 -0.0065 0.3992
vn 0.7744 -0.6086 0.1730
vn 0.3990 -0.8839 0.2439
vn -0.0073 0.1359 0.9907
vn 0.0522 0.4693 0.8815
vn -0.0330 0.4234 0.9054
vn -0.2095 -0.9166 0.3404
vn 0.0094 0.4309 0.9023
vn 0.8870 0.2505 0.3879
vn 0.6460 -0.7378 0.1958
vn 0.9504 0.3030 0.0699
vn 0.9586 0.2532 0.1301
vn 0.8781 0.0452 0.4764
vn 0.9964 0.0741 0.0403
vn -0.0550 0.0789 0.9954
vn -0.0641 0.1697 0.9834
vn -0.0872 0.1120 0.9899
vn -0.9821 -0.1872 -0.0187
vn 0.7202 -0.6937 0.0093
vn -0.7855 0.6189 0.0040
vn -0.9891 0.1429 -0.0360
vn -0.9979 0.0182 -0.0621
vn -0.9461 0.3233 0.0206
vn -0.9971 0.0182 0.0744
vn -0.9686 0.2436 0.0491
vn -0.9094 0.4124 0.0551
vn 0.0037 0.2289 -0.9735
vn 0.3513 0.2183 -0.9105
vn -0.2639 0.3058 -0.9148
vn 0.0438 0.4006 -0.9152
vn -0.0085 0.3181 -0.9480
vn -0.0557 0.6174 -0.7846
vn 0.0772 0.4463 -0.8915
vn 0.0455 0.7668 -0.6403
vn 0.4696 -0.4386 -0.7662
vn -0.9571 -0.0703 -0.2811
vn -0.6296 0.7257 -0.2774
vn 0.0269 0.9899 -0.1393
vn -0.0927 0.4434 -0.8915
vn -0.0556 0.6175 -0.7846
vn 0.0268 0.5492 -0.8352
vn -0.2939 0.2224 -0.9296
vn -0.3553 -0.8445 0.4007
vn -0.9253 -0.1648 -0.3416
vn -0.7309 -0.5758 -0.3664
vn -0.9670 -0.2542 -0.0150
vn 0.4433 -0.6594 -0.6071
vn 0.6624 -0.7478 -0.0439
vn 0.3864 -0.6935 -0.6081
vn 0.4681 -0.7020 -0.5367
vn -0.5176 -0.7916 -0.3249
vn -0.4055 -0.4947 -0.7686
vn 0.4331 -0.8550 -0.2853
vn 0.8402 -0.5422 0.0104
vn -0.0065 0.0002 -1.0000
vn -0.0040 -1.0000 -0.0006
vn 0.0083 -0.9999 -0.0081
vn -0.3814 -0.9232 -0.0468
vn -0.0454 -0.9990 0.0052
vn 0.3893 0.9013 -0.1899
vn 0.3600 0.9317 -0.0478
vn 0.0228 0.9997 -0.0101
vn -0.3773 0.8933 0.2443
vn 0.0208 0.4245 0.9052
vn -0.0022 0.5540 0.8325
vn 0.0705 0.3963 0.9154
vn 0.0522 0.4694 0.8815
vn 0.0754 0.9918 0.1033
vn -0.0561 0.6737 0.7368
vn 0.2649 0.5392 0.7994
vn -0.0589 0.6330 0.7719
vn -0.0442 0.2970 0.9538
vn 0.2649 0.5391 0.7995
vn -0.0045 0.4475 0.8943
vn -0.1436 -0.9718 0.1869
vn 0.4263 0.8237 0.3739
vn 0.9441 0.2010 0.2612
vn -0.2710 0.2092 0.9396
vn -0.3876 -0.8245 -0.4123
vn -0.7469 -0.5625 0.3546
vn -0.9233 -0.3736 -0.0892
vn -0.9669 -0.2536 0.0277
vn 0.1942 -0.7074 0.6796
vn 0.7444 -0.6673 0.0257
vn 0.3091 -0.6417 0.7019
vn 0.2902 -0.9362 0.1981
vn -0.5894 -0.5013 0.6335
vn -0.6534 -0.2181 0.7249
vn 0.4367 -0.8492 0.2968
vn 0.5253 -0.8186 0.2324
vn -0.0216 -0.9117 0.4102
vn 0.0628 -0.8884 0.4548
vn -0.0002 -1.0000 -0.0006
vn -0.0216 -0.9117 0.4103
vn -0.2076 -0.9780 0.0202
vn 0.1265 -0.9920 -0.0010
vn 0.0087 -1.0000 0.0011
vn 0.1467 0.9892 0.0028
vn 0.3748 0.8784 0.2964
vn 0.2255 0.9742 0.0037
vn 0.1357 0.0150 -0.9906
vn 0.8292 0.3213 0.4574
vn 0.9792 -0.0880 0.1829
vn 0.8828 0.2463 -0.4001
vn 0.1348 0.8443 -0.5186
vn 0.6936 0.6093 0.3842
vn -0.7073 -0.1182 0.6969
vn -0.5251 0.2778 -0.8044
vn -0.8746 0.3443 -0.3413
vn -0.5208 0.7795 0.3480
vn -0.9745 -0.2238 0.0165
vn -0.9566 0.1095 0.2700
vn -0.7499 -0.4839 -0.4512
vn -0.7763 -0.2042 -0.5964
vn 0.6920 -0.1970 -0.6945
vn 0.4743 -0.7247 -0.4998
vn -0.7047 -0.5413 -0.4586
vn -0.7155 -0.6421 0.2751
vn -0.7762 -0.2043 -0.5964
vn 0.5309 -0.6154 0.5826
vn 0.9026 -0.2412 0.3566
vn 0.9468 -0.1977 0.2538
vn 0.9025 -0.2413 0.3567
vn -0.6458 -0.3647 0.6707
vn -0.7913 -0.2198 -0.5706
vn 0.8212 -0.1968 -0.5356
vn 0.6145 -0.6218 -0.4857
vn -0.7154 -0.5479 -0.4336
vn -0.7497 -0.6047 0.2690
vn -0.7913 -0.2199 -0.5706
vn 0.2806 -0.6205 0.7323
vn 0.8922 -0.1090 0.4384
vn -0.6857 -0.2198 0.6939
vn 0.6072 -0.3169 0.7287
vn 0.0492 -0.7529 0.6563
vn -0.1876 0.9821 0.0162
vn 0.4696 -0.4385 -0.7662
vn 0.1036 -0.8156 0.5693
vn 0.4855 -0.0734 0.8711
vn 0.7439 -0.0947 0.6615
vn -0.0796 -0.3982 -0.9139
vn -0.0776 -0.9902 0.1164
vn -0.0006 -0.9901 0.1403
vn 0.4001 -0.8424 0.3609
vn 0.5839 0.7995 -0.1414
vn 0.7407 0.6279 -0.2388
vn 0.6371 -0.6415 -0.4272
vn 0.0238 0.9984 0.0510
vn -0.5990 0.5930 0.5380
vn 0.0454 0.7668 -0.6403
vn -0.0019 1.0000 0.0087
vn 0.0056 1.0000 0.0016
vn -0.0947 0.7713 0.6294
vn -0.7464 -0.2923 0.5978
vn -0.0942 -0.2505 0.9635
vn 0.2695 0.4558 0.8483
vn 0.1349 -0.4464 0.8846
vn 0.3513 0.2184 -0.9104
vn 0.4147 -0.2377 0.8784
vn -0.9822 -0.1772 0.0619
vn 0.0808 -0.8882 0.4522
vn 0.3892 0.9013 -0.1900
vn 0.2946 0.8976 0.3277
vn 0.3599 0.9317 -0.0478
vn -0.0149 0.9996 0.0235
vn -0.0093 -0.9940 -0.1093
vn -0.0544 -0.9870 -0.1509
vn -0.7469 -0.6240 0.2296
vn 0.1583 -0.5327 -0.8313
vn 0.0668 -0.6562 -0.7516
vn 0.0066 0.9985 -0.0550
vn -0.5921 0.5912 -0.5476
vn 0.4262 0.8237 0.3739
vn -0.2941 0.9549 -0.0418
vn 0.0533 0.8875 -0.4578
vn -0.0127 0.9999 -0.0029
vn 0.0430 0.8285 -0.5583
vn -0.7521 -0.2913 -0.5912
vn -0.6022 0.5919 -0.5357
vn -0.2413 -0.1811 -0.9534
vn 0.2041 -0.7552 -0.6229
vn -0.0266 -0.9144 0.4038
vn -0.1301 0.9683 -0.2133
vn -0.0745 0.0214 0.9970
vn 0.8660 -0.3341 -0.3719
vn -0.7156 -0.6421 0.2750
vn -0.9428 -0.1976 0.2686
vn -0.6458 -0.3647 0.6708
vn -0.6458 -0.3646 0.6708
vn -0.8836 -0.1845 -0.4303
vn -0.7048 -0.5412 -0.4587
vn -0.7497 -0.6047 0.2689
vn -0.9542 -0.1390 0.2649
vn -0.6856 -0.2199 0.6939
vn -0.6856 -0.2198 0.6940
vn -0.7913 -0.2198 -0.5705
vn -0.9560 -0.1388 -0.2584
vn -0.7155 -0.5478 -0.4336
vn 0.6144 -0.6217 -0.4857
vn 0.9448 -0.1313 -0.3001
vn 0.8212 -0.1967 -0.5356
vn 0.1927 0.0645 -0.9791
vn -0.1155 0.0292 -0.9929
vn 0.4146 -0.0552 -0.9083
vn 0.2700 -0.6951 -0.6663
vn 0.8390 0.5074 -0.1967
vn 0.7293 -0.5922 0.3428
vn -0.2013 -0.9636 0.1762
vn -0.1155 0.0293 -0.9929
vn 0.1728 0.9482 -0.2664
vn -0.1121 0.2395 -0.9644
vn -0.6279 -0.6899 -0.3602
vn -0.1649 0.9450 0.2825
vn 0.7865 0.5431 0.2941
vn 0.1728 0.9482 -0.2665
vn 0.7826 -0.5748 -0.2391
vn 0.9658 0.1236 -0.2278
vn -0.1961 -0.9745 0.1086
vn -0.8107 -0.3937 0.4332
vn -0.8815 0.4710 0.0334
vn 0.0545 0.0697 -0.9961
vn -0.1215 0.1247 -0.9847
vn 0.1553 0.1299 -0.9793
vn -0.0538 -0.0141 -0.9985
vn -0.0103 -0.0221 -0.9997
vn -0.2420 -0.5841 0.7748
vn -0.7274 0.6573 -0.1969
vn -0.9939 0.0111 0.1099
vn -0.3789 0.7553 -0.5347
vn -0.1652 0.4193 -0.8927
vn 0.1554 0.1300 -0.9793
vn 0.4106 0.5543 -0.7240
vn 0.7565 0.2352 -0.6103
vn -0.0881 0.2631 -0.9608
vn -0.0103 -0.0220 -0.9997
vn -0.0428 0.1068 -0.9934
vn -0.0501 0.1046 -0.9933
vn -0.8844 -0.2324 0.4047
vn -0.6578 0.0404 0.7521
vn -0.8087 -0.0642 0.5847
vn -0.1447 0.5956 0.7901
vn 0.1063 0.0501 0.9931
vn 0.7627 0.0918 0.6402
vn 0.1064 0.0501 0.9931
vn 0.1345 -0.0724 0.9883
vn 0.0998 -0.2269 0.9688
vn -0.4562 -0.2750 0.8463
vn -0.6629 0.7054 0.2509
vn -0.1448 0.5956 0.7902
vn 0.7627 0.0917 0.6402
vn 0.4668 -0.0828 -0.8805
vn 0.0239 0.0873 -0.9959
vn -0.1324 0.4467 -0.8848
vn -0.2035 -0.4905 0.8473
vn 0.9354 -0.0006 -0.3535
vn 0.6719 -0.0171 0.7404
vn 0.2500 0.3626 0.8978
vn 0.0236 0.2119 0.9770
vn -0.4624 -0.8705 -0.1687
vn -0.7891 0.0346 -0.6132
vn -0.9129 -0.0936 -0.3972
vn 0.9355 -0.0005 -0.3534
vn -0.8801 0.4745 0.0190
vn -0.0582 -0.9943 -0.0898
vn 0.0240 0.0422 0.9988
vn -0.0616 -0.0501 0.9968
vn 0.0094 0.0119 0.9999
vn 0.0970 0.6132 0.7840
vn -0.2035 -0.4906 0.8473
vn -0.8801 0.4744 0.0189
vn -0.0583 -0.9942 -0.0898
vn 0.4647 -0.1937 0.8640
vn -0.9688 0.2456 -0.0335
vn 0.0970 0.6132 0.7839
vn -0.0357 0.9901 -0.1360
vn -0.8563 0.5149 0.0394
vn -0.6029 -0.7334 -0.3141
vn 0.6631 -0.7206 -0.2027
vn 0.9181 0.3901 -0.0704
vn 0.9181 0.3901 -0.0705
vn 0.1147 -0.0417 0.9925
vn 0.1034 -0.0770 0.9917
vn 0.0053 -0.0769 0.9970
vn 0.0804 -0.8375 0.5405
vn -0.8640 0.1033 0.4928
vn -0.4931 -0.5011 -0.7112
vn 0.2406 0.0366 0.9699
vn -0.6320 0.7487 0.1999
vn 0.0905 0.0108 0.9958
vn -0.0438 -0.0337 0.9985
vn 0.2407 0.0366 0.9699
vn 0.0052 -0.0769 0.9970
vn -0.4879 -0.0638 0.8705
vn 0.0457 0.3218 0.9457
vn 0.7405 0.6691 -0.0634
vn 0.8756 -0.4629 -0.1379
vn 0.9143 0.1502 -0.3762
vn -0.4879 -0.0639 0.8706
vn -0.6320 0.7488 0.1999
vn -0.7254 -0.3183 -0.6103
vn -0.2217 -0.9748 -0.0233
vn 0.2898 -0.9017 -0.3210
vn -0.5371 0.4735 -0.6980
vn 0.2585 0.9154 -0.3085
vn 0.0281 -0.0755 -0.9968
vn 0.1300 -0.1866 -0.9738
vn 0.2013 0.0932 0.9751
vn 0.2102 0.1393 0.9677
vn 0.2013 0.0933 0.9751
vn 0.1920 0.0469 0.9803
vn -0.8577 0.4908 -0.1533
vn -0.8813 0.4726 0.0008
vn -0.7915 0.5433 -0.2799
vn -0.8557 0.5168 0.0249
vn 0.3893 0.9013 -0.1900
vn 0.5838 0.7995 -0.1414
vn 0.6071 -0.3169 0.7287
vn 0.0074 0.2916 -0.9565
vn -0.0927 0.4433 -0.8916
vn 0.0054 0.2931 -0.9561
vn -0.0795 -0.3982 -0.9138
vn -0.0198 0.2884 -0.9573
vn -0.6295 0.7258 -0.2774
vn -0.0198 0.2883 -0.9573
vn -0.0162 0.2817 -0.9594
vn 0.0211 0.3169 -0.9482
vn 0.4755 0.8584 0.1926
vn -0.0012 0.3189 0.9478
vn 0.0155 0.3011 0.9535
vn -0.1436 -0.9718 0.1870
vn -0.0266 -0.9145 0.4038
vn 0.0717 0.2962 0.9524
vn 0.6443 0.6751 -0.3594
vn 0.6487 0.6750 0.3515
vn 0.2945 0.8977 0.3278
vt 0.385959 0.923928
vt 0.372021 0.918240
vt 0.379221 0.913020
vt 0.268144 0.369487
vt 0.259629 0.370079
vt 0.261292 0.349455
vt 0.069999 0.598521
vt 0.072883 0.545277
vt 0.080979 0.544754
vt 0.031119 0.545875
vt 0.007288 0.545281
vt 0.007328 0.485088
vt 0.391794 0.759755
vt 0.439739 0.768990
vt 0.404650 0.774154
vt 0.196673 0.137829
vt 0.184475 0.155388
vt 0.184431 0.103740
vt 0.196475 0.105906
vt 0.376083 0.752291
vt 0.371786 0.737365
vt 0.406920 0.741381
vt 0.763632 0.353443
vt 0.766024 0.367994
vt 0.754964 0.365963
vt 0.085898 0.544223
vt 0.083465 0.544455
vt 0.085020 0.505416
vt 0.380247 0.708327
vt 0.416772 0.710618
vt 0.416202 0.712944
vt 0.357168 0.878929
vt 0.365871 0.891875
vt 0.359665 0.896844
vt 0.897200 0.421001
vt 0.910943 0.415228
vt 0.911138 0.452161
vt 0.764781 0.082664
vt 0.753347 0.083116
vt 0.753089 0.031643
vt 0.764938 0.030278
vt 0.367833 0.628053
vt 0.421340 0.627493
vt 0.421485 0.651763
vt 0.367476 0.651763
vt 0.419687 0.468566
vt 0.420212 0.513392
vt 0.368511 0.513875
vt 0.368431 0.425619
vt 0.367751 0.415686
vt 0.418878 0.414120
vt 0.419082 0.424578
vt 0.314304 0.019091
vt 0.315093 0.015299
vt 0.340884 0.029750
vt 0.135780 0.564359
vt 0.140355 0.567741
vt 0.130858 0.587664
vt 0.354812 0.649227
vt 0.240775 0.385860
vt 0.234520 0.398075
vt 0.228643 0.394235
vt 0.234076 0.383593
vt 0.229925 0.345317
vt 0.223014 0.336605
vt 0.228019 0.332007
vt 0.203342 0.319377
vt 0.219394 0.324978
vt 0.215488 0.330468
vt 0.197864 0.325520
vt 0.183769 0.325426
vt 0.184406 0.314712
vt 0.195769 0.318452
vt 0.218334 0.084897
vt 0.222822 0.090545
vt 0.203934 0.098464
vt 0.183769 0.093026
vt 0.198206 0.092217
vt 0.196499 0.099632
vt 0.232473 0.063988
vt 0.239285 0.066207
vt 0.232989 0.080485
vt 0.241567 0.050189
vt 0.234357 0.050179
vt 0.232860 0.036683
vt 0.239691 0.034870
vt 0.050783 0.597815
vt 0.581976 0.682464
vt 0.584646 0.669451
vt 0.588977 0.669348
vt 0.274456 0.043192
vt 0.261734 0.047959
vt 0.268635 0.029306
vt 0.348273 0.126007
vt 0.346482 0.079747
vt 0.349424 0.080209
vt 0.246670 0.349414
vt 0.244870 0.321497
vt 0.285086 0.031508
vt 0.284905 0.040765
vt 0.344584 0.072172
vt 0.348332 0.067698
vt 0.332772 0.028691
vt 0.336581 0.045582
vt 0.316963 0.038014
vt 0.315017 0.022991
vt 0.480130 0.771035
vt 0.478902 0.796027
vt 0.444197 0.794808
vt 0.924908 0.689103
vt 0.929186 0.750301
vt 0.918910 0.750347
vt 0.915632 0.689113
vt 0.244818 0.034522
vt 0.253501 0.009800
vt 0.269187 0.012007
vt 0.903609 0.102021
vt 0.903821 0.142624
vt 0.897444 0.144005
vt 0.757794 0.342146
vt 0.755183 0.340605
vt 0.752597 0.327384
vt 0.612353 0.686492
vt 0.609804 0.697116
vt 0.594186 0.693739
vt 0.587472 0.984888
vt 0.581782 0.979490
vt 0.587454 0.978257
vt 0.149920 0.473884
vt 0.148905 0.522876
vt 0.144512 0.523982
vt 0.139967 0.550193
vt 0.089587 0.623267
vt 0.097864 0.619632
vt 0.094730 0.630197
vt 0.088384 0.631489
vt 0.081119 0.631972
vt 0.235945 0.016808
vt 0.932731 0.127488
vt 0.925148 0.127230
vt 0.926731 0.100751
vt 0.968263 0.377672
vt 0.962959 0.378021
vt 0.964492 0.351119
vt 0.920852 0.374544
vt 0.920712 0.349926
vt 0.932400 0.350135
vt 0.929963 0.578925
vt 0.929910 0.604098
vt 0.922961 0.603389
vt 0.239580 0.706231
vt 0.244468 0.705797
vt 0.245544 0.717271
vt 0.229927 0.697556
vt 0.238389 0.696283
vt 0.234181 0.703616
vt 0.220973 0.693351
vt 0.237334 0.689539
vt 0.911753 0.026363
vt 0.910228 0.043287
vt 0.906195 0.042648
vt 0.413571 0.722598
vt 0.379799 0.731987
vt 0.370219 0.713961
vt 0.366671 0.713843
vt 0.365844 0.712152
vt 0.082083 0.517330
vt 0.074100 0.517866
vt 0.076537 0.512789
vt 0.060678 0.493896
vt 0.069455 0.498597
vt 0.066708 0.500829
vt 0.076372 0.498512
vt 0.075206 0.492966
vt 0.083092 0.492278
vt 0.079293 0.510555
vt 0.080802 0.507357
vt 0.082573 0.505171
vt 0.053580 0.545845
vt 0.032334 0.485279
vt 0.268466 0.841840
vt 0.277731 0.834255
vt 0.277849 0.867912
vt 0.267828 0.869142
vt 0.528662 0.862785
vt 0.536669 0.868881
vt 0.522481 0.873940
vt 0.439521 0.342232
vt 0.441221 0.362836
vt 0.432730 0.362463
vt 0.118404 0.699776
vt 0.117193 0.640131
vt 0.142301 0.640809
vt 0.142338 0.700058
vt 0.765225 0.652598
vt 0.752299 0.666909
vt 0.718025 0.661397
vt 0.504286 0.135126
vt 0.504491 0.103780
vt 0.516675 0.102789
vt 0.516627 0.153566
vt 0.750589 0.634071
vt 0.784985 0.630400
vt 0.780706 0.645281
vt 0.771107 0.322334
vt 0.767385 0.317699
vt 0.771107 0.313639
vt 0.750561 0.161137
vt 0.740908 0.151359
vt 0.759840 0.151281
vt 0.783888 0.157834
vt 0.774004 0.161626
vt 0.741247 0.605610
vt 0.740397 0.603323
vt 0.776120 0.601395
vt 0.549673 0.847898
vt 0.543056 0.842317
vt 0.553282 0.830284
vt 0.770145 0.134763
vt 0.758207 0.134342
vt 0.470567 0.468115
vt 0.471891 0.512942
vt 0.360384 0.031653
vt 0.386064 0.016467
vt 0.386807 0.019806
vt 0.460040 0.378025
vt 0.466647 0.375015
vt 0.472101 0.385654
vt 0.466320 0.390237
vt 0.472774 0.324842
vt 0.477691 0.328618
vt 0.470770 0.337129
vt 0.898822 0.970747
vt 0.905294 0.966686
vt 0.905294 0.984870
vt 0.982914 0.864459
vt 0.976724 0.864220
vt 0.982914 0.848356
vt 0.496960 0.095883
vt 0.477985 0.087394
vt 0.482386 0.081108
vt 0.502618 0.089134
vt 0.517219 0.091268
vt 0.504449 0.097454
vt 0.467796 0.077343
vt 0.461499 0.063292
vt 0.468227 0.060402
vt 0.459227 0.047624
vt 0.461120 0.032685
vt 0.467864 0.033736
vt 0.466352 0.046898
vt 0.719078 0.084466
vt 0.723046 0.133767
vt 0.709656 0.123554
vt 0.432213 0.027581
vt 0.439090 0.045716
vt 0.426388 0.041220
vt 0.351836 0.081246
vt 0.354753 0.080577
vt 0.352945 0.125951
vt 0.455915 0.314470
vt 0.454131 0.342066
vt 0.415961 0.039032
vt 0.415788 0.029996
vt 0.352934 0.068982
vt 0.356644 0.073057
vt 0.368419 0.029953
vt 0.386079 0.023524
vt 0.384127 0.038256
vt 0.364610 0.046580
vt 0.712601 0.687302
vt 0.678507 0.688199
vt 0.678351 0.663066
vt 0.946517 0.572032
vt 0.946392 0.620904
vt 0.943343 0.619833
vt 0.946508 0.536607
vt 0.943284 0.536458
vt 0.943184 0.491157
vt 0.924908 0.811508
vt 0.915632 0.811585
vt 0.431680 0.010722
vt 0.447366 0.008515
vt 0.456011 0.032512
vt 0.960960 0.914911
vt 0.954500 0.917151
vt 0.955035 0.868678
vt 0.023363 0.925317
vt 0.027833 0.910293
vt 0.030452 0.911451
vt 0.026011 0.923938
vt 0.612570 0.768053
vt 0.612216 0.816528
vt 0.609691 0.804788
vt 0.594068 0.806256
vt 0.593854 0.817870
vt 0.931525 0.429384
vt 0.920033 0.427372
vt 0.920479 0.415436
vt 0.066235 0.750894
vt 0.068445 0.785022
vt 0.060040 0.777021
vt 0.009878 0.707053
vt 0.014052 0.720880
vt 0.009515 0.724554
vt 0.464915 0.015327
vt 0.962959 0.324189
vt 0.968242 0.324797
vt 0.932575 0.375256
vt 0.932393 0.400043
vt 0.929534 0.628968
vt 0.877143 0.488351
vt 0.879250 0.497776
vt 0.872520 0.498309
vt 0.557863 0.866599
vt 0.549717 0.860191
vt 0.553793 0.857036
vt 0.237771 0.840229
vt 0.239054 0.830970
vt 0.243990 0.831582
vt 0.222042 0.828085
vt 0.224151 0.828443
vt 0.223202 0.837404
vt 0.560156 0.845726
vt 0.559015 0.834778
vt 0.777123 0.624953
vt 0.744041 0.615247
vt 0.790605 0.605299
vt 0.789820 0.606977
vt 0.786355 0.607059
vt 0.068534 0.698668
vt 0.067435 0.671710
vt 0.075405 0.672107
vt 0.089627 0.672890
vt 0.095911 0.699506
vt 0.076618 0.699060
vt 0.088821 0.648429
vt 0.080050 0.653117
vt 0.076605 0.652331
vt 0.074303 0.647623
vt 0.070335 0.655273
vt 0.068757 0.658407
vt 0.066948 0.659757
vt 0.094098 0.658267
vt 0.897200 0.518037
vt 0.897682 0.468908
vt 0.911145 0.468228
vt 0.277849 0.901175
vt 0.268559 0.896040
vt 0.744265 0.236567
vt 0.743153 0.177867
vt 0.756974 0.178106
vt 0.727320 0.237429
vt 0.758782 0.296728
vt 0.744971 0.297139
vt 0.727840 0.305961
vt 0.707955 0.304846
vt 0.991270 0.839333
vt 0.991270 0.787694
vt 0.992801 0.787699
vt 0.992817 0.839332
vt 0.394251 0.981361
vt 0.404152 0.965974
vt 0.404152 0.987908
vt 0.999058 0.118461
vt 0.999058 0.165489
vt 0.997511 0.165460
vt 0.984005 0.246096
vt 0.984005 0.273986
vt 0.973194 0.270537
vt 0.973191 0.244500
vt 0.993205 0.578730
vt 0.993205 0.518621
vt 0.994755 0.528461
vt 0.648024 0.982021
vt 0.648024 0.954133
vt 0.657967 0.955731
vt 0.657985 0.982165
vt 0.510774 0.996283
vt 0.510773 0.957265
vt 0.512322 0.946870
vt 0.993806 0.757537
vt 0.993836 0.731941
vt 0.995103 0.732342
vt 0.183410 0.648879
vt 0.183177 0.700382
vt 0.181660 0.700389
vt 0.517133 0.652231
vt 0.516838 0.701897
vt 0.515321 0.701902
vt 0.995612 0.440838
vt 0.997141 0.441248
vt 0.997141 0.466445
vt 0.999346 0.013165
vt 0.999346 0.036273
vt 0.995313 0.034871
vt 0.726904 0.823994
vt 0.734690 0.826262
vt 0.730821 0.865073
vt 0.751106 0.867070
vt 0.220973 0.907334
vt 0.221032 0.890836
vt 0.263192 0.896110
vt 0.264600 0.859102
vt 0.264170 0.872319
vt 0.221034 0.865733
vt 0.153773 0.795771
vt 0.171765 0.793194
vt 0.162769 0.836418
vt 0.139277 0.836399
vt 0.139277 0.801612
vt 0.498239 0.907102
vt 0.512732 0.913415
vt 0.512732 0.946870
vt 0.488545 0.944948
vt 0.140678 0.887475
vt 0.140665 0.860584
vt 0.182886 0.868114
vt 0.181848 0.843969
vt 0.182375 0.855029
vt 0.103673 0.947170
vt 0.082798 0.946892
vt 0.086854 0.907690
vt 0.097922 0.907024
vt 0.106053 0.907001
vt 0.846702 0.768355
vt 0.867152 0.778571
vt 0.858912 0.848036
vt 0.835073 0.856522
vt 0.877470 0.695955
vt 0.867578 0.758384
vt 0.846757 0.764748
vt 0.835073 0.765695
vt 0.835073 0.679640
vt 0.858199 0.683316
vt 0.149291 0.347097
vt 0.149274 0.277649
vt 0.178895 0.324687
vt 0.973456 0.754507
vt 0.962866 0.759756
vt 0.962866 0.724621
vt 0.149261 0.024199
vt 0.172240 0.010971
vt 0.175574 0.016802
vt 0.149233 0.114902
vt 0.091885 0.114882
vt 0.091902 0.177327
vt 0.503616 0.663429
vt 0.496763 0.676977
vt 0.487799 0.676830
vt 0.494652 0.663283
vt 0.938657 0.552073
vt 0.930195 0.556437
vt 0.930753 0.539158
vt 0.993507 0.666360
vt 0.995030 0.666266
vt 0.995030 0.716758
vt 0.955086 0.111899
vt 0.966492 0.111899
vt 0.955443 0.130287
vt 0.729494 0.955209
vt 0.740175 0.954167
vt 0.740175 0.979908
vt 0.729494 0.982782
vt 0.997297 0.353715
vt 0.995760 0.351385
vt 0.995760 0.325122
vt 0.997297 0.325062
vt 0.997628 0.324851
vt 0.996090 0.324909
vt 0.996085 0.273907
vt 0.376300 0.985594
vt 0.366431 0.985250
vt 0.366455 0.959115
vt 0.376300 0.958023
vt 0.031984 0.951128
vt 0.033527 0.961261
vt 0.033526 0.999573
vt 0.967191 0.723778
vt 0.965631 0.723933
vt 0.965631 0.709490
vt 0.219115 0.838228
vt 0.220621 0.837765
vt 0.220922 0.887905
vt 0.201831 0.959226
vt 0.201873 0.932914
vt 0.203162 0.933561
vt 0.295842 0.994925
vt 0.292091 0.996022
vt 0.292091 0.973301
vt 0.033822 0.946680
vt 0.034614 0.906977
vt 0.041640 0.946803
vt 0.054994 0.907400
vt 0.767166 0.891583
vt 0.809344 0.886263
vt 0.809287 0.902747
vt 0.765761 0.854576
vt 0.809344 0.861160
vt 0.766225 0.867793
vt 0.514415 0.899593
vt 0.555408 0.904874
vt 0.512879 0.917801
vt 0.555981 0.925910
vt 0.140595 0.947243
vt 0.150296 0.906645
vt 0.159990 0.946712
vt 0.174483 0.908564
vt 0.279079 0.903299
vt 0.321298 0.895823
vt 0.321228 0.922713
vt 0.279585 0.890215
vt 0.280076 0.879155
vt 0.916126 0.909290
vt 0.910564 0.869134
vt 0.931381 0.870714
vt 0.927198 0.910720
vt 0.935301 0.912405
vt 0.885531 0.097365
vt 0.897162 0.184483
vt 0.873320 0.175728
vt 0.865079 0.107106
vt 0.458859 0.886938
vt 0.438000 0.880431
vt 0.428090 0.818875
vt 0.447396 0.806677
vt 0.004979 0.324687
vt 0.034577 0.277649
vt 0.034594 0.347097
vt 0.004875 0.125738
vt 0.034536 0.114902
vt 0.034553 0.177327
vt 0.004584 0.177327
vt 0.974530 0.550873
vt 0.963940 0.580762
vt 0.963940 0.545627
vt -0.000000 0.114932
vt 0.034564 0.024199
vt 0.008271 0.016802
vt 0.011613 0.010971
vt 0.034618 0.433008
vt 0.015152 0.450840
vt 0.009384 0.440874
vt 0.091912 0.022353
vt 0.091943 0.347097
vt 0.091967 0.433520
vt 0.058802 0.472287
vt 0.033608 0.466209
vt 0.071030 -0.000000
vt 0.028215 0.003567
vt 0.480886 0.732290
vt 0.489849 0.732436
vt 0.492457 0.771548
vt 0.938398 0.649336
vt 0.930195 0.657880
vt 0.929963 0.607825
vt 0.938060 0.607518
vt 0.962468 0.916993
vt 0.969898 0.928512
vt 0.961393 0.929061
vt 0.158830 0.947243
vt 0.173707 0.947243
vt 0.171577 0.972971
vt 0.853806 0.337730
vt 0.853806 0.261106
vt 0.892097 0.277634
vt 0.612607 0.669348
vt 0.644674 0.682343
vt 0.644674 0.817422
vt 0.612607 0.833469
vt 0.312228 0.929127
vt 0.312228 0.964133
vt 0.296405 0.964006
vt 0.296091 0.928943
vt 0.919309 0.184573
vt 0.934964 0.184483
vt 0.934964 0.304690
vt 0.919308 0.304781
vt 0.892097 0.240970
vt 0.853806 0.184483
vt 0.835555 0.540855
vt 0.802874 0.524402
vt 0.802874 0.392212
vt 0.835555 0.380244
vt 0.947815 0.399241
vt 0.963648 0.400137
vt 0.963648 0.434499
vt 0.609006 0.906088
vt 0.609006 0.941405
vt 0.594047 0.941376
vt 0.594047 0.906059
vt 0.919927 0.659377
vt 0.904966 0.523196
vt 0.919927 0.535603
vt 0.765997 0.301278
vt 0.780843 0.313326
vt 0.765997 0.313639
vt 0.627593 0.943373
vt 0.612606 0.943214
vt 0.612606 0.908454
vt 0.627593 0.908612
vt 0.835555 0.508000
vt 0.835555 0.380254
vt 0.870828 0.380244
vt 0.870828 0.507990
vt 0.796125 0.902747
vt 0.796125 0.941125
vt 0.774344 0.941082
vt 0.774344 0.902801
vt 0.845328 0.231947
vt 0.823546 0.094932
vt 0.845328 0.107542
vt 0.817945 0.940752
vt 0.796125 0.940521
vt 0.817945 0.903073
vt 0.726904 0.695597
vt 0.765236 0.695586
vt 0.765236 0.823983
vt 0.667277 0.649649
vt 0.674095 0.640590
vt 0.678006 0.656388
vt 0.938565 0.820392
vt 0.953906 0.821615
vt 0.953028 0.840966
vt 0.938568 0.843507
vt 0.668728 0.595114
vt 0.634973 0.597814
vt 0.632642 0.518596
vt 0.664764 0.530808
vt 0.652584 0.518468
vt 0.516253 0.525473
vt 0.492568 0.538859
vt 0.492073 0.484881
vt 0.516253 0.484870
vt 0.518768 0.130023
vt 0.531337 0.176654
vt 0.517967 0.165450
vt 0.517594 0.188492
vt 0.604660 0.255606
vt 0.604659 0.255826
vt 0.517219 0.238159
vt 0.528770 0.328747
vt 0.518218 0.315316
vt 0.604658 0.256170
vt 0.942234 -0.000000
vt 0.957618 0.003451
vt 0.957147 0.029397
vt 0.921806 0.025884
vt 0.940866 0.034871
vt 0.942234 0.058177
vt 0.974530 0.547442
vt 0.984272 0.545627
vt 0.984272 0.573631
vt 0.658853 0.612840
vt 0.671204 0.609281
vt 0.986375 0.704614
vt 0.991946 0.698121
vt 0.991946 0.725470
vt 0.629720 0.431126
vt 0.650629 0.406341
vt 0.660641 0.436264
vt 0.662631 0.482565
vt 0.498577 0.555605
vt 0.495249 0.551346
vt 0.872875 0.964797
vt 0.884036 0.971632
vt 0.872875 0.979690
vt 0.535375 0.366114
vt 0.523916 0.354348
vt 0.548885 0.373039
vt 0.666539 0.569082
vt 0.605252 0.092112
vt 0.534063 0.030020
vt 0.605564 -0.000000
vt 0.520801 0.078559
vt 0.532418 0.061133
vt 0.605252 0.092340
vt 0.604658 0.256276
vt 0.604308 0.380244
vt 0.810995 0.885075
vt 0.830755 0.891177
vt 0.834692 0.900994
vt 0.835065 0.854327
vt 0.828931 0.881867
vt 0.551085 0.521189
vt 0.553807 0.600394
vt 0.519856 0.599846
vt 0.518313 0.632088
vt 0.518259 0.614142
vt 0.530860 0.616909
vt 0.548399 0.433711
vt 0.589059 0.432419
vt 0.591863 0.519893
vt 0.594390 0.599104
vt 0.535375 0.383553
vt 0.587368 0.380333
vt 0.691634 0.130935
vt 0.678685 0.177431
vt 0.605250 0.092614
vt 0.692366 0.189414
vt 0.692366 0.239083
vt 0.690781 0.316226
vt 0.680147 0.329545
vt 0.670286 0.004058
vt 0.676887 0.030773
vt 0.963940 0.564526
vt 0.963940 0.589933
vt 0.952994 0.586111
vt 0.961983 0.442816
vt 0.965259 0.472123
vt 0.957733 0.465101
vt 0.327213 0.802871
vt 0.328256 0.778836
vt 0.347840 0.767854
vt 0.987662 0.157295
vt 0.993238 0.131835
vt 0.993238 0.164169
vt 0.517797 0.440805
vt 0.525836 0.410308
vt 0.518797 0.487137
vt 0.963131 0.618945
vt 0.959679 0.636333
vt 0.952994 0.620938
vt 0.954393 0.609395
vt 0.673328 0.366842
vt 0.659773 0.373624
vt 0.520420 0.573727
vt 0.519754 0.535418
vt 0.678501 0.061904
vt 0.689989 0.079452
vt 0.643433 0.377843
vt 0.059870 0.518759
vt 0.066821 0.510709
vt 0.069617 0.512874
vt 0.880458 0.805505
vt 0.878424 0.805511
vt 0.880154 0.768010
vt 0.919927 0.671473
vt 0.904966 0.671163
vt 0.919927 0.523506
vt 0.845320 0.244129
vt 0.823546 0.243653
vt 0.845320 0.095408
vt 0.953678 0.510575
vt 0.964950 0.484905
vt 0.964950 0.524871
vt 0.765997 0.174799
vt 0.780843 0.162124
vt 0.160044 0.651777
vt 0.160044 0.639353
vt 0.181660 0.638897
vt 0.181660 0.790869
vt 0.160044 0.778901
vt 0.692167 0.166369
vt 0.975914 0.469627
vt 0.975274 0.475859
vt 0.965976 0.473633
vt 0.765289 0.985492
vt 0.765236 0.977755
vt 0.774379 0.978336
vt 0.966535 0.448555
vt 0.965976 0.443049
vt 0.975274 0.440838
vt 0.761855 0.927151
vt 0.761866 0.933766
vt 0.744719 0.933603
vt 0.957665 0.056072
vt 0.957618 0.049315
vt 0.974709 0.048526
vt 0.828037 0.716372
vt 0.831071 0.725748
vt 0.825936 0.726564
vt 0.772112 0.716325
vt 0.777883 0.708356
vt 0.781697 0.712098
vt 0.795165 0.699532
vt 0.804983 0.699540
vt 0.804238 0.704765
vt 0.548622 0.925910
vt 0.548702 0.937537
vt 0.530797 0.937679
vt 0.935469 0.280469
vt 0.934964 0.269368
vt 0.952695 0.269347
vt 0.088072 0.958553
vt 0.088072 0.947170
vt 0.105982 0.947190
vt 0.339207 0.954154
vt 0.339227 0.965737
vt 0.321318 0.965777
vt 0.321298 0.954194
vt 0.952313 0.205958
vt 0.934964 0.205643
vt 0.935856 0.194350
vt 0.259425 0.960588
vt 0.241520 0.960489
vt 0.241443 0.950721
vt 0.953201 0.280449
vt 0.954163 0.289923
vt 0.935469 0.246680
vt 0.953201 0.246660
vt 0.952695 0.257704
vt 0.459811 0.913664
vt 0.454411 0.923053
vt 0.439084 0.908246
vt 0.977504 0.934888
vt 0.977527 0.941589
vt 0.968437 0.942725
vt 0.979363 0.027299
vt 0.978376 0.033033
vt 0.970135 0.034934
vt 0.744673 0.946685
vt 0.744653 0.951724
vt 0.727501 0.954167
vt 0.447466 0.976514
vt 0.439984 0.976698
vt 0.440932 0.959577
vt 0.447466 0.959416
vt 0.981175 0.492251
vt 0.977718 0.493465
vt 0.976757 0.483992
vt 0.842065 0.303750
vt 0.844588 0.295956
vt 0.849723 0.296798
vt 0.793025 0.287715
vt 0.793025 0.295912
vt 0.787730 0.296746
vt 0.787730 0.286890
vt 0.790764 0.277519
vt 0.795549 0.279921
vt 0.330757 0.819517
vt 0.334611 0.815764
vt 0.340304 0.823766
vt 0.307878 0.806783
vt 0.308522 0.812047
vt 0.300861 0.814537
vt 0.282146 0.842671
vt 0.287119 0.841896
vt 0.289608 0.849703
vt 0.300861 0.861210
vt 0.298667 0.865892
vt 0.290831 0.860058
vt 0.307878 0.868987
vt 0.308522 0.863784
vt 0.316578 0.863828
vt 0.337982 0.842174
vt 0.343297 0.843004
vt 0.340304 0.852358
vt 0.569544 0.948501
vt 0.587450 0.948600
vt 0.587527 0.958368
vt 0.569622 0.958269
vt 0.956104 0.184463
vt 0.938373 0.184483
vt 0.937411 0.175009
vt 0.955143 0.174989
vt 0.870357 0.373233
vt 0.861004 0.378654
vt 0.855028 0.358428
vt 0.965071 0.663147
vt 0.955582 0.664325
vt 0.955568 0.659202
vt 0.818733 0.969541
vt 0.819069 0.962192
vt 0.827619 0.961666
vt 0.818733 0.947056
vt 0.818093 0.940752
vt 0.826767 0.942943
vt 0.033868 0.990673
vt 0.033822 0.983917
vt 0.042827 0.983191
vt 0.710292 0.941310
vt 0.710280 0.948396
vt 0.693103 0.946702
vt 0.710257 0.954167
vt 0.693083 0.951742
vt 0.934684 0.926535
vt 0.934684 0.933285
vt 0.918827 0.933258
vt 0.959234 0.753494
vt 0.955591 0.753425
vt 0.956043 0.742106
vt 0.669518 0.820463
vt 0.667028 0.828243
vt 0.662055 0.827360
vt 0.665048 0.818007
vt 0.680770 0.809079
vt 0.674253 0.813860
vt 0.670741 0.810067
vt 0.697473 0.801378
vt 0.706685 0.804472
vt 0.704149 0.809206
vt 0.706684 0.860587
vt 0.697473 0.863581
vt 0.696488 0.858370
vt 0.688432 0.858326
vt 0.678576 0.860434
vt 0.670741 0.854600
vt 0.674253 0.850900
vt 0.669518 0.844245
vt 0.568214 0.956948
vt 0.568214 0.968196
vt 0.550309 0.968097
vt 0.805050 0.674602
vt 0.805050 0.662988
vt 0.822399 0.663304
vt 0.437456 0.959416
vt 0.437436 0.947833
vt 0.455345 0.947793
vt 0.455365 0.959376
vt 0.478844 0.958253
vt 0.478844 0.946870
vt 0.496753 0.946889
vt 0.953032 0.900731
vt 0.935301 0.900751
vt 0.935301 0.889108
vt 0.296091 0.951438
vt 0.278186 0.951580
vt 0.278186 0.940712
vt 0.823292 0.685715
vt 0.805942 0.685400
vt 0.898822 0.843058
vt 0.904146 0.833660
vt 0.919924 0.848506
vt 0.979562 0.883121
vt 0.979562 0.889852
vt 0.970502 0.890661
vt 0.727489 0.948396
vt 0.727466 0.954167
vt 0.710292 0.951742
vt 0.278106 0.960627
vt 0.284642 0.960715
vt 0.285591 0.977955
vt 0.917980 0.968417
vt 0.917927 0.960680
vt 0.935154 0.961196
vt 0.899381 0.920132
vt 0.898822 0.914626
vt 0.916126 0.912405
vt 0.988887 0.176489
vt 0.992172 0.177187
vt 0.992243 0.187913
vt 0.381035 0.812524
vt 0.373374 0.815014
vt 0.371180 0.810254
vt 0.380391 0.807260
vt 0.390077 0.807313
vt 0.389091 0.812568
vt 0.407124 0.816241
vt 0.412817 0.824243
vt 0.408005 0.826649
vt 0.410494 0.842651
vt 0.410494 0.834456
vt 0.415810 0.833629
vt 0.938731 0.724621
vt 0.937769 0.715147
vt 0.955501 0.715127
vt 0.937551 0.451020
vt 0.936658 0.462313
vt 0.919308 0.461997
vt 0.459811 0.958926
vt 0.459811 0.947543
vt 0.477720 0.947563
vt 0.823412 0.788874
vt 0.828037 0.786480
vt 0.831071 0.795856
vt 0.812005 0.777414
vt 0.814322 0.772702
vt 0.822265 0.778502
vt 0.804238 0.774874
vt 0.781697 0.782207
vt 0.777883 0.778465
vt 0.785827 0.772678
vt 0.530717 0.948405
vt 0.512812 0.948548
vt 0.512812 0.937679
vt 0.530717 0.937537
vt 0.921899 0.440838
vt 0.939249 0.441153
vt 0.394270 0.935071
vt 0.412179 0.935031
vt 0.412160 0.943703
vt 0.955501 0.681337
vt 0.954995 0.692382
vt 0.937263 0.692402
vt 0.897162 0.169703
vt 0.897162 0.158862
vt 0.918264 0.164310
vt 0.922358 0.184462
vt 0.911709 0.184483
vt 0.541981 0.688867
vt 0.561250 0.682453
vt 0.561479 0.741738
vt 0.517684 0.686586
vt 0.542558 0.677291
vt 0.541998 0.800080
vt 0.542035 0.743862
vt 0.713783 0.391075
vt 0.708860 0.403262
vt 0.684919 0.406986
vt 0.757078 0.386155
vt 0.741761 0.399004
vt 0.299876 0.796766
vt 0.278150 0.802871
vt 0.278106 0.755387
vt 0.303698 0.701174
vt 0.327213 0.697126
vt 0.326902 0.735441
vt 0.830198 0.638306
vt 0.805050 0.641828
vt 0.806222 0.606320
vt 0.831218 0.608088
vt 0.854104 0.609673
vt 0.854104 0.634922
vt 0.220973 0.933698
vt 0.234475 0.914995
vt 0.241443 0.936652
vt 0.239157 0.948486
vt 0.236661 0.953443
vt 0.302884 0.745728
vt 0.322947 0.761469
vt 0.738185 0.511669
vt 0.736386 0.463015
vt 0.764094 0.463210
vt 0.684919 0.517874
vt 0.708860 0.522133
vt 0.713783 0.534221
vt 0.703721 0.462717
vt 0.706370 0.506349
vt 0.680614 0.501557
vt 0.791744 0.517326
vt 0.765095 0.514910
vt 0.769448 0.529531
vt 0.797574 0.534008
vt 0.775531 0.537393
vt 0.726904 0.750576
vt 0.726870 0.797413
vt 0.705236 0.792429
vt 0.678310 0.733207
vt 0.678006 0.695586
vt 0.701420 0.698442
vt 0.829408 0.015308
vt 0.836654 0.006785
vt 0.848466 0.014183
vt 0.702227 0.742199
vt 0.682246 0.758611
vt 0.339227 0.945594
vt 0.346049 0.950588
vt 0.339227 0.957351
vt 0.948816 0.782031
vt 0.947778 0.794209
vt 0.941956 0.785081
vt 0.730726 0.382514
s 1
usemtl material_0.001
f 2/1/1 62/2/2 70/3/3
f 16/4/4 3/5/5 37/6/6
f 5/7/7 312/8/8 4/9/9
f 5/10/7 27/11/10 71/12/11
f 31/13/12 7/14/13 29/15/14
f 21/16/15 6/17/16 190/18/17
f 190/18/17 28/19/18 21/16/15
f 31/13/12 73/20/19 72/21/20
f 72/21/20 7/22/13 31/13/12
f 192/23/21 8/24/22 19/25/23
f 175/26/24 4/27/9 78/28/25
f 32/29/26 34/30/27 72/31/20
f 15/32/28 70/33/3 63/34/29
f 48/35/30 129/36/31 95/37/32
f 199/38/33 58/39/34 9/40/35
f 9/40/35 38/41/36 199/38/33
f 13/42/37 97/43/38 305/44/39
f 305/44/39 278/45/40 13/42/37
f 14/46/41 97/47/38 13/48/37
f 14/49/41 10/50/42 418/51/43
f 418/51/43 131/52/44 14/49/41
f 39/53/45 11/54/46 45/55/47
f 174/56/48 24/57/49 33/58/50
f 13/42/37 278/45/40 12/59/51
f 3/60/5 16/61/4 51/62/52
f 51/62/52 179/63/53 3/60/5
f 3/64/5 17/65/54 20/66/55
f 21/67/15 20/68/55 17/69/54
f 17/69/54 18/70/56 21/67/15
f 18/71/56 6/72/16 21/73/15
f 183/74/57 22/75/58 28/76/18
f 190/77/17 183/78/57 28/79/18
f 183/80/57 31/81/59 22/82/58
f 31/83/59 183/84/57 23/85/60
f 23/85/60 30/86/61 31/83/59
f 312/8/8 5/7/7 76/87/62
f 40/88/63 8/89/22 192/90/21
f 32/91/26 30/92/61 39/93/45
f 36/94/64 53/95/65 44/96/66
f 37/6/6 3/97/5 20/98/55
f 39/99/45 25/100/67 32/91/26
f 44/96/66 53/95/65 26/101/68
f 26/101/68 45/102/47 44/96/66
f 45/103/47 26/104/68 25/105/67
f 25/105/67 39/106/45 45/103/47
f 7/107/13 35/108/69 29/109/14
f 42/110/70 49/111/71 157/112/72
f 157/112/72 41/113/73 42/110/70
f 30/114/61 43/115/74 39/116/45
f 192/117/21 46/118/75 231/119/76
f 192/120/21 19/121/23 47/122/77
f 192/123/21 129/124/78 40/125/63
f 64/126/79 1/127/80 50/128/81
f 57/129/82 24/130/49 54/131/83
f 24/57/49 174/56/48 54/132/83
f 175/133/24 174/134/48 33/135/50
f 175/133/24 33/136/50 4/137/9
f 43/115/74 30/114/61 23/138/60
f 62/139/2 61/140/84 60/141/85
f 149/142/86 63/143/29 145/144/87
f 94/145/88 314/146/89 66/147/90
f 64/148/79 67/149/91 1/150/80
f 65/151/92 63/152/29 149/153/86
f 64/154/93 63/155/29 65/156/92
f 15/157/28 63/158/29 64/154/93
f 68/159/94 67/160/91 64/161/79
f 34/162/27 7/22/13 72/163/20
f 72/164/20 73/165/19 32/166/26
f 4/167/9 312/168/8 74/169/95
f 71/170/11 75/171/96 76/172/62
f 75/173/96 71/174/11 78/175/25
f 74/176/95 75/177/96 78/178/25
f 78/178/25 4/167/9 74/176/95
f 76/179/62 5/10/7 71/180/11
f 69/181/97 59/182/98 79/183/99
f 79/183/99 80/184/100 69/181/97
f 99/185/101 146/186/102 81/187/101
f 121/188/103 134/189/104 87/190/105
f 90/191/106 118/192/107 111/193/108
f 111/193/108 110/194/109 90/191/106
f 108/195/110 115/196/111 117/197/112
f 82/198/113 106/199/114 83/200/115
f 83/200/115 135/201/116 82/198/113
f 108/195/110 117/202/112 151/203/117
f 151/203/117 112/204/118 108/195/110
f 105/205/119 98/206/120 86/207/121
f 93/208/122 143/209/123 96/210/124
f 120/211/125 93/212/122 96/210/124
f 151/213/117 91/214/126 84/215/127
f 148/216/128 100/217/129 92/218/130
f 199/38/33 96/219/124 143/220/123
f 143/220/123 58/39/34 199/38/33
f 14/46/41 131/221/44 97/222/38
f 89/223/131 122/224/132 126/225/133
f 134/226/104 133/227/134 101/228/135
f 101/228/135 87/229/105 134/226/104
f 109/230/136 102/231/137 134/232/104
f 82/233/113 135/234/116 102/235/137
f 102/236/137 109/237/136 82/238/113
f 106/239/114 107/240/138 136/241/139
f 136/241/139 103/242/140 106/239/114
f 103/243/140 83/200/115 106/244/114
f 107/245/138 108/246/141 136/247/139
f 108/248/141 113/249/142 137/250/143
f 137/250/143 136/251/139 108/248/141
f 58/252/34 143/253/123 144/254/144
f 126/255/133 113/256/142 84/257/127
f 127/258/145 141/259/146 138/260/147
f 109/261/136 134/262/104 121/188/103
f 84/257/127 88/263/148 126/264/133
f 127/258/145 89/265/131 141/266/146
f 89/267/131 126/268/133 88/269/148
f 88/269/148 141/270/146 89/267/131
f 115/271/111 116/272/149 117/273/112
f 138/274/147 114/275/150 119/276/151
f 138/277/147 119/278/151 127/279/145
f 125/280/152 124/281/153 157/112/72
f 157/112/72 49/111/71 125/280/152
f 126/282/133 142/283/154 113/284/142
f 86/285/121 98/286/120 231/287/76
f 123/288/155 98/289/156 104/290/157
f 104/290/157 85/291/158 123/288/155
f 129/292/31 98/293/156 95/294/32
f 128/295/159 95/294/32 98/293/156
f 98/293/156 123/296/155 128/295/159
f 315/297/160 132/298/161 94/299/88
f 155/300/162 90/301/106 140/302/163
f 208/303/164 209/304/165 114/305/166
f 137/306/143 113/284/142 142/283/154
f 145/144/87 147/307/167 149/308/86
f 94/145/88 66/309/90 315/310/160
f 1/150/80 67/149/91 230/311/168
f 145/312/169 60/313/170 146/314/171
f 147/315/167 100/316/129 148/317/128
f 148/318/128 149/319/86 147/320/167
f 230/321/168 150/322/172 148/323/128
f 230/324/168 148/216/128 92/325/130
f 151/326/117 117/202/112 91/327/126
f 84/328/127 112/329/118 151/330/117
f 90/331/106 155/332/162 153/333/173
f 152/334/174 90/335/106 153/336/173
f 118/337/107 152/338/174 154/339/175
f 154/339/175 155/340/162 118/337/107
f 154/341/175 153/342/173 155/343/162
f 118/344/107 90/335/106 152/334/174
f 130/345/176 48/346/30 95/347/32
f 79/183/99 144/348/177 80/349/100
f 157/350/178 159/351/179 156/352/180
f 159/351/179 157/350/178 158/353/181
f 162/354/182 161/355/183 157/350/178
f 158/353/181 161/356/183 160/357/184
f 158/353/181 157/350/178 161/355/183
f 55/358/185 32/359/26 164/360/186
f 164/360/186 163/361/187 55/358/185
f 32/362/26 52/363/188 164/364/186
f 53/365/65 36/366/64 170/367/189
f 36/368/64 55/369/185 163/370/187
f 163/370/187 170/371/189 36/368/64
f 165/372/190 166/373/191 167/374/192
f 166/375/191 57/376/82 173/377/193
f 173/377/193 167/378/192 166/375/191
f 54/379/83 173/380/193 57/381/82
f 171/382/194 163/383/187 168/384/195
f 169/385/196 168/386/195 163/387/187
f 167/388/192 172/389/197 165/390/190
f 165/391/198 290/392/199 175/393/24
f 176/394/200 165/395/190 172/396/197
f 179/397/201 50/398/202 178/399/203
f 177/400/204 178/399/203 50/398/202
f 178/401/203 181/402/205 179/403/201
f 180/404/206 179/405/201 181/406/205
f 18/407/207 180/408/206 181/409/205
f 181/409/205 182/410/208 18/411/207
f 183/412/57 190/413/17 185/414/209
f 185/414/209 184/415/210 183/412/57
f 184/416/210 186/417/211 183/418/57
f 23/419/60 183/420/57 186/417/211
f 186/421/211 46/422/75 187/423/212
f 187/424/212 23/425/60 186/421/211
f 46/426/75 186/427/211 184/428/210
f 184/428/210 185/429/209 46/426/75
f 181/430/205 178/431/203 188/432/213
f 188/433/213 182/434/208 181/435/205
f 195/436/214 190/437/17 189/438/215
f 189/439/215 18/440/207 182/441/208
f 46/442/75 192/443/21 191/444/216
f 46/442/75 185/445/209 194/446/217
f 190/447/17 194/446/217 185/445/209
f 196/448/218 197/449/219 198/450/220
f 198/450/220 200/451/221 196/448/218
f 198/452/220 199/453/33 200/454/221
f 201/455/222 84/456/127 139/457/223
f 84/458/127 201/459/222 202/460/224
f 138/461/147 141/462/146 201/463/222
f 201/463/222 139/464/223 138/461/147
f 140/465/225 203/466/226 204/467/227
f 204/467/227 205/468/228 140/465/225
f 205/469/228 204/470/227 211/471/229
f 206/472/230 205/473/231 207/474/232
f 207/474/232 208/475/164 206/472/230
f 208/476/164 207/477/232 214/478/233
f 214/479/233 209/480/165 208/481/164
f 212/482/234 205/483/228 211/484/229
f 213/485/235 205/486/228 212/487/234
f 211/488/229 204/489/227 216/490/236
f 133/491/237 218/492/238 219/493/239
f 219/493/239 218/492/238 217/494/240
f 133/495/237 220/496/241 218/497/238
f 222/498/242 220/499/241 133/500/237
f 135/501/243 221/502/244 222/503/242
f 222/503/242 221/502/244 220/504/241
f 136/505/139 223/506/245 103/507/140
f 103/507/140 223/506/245 224/508/246
f 136/509/139 225/510/247 223/511/245
f 225/510/247 136/512/139 137/513/143
f 105/514/248 226/515/249 225/516/247
f 105/517/248 225/516/247 137/518/143
f 226/519/249 224/520/246 223/521/245
f 223/521/245 225/522/247 226/519/249
f 227/523/250 218/524/238 220/525/241
f 220/525/241 221/526/244 227/523/250
f 228/527/251 190/528/17 221/529/244
f 83/530/115 194/531/217 190/532/17
f 190/532/17 228/533/251 83/530/115
f 228/534/251 221/535/244 135/536/243
f 103/537/140 194/531/217 83/530/115
f 226/538/252 229/539/253 86/540/121
f 227/541/250 230/542/168 313/543/254
f 226/538/252 46/544/75 194/446/217
f 221/529/244 195/545/214 193/546/255
f 193/546/255 227/541/250 221/529/244
f 195/545/214 221/529/244 190/528/17
f 1/547/80 227/541/250 193/546/255
f 227/541/250 1/547/80 230/548/168
f 231/549/76 46/544/75 226/538/252
f 226/538/252 86/550/121 231/549/76
f 198/551/220 197/552/219 232/553/256
f 232/554/256 96/555/124 199/556/33
f 199/556/33 198/557/220 232/554/256
f 430/558/257 96/559/124 232/560/256
f 235/561/258 233/562/258 234/563/258
f 236/564/259 237/565/260 238/566/261
f 239/567/262 241/568/263 243/569/264
f 243/569/264 248/570/265 239/567/262
f 241/571/263 239/572/262 240/573/266
f 240/573/266 242/574/267 241/571/263
f 241/575/263 242/576/267 244/577/268
f 244/577/268 243/578/264 241/575/263
f 247/579/269 245/565/270 246/580/271
f 248/581/265 244/582/268 242/583/267
f 242/583/267 240/584/266 248/581/265
f 243/585/264 244/586/268 248/587/265
f 250/588/272 251/589/273 253/590/274
f 253/590/274 249/591/275 250/588/272
f 254/592/276 250/593/277 249/594/275
f 255/595/278 256/596/279 259/597/280
f 255/598/278 256/599/281 257/600/282
f 257/600/282 254/601/276 255/598/278
f 253/602/274 255/603/278 254/604/276
f 254/604/276 249/605/275 253/602/274
f 262/606/283 263/607/284 260/608/285
f 260/608/285 261/609/286 262/606/283
f 267/610/287 262/611/288 261/612/286
f 266/613/289 268/614/290 269/606/291
f 269/606/291 267/615/287 266/613/289
f 260/397/285 266/616/289 267/617/287
f 267/617/287 261/618/286 260/397/285
f 286/619/292 271/620/293 282/621/294
f 173/622/295 275/623/296 272/624/297
f 272/624/297 273/625/298 173/622/295
f 54/626/299 277/627/300 276/628/301
f 173/629/295 276/628/301 275/630/296
f 279/631/302 278/632/303 305/633/304
f 305/633/304 299/634/305 279/631/302
f 283/635/306 280/636/307 168/637/195
f 167/638/308 281/639/309 284/640/310
f 284/640/310 282/641/294 167/638/308
f 289/642/311 282/643/294 284/644/310
f 168/645/195 280/646/307 285/647/312
f 287/648/313 292/649/314 274/650/315
f 292/651/314 164/652/316 291/653/317
f 271/654/293 277/627/300 54/655/299
f 271/656/293 286/657/292 279/658/302
f 418/659/318 274/660/315 288/661/319
f 276/628/301 418/659/318 288/661/319
f 276/628/301 288/661/319 275/662/296
f 279/631/302 286/663/292 278/664/303
f 282/665/294 289/666/311 286/667/292
f 289/642/311 196/668/320 423/669/321
f 289/642/311 197/670/322 196/668/320
f 276/628/301 173/629/295 54/671/299
f 281/672/309 292/673/314 302/674/323
f 283/675/306 292/676/314 281/677/309
f 281/639/309 167/638/308 280/636/307
f 289/642/311 284/678/310 197/679/322
f 274/680/315 291/681/317 288/682/319
f 274/680/315 292/683/314 291/684/317
f 297/685/324 298/686/325 214/687/233
f 432/688/326 214/689/233 293/690/327
f 297/691/324 418/692/318 276/693/301
f 297/685/324 276/693/301 277/694/300
f 277/694/300 298/686/325 297/685/324
f 297/691/324 307/695/328 418/696/318
f 300/697/329 301/698/330 281/699/309
f 212/700/331 215/701/332 284/640/310
f 284/640/310 281/639/309 212/700/331
f 284/644/310 215/702/332 294/703/333
f 308/704/334 295/705/335 302/674/323
f 304/706/336 301/707/330 303/708/337
f 305/709/304 294/710/333 293/711/327
f 307/712/328 295/713/335 306/714/338
f 293/690/327 214/689/233 298/686/325
f 293/715/327 299/716/305 305/717/304
f 297/691/324 310/718/339 307/719/328
f 297/685/324 296/720/340 310/718/339
f 293/721/327 294/722/333 215/723/332
f 215/723/332 432/724/326 293/721/327
f 294/703/333 309/725/341 232/726/256
f 297/685/324 214/727/233 296/728/340
f 281/672/309 302/674/323 295/705/335
f 281/677/309 295/729/335 300/730/329
f 301/698/330 212/700/331 281/639/309
f 197/679/322 284/678/310 294/703/333
f 294/703/333 232/731/256 197/679/322
f 76/732/62 77/733/342 312/734/8
f 59/735/343 58/736/34 144/737/144
f 254/592/344 258/738/345 257/739/346
f 254/592/276 257/739/347 250/593/277
f 250/593/272 252/740/348 249/594/349
f 267/610/350 270/741/351 269/742/352
f 267/610/287 269/742/353 262/611/288
f 262/611/354 264/743/355 261/612/356
f 310/744/339 295/745/335 307/746/328
f 253/747/274 251/748/273 256/596/279
f 255/595/278 253/747/274 256/596/279
f 260/749/357 265/750/358 263/751/284
f 260/749/285 263/751/359 268/752/290
f 266/753/289 260/749/285 268/752/290
f 283/635/306 281/699/309 280/636/307
f 300/697/329 303/754/337 301/698/330
f 319/755/360 316/756/361 321/757/362
f 318/758/363 319/759/360 320/760/364
f 321/761/362 320/762/364 319/763/360
f 323/764/365 322/765/366 324/766/365
f 320/767/364 323/768/365 324/769/365
f 316/770/367 325/771/368 326/772/369
f 318/773/363 329/774/370 319/775/360
f 329/776/370 316/777/361 319/778/360
f 330/779/371 331/780/372 325/781/373
f 331/782/372 328/783/374 317/784/375
f 328/785/374 332/786/376 318/787/363
f 329/788/370 318/789/363 332/790/376
f 332/790/376 333/791/377 329/788/370
f 333/792/377 327/793/378 329/794/370
f 330/795/371 325/796/373 327/797/378
f 331/782/372 317/798/375 325/799/373
f 328/800/374 318/801/363 317/802/375
f 335/803/379 336/804/379 334/805/379
f 337/806/380 340/807/381 343/808/382
f 341/809/383 343/810/382 340/811/381
f 345/812/384 347/813/385 344/814/386
f 346/815/387 344/816/386 347/817/385
f 347/817/385 342/818/388 346/815/387
f 340/819/389 348/820/390 349/821/391
f 340/822/389 338/823/392 348/824/390
f 342/825/388 341/826/393 350/827/394
f 350/828/394 339/829/395 342/830/388
f 361/831/396 356/832/397 354/833/398
f 351/834/399 356/835/397 358/836/400
f 353/837/401 358/838/402 359/839/403
f 359/840/403 357/841/404 353/842/401
f 357/843/404 359/844/403 360/845/405
f 361/846/396 354/847/398 360/848/405
f 355/849/406 354/850/398 351/851/407
f 351/851/407 348/852/390 355/849/406
f 348/853/390 351/854/407 353/855/408
f 353/855/408 352/856/409 348/853/390
f 363/857/410 364/858/410 362/859/410
f 365/860/411 367/861/411 366/862/411
f 371/863/412 381/864/413 372/865/414
f 381/866/413 370/867/415 372/868/414
f 373/869/416 372/870/414 370/871/415
f 372/872/414 375/873/417 371/874/412
f 375/873/417 377/875/418 371/876/412
f 376/877/419 371/878/412 377/879/418
f 381/880/420 369/881/421 380/882/422
f 368/883/423 374/884/424 378/885/425
f 378/885/425 379/886/426 368/883/423
f 371/887/427 368/888/423 379/889/426
f 379/890/426 369/891/428 371/892/427
f 380/893/429 384/894/430 370/895/415
f 373/896/416 370/895/415 384/894/430
f 384/897/430 378/898/425 373/899/416
f 374/900/424 373/899/416 378/898/425
f 383/901/431 379/902/432 387/903/433
f 388/904/434 386/905/435 383/906/431
f 380/907/429 383/908/431 386/909/435
f 386/909/435 385/910/436 380/907/429
f 384/911/430 380/912/429 385/913/436
f 385/914/436 382/915/437 384/916/430
f 379/917/432 382/918/438 387/919/433
f 383/920/431 387/921/433 388/904/434
f 391/922/439 389/923/439 390/924/439
f 394/925/440 400/926/440 392/927/441
f 395/928/442 396/929/443 397/930/444
f 393/931/445 397/932/444 396/933/443
f 396/934/443 395/935/442 393/936/445
f 397/937/444 393/938/445 395/939/442
f 404/940/446 399/941/447 398/942/448
f 393/943/449 392/944/450 398/945/448
f 398/946/448 399/947/447 393/948/449
f 399/949/447 401/950/451 393/951/449
f 402/952/452 393/953/449 401/954/451
f 403/955/453 405/956/454 407/957/455
f 401/958/456 404/959/457 412/960/458
f 405/961/454 413/962/459 411/963/460
f 409/964/461 404/965/457 406/966/462
f 409/967/461 412/968/458 404/969/457
f 412/968/458 409/967/461 410/970/463
f 410/971/463 408/972/464 412/973/458
f 403/974/453 407/975/455 406/976/462
f 406/976/462 404/977/457 403/974/453
f 412/978/458 413/979/459 401/958/456
f 413/980/459 412/981/458 411/982/460
f 411/983/460 407/984/455 405/985/454
f 414/986/465 415/987/466 416/988/467
f 417/989/468 414/990/465 416/988/467
f 418/991/43 419/992/469 422/993/470
f 420/994/471 419/995/469 418/991/43
f 421/996/472 418/997/43 422/993/470
f 196/998/473 278/999/474 197/1000/219
f 196/998/473 286/1001/475 278/1002/474
f 425/1003/476 172/1004/477 424/1005/478
f 424/1006/478 173/1007/193 54/1008/479
f 427/1009/480 168/1010/481 428/1011/482
f 428/1012/482 56/1013/483 427/1014/480
f 290/1015/199 426/1016/484 282/1017/294
f 282/1018/294 175/1019/24 290/1015/199
f 424/1020/478 54/1008/479 425/1021/476
f 429/1022/485 197/1023/219 278/1024/474
f 232/1025/256 429/1026/485 430/1027/257
f 197/1028/219 429/1029/485 232/1030/256
f 305/1031/39 429/1032/485 278/1024/474
f 429/1033/485 305/1034/39 430/1035/257
f 431/1036/486 211/1037/229 433/1038/487
f 214/1039/488 296/1040/489 431/1041/486
f 141/1042/146 210/1043/490 201/1044/222
f 431/1045/486 433/1046/487 214/1039/488
f 435/1047/491 434/1048/491 436/1049/491
f 311/1050/492 438/1051/492 437/1052/492
f 423/1053/493 286/1001/475 196/998/473
